<svg width="21" height="21" viewBox="0 0 21 21" fill="none" xmlns="http://www.w3.org/2000/svg">
<path d="M9.51058 14.5529C9.45983 14.5035 9.24284 14.3168 9.06434 14.1429C7.94176 13.1235 6.10431 10.4641 5.54346 9.07212C5.45334 8.86073 5.26259 8.32629 5.25034 8.04074C5.25034 7.76712 5.31334 7.50629 5.44109 7.2574C5.61958 6.94713 5.90045 6.69823 6.23206 6.56185C6.46218 6.47406 7.15078 6.33768 7.16303 6.33768C7.91638 6.2013 9.14047 6.12629 10.4932 6.12629C11.782 6.12629 12.9562 6.2013 13.7209 6.31296C13.7332 6.32574 14.5889 6.46212 14.882 6.61129C15.4175 6.88491 15.75 7.41935 15.75 7.9913L15.75 8.04074C15.7369 8.41323 15.4044 9.19657 15.3921 9.19657C14.8304 10.5135 13.0831 13.1116 11.922 14.1557C11.922 14.1557 11.6236 14.4498 11.4373 14.5777C11.1695 14.7771 10.8379 14.876 10.5063 14.876C10.1362 14.876 9.79144 14.7643 9.51058 14.5529Z" fill="#EF3B17"/>
</svg>
