<svg width="24" height="24" viewBox="0 0 24 24" fill="none" xmlns="http://www.w3.org/2000/svg">
<path fill-rule="evenodd" clip-rule="evenodd" d="M12 19C11.4477 19 11 19.4477 11 20C11 20.5523 11.4477 21 12 21H15.2413H15.2413C16.0462 21 16.7106 21 17.2518 20.9558C17.8139 20.9099 18.3306 20.8113 18.8159 20.564C19.5686 20.1805 20.1805 19.5686 20.564 18.816C20.8113 18.3306 20.9098 17.8139 20.9558 17.2518C21 16.7106 21 16.0463 21 15.2413V8.75872V8.7587C21 7.95373 21 7.28937 20.9558 6.74817C20.9098 6.18608 20.8113 5.66937 20.564 5.18404C20.1805 4.43139 19.5686 3.81947 18.8159 3.43597C18.3306 3.18868 17.8139 3.09012 17.2518 3.04419C16.7106 2.99998 16.0462 2.99999 15.2413 3H12C11.4477 3 11 3.44772 11 4C11 4.55229 11.4477 5 12 5L15.2 5C16.0565 5 16.6388 5.00078 17.0889 5.03755C17.5273 5.07337 17.7515 5.1383 17.9079 5.21799C18.2843 5.40973 18.5902 5.71569 18.782 6.09202C18.8617 6.24842 18.9266 6.47262 18.9624 6.91104C18.9992 7.36113 19 7.94342 19 8.8V15.2C19 16.0566 18.9992 16.6389 18.9624 17.089C18.9266 17.5274 18.8617 17.7516 18.782 17.908C18.5902 18.2843 18.2843 18.5903 17.9079 18.782C17.7515 18.8617 17.5273 18.9266 17.0889 18.9624C16.6388 18.9992 16.0565 19 15.2 19L12 19ZM3 12C3 12.5523 3.44772 13 4 13H12.5858L11.2929 14.2929C10.9024 14.6834 10.9024 15.3166 11.2929 15.7071C11.6834 16.0976 12.3166 16.0976 12.7071 15.7071L15.7071 12.7071C16.0976 12.3166 16.0976 11.6834 15.7071 11.2929L12.7071 8.29289C12.3166 7.90237 11.6834 7.90237 11.2929 8.29289C10.9024 8.68342 10.9024 9.31658 11.2929 9.70711L12.5858 11H4C3.44772 11 3 11.4477 3 12Z" fill="#F25722"/>
</svg>
