<svg width="21" height="21" viewBox="0 0 21 21" fill="none" xmlns="http://www.w3.org/2000/svg">
<path d="M11.4874 6.44905C11.5382 6.49849 11.7552 6.68516 11.9337 6.85905C13.0562 7.8785 14.8937 10.5379 15.4545 11.9299C15.5447 12.1413 15.7354 12.6757 15.7477 12.9613C15.7477 13.2349 15.6847 13.4957 15.5569 13.7446C15.3784 14.0549 15.0976 14.3038 14.7659 14.4401C14.5358 14.5279 13.8472 14.6643 13.835 14.6643C13.0816 14.8007 11.8575 14.8757 10.5048 14.8757C9.216 14.8757 8.04178 14.8007 7.27706 14.689C7.26481 14.6763 6.40909 14.5399 6.11597 14.3907C5.58049 14.1171 5.248 13.5826 5.248 13.0107V12.9613C5.26112 12.5888 5.59361 11.8054 5.60586 11.8054C6.1676 10.4885 7.91491 7.89043 9.076 6.84626C9.076 6.84626 9.37437 6.55219 9.56073 6.42433C9.82848 6.22488 10.1601 6.126 10.4917 6.126C10.8618 6.126 11.2066 6.23766 11.4874 6.44905Z" fill="#4FD471"/>
</svg>
