<svg width="24" height="24" viewBox="0 0 24 24" fill="none" xmlns="http://www.w3.org/2000/svg">
<path fill-rule="evenodd" clip-rule="evenodd" d="M9 2C6.23858 2 4 4.23858 4 7V18.9892C4 21.543 6.98734 22.9289 8.93724 21.2799L11.3542 19.2358C11.727 18.9205 12.273 18.9205 12.6457 19.2358L15.0627 21.2799C17.0126 22.9289 19.9999 21.5429 19.9999 18.9892V7C19.9999 4.23858 17.7614 2 14.9999 2H9ZM6 7C6 5.34315 7.34315 4 9 4H14.9999C16.6568 4 17.9999 5.34315 17.9999 7V18.9892C17.9999 19.8405 17.0042 20.3024 16.3542 19.7528L13.9372 17.7087C12.8189 16.7629 11.1811 16.7629 10.0628 17.7087L7.64575 19.7528C6.99578 20.3025 6 19.8405 6 18.9892V7ZM13 8C13 7.44772 12.5523 7 12 7C11.4477 7 11 7.44772 11 8V9H10C9.44772 9 9 9.44772 9 10C9 10.5523 9.44772 11 10 11H11V12C11 12.5523 11.4477 13 12 13C12.5523 13 13 12.5523 13 12V11H14C14.5523 11 15 10.5523 15 10C15 9.44772 14.5523 9 14 9H13V8Z" fill="white"/>
</svg>
