<svg width="159" height="98" viewBox="0 0 159 98" fill="none" xmlns="http://www.w3.org/2000/svg">
<path d="M1.63246 58.0184C0.853445 58.6238 0.937799 59.507 1.88552 60.033L53.9309 90.0723C54.5183 90.3673 55.1665 90.521 55.8239 90.521C56.4812 90.521 57.1294 90.3673 57.7168 90.0723L157.109 32.6681C158.071 32.1123 158.151 31.239 157.332 30.6337C157.821 31.0032 158.223 31.4747 158.511 32.0154C158.799 32.5561 158.965 33.153 158.999 33.7647V36.2456C158.974 36.906 158.792 37.5508 158.468 38.127C158.145 38.7033 157.689 39.1945 157.138 39.5602L57.697 96.9396C57.1106 97.238 56.462 97.3936 55.804 97.3936C55.146 97.3936 54.4974 97.238 53.911 96.9396L1.89048 66.9101C1.3383 66.5521 0.878994 66.068 0.55034 65.4979C0.221685 64.9277 0.0330698 64.2876 0 63.6303V61.1246C0.0341579 60.5202 0.197557 59.9302 0.479172 59.3944C0.760786 58.8585 1.15406 58.3893 1.63246 58.0184Z" fill="#263238"/>
<path d="M1.88619 60.033L53.9316 90.0723C54.519 90.3673 55.1672 90.521 55.8245 90.521C56.4819 90.521 57.1301 90.3673 57.7175 90.0723L157.109 32.6681C158.151 32.0677 158.156 31.0852 157.109 30.4848L105.089 0.450444C104.502 0.154281 103.853 0 103.196 0C102.538 0 101.89 0.154281 101.303 0.450444L1.88619 57.8497C0.839229 58.4551 0.839229 59.4326 1.88619 60.033ZM93.3042 8.21582C94.1974 7.71963 95.1302 7.9975 96.0234 8.5185L143.325 35.8089C144.218 36.3051 144.223 37.1635 143.325 37.6796L65.9195 82.3714C65.4161 82.6245 64.8604 82.7563 64.297 82.7563C63.7335 82.7563 63.1778 82.6245 62.6744 82.3714L15.3776 55.076C14.4795 54.5798 14.4795 53.7214 15.3776 53.2054L93.3042 8.21582Z" fill="#455A64"/>
<path d="M157.331 30.6288C157.82 30.9983 158.222 31.4698 158.51 32.0105C158.798 32.5512 158.964 33.1481 158.998 33.7598V36.2407C158.973 36.9017 158.791 37.5473 158.467 38.1243C158.144 38.7014 157.688 39.1935 157.138 39.5602L57.6962 96.9396C57.1128 97.2488 56.4609 97.4058 55.8007 97.3961V90.5189C56.4606 90.531 57.1127 90.3757 57.6962 90.0674L157.108 32.6681C158.07 32.1174 158.13 31.2391 157.331 30.6288Z" fill="#37474F"/>
<path d="M126.106 18.4174C125.406 18.0105 125.406 17.3555 126.106 16.9536C126.499 16.7532 126.934 16.6487 127.376 16.6487C127.818 16.6487 128.253 16.7532 128.646 16.9536C129.346 17.3555 129.346 18.0105 128.646 18.4174C128.252 18.6155 127.817 18.7187 127.376 18.7187C126.935 18.7187 126.5 18.6155 126.106 18.4174Z" fill="black"/>
<path d="M32.8138 74.2937C31.7303 74.3149 30.6593 74.0587 29.7027 73.5494C28.8244 73.0532 28.3431 72.3536 28.3431 71.6143C28.3431 70.8749 28.8393 70.1803 29.7027 69.6742C30.6667 69.1847 31.7326 68.9296 32.8138 68.9296C33.895 68.9296 34.9609 69.1847 35.9249 69.6742C36.8032 70.1703 37.2845 70.87 37.2845 71.6143C37.2845 72.3585 36.7883 73.0433 35.9249 73.5494C34.9683 74.0587 33.8973 74.3149 32.8138 74.2937ZM32.8138 69.4211C31.8173 69.4022 30.8324 69.6361 29.9508 70.1009C29.2313 70.5177 28.8393 71.0536 28.8393 71.6143C28.8393 72.175 29.2313 72.7059 29.9508 73.1028C30.8383 73.5519 31.8191 73.7859 32.8138 73.7859C33.8085 73.7859 34.7892 73.5519 35.6768 73.1028C36.3913 72.686 36.7883 72.1501 36.7883 71.6143C36.7883 71.0784 36.3913 70.5177 35.6768 70.1009C34.7943 69.6395 33.8094 69.4091 32.8138 69.431V69.4211Z" fill="#E6E6E6"/>
<path d="M127.366 23.2753L117.572 17.6237C116.991 17.2863 116.961 16.7554 117.507 16.4378C117.828 16.2827 118.18 16.2054 118.536 16.2123C118.892 16.2192 119.242 16.3101 119.556 16.4775L129.351 22.1291C129.937 22.4665 129.961 22.9974 129.416 23.315C129.095 23.4701 128.742 23.5474 128.386 23.5405C128.03 23.5336 127.681 23.4427 127.366 23.2753Z" fill="black"/>
<path d="M93.3027 8.21585C94.1958 7.71966 95.1287 7.99753 96.0218 8.51853L143.324 35.809C144.217 36.3052 144.222 37.1636 143.324 37.6796L65.9179 82.3714C65.4145 82.6245 64.8589 82.7564 64.2954 82.7564C63.7319 82.7564 63.1763 82.6245 62.6729 82.3714L15.376 55.076C14.4779 54.5798 14.4779 53.7214 15.376 53.2054L93.3027 8.21585Z" fill="#6236FF"/>
<path opacity="0.8" d="M93.3027 8.21585C94.1958 7.71966 95.1287 7.99753 96.0218 8.51853L143.324 35.809C144.217 36.3052 144.222 37.1636 143.324 37.6796L65.9179 82.3714C65.4145 82.6245 64.8589 82.7564 64.2954 82.7564C63.7319 82.7564 63.1763 82.6245 62.6729 82.3714L15.376 55.076C14.4779 54.5798 14.4779 53.7214 15.376 53.2054L93.3027 8.21585Z" fill="white"/>
</svg>
