<svg width="20" height="20" viewBox="0 0 20 20" fill="none" xmlns="http://www.w3.org/2000/svg">
<path fill-rule="evenodd" clip-rule="evenodd" d="M10.0008 1.66675C8.15987 1.66675 6.66748 3.15913 6.66748 5.00008V7.52261C6.59513 7.5266 6.52514 7.5313 6.45746 7.53683C5.98905 7.5751 5.55846 7.65724 5.15402 7.86331C4.52681 8.18289 4.01687 8.69283 3.6973 9.32003C3.49122 9.72448 3.40908 10.1551 3.37081 10.6235C3.33397 11.0745 3.33397 11.6281 3.33398 12.2989V12.2989V13.5344V13.5344C3.33397 14.2052 3.33397 14.7589 3.37081 15.2099C3.40908 15.6783 3.49122 16.1089 3.6973 16.5133C4.01687 17.1405 4.52681 17.6504 5.15402 17.97C5.55846 18.1761 5.98905 18.2582 6.45746 18.2965C6.90846 18.3334 7.4621 18.3333 8.13292 18.3333H11.8684C12.5392 18.3333 13.0928 18.3334 13.5438 18.2965C14.0123 18.2582 14.4428 18.1761 14.8473 17.97C15.4745 17.6504 15.9844 17.1405 16.304 16.5133C16.5101 16.1089 16.5922 15.6783 16.6305 15.2099C16.6673 14.7589 16.6673 14.2052 16.6673 13.5344V12.2989C16.6673 11.6281 16.6673 11.0745 16.6305 10.6235C16.5922 10.1551 16.5101 9.72448 16.304 9.32003C15.9844 8.69283 15.4745 8.18289 14.8473 7.86331C14.4428 7.65724 14.0123 7.5751 13.5438 7.53683C13.4763 7.53131 13.4064 7.52661 13.3341 7.52262V5.00008C13.3341 3.15913 11.8418 1.66675 10.0008 1.66675ZM11.6675 9.16667V9.16675H12.0834C12.6637 9.16726 13.0785 9.17103 13.4081 9.19796C13.7735 9.22781 13.9603 9.28192 14.0906 9.34832C14.4042 9.50811 14.6592 9.76308 14.819 10.0767C14.8854 10.207 14.9395 10.3939 14.9694 10.7592C15 11.1343 15.0007 11.6195 15.0007 12.3333V13.5C15.0007 14.2138 15 14.6991 14.9694 15.0741C14.9395 15.4395 14.8854 15.6263 14.819 15.7567C14.6592 16.0703 14.4042 16.3252 14.0906 16.485C13.9603 16.5514 13.7735 16.6055 13.4081 16.6354C13.033 16.666 12.5478 16.6667 11.834 16.6667H8.16732C7.4535 16.6667 6.96826 16.666 6.59318 16.6354C6.22784 16.6055 6.041 16.5514 5.91067 16.485C5.59706 16.3252 5.3421 16.0703 5.18231 15.7567C5.1159 15.6263 5.06179 15.4395 5.03194 15.0741C5.0013 14.6991 5.00065 14.2138 5.00065 13.5V12.3333C5.00065 11.6195 5.0013 11.1343 5.03194 10.7592C5.06179 10.3939 5.1159 10.207 5.18231 10.0767C5.3421 9.76308 5.59706 9.50811 5.91067 9.34832C6.041 9.28192 6.22784 9.22781 6.59318 9.19796C6.92285 9.17103 7.33762 9.16726 7.91789 9.16675H8.33415V9.16667H11.6675ZM11.6675 7.5V5.00008C11.6675 4.07961 10.9213 3.33341 10.0008 3.33341C9.08034 3.33341 8.33415 4.07961 8.33415 5.00008V7.5H11.6675Z" fill="#0E0E17" fill-opacity="0.42"/>
<path d="M9.16602 13.3333C9.16602 12.8731 9.53911 12.5 9.99935 12.5C10.4596 12.5 10.8327 12.8731 10.8327 13.3333V14.1667C10.8327 14.6269 10.4596 15 9.99935 15C9.53911 15 9.16602 14.6269 9.16602 14.1667V13.3333Z" fill="#0E0E17" fill-opacity="0.42"/>
</svg>
