<svg width="20" height="20" viewBox="0 0 20 20" fill="none" xmlns="http://www.w3.org/2000/svg">
<path fill-rule="evenodd" clip-rule="evenodd" d="M10.416 1.6665C10.9905 1.6665 11.5107 1.89905 11.8876 2.27513C11.9022 2.28971 11.9166 2.30449 11.9307 2.31949C12.2639 2.67215 12.4752 3.14111 12.4974 3.65906L12.4981 3.67655C12.4989 3.70087 12.4993 3.72531 12.4993 3.74984V3.76172C12.4993 3.7956 12.5199 3.82605 12.5512 3.83902C12.5825 3.85201 12.6186 3.84503 12.6426 3.82106L12.651 3.81265C12.6683 3.79531 12.6859 3.77833 12.7037 3.76172L12.7166 3.74984C13.0985 3.39929 13.5796 3.21711 14.0645 3.20331C14.0851 3.20272 14.1057 3.20244 14.1264 3.20246C14.6588 3.20302 15.191 3.40642 15.5973 3.81265L16.1865 4.40191C16.5928 4.80814 16.7962 5.3404 16.7967 5.87283C16.7967 5.89346 16.7965 5.91408 16.7959 5.93469C16.7821 6.41963 16.5999 6.90067 16.2493 7.28263L16.2375 7.29547C16.2209 7.31326 16.2039 7.33084 16.1865 7.34819L16.1781 7.35659C16.1542 7.38056 16.1472 7.41665 16.1602 7.44796C16.1731 7.47925 16.2036 7.49984 16.2375 7.49984H16.2493C16.2739 7.49984 16.2983 7.50026 16.3226 7.5011L16.3401 7.50178C16.8581 7.52399 17.327 7.73531 17.6797 8.06844C17.6947 8.08261 17.7095 8.097 17.7241 8.1116C18.1001 8.48848 18.3327 9.00867 18.3327 9.58317V10.4165C18.3327 10.991 18.1001 11.5112 17.7241 11.8881C17.7095 11.9027 17.6947 11.9171 17.6797 11.9312C17.327 12.2644 16.8581 12.4757 16.3401 12.4979L16.3226 12.4986C16.2983 12.4994 16.2739 12.4998 16.2493 12.4998H16.2375C16.2036 12.4998 16.1731 12.5204 16.1602 12.5517C16.1472 12.583 16.1542 12.6191 16.1781 12.6431L16.1865 12.6515C16.2039 12.6688 16.2209 12.6864 16.2375 12.7042L16.2493 12.717C16.5999 13.099 16.7821 13.58 16.7959 14.065C16.7965 14.0856 16.7967 14.1062 16.7967 14.1268C16.7962 14.6593 16.5928 15.1915 16.1865 15.5978L15.5973 16.187C15.191 16.5933 14.6588 16.7966 14.1264 16.7972C14.1057 16.7972 14.0851 16.797 14.0645 16.7964C13.5796 16.7826 13.0985 16.6004 12.7166 16.2498L12.7037 16.238C12.6859 16.2213 12.6683 16.2044 12.651 16.187L12.6426 16.1786C12.6186 16.1546 12.5825 16.1477 12.5512 16.1607C12.5199 16.1736 12.4993 16.2041 12.4993 16.238V16.2498C12.4993 16.2744 12.4989 16.2988 12.4981 16.3231L12.4974 16.3406C12.4752 16.8586 12.2639 17.3275 11.9307 17.6802C11.9166 17.6952 11.9022 17.71 11.8876 17.7245C11.5107 18.1006 10.9905 18.3332 10.416 18.3332H9.58268C9.00818 18.3332 8.488 18.1006 8.11111 17.7245C8.09651 17.71 8.08212 17.6952 8.06796 17.6802C7.73482 17.3275 7.5235 16.8586 7.50129 16.3406L7.50061 16.3231C7.49977 16.2988 7.49935 16.2744 7.49935 16.2498V16.238C7.49935 16.2041 7.47876 16.1736 7.44747 16.1607C7.41616 16.1477 7.38007 16.1546 7.3561 16.1786L7.3477 16.187C7.33035 16.2044 7.31277 16.2213 7.29498 16.238L7.28214 16.2498C6.90018 16.6004 6.41914 16.7826 5.9342 16.7964C5.91359 16.797 5.89297 16.7972 5.87234 16.7972C5.33991 16.7966 4.80765 16.5933 4.40142 16.187L3.81216 15.5978C3.40593 15.1915 3.20254 14.6593 3.20197 14.1268C3.20195 14.1062 3.20223 14.0856 3.20282 14.065C3.21662 13.58 3.3988 13.099 3.74935 12.717L3.76123 12.7042C3.77784 12.6864 3.79482 12.6688 3.81216 12.6515L3.82057 12.6431C3.84454 12.6191 3.85152 12.583 3.83854 12.5517C3.82556 12.5204 3.79511 12.4998 3.76123 12.4998H3.74935C3.72482 12.4998 3.70039 12.4994 3.67606 12.4986L3.65857 12.4979C3.14062 12.4757 2.67166 12.2644 2.319 11.9312C2.304 11.9171 2.28922 11.9027 2.27465 11.8881C1.89856 11.5112 1.66602 10.991 1.66602 10.4165V9.58317C1.66602 9.00867 1.89856 8.48848 2.27465 8.1116C2.28922 8.097 2.304 8.08261 2.319 8.06844C2.67166 7.73531 3.14062 7.52399 3.65857 7.50178L3.67606 7.5011C3.70039 7.50026 3.72482 7.49984 3.74935 7.49984H3.76123C3.79511 7.49984 3.82556 7.47925 3.83854 7.44796C3.85152 7.41665 3.84454 7.38056 3.82057 7.35659L3.81216 7.34819C3.79482 7.33084 3.77784 7.31326 3.76123 7.29547L3.74935 7.28263C3.3988 6.90067 3.21662 6.41963 3.20282 5.93469C3.20223 5.91408 3.20195 5.89346 3.20197 5.87283C3.20254 5.3404 3.40593 4.80814 3.81216 4.40191L4.40142 3.81265C4.80765 3.40642 5.33991 3.20302 5.87234 3.20246C5.89297 3.20244 5.91359 3.20272 5.9342 3.20331C6.41914 3.21711 6.90018 3.39929 7.28214 3.74984L7.29498 3.76172C7.31278 3.77833 7.33035 3.79531 7.3477 3.81265L7.3561 3.82106C7.38007 3.84503 7.41616 3.85201 7.44747 3.83902C7.47876 3.82605 7.49935 3.7956 7.49935 3.76172V3.74984C7.49935 3.72531 7.49977 3.70087 7.50061 3.67655L7.50129 3.65906C7.5235 3.14111 7.73482 2.67215 8.06796 2.31949C8.08212 2.30449 8.09651 2.28971 8.11111 2.27513C8.488 1.89905 9.00818 1.6665 9.58268 1.6665H10.416ZM9.16602 16.2498C9.16602 16.48 9.35256 16.6665 9.58268 16.6665H10.416C10.6461 16.6665 10.8327 16.48 10.8327 16.2498V16.238C10.8327 15.5216 11.267 14.8889 11.9128 14.6211C12.56 14.3527 13.3149 14.4939 13.8211 15.0001L13.8295 15.0085C13.9922 15.1712 14.256 15.1712 14.4188 15.0085L15.008 14.4193C15.1707 14.2565 15.1707 13.9927 15.008 13.83L14.9996 13.8216C14.4934 13.3154 14.3523 12.5604 14.6206 11.9133C14.8884 11.2675 15.5212 10.8332 16.2375 10.8332H16.2493C16.4795 10.8332 16.666 10.6466 16.666 10.4165V9.58317C16.666 9.35305 16.4795 9.1665 16.2493 9.1665H16.2375C15.5212 9.1665 14.8884 8.73219 14.6206 8.08638C14.3523 7.43923 14.4934 6.68427 14.9996 6.17808L15.008 6.16968C15.1707 6.00696 15.1707 5.74314 15.008 5.58042L14.4188 4.99116C14.256 4.82845 13.9922 4.82845 13.8295 4.99116L13.8211 4.99957C13.3149 5.50576 12.56 5.64693 11.9128 5.37857C11.267 5.11076 10.8327 4.47801 10.8327 3.76172V3.74984C10.8327 3.51972 10.6461 3.33317 10.416 3.33317H9.58268C9.35256 3.33317 9.16602 3.51972 9.16602 3.74984V3.76172C9.16602 4.47801 8.73171 5.11076 8.08588 5.37857C7.43873 5.64693 6.68378 5.50576 6.17759 4.99957L6.16919 4.99116C6.00647 4.82845 5.74265 4.82845 5.57993 4.99116L4.99068 5.58042C4.82796 5.74314 4.82796 6.00696 4.99068 6.16968L4.99908 6.17808C5.50528 6.68427 5.64644 7.43923 5.37808 8.08638C5.11027 8.73219 4.47753 9.1665 3.76123 9.1665H3.74935C3.51923 9.1665 3.33268 9.35305 3.33268 9.58317V10.4165C3.33268 10.6466 3.51923 10.8332 3.74935 10.8332H3.76123C4.47753 10.8332 5.11027 11.2675 5.37808 11.9133C5.64644 12.5604 5.50528 13.3154 4.99908 13.8216L4.99068 13.83C4.82796 13.9927 4.82796 14.2565 4.99068 14.4193L5.57993 15.0085C5.74265 15.1712 6.00647 15.1712 6.16919 15.0085L6.17759 15.0001C6.68378 14.4939 7.43873 14.3527 8.08588 14.6211C8.73169 14.8889 9.16602 15.5216 9.16602 16.238V16.2498Z" fill="#0E0E17"/>
<path fill-rule="evenodd" clip-rule="evenodd" d="M9.99935 11.6665C10.9198 11.6665 11.666 10.9203 11.666 9.99984C11.666 9.07936 10.9198 8.33317 9.99935 8.33317C9.07887 8.33317 8.33268 9.07936 8.33268 9.99984C8.33268 10.9203 9.07887 11.6665 9.99935 11.6665ZM9.99935 13.3332C11.8403 13.3332 13.3327 11.8408 13.3327 9.99984C13.3327 8.15889 11.8403 6.6665 9.99935 6.6665C8.1584 6.6665 6.66602 8.15889 6.66602 9.99984C6.66602 11.8408 8.1584 13.3332 9.99935 13.3332Z" fill="#0E0E17"/>
</svg>
