<svg width="20" height="20" viewBox="0 0 20 20" fill="none" xmlns="http://www.w3.org/2000/svg">
<path fill-rule="evenodd" clip-rule="evenodd" d="M9.99935 6.00989L8.88783 5.01505C8.29699 4.48623 7.52081 4.16667 6.66602 4.16667C4.82507 4.16667 3.33268 5.65905 3.33268 7.5C3.33268 9.99964 4.44914 11.8433 5.85955 13.2084C7.29467 14.5974 8.98253 15.4319 9.90407 15.8162C9.96815 15.8429 10.0305 15.8429 10.0946 15.8162C11.0162 15.4319 12.704 14.5974 14.1392 13.2084C15.5496 11.8433 16.666 9.9997 16.666 7.50004C16.666 5.65909 15.1736 4.16667 13.3327 4.16667C12.4779 4.16667 11.7017 4.48623 11.1109 5.01505L9.99935 6.00989ZM9.99935 3.77316C9.11476 2.98142 7.94661 2.5 6.66602 2.5C3.90459 2.5 1.66602 4.73858 1.66602 7.5C1.66602 13.6259 7.22556 16.5051 9.26269 17.3545C9.73724 17.5523 10.2615 17.5523 10.736 17.3545C12.7731 16.5051 18.3327 13.626 18.3327 7.50004C18.3327 4.73862 16.0941 2.5 13.3327 2.5C12.0521 2.5 10.8839 2.98142 9.99935 3.77316Z" fill="#FF8127"/>
</svg>
