<svg width="24" height="24" viewBox="0 0 24 24" fill="none" xmlns="http://www.w3.org/2000/svg">
<path fill-rule="evenodd" clip-rule="evenodd" d="M22 5C22 6.65685 20.6569 8 19 8C17.3431 8 16 6.65685 16 5C16 3.34315 17.3431 2 19 2C20.6569 2 22 3.34315 22 5ZM20 5C20 5.55228 19.5523 6 19 6C18.4477 6 18 5.55228 18 5C18 4.44772 18.4477 4 19 4C19.5523 4 20 4.44772 20 5ZM9.86603 8.5C9.38773 8.77614 9.22386 9.38773 9.5 9.86602C9.77614 10.3443 10.3877 10.5082 10.866 10.232L15.0622 7.23205C15.5405 6.95591 15.7043 6.34432 15.4282 5.86602C15.1521 5.38773 14.5405 5.22386 14.0622 5.5L9.86603 8.5ZM10.866 13.5C10.3877 13.2239 9.77614 13.3877 9.5 13.866C9.22386 14.3443 9.38773 14.9559 9.86603 15.2321L14.0622 18.232C14.5405 18.5082 15.1521 18.3443 15.4282 17.866C15.7043 17.3877 15.5405 16.7761 15.0622 16.5L10.866 13.5ZM6 15C7.65685 15 9 13.6569 9 12C9 10.3431 7.65685 9 6 9C4.34315 9 3 10.3431 3 12C3 13.6569 4.34315 15 6 15ZM6 13C6.55228 13 7 12.5523 7 12C7 11.4477 6.55228 11 6 11C5.44772 11 5 11.4477 5 12C5 12.5523 5.44772 13 6 13ZM19 22C20.6569 22 22 20.6569 22 19C22 17.3431 20.6569 16 19 16C17.3431 16 16 17.3431 16 19C16 20.6569 17.3431 22 19 22ZM19 20C19.5523 20 20 19.5523 20 19C20 18.4477 19.5523 18 19 18C18.4477 18 18 18.4477 18 19C18 19.5523 18.4477 20 19 20Z" fill="#0E0E17"/>
</svg>
