<svg width="24" height="24" viewBox="0 0 24 24" fill="none" xmlns="http://www.w3.org/2000/svg">
<path fill-rule="evenodd" clip-rule="evenodd" d="M17.9918 5H6.00186C5.15027 5 4.68839 5.99649 5.2388 6.64632L9.05163 11.1479C9.66354 11.8703 9.99936 12.7864 9.99936 13.7332V17.9978C9.99936 18.7271 10.7548 19.2111 11.4173 18.9063L13.4173 17.9863C13.772 17.8231 13.9994 17.4683 13.9994 17.0778V13.7325C13.9994 12.7866 14.3346 11.8712 14.9456 11.149L18.7552 6.64587C19.3051 5.99594 18.8431 5 17.9918 5ZM6.00186 3H17.9918C20.5458 3 21.9317 5.98782 20.2821 7.93762L16.4725 12.4408C16.167 12.8019 15.9994 13.2595 15.9994 13.7325V17.0778C15.9994 18.2493 15.3174 19.3137 14.2531 19.8033L12.2531 20.7233C10.2655 21.6376 7.99936 20.1855 7.99936 17.9978V13.7332C7.99936 13.2598 7.83145 12.8018 7.52549 12.4405L3.71266 7.93896C2.06146 5.98949 3.44709 3 6.00186 3Z" fill="white"/>
</svg>
