<svg width="186" height="156" viewBox="0 0 186 156" fill="none" xmlns="http://www.w3.org/2000/svg">
<path d="M27.0426 21.0978C22.8438 20.6831 17.1676 27.6812 21.2887 31.0592C23.5695 32.9254 28.5459 32.1219 28.494 28.6229C28.481 28.5272 28.4381 28.438 28.3714 28.3682C28.3047 28.2984 28.2176 28.2514 28.1225 28.2341C24.8222 27.4738 21.5565 28.8907 22.0749 32.7439C22.381 34.3814 23.2292 35.8683 24.4829 36.9653C25.7365 38.0623 27.3228 38.7056 28.9865 38.7916C29.1852 38.7916 29.1161 38.446 28.9865 38.4115C26.1182 37.8067 23.4053 36.0183 22.8438 32.9426C22.7155 32.3995 22.7038 31.8352 22.8096 31.2872C22.9153 30.7392 23.136 30.2198 23.4572 29.7633C23.8491 29.289 24.3719 28.9405 24.9605 28.7611C25.4529 28.6056 27.224 28.3291 27.6128 28.7611C28.3904 29.5732 26.2823 30.921 25.6603 31.137C25.0394 31.3625 24.3762 31.4469 23.7187 31.3841C23.0611 31.3213 22.4258 31.113 21.8589 30.7741C20.131 29.5646 20.5457 27.2578 21.3923 25.5904C22.5328 23.3873 24.5285 21.5989 27.0944 21.5125C27.3277 21.5125 27.2068 21.0719 27.0253 21.0546L27.0426 21.0978Z" fill="#A5F0AF"/>
<path d="M63.3633 61.5395C64.6851 58.5675 64.5469 55.4918 68.3915 54.5069C70.1194 54.075 74.0763 53.643 75.3463 55.1894C75.5711 55.5513 75.6614 55.9807 75.6014 56.4025C75.5414 56.8243 75.3348 57.2114 75.018 57.4962C74.0158 58.3602 73.2901 57.3234 73.005 56.3731C72.7976 55.4938 72.8711 54.5716 73.2152 53.7363C73.5592 52.901 74.1565 52.1945 74.923 51.7164C76.5352 50.6547 78.4866 50.2353 80.3927 50.5407C82.2988 50.8461 84.0215 51.8543 85.2213 53.3665C85.3595 53.5479 85.5151 53.3665 85.4459 53.1678C82.4999 46.3858 68.3483 51.1029 72.8927 57.6085C74.2664 59.5783 76.6941 57.8418 76.2362 55.7597C75.7265 53.4529 71.7868 53.5652 70.0589 53.6775C68.2912 53.68 66.5867 54.3354 65.2726 55.5178C63.7348 57.0383 63.5447 59.4228 63.1991 61.4531C63.1991 61.5481 63.2855 61.6777 63.346 61.5395H63.3633Z" fill="#ADDAFF"/>
<path d="M133.351 5.33063C136.107 4.52715 139.9 4.75178 142.215 6.61792C143.995 8.04344 145.015 11.1623 142.38 12.2336C141.351 12.6483 137.947 12.657 137.541 11.2401C137.256 10.2638 138.302 9.68496 139.148 9.55536C141.619 9.17522 143.935 11.7757 143.883 14.1084C143.796 17.5642 139.727 18.7565 136.85 18.791C136.66 18.791 136.712 19.1452 136.85 19.1625C141.74 19.6291 147.218 15.0933 142.855 10.523C141.68 9.29618 139.848 8.43222 138.163 9.10611C137.204 9.48625 136.436 10.3502 136.928 11.3869C137.688 13.0457 140.773 13.3308 142.259 12.9075C142.655 12.8036 143.025 12.6192 143.347 12.3658C143.668 12.1124 143.934 11.7955 144.128 11.4348C144.322 11.074 144.439 10.6773 144.473 10.2692C144.506 9.8611 144.456 9.45048 144.323 9.06291C143.123 4.63947 136.937 3.72368 133.265 5.05416C133.161 5.05416 133.196 5.34791 133.325 5.30471L133.351 5.33063Z" fill="#FFEB80"/>
<path d="M165.386 141.775C168.142 140.971 171.935 141.196 174.25 143.053C176.03 144.488 177.05 147.606 174.415 148.678C173.378 149.092 169.974 149.092 169.568 147.684C169.283 146.708 170.337 146.129 171.175 145.956C173.654 145.568 175.961 148.177 175.909 150.509C175.823 153.965 171.754 155.157 168.877 155.183C168.687 155.183 168.738 155.546 168.877 155.555C173.775 156.03 179.244 151.494 174.924 146.915C173.749 145.688 171.918 144.816 170.224 145.49C169.274 145.87 168.497 146.734 168.998 147.779C169.758 149.438 172.834 149.723 174.328 149.3C174.724 149.195 175.093 149.01 175.414 148.756C175.735 148.502 176.001 148.186 176.194 147.825C176.388 147.465 176.505 147.068 176.539 146.661C176.574 146.253 176.524 145.843 176.393 145.455C175.184 141.032 168.998 140.107 165.326 141.438C165.222 141.481 165.265 141.732 165.395 141.697L165.386 141.775Z" fill="#ADDAFF"/>
<path d="M158.89 48.5801C155.598 49.5564 152.54 55.3362 155.598 57.9799C158.19 60.2175 163.443 59.7078 162.579 55.4399C162.568 55.3918 162.546 55.3471 162.515 55.3094C162.483 55.2718 162.443 55.2424 162.397 55.2239C158.941 54.4031 157.81 58.4292 158.527 61.0901C159.659 65.2198 163.823 65.168 166.829 63.0081C166.933 62.939 166.881 62.6539 166.743 62.723C164.281 63.9498 160.833 65.047 159.33 61.8591C158.527 60.1311 158.466 57.4011 160.047 56.1051C160.448 55.725 160.981 55.5145 161.533 55.5176C162.682 55.6559 162.484 56.9 161.836 57.6862C160.808 58.9475 158.725 58.8093 157.343 58.3255C152.609 56.6494 155.866 50.5499 158.95 48.822C159.045 48.7702 159.019 48.5283 158.89 48.5715V48.5801Z" fill="#A5F0AF"/>
<path d="M179.477 77.894C185.075 78.3433 184.073 88.9699 179.546 90.4041C179.267 90.5085 178.97 90.5547 178.673 90.5399C178.376 90.525 178.085 90.4494 177.818 90.3177C177.481 90.0721 177.21 89.7455 177.032 89.368C176.854 88.9906 176.774 88.5744 176.799 88.1578C177.334 86.3262 180.349 88.633 180.747 89.3501C181.333 90.2821 181.607 91.3765 181.529 92.4747C181.451 93.5729 181.026 94.6179 180.315 95.4582C178.008 97.9896 173.611 98.0501 170.734 96.6332C170.578 96.5554 170.552 96.8319 170.656 96.901C173.757 98.8881 178.95 98.6289 181.248 95.4582C183.088 92.9355 181.818 86.2657 177.792 86.8187C174.051 87.3716 176.634 91.6309 179.468 91.0693C182.302 90.5077 183.321 86.7495 183.598 84.4169C183.935 81.4881 183.062 77.5052 179.434 77.5916C179.313 77.5916 179.33 77.8508 179.434 77.8595L179.477 77.894Z" fill="#ADDAFF"/>
<path d="M22.5236 91.1731C18.6445 90.6806 10.2987 93.955 12.4672 99.2338C13.6249 102.059 18.8 103.873 20.502 100.633C20.5376 100.544 20.5378 100.444 20.5025 100.354C20.4673 100.264 20.3991 100.191 20.3119 100.15C12.2253 95.5793 3.70671 108.789 12.2944 113.67C12.5622 113.826 12.5536 113.368 12.3895 113.247C11.6472 112.74 11.0138 112.089 10.5265 111.334C10.0391 110.579 9.70761 109.733 9.55148 108.848C9.39534 107.963 9.4177 107.055 9.61723 106.179C9.81676 105.302 10.1894 104.474 10.7134 103.744C11.586 102.345 12.8304 101.218 14.3074 100.487C15.4219 99.9681 18.1952 99.2338 19.2233 100.314C19.6985 100.815 19.6812 100.184 19.4393 100.772C19.2924 101.126 18.8 101.333 18.4544 101.463C17.5827 101.732 16.6458 101.702 15.7934 101.376C13.9791 100.746 12.5795 99.0956 13.0547 97.0998C14.005 93.1256 19.1024 91.6742 22.6187 91.6483C22.8692 91.6483 22.7137 91.1904 22.5236 91.1645V91.1731Z" fill="#A5F0AF"/>
<path d="M89.3412 17.3135C89.3412 17.3135 89.0993 21.6333 92.3305 24.0697L95.7172 23.0415C95.7172 23.0415 93.4536 21.9616 92.3305 17.3135H89.3412Z" fill="#A5F0AF"/>
<path d="M30.7913 107.165C30.7913 107.165 30.5494 111.485 33.772 113.93L37.1587 112.901C37.1587 112.901 34.8951 111.822 33.772 107.165H30.7913Z" fill="#ADDAFF"/>
<path d="M79.2841 76.1144C79.2841 76.1144 79.0422 80.4342 82.2733 82.8705L85.6601 81.8424C85.6601 81.8424 83.3965 80.7625 82.2733 76.1144H79.2841Z" fill="#FFBBC2"/>
<path d="M169.094 26.0137C169.094 26.0137 167.124 29.8928 163.124 30.3335L160.705 27.7416C160.705 27.7416 163.21 27.9317 166.51 24.4759L169.094 26.0137Z" fill="#FFBBC2"/>
<path d="M185.049 119.796C185.049 119.796 183.08 123.675 179.079 124.116L176.66 121.524C176.66 121.524 179.166 121.722 182.466 118.258L185.049 119.796Z" fill="#FFBBC2"/>
<path d="M97.3155 105.67C97.3155 105.67 95.3457 109.558 91.3369 109.99L88.9265 107.398C88.9265 107.398 91.4233 107.597 94.7236 104.132L97.3155 105.67Z" fill="#A5F0AF"/>
<path d="M8.38899 1.53784C8.38899 1.53784 6.41918 5.41699 2.41907 5.85761L0 3.26575C0 3.26575 2.50545 3.45581 5.80575 0L8.38899 1.53784Z" fill="#FFBBC2"/>
<path d="M136.798 38.5151C136.798 38.5151 132.478 39.0508 129.843 35.9924L130.638 32.5366C130.638 32.5366 131.873 34.7224 136.591 35.5258L136.798 38.5151Z" fill="#ADDAFF"/>
<path d="M72.2616 25.72C72.2616 25.72 67.9418 26.2643 65.3068 23.2059L66.1016 19.7501C66.1016 19.7501 67.337 21.9359 72.0542 22.7307L72.2616 25.72Z" fill="#ADDAFF"/>
<path d="M64.0442 74.9824C64.0442 74.9824 59.7245 75.5181 57.0894 72.4597L57.8842 69.0039C57.8842 69.0039 59.1197 71.181 63.8369 71.9845L64.0442 74.9824Z" fill="#FFEB80"/>
<path d="M129.032 86.5078C129.032 86.5078 124.712 87.0434 122.12 83.9937L122.907 80.5378C122.907 80.5378 124.151 82.715 128.859 83.5185L129.032 86.5078Z" fill="#FFBBC2"/>
<path d="M186 64.451C186 64.451 181.681 64.9866 179.089 61.9282L179.884 58.4724C179.884 58.4724 181.119 60.6582 185.836 61.4617L186 64.451Z" fill="#FFEB80"/>
<path d="M143.632 64.0709C143.632 64.0709 141.662 67.95 137.654 68.3907L135.243 65.7988C135.243 65.7988 138.198 66.248 141.498 62.7922L143.632 64.0709Z" fill="#ADDAFF"/>
<path d="M147.979 69.7989C147.979 69.7989 147.21 74.1187 143.512 75.6825L140.454 73.9027C142.615 72.9257 144.411 71.2895 145.585 69.2287L147.979 69.7989Z" fill="#FFEB80"/>
<path d="M12.2601 50.6189C12.2601 50.6189 10.2903 54.4981 6.28157 54.9387L3.87113 52.3469C3.87113 52.3469 6.82584 52.7961 10.1261 49.3403L12.2601 50.6189Z" fill="#FFEB80"/>
<path d="M16.6046 56.347C16.6046 56.347 15.8357 60.6668 12.138 62.2392L9.07956 60.4508C11.2409 59.4773 13.0356 57.84 14.2028 55.7768L16.6046 56.347Z" fill="#ADDAFF"/>
</svg>
