<svg width="250" height="238" viewBox="0 0 250 238" fill="none" xmlns="http://www.w3.org/2000/svg">
<path d="M125 237.543C194.036 237.543 250 206.556 250 168.331C250 130.106 194.036 99.1187 125 99.1187C55.9644 99.1187 0 130.106 0 168.331C0 206.556 55.9644 237.543 125 237.543Z" fill="#F5F5F5"/>
<path d="M20.9834 188.889C36.0631 196.514 60.5043 196.514 75.5786 188.889C90.6529 181.265 90.6584 168.876 75.5786 161.235C60.4989 153.594 36.0631 153.611 20.9834 161.235C5.90363 168.859 5.91997 181.265 20.9834 188.889Z" fill="#E6E6E6"/>
<path d="M229.018 188.889C213.944 196.514 189.497 196.514 174.423 188.889C159.349 181.265 159.349 168.876 174.423 161.235C189.497 153.594 213.944 153.611 229.018 161.235C244.092 168.859 244.082 181.265 229.018 188.889Z" fill="#E6E6E6"/>
<path d="M156.042 166.147L125.001 148.225L93.959 166.147L125.001 184.064L156.042 166.147Z" fill="#E6E6E6"/>
<path d="M169.357 62.3535C179.595 53.139 190.596 41.5828 190.748 34.6774C185.994 34.5684 184.905 34.6774 181.795 37.0354C179.028 39.1376 167.674 53.5093 163.824 55.9981C158.726 57.2779 149.555 58.7701 145.139 58.8518C144.357 58.8601 143.599 58.581 143.009 58.0675C141.414 56.6952 140.172 56.7387 138.435 55.8892C137.073 55.2139 136.545 54.4406 136.256 54.6802C135.968 54.9198 135.412 55.9164 136.169 57.0219C136.666 57.6696 137.251 58.2451 137.906 58.732C136.263 58.5447 134.653 58.1286 133.125 57.4957C129.46 56.0253 127.635 56.4828 129.1 61.3079C130.015 64.3249 132.624 66.1493 139.992 66.3399C142.7 66.4639 145.414 66.393 148.112 66.1275C153.504 65.425 159.701 65.3161 164.101 64.7606C166.056 64.5086 167.889 63.6693 169.357 62.3535Z" fill="#FFB3B2"/>
<path d="M191.261 34.3776C187.743 33.7295 183.538 34.6499 180.734 37.3674C177.929 40.0849 171.852 47.17 171.852 47.17C171.852 47.17 174.776 52.6541 179.176 53.7378L183.533 48.9835L191.261 34.3776Z" fill="#6236FF"/>
<path opacity="0.1" d="M191.261 34.3776C187.743 33.7295 183.538 34.6499 180.734 37.3674C177.929 40.0849 171.852 47.17 171.852 47.17C171.852 47.17 174.776 52.6541 179.176 53.7378L183.533 48.9835L191.261 34.3776Z" fill="black"/>
<path d="M210.854 164.764H204.607V173.858H210.854V164.764Z" fill="#FFB3B2"/>
<path d="M188.881 153.508L182.639 153.723L182.951 162.812L189.194 162.598L188.881 153.508Z" fill="#FFB3B2"/>
<path d="M210.441 75.9683C210.441 81.9588 211.214 120.516 211.214 120.516C211.361 122.237 212.968 125.417 212.619 131.99C212.146 140.943 211.372 165.82 211.372 165.82C211.372 165.82 208.442 168.723 204.293 165.82C204.293 165.82 198.64 132.023 197.518 123.146C196.543 115.402 194.882 94.3645 194.882 94.3645L191.702 119.617C191.702 119.617 192.72 125.439 192.949 129.551C193.178 133.662 189.278 156.9 189.278 156.9C188.267 157.534 187.107 157.891 185.915 157.937C184.722 157.983 183.539 157.715 182.482 157.161C182.482 157.161 180.086 122.994 179.459 119.263C178.833 115.533 181.246 75.9683 181.246 75.9683H210.441Z" fill="#37474F"/>
<path d="M201.041 34.6611C201.509 34.7755 204.194 35.4072 206.748 36.0825C207.807 36.3618 208.744 36.984 209.412 37.8521C210.08 38.7201 210.442 39.785 210.44 40.8803V75.9684C206.084 80.7335 190.792 82.9555 181.229 75.9684V45.5203C181.229 40.6571 183.951 34.8136 191.396 34.3779L201.041 34.6611Z" fill="#EBEBEB"/>
<path d="M203.143 9.76245C203.646 9.70336 204.155 9.75998 204.633 9.92799C205.11 10.096 205.543 10.3709 205.898 10.7318C207.08 11.9408 206.835 14.1791 205.898 19.3255L202.244 19.7448L203.143 9.76245Z" fill="#263238"/>
<path d="M181.827 8.27563C181.041 8.27896 180.262 8.1195 179.54 7.80729C178.418 7.16467 178.124 8.43901 178.739 9.54998C179.147 10.343 179.751 11.0184 180.494 11.5122C181.236 12.006 182.093 12.3016 182.982 12.371C183.014 12.213 184.033 9.5173 184.033 9.5173L181.827 8.27563Z" fill="#263238"/>
<path d="M187.524 20.8392C191.467 20.8392 194.664 17.6427 194.664 13.6996C194.664 9.75656 191.467 6.56006 187.524 6.56006C183.581 6.56006 180.385 9.75656 180.385 13.6996C180.385 17.6427 183.581 20.8392 187.524 20.8392Z" fill="#263238"/>
<path d="M201.428 19.7444C201.973 20.0712 202.746 19.0256 203.416 18.3285C204.086 17.6314 206.27 16.6947 207.359 18.9657C208.448 21.2366 206.395 24.4116 204.674 24.9562C201.711 25.8874 201.265 23.9868 201.265 23.9868L201.042 34.6771C201.042 34.6771 199.097 39.426 193.842 40.123C188.587 40.8201 189.671 36.5015 191.397 34.3776V31.1101C191.397 31.1101 188.712 31.5185 187.405 31.3116C185.227 30.9739 183.849 29.2584 183.19 26.8949C182.128 23.0828 181.725 20.044 182.645 12.594C183.636 4.42509 193.14 4.33796 198.27 7.56738C203.4 10.7968 201.428 19.7444 201.428 19.7444Z" fill="#FFB3B2"/>
<path d="M201.155 21.2585C201.411 21.1605 202.74 18.944 203.415 18.3286C204.352 17.4736 203.143 9.76222 203.143 9.76222C203.143 9.76222 204.09 6.83777 202.239 4.89902C200.387 2.96028 196.793 3.26525 194.184 3.18901C191.461 3.09098 188.531 2.9276 184.812 1.31017C181.092 -0.307267 180.809 -0.497874 180.346 1.1359C179.883 2.76967 179.709 6.51646 181.931 9.02702L183.783 9.70232C183.783 9.70232 184.779 10.59 188.254 11.0148C190.864 11.2992 193.497 11.2992 196.107 11.0148C197.114 10.8786 198.187 11.5594 198.525 14.7616C198.775 17.0815 199.608 21.8413 201.155 21.2585Z" fill="#263238"/>
<path d="M203.138 10.3615L206.405 8.60244C206.301 8.38071 206.152 8.18258 205.969 8.02008C205.785 7.85758 205.57 7.73412 205.337 7.65721C205.105 7.58029 204.859 7.55152 204.614 7.57264C204.37 7.59377 204.133 7.66436 203.917 7.78011C203.48 8.02816 203.156 8.43453 203.011 8.91507C202.866 9.3956 202.911 9.91349 203.138 10.3615Z" fill="#263238"/>
<path d="M191.402 31.1268C191.402 31.1268 196.271 30.1465 197.97 29.2425C198.971 28.72 199.791 27.9076 200.323 26.9116C200.065 27.8995 199.611 28.8254 198.988 29.6346C197.741 31.2248 191.402 32.3957 191.402 32.3957V31.1268Z" fill="#F59595"/>
<path d="M191.402 18.5301C191.41 18.7224 191.474 18.9083 191.586 19.0645C191.699 19.2207 191.855 19.3404 192.034 19.4086C192.214 19.4768 192.411 19.4906 192.598 19.4481C192.786 19.4056 192.957 19.3088 193.09 19.1698C193.223 19.0308 193.312 18.8557 193.347 18.6663C193.381 18.4769 193.359 18.2816 193.283 18.1048C193.206 17.928 193.08 17.7775 192.919 17.672C192.758 17.5666 192.57 17.5108 192.377 17.5117C192.114 17.5203 191.864 17.6317 191.682 17.822C191.5 18.0124 191.399 18.2666 191.402 18.5301Z" fill="#263238"/>
<path d="M192.328 21.079C192.328 21.1151 192.342 21.1498 192.368 21.1753C192.394 21.2008 192.428 21.2152 192.464 21.2152C192.5 21.2152 192.535 21.2008 192.561 21.1753C192.586 21.1498 192.6 21.1151 192.6 21.079C192.6 21.0429 192.586 21.0083 192.561 20.9827C192.535 20.9572 192.5 20.9429 192.464 20.9429C192.428 20.9429 192.394 20.9572 192.368 20.9827C192.342 21.0083 192.328 21.0429 192.328 21.079Z" fill="#F59595"/>
<path d="M193.423 20.4578C193.422 20.4761 193.425 20.4944 193.431 20.5116C193.438 20.5287 193.448 20.5444 193.461 20.5576C193.473 20.5708 193.489 20.5814 193.505 20.5885C193.522 20.5957 193.54 20.5994 193.559 20.5994C193.596 20.5994 193.632 20.5845 193.659 20.5579C193.685 20.5314 193.7 20.4954 193.7 20.4578C193.704 20.4373 193.704 20.4161 193.699 20.3958C193.694 20.3755 193.684 20.3565 193.671 20.3403C193.658 20.3242 193.641 20.3111 193.622 20.3022C193.603 20.2932 193.582 20.2886 193.562 20.2886C193.541 20.2886 193.52 20.2932 193.501 20.3022C193.482 20.3111 193.465 20.3242 193.452 20.3403C193.439 20.3565 193.429 20.3755 193.424 20.3958C193.419 20.4161 193.419 20.4373 193.423 20.4578Z" fill="#F59595"/>
<path d="M193.977 21.5474C193.975 21.5659 193.978 21.5845 193.984 21.6021C193.99 21.6196 194 21.6356 194.013 21.649C194.026 21.6624 194.042 21.6729 194.059 21.6798C194.076 21.6867 194.095 21.6898 194.113 21.689C194.151 21.689 194.187 21.674 194.213 21.6475C194.24 21.6209 194.255 21.5849 194.255 21.5474C194.255 21.5098 194.24 21.4738 194.213 21.4472C194.187 21.4207 194.151 21.4058 194.113 21.4058C194.077 21.4072 194.042 21.4227 194.017 21.4491C193.991 21.4755 193.977 21.5107 193.977 21.5474Z" fill="#F59595"/>
<path d="M194.887 20.6103C194.887 20.6484 194.901 20.685 194.928 20.7124C194.954 20.7399 194.99 20.756 195.028 20.7574C195.047 20.7567 195.065 20.7523 195.082 20.7445C195.099 20.7368 195.114 20.7257 195.127 20.7121C195.14 20.6984 195.149 20.6824 195.156 20.665C195.162 20.6475 195.165 20.6289 195.164 20.6103C195.164 20.5737 195.15 20.5385 195.125 20.5121C195.1 20.4857 195.065 20.4702 195.028 20.4688C194.991 20.4688 194.955 20.4837 194.928 20.5102C194.902 20.5368 194.887 20.5728 194.887 20.6103Z" fill="#F59595"/>
<path d="M190.787 20.3163C190.787 20.3524 190.801 20.3871 190.827 20.4126C190.853 20.4381 190.887 20.4525 190.923 20.4525C190.959 20.4525 190.994 20.4381 191.02 20.4126C191.045 20.3871 191.059 20.3524 191.059 20.3163C191.059 20.2802 191.045 20.2456 191.02 20.2201C190.994 20.1945 190.959 20.1802 190.923 20.1802C190.887 20.1802 190.853 20.1945 190.827 20.2201C190.801 20.2456 190.787 20.2802 190.787 20.3163Z" fill="#F59595"/>
<path d="M191.108 21.5473C191.106 21.5658 191.109 21.5845 191.115 21.602C191.121 21.6195 191.131 21.6355 191.144 21.6489C191.157 21.6623 191.172 21.6728 191.19 21.6797C191.207 21.6866 191.225 21.6897 191.244 21.6889C191.262 21.6889 191.281 21.6852 191.297 21.678C191.314 21.6708 191.33 21.6603 191.342 21.6471C191.355 21.6339 191.365 21.6182 191.371 21.6011C191.378 21.5839 191.381 21.5656 191.38 21.5473C191.38 21.5112 191.366 21.4765 191.34 21.451C191.315 21.4255 191.28 21.4111 191.244 21.4111C191.208 21.4111 191.173 21.4255 191.148 21.451C191.122 21.4765 191.108 21.5112 191.108 21.5473Z" fill="#F59595"/>
<path d="M189.594 20.7465C189.594 20.7826 189.608 20.8172 189.634 20.8428C189.659 20.8683 189.694 20.8826 189.73 20.8826C189.766 20.8826 189.801 20.8683 189.826 20.8428C189.852 20.8172 189.866 20.7826 189.866 20.7465C189.866 20.7104 189.852 20.6758 189.826 20.6502C189.801 20.6247 189.766 20.6104 189.73 20.6104C189.694 20.6104 189.659 20.6247 189.634 20.6502C189.608 20.6758 189.594 20.7104 189.594 20.7465Z" fill="#F59595"/>
<path d="M185.346 20.2618C185.346 20.2984 185.36 20.3336 185.385 20.36C185.411 20.3864 185.445 20.402 185.482 20.4034C185.501 20.4027 185.519 20.3983 185.536 20.3905C185.553 20.3828 185.568 20.3717 185.581 20.3581C185.593 20.3444 185.603 20.3284 185.609 20.311C185.616 20.2935 185.619 20.2749 185.618 20.2563C185.618 20.2197 185.604 20.1845 185.579 20.1581C185.553 20.1317 185.519 20.1162 185.482 20.1147C185.463 20.1154 185.445 20.1198 185.428 20.1276C185.411 20.1354 185.396 20.1464 185.383 20.16C185.371 20.1737 185.361 20.1897 185.354 20.2072C185.348 20.2246 185.345 20.2432 185.346 20.2618Z" fill="#F59595"/>
<path d="M184.387 20.9316C184.386 20.9499 184.389 20.9682 184.396 20.9853C184.402 21.0025 184.412 21.0181 184.425 21.0314C184.437 21.0446 184.453 21.0551 184.47 21.0623C184.486 21.0695 184.505 21.0732 184.523 21.0732C184.56 21.0717 184.594 21.0562 184.62 21.0298C184.645 21.0034 184.659 20.9682 184.659 20.9316C184.659 20.8954 184.645 20.8608 184.619 20.8353C184.594 20.8098 184.559 20.7954 184.523 20.7954C184.487 20.7954 184.452 20.8098 184.427 20.8353C184.401 20.8608 184.387 20.8954 184.387 20.9316Z" fill="#F59595"/>
<path d="M183.637 20.2129C183.636 20.2315 183.639 20.25 183.645 20.2675C183.652 20.285 183.662 20.301 183.674 20.3146C183.687 20.3283 183.702 20.3393 183.719 20.3471C183.736 20.3549 183.754 20.3592 183.773 20.3599C183.806 20.3534 183.837 20.3354 183.858 20.3091C183.88 20.2828 183.892 20.2497 183.892 20.2156C183.892 20.1815 183.88 20.1484 183.858 20.1221C183.837 20.0958 183.806 20.0778 183.773 20.0713C183.736 20.0727 183.702 20.0882 183.676 20.1146C183.651 20.141 183.637 20.1763 183.637 20.2129Z" fill="#F59595"/>
<path d="M182.727 20.5449C182.723 20.5654 182.724 20.5866 182.729 20.6069C182.734 20.6273 182.743 20.6462 182.757 20.6624C182.77 20.6786 182.787 20.6916 182.806 20.7005C182.825 20.7095 182.845 20.7141 182.866 20.7141C182.887 20.7141 182.908 20.7095 182.927 20.7005C182.946 20.6916 182.962 20.6786 182.976 20.6624C182.989 20.6462 182.998 20.6273 183.004 20.6069C183.009 20.5866 183.009 20.5654 183.005 20.5449C183.005 20.5083 182.991 20.4731 182.966 20.4467C182.94 20.4203 182.906 20.4047 182.869 20.4033C182.831 20.4033 182.795 20.4182 182.769 20.4448C182.742 20.4713 182.727 20.5074 182.727 20.5449Z" fill="#F59595"/>
<path d="M182.574 19.4775C182.574 19.4961 182.577 19.5147 182.583 19.5321C182.589 19.5496 182.599 19.5656 182.612 19.5793C182.625 19.5929 182.64 19.604 182.657 19.6117C182.674 19.6195 182.692 19.6239 182.71 19.6246C182.744 19.618 182.774 19.6001 182.796 19.5737C182.817 19.5474 182.829 19.5144 182.829 19.4803C182.829 19.4461 182.817 19.4131 182.796 19.3868C182.774 19.3604 182.744 19.3425 182.71 19.3359C182.674 19.3373 182.639 19.3529 182.614 19.3793C182.588 19.4057 182.574 19.4409 182.574 19.4775Z" fill="#F59595"/>
<path d="M192.438 14.8488L194.523 15.9979C194.665 15.7149 194.694 15.3887 194.604 15.0853C194.514 14.7819 194.312 14.5241 194.039 14.3641C193.902 14.2884 193.752 14.2409 193.597 14.2244C193.442 14.2078 193.285 14.2226 193.136 14.2678C192.986 14.313 192.847 14.3877 192.728 14.4875C192.608 14.5873 192.509 14.7102 192.438 14.8488Z" fill="#263238"/>
<path d="M191.843 25.2666L189.615 26.0998C189.664 26.2491 189.743 26.387 189.846 26.5055C189.949 26.6239 190.075 26.7205 190.216 26.7896C190.357 26.8586 190.511 26.8987 190.667 26.9074C190.824 26.9162 190.981 26.8934 191.129 26.8405C191.429 26.7222 191.671 26.4917 191.805 26.198C191.938 25.9042 191.951 25.5702 191.843 25.2666Z" fill="#F59595"/>
<path d="M183.309 15.6601L185.215 14.1951C185.126 14.0701 185.012 13.964 184.881 13.8833C184.75 13.8026 184.604 13.7487 184.452 13.7249C184.3 13.7011 184.145 13.7078 183.995 13.7446C183.846 13.7813 183.705 13.8475 183.582 13.9392C183.324 14.1363 183.152 14.4248 183.101 14.7452C183.051 15.0655 183.125 15.3931 183.309 15.6601Z" fill="#263238"/>
<path d="M183.897 18.2523C183.905 18.443 183.969 18.627 184.082 18.7815C184.194 18.9359 184.349 19.0541 184.528 19.1212C184.706 19.1884 184.901 19.2016 185.087 19.1592C185.273 19.1168 185.443 19.0207 185.575 18.8828C185.707 18.7449 185.795 18.5712 185.83 18.3834C185.864 18.1956 185.842 18.0019 185.767 17.8263C185.692 17.6507 185.567 17.5009 185.408 17.3956C185.249 17.2903 185.062 17.2341 184.871 17.2339C184.608 17.241 184.357 17.352 184.175 17.5427C183.992 17.7333 183.892 17.9883 183.897 18.2523Z" fill="#263238"/>
<path d="M188.255 17.3267L187.934 23.1919L184.873 22.1463L188.255 17.3267Z" fill="#F59595"/>
<path d="M204.608 170.776V169.883C204.009 170.144 202.62 175.443 200.143 177.703C198.171 179.5 195.486 181.575 194.8 183.579C194.114 185.583 198.541 186.814 200.382 186.487C202.522 186.106 206.231 184.603 207.162 183.22C208.094 181.837 208.524 179.767 209.281 178.743C210.038 177.719 211.78 176.565 212.189 175.394C212.418 174.746 212.151 173.319 211.835 172.127C211.541 171.037 211.23 169.807 210.855 169.91C210.855 170.046 210.855 170.591 210.855 170.591C210.397 171.097 209.145 171.593 207.729 171.647C206.814 171.658 204.597 171.462 204.608 170.776Z" fill="#263238"/>
<path d="M182.89 160.886C182.563 160.886 182.302 161.355 181.583 162.128C180.514 163.207 179.274 164.101 177.912 164.775C175.571 165.946 171.023 167.743 168.965 168.674C167.679 169.251 167.739 170.803 169.068 171.686C170.397 172.568 173.605 173.21 177.46 172.345C179.557 171.876 182.291 169.937 183.995 170.041C185.7 170.144 188.962 170.123 190.242 169.246C191.522 168.369 191.004 166.485 190.645 164.889C190.253 163.13 189.686 160.434 189.104 160.532V161.077C188.352 162.21 184.529 162.678 182.879 161.839L182.89 160.886Z" fill="#263238"/>
<path d="M194.899 94.3644C191.664 93.3597 188.69 91.6568 186.186 89.376C186.186 89.376 187.868 92.5183 192.857 95.4427L192.584 112.619L194.899 94.3644Z" fill="#263238"/>
<path d="M80.6494 62.3535C70.4056 53.139 59.3831 41.5828 59.2578 34.6774C64.0066 34.5684 65.1013 34.6774 68.2054 37.0354C70.972 39.1376 82.3267 53.5093 86.177 55.9981C91.2743 57.2779 100.451 58.7701 104.862 58.8518C105.644 58.8601 106.401 58.581 106.991 58.0675C108.587 56.6952 109.829 56.7387 111.566 55.8892C112.933 55.2139 113.456 54.4406 113.744 54.6802C114.12 54.9852 114.588 55.9164 113.831 57.0219C113.334 57.6696 112.749 58.2451 112.094 58.732C113.738 58.5447 115.347 58.1286 116.876 57.4957C120.541 56.0253 122.365 56.4828 120.906 61.3079C119.991 64.3249 117.377 66.1493 110.014 66.3399C107.305 66.4639 104.592 66.393 101.894 66.1275C96.5024 65.425 90.3104 65.3161 85.9101 64.7606C83.9526 64.5117 82.1174 63.672 80.6494 62.3535Z" fill="#9C5456"/>
<path d="M53.4027 3.27066H54.9875C58.5983 3.27066 62.0613 4.70507 64.6146 7.25833C67.1678 9.8116 68.6023 13.2746 68.6023 16.8854V33.0162H51.7199C50.153 33.0148 48.6017 32.7047 47.1546 32.1038C45.7075 31.5028 44.3929 30.6227 43.2859 29.5137C42.179 28.4047 41.3012 27.0885 40.7029 25.6403C40.1046 24.1921 39.7974 22.6403 39.7988 21.0733V16.8745C39.7988 13.2637 41.2332 9.80071 43.7865 7.24744C46.3398 4.69418 49.8027 3.25977 53.4136 3.25977L53.4027 3.27066Z" fill="#263238"/>
<path d="M26.7944 161.36L27.4479 160.685C26.9469 161.736 24.8666 166.348 25.079 169.877C25.2478 172.682 25.7543 176.227 24.7958 178.242C23.8046 180.344 19.8945 177.6 18.7726 175.999C17.4329 174.142 16.2294 171.19 16.4526 168.685C16.6106 166.926 17.2314 165.259 17.4111 163.93C17.5908 162.602 17.117 160.456 17.678 159.263C17.9829 158.604 19.2355 157.728 20.3574 157.047C21.3866 156.426 22.5357 155.74 22.7263 156.094L22.2253 156.606C22.1981 157.319 22.7699 158.621 23.8101 159.699C24.4745 160.401 26.2825 161.894 26.7944 161.36Z" fill="#6236FF"/>
<path opacity="0.1" d="M26.7944 161.36L27.4479 160.685C26.9469 161.736 24.8666 166.348 25.079 169.877C25.2478 172.682 25.7543 176.227 24.7958 178.242C23.8046 180.344 19.8945 177.6 18.7726 175.999C17.4329 174.142 16.2294 171.19 16.4526 168.685C16.6106 166.926 17.2314 165.259 17.4111 163.93C17.5908 162.602 17.117 160.456 17.678 159.263C17.9829 158.604 19.2355 157.728 20.3574 157.047C21.3866 156.426 22.5357 155.74 22.7263 156.094L22.2253 156.606C22.1981 157.319 22.7699 158.621 23.8101 159.699C24.4745 160.401 26.2825 161.894 26.7944 161.36Z" fill="black"/>
<path d="M25.2643 172.383C25.2044 171.522 25.1281 170.667 25.0791 169.872C24.9321 167.405 25.9015 164.426 26.6748 162.471C27.1159 161.382 31.2276 155.517 31.2276 155.517L25.4876 150.615L22.22 156.606L22.1057 156.72V156.758C21.3814 157.956 21.0165 162.672 20.5863 165.575C20.3031 167.519 20.461 170.476 22.0893 172.562C23.6578 174.528 25.1064 174.85 25.2643 172.383Z" fill="#9C5456"/>
<path d="M61.5712 163.925C61.4822 163.95 61.4033 164.003 61.3456 164.075C61.288 164.147 61.2545 164.236 61.2499 164.328C61.1737 164.873 61.0866 165.864 60.9232 166.779C60.6999 167.999 60.4766 169.752 60.6945 170.722C60.9123 171.691 63.1941 173.069 64.7299 173.27C66.2656 173.472 68.9069 174.904 70.1431 175.993C71.6571 177.322 74.8647 178.39 77.0213 178.417C79.5482 178.444 81.5305 177.872 82.1078 176.021C82.3474 175.253 81.7157 174.316 78.4536 172.824C78.4536 172.824 76.8198 171.996 75.8668 171.43C71.1452 168.582 69.5223 166.942 68.1118 163.974L61.5712 163.925Z" fill="#6236FF"/>
<path opacity="0.1" d="M61.5712 163.925C61.4822 163.95 61.4033 164.003 61.3456 164.075C61.288 164.147 61.2545 164.236 61.2499 164.328C61.1737 164.873 61.0866 165.864 60.9232 166.779C60.6999 167.999 60.4766 169.752 60.6945 170.722C60.9123 171.691 63.1941 173.069 64.7299 173.27C66.2656 173.472 68.9069 174.904 70.1431 175.993C71.6571 177.322 74.8647 178.39 77.0213 178.417C79.5482 178.444 81.5305 177.872 82.1078 176.021C82.3474 175.253 81.7157 174.316 78.4536 172.824C78.4536 172.824 76.8198 171.996 75.8668 171.43C71.1452 168.582 69.5223 166.942 68.1118 163.974L61.5712 163.925Z" fill="black"/>
<path d="M69.9157 166.397C69.1212 165.154 68.6719 163.722 68.6141 162.248L68.5107 158.223H61.5508V163.92V164.791C61.9429 167.557 64.5515 167.884 66.7298 169.414C67.819 170.177 72.0559 173.434 74.8987 173.962C77.2187 174.387 78.0846 173.472 78.395 172.818C75.3302 171.012 72.4848 168.858 69.9157 166.397Z" fill="#9C5456"/>
<path d="M39.0808 121.981C35.9854 124.726 33.5631 128.148 32.0012 131.979C29.8555 137.442 23.707 153.447 23.707 153.447C23.707 153.447 26.3973 158.169 30.057 158.49C30.057 158.49 47.4349 132.932 49.4335 126.958C51.4594 123.908 53.9917 108.889 55.827 98.4978L55.8924 98.6122L59.0183 120.657C58.2096 123.244 57.6247 125.895 57.2702 128.581C56.7256 133.989 61.3056 160.167 61.3056 160.167C61.3056 160.167 64.4152 161.801 68.7175 160.358C68.7175 160.358 69.4091 126.223 69.8993 119.704C70.7161 108.763 71.1137 77.9068 69.1096 71.4316L40.4369 73.0327C38.057 79.9055 37.8718 84.2949 38.1768 91.832C38.46 99.6197 39.0808 121.981 39.0808 121.981Z" fill="#37474F"/>
<path d="M55.875 98.6123L57.5088 88.4339C57.5088 88.4339 64.3979 87.0016 67.5238 84.0771C67.5238 84.0771 64.2563 88.1561 59.3549 89.4904L57.5251 97.3271L58.7722 118.964L55.875 98.6123Z" fill="#263238"/>
<path d="M49.2578 34.9713C42.8262 35.4124 40.8058 38.0482 40.7622 41.9202C40.7884 45.0127 41.3087 48.0812 42.3034 51.0095L45.2224 60.9101C45.2224 60.9101 42.8044 66.3996 40.4082 73.0654C51.6595 79.3445 65.7045 76.0443 69.0918 71.4643C69.2334 70.4895 68.3621 62.8924 67.8284 57.9258C69.8107 52.9591 70.3335 49.8059 69.4948 46.522C67.9427 40.4226 61.9196 34.4811 59.2565 34.6935L49.2578 34.9713Z" fill="#6236FF"/>
<path opacity="0.1" d="M49.2578 34.9713C42.8262 35.4124 40.8058 38.0482 40.7622 41.9202C40.7884 45.0127 41.3087 48.0812 42.3034 51.0095L45.2224 60.9101C45.2224 60.9101 42.8044 66.3996 40.4082 73.0654C51.6595 79.3445 65.7045 76.0443 69.0918 71.4643C69.2334 70.4895 68.3621 62.8924 67.8284 57.9258C69.8107 52.9591 70.3335 49.8059 69.4948 46.522C67.9427 40.4226 61.9196 34.4811 59.2565 34.6935L49.2578 34.9713Z" fill="black"/>
<path d="M63.537 74.9935L53.62 64.3032L40.9637 45.0791C41.2076 47.0964 41.6564 49.0835 42.3034 51.0097L45.2224 60.9104C45.2224 60.9104 42.8044 66.3998 40.4082 73.0656C48.2884 77.4496 57.541 77.1446 63.537 74.9935Z" fill="#6236FF"/>
<path opacity="0.1" d="M63.537 74.9935L53.62 64.3032L40.9637 45.0791C41.2076 47.0964 41.6564 49.0835 42.3034 51.0097L45.2224 60.9104C45.2224 60.9104 42.8044 66.3998 40.4082 73.0656C48.2884 77.4496 57.541 77.1446 63.537 74.9935Z" fill="black"/>
<path d="M39.5002 7.89404L41.4498 11.02C41.2496 11.1576 41.0233 11.2528 40.785 11.3C40.5467 11.3471 40.3012 11.3451 40.0637 11.2941C39.8261 11.2432 39.6015 11.1443 39.4035 11.0035C39.2054 10.8627 39.0382 10.683 38.912 10.4754C38.6646 10.0507 38.5877 9.54792 38.6969 9.0687C38.8061 8.58948 39.0932 8.16961 39.5002 7.89404Z" fill="#263238"/>
<path d="M37.3711 11.4611L41.0199 10.9165C41.0699 11.1577 41.0697 11.4066 41.0192 11.6477C40.9687 11.8888 40.8691 12.1168 40.7265 12.3177C40.5839 12.5185 40.4014 12.6878 40.1905 12.815C39.9795 12.9422 39.7446 13.0244 39.5004 13.0567C39.0087 13.114 38.5138 12.9804 38.1176 12.6835C37.7214 12.3867 37.4542 11.9491 37.3711 11.4611Z" fill="#263238"/>
<path d="M63.8642 9.09229C65.3836 9.99086 67.2624 13.8193 67.0772 21.8357C66.9193 28.6322 64.7192 30.3096 63.6136 30.7942C62.5081 31.2789 60.3733 30.9848 58.2984 30.6363V34.7153C58.2984 34.7153 61.1684 38.0482 60.9833 39.9161C60.7981 41.7841 56.8444 42.2307 54.165 40.4008C52.4249 39.1516 50.9327 37.5892 49.7647 35.7936V25.9365C49.7647 25.9365 48.3651 27.8044 46.0724 26.285C43.7796 24.7656 43.698 20.997 45.0268 19.6465C46.3556 18.2959 49.2256 18.7207 49.7647 20.5886C49.7647 20.5886 53.0704 20.7084 57.4761 18.2904C59.1892 17.3675 60.6604 16.0536 61.7703 14.4554C62.8803 12.8572 63.5976 11.0198 63.8642 9.09229Z" fill="#9C5456"/>
<path d="M58.7295 20.1258C58.7314 20.2935 58.684 20.458 58.5931 20.5989C58.5023 20.7398 58.372 20.8509 58.2185 20.9183C58.065 20.9858 57.8951 21.0066 57.7298 20.9783C57.5646 20.9499 57.4113 20.8736 57.2891 20.7588C57.1669 20.644 57.0812 20.4958 57.0425 20.3326C57.0039 20.1695 57.0141 19.9986 57.0718 19.8412C57.1296 19.6837 57.2323 19.5468 57.3673 19.4473C57.5022 19.3478 57.6635 19.2902 57.8309 19.2817C57.9454 19.2781 58.0594 19.297 58.1665 19.3375C58.2736 19.3779 58.3717 19.4391 58.4551 19.5175C58.5386 19.5959 58.6058 19.69 58.6529 19.7944C58.6999 19.8987 58.726 20.0114 58.7295 20.1258Z" fill="#263238"/>
<path d="M59.7201 25.8877L61.7024 26.5249C61.6662 26.6574 61.6037 26.7812 61.5186 26.889C61.4336 26.9969 61.3276 27.0865 61.2072 27.1526C61.0868 27.2186 60.9543 27.2598 60.8176 27.2736C60.681 27.2873 60.5429 27.2735 60.4117 27.2328C60.1447 27.1419 59.9234 26.9508 59.7944 26.6999C59.6654 26.449 59.6387 26.1578 59.7201 25.8877Z" fill="#7D3336"/>
<path d="M65.7377 17.5062L64.0059 16.3026C64.0792 16.1869 64.1751 16.0871 64.2878 16.0093C64.4006 15.9315 64.5279 15.8772 64.6622 15.8498C64.7964 15.8223 64.9348 15.8222 65.0691 15.8495C65.2033 15.8768 65.3307 15.9309 65.4436 16.0086C65.6791 16.1699 65.8418 16.4172 65.8968 16.6973C65.9518 16.9773 65.8946 17.2678 65.7377 17.5062Z" fill="#263238"/>
<path d="M65.3408 19.5213C65.3427 19.689 65.2953 19.8535 65.2045 19.9944C65.1136 20.1353 64.9833 20.2464 64.8299 20.3139C64.6764 20.3813 64.5064 20.4021 64.3412 20.3738C64.1759 20.3454 64.0227 20.2691 63.9005 20.1543C63.7783 20.0395 63.6925 19.8913 63.6539 19.7281C63.6152 19.565 63.6254 19.3941 63.6832 19.2367C63.7409 19.0793 63.8436 18.9423 63.9786 18.8428C64.1136 18.7434 64.2748 18.6858 64.4422 18.6772C64.5567 18.6736 64.6707 18.6925 64.7778 18.733C64.8849 18.7735 64.983 18.8346 65.0665 18.913C65.1499 18.9914 65.2171 19.0855 65.2642 19.1899C65.3113 19.2942 65.3373 19.4069 65.3408 19.5213Z" fill="#263238"/>
<path d="M61.1641 19.02L61.3002 24.1664L64.0068 23.3277L61.1641 19.02Z" fill="#7D3336"/>
<path d="M58.2991 30.6364C56.1208 30.3532 51.617 29.0626 50.9199 27.2817C51.1983 28.1827 51.7479 28.9758 52.4938 29.5527C53.8389 30.7018 58.2991 31.9979 58.2991 31.9979V30.6364Z" fill="#7D3336"/>
<path d="M125.001 125.401L83.1108 101.188V64.1722L82.2285 63.6658V51.3145L125.001 76.0117V125.401Z" fill="#6236FF"/>
<path opacity="0.1" d="M125.001 125.401L83.1108 101.188V64.1722L82.2285 63.6658V51.3145L125.001 76.0117V125.401Z" fill="black"/>
<path opacity="0.15" d="M125.001 88.3576L110.003 79.6987L109.998 67.331L108.969 66.7537L108.963 79.0996L83.1113 64.1724V65.9477L108.963 80.8695L108.958 116.137L110.009 116.742L110.003 81.4686L125.001 90.1276V88.3576Z" fill="black"/>
<path d="M125 125.401L166.661 101.362V64.3029L167.772 63.6658V51.3145L125 76.0117V125.401Z" fill="#6236FF"/>
<path opacity="0.1" d="M166.661 64.3032L141.038 79.0998L141.033 66.7539L140.003 67.3311V79.6988L125 88.3578V90.1277L139.998 81.4742L139.993 116.742L141.044 116.137L141.038 80.8806L166.661 66.1004V64.3032Z" fill="black"/>
<path d="M167.773 51.3143L125.001 26.6226L82.2285 51.3143L125.001 76.0115L167.773 51.3143Z" fill="#6236FF"/>
<path opacity="0.4" d="M167.773 51.3143L125.001 26.6226L82.2285 51.3143L125.001 76.0115L167.773 51.3143Z" fill="white"/>
<path opacity="0.15" d="M117.801 51.8048L97.3574 42.6012L98.2669 42.0566L118.885 51.3201" fill="black"/>
<path opacity="0.15" d="M132.195 51.8048L152.639 42.6012L151.724 42.0566L131.105 51.3201" fill="black"/>
<path opacity="0.15" d="M141.033 66.7535L125.856 55.4859V55.4804L125.001 54.8433L124.995 54.8487V54.8433L124.135 55.4804L124.14 55.4859L108.957 66.7535L109.992 67.3307L124.995 56.1231L140.004 67.3307L141.033 66.7535Z" fill="black"/>
<path d="M151.734 60.5781V111.192L141.044 117.368L141.033 66.7538L151.734 60.5781Z" fill="#37474F"/>
<path d="M141.043 117.368L139.992 116.742L141.043 116.137V117.368Z" fill="#263238"/>
<path d="M98.2676 60.5781V111.192L108.958 117.368L108.969 66.7538L98.2676 60.5781Z" fill="#263238"/>
<path d="M108.957 117.368L110.008 116.742L108.957 116.137V117.368Z" fill="black"/>
<path d="M108.969 66.7537L125.007 54.849L131.123 51.3146L151.736 42.0565L141.045 35.8809L125.007 47.7856L118.897 51.32L98.2676 60.5781L108.969 66.7537Z" fill="#455A64"/>
<path d="M118.896 51.3198L117.807 51.8045L121.406 53.4002L124.146 55.4805L125.006 54.8433L122.332 52.861L118.896 51.3198Z" fill="#263238"/>
<path d="M141.034 66.7537L122.333 52.8612L98.2676 42.0565L108.963 35.8809L127.681 49.7734L151.736 60.5781L141.034 66.7537Z" fill="#455A64"/>
<path d="M121.647 49.2886C121.647 49.2886 109.083 59.7175 88.5684 57.3431C88.5684 57.3431 97.2818 63.0449 107.934 61.7543C107.934 61.7543 106.404 65.6426 97.4289 70.3751C97.4289 70.3751 119.85 70.5821 125.644 51.968L121.647 49.2886Z" fill="#37474F"/>
<path d="M109.834 67.9901C116.042 65.6592 122.817 61.0629 125.627 51.9846L121.63 49.3052C119.201 51.1464 116.545 52.6675 113.728 53.8307C113.728 53.8307 118.085 55.7368 122.528 54.5605C121.521 57.59 119.863 60.3622 117.67 62.6823C115.477 65.0024 112.802 66.8141 109.834 67.9901Z" fill="#263238"/>
<path d="M93.7906 35.6466C93.7906 35.6466 96.2849 32.7276 103.936 34.0455C108.554 34.8461 116.397 40.2267 120.274 49.1906C120.764 50.3234 121.864 50.7046 122.452 51.467C122.589 51.6378 122.738 51.7979 122.899 51.9463L125.322 51.9735C125.322 43.5977 120.623 35.1456 116.179 30.2552C111.735 25.3648 104.416 22.974 99.1984 22.7889C97.3483 22.7034 95.5043 23.058 93.8179 23.8236C92.3965 27.7828 91.8083 31.7093 93.7906 35.6466Z" fill="#37474F"/>
<path d="M119.74 48.0634C119.74 48.0634 124.097 46.593 122.305 39.6113C124.185 43.4694 125.209 47.6884 125.306 51.979L122.883 51.9518C122.722 51.8035 122.573 51.6432 122.436 51.4725C121.848 50.7101 120.748 50.3289 120.258 49.1961C120.1 48.804 119.92 48.4337 119.74 48.0634Z" fill="#263238"/>
<path d="M98.2549 41.0108C96.4193 39.5405 94.9003 37.714 93.7893 35.6411C91.8015 31.7037 92.3897 27.7772 93.7893 23.8071C89.3019 25.7894 86.6225 31.622 85.6204 36.3327C85.0758 38.9685 85.0105 41.234 85.457 42.3232C86.7151 45.2858 94.0834 57.2559 125.642 51.9843L125.61 48.6677C117.708 48.1776 103.908 45.7705 98.2549 41.0108Z" fill="#37474F"/>
<path d="M93.7906 35.6466C93.7906 35.6466 93.4149 26.4213 99.1984 22.7889C97.3483 22.7034 95.5043 23.058 93.8179 23.8236C92.3965 27.7828 91.8083 31.7093 93.7906 35.6466Z" fill="#263238"/>
<path d="M128.355 49.2886C128.355 49.2886 140.918 59.7175 161.433 57.3431C161.433 57.3431 152.72 63.0449 142.068 61.7543C142.068 61.7543 143.598 65.6426 152.573 70.3751C152.573 70.3751 130.152 70.5821 124.357 51.968L128.355 49.2886Z" fill="#37474F"/>
<path d="M127.474 54.5497C131.896 55.726 136.275 53.8199 136.275 53.8199L135.452 53.4496L135.327 53.3951L134.597 53.052L134.434 52.9758L133.77 52.6436C133.713 52.6178 133.659 52.5887 133.606 52.5565C133.394 52.453 133.192 52.3441 132.991 52.2406L132.827 52.1535L132.283 51.8431L132.125 51.7559L131.613 51.4618L131.471 51.3801L130.992 51.1079L130.861 51.0316L130.447 50.7702L130.328 50.694L129.963 50.4543L129.854 50.3835L129.538 50.1712L129.445 50.1058L129.179 49.9206L129.097 49.8607L128.885 49.7082L128.814 49.6538L128.656 49.534L128.585 49.4795L128.487 49.4087L128.422 49.3597L128.389 49.327L128.351 49.2998L127.044 50.1766L124.354 51.9792C130.143 70.5933 152.563 70.3864 152.569 70.3864C141.034 69.8418 128.917 61.0902 127.474 54.5497Z" fill="#263238"/>
<path d="M156.212 35.6466C156.212 35.6466 153.717 32.7276 146.066 34.0455C141.448 34.8461 133.606 40.2267 129.728 49.1906C129.238 50.3234 128.138 50.7046 127.55 51.467C127.413 51.6378 127.264 51.7979 127.103 51.9463L124.68 51.9735C124.68 43.5977 129.38 35.1456 133.823 30.2552C138.267 25.3648 145.587 22.974 150.804 22.7889C152.654 22.7034 154.498 23.058 156.184 23.8236C157.606 27.7828 158.221 31.7093 156.212 35.6466Z" fill="#37474F"/>
<path d="M130.261 48.0634C130.261 48.0634 125.904 46.593 127.696 39.6113C125.816 43.4694 124.792 47.6884 124.695 51.979L127.119 51.9518C127.279 51.8035 127.429 51.6432 127.565 51.4725C128.153 50.7101 129.254 50.3289 129.744 49.1961C129.902 48.804 130.081 48.4337 130.261 48.0634Z" fill="#263238"/>
<path d="M151.745 41.0108C153.581 39.5405 155.1 37.714 156.211 35.6411C158.198 31.7037 157.61 27.7772 156.211 23.8071C160.698 25.7894 163.377 31.622 164.379 36.3327C164.924 38.9685 164.989 41.234 164.543 42.3232C163.285 45.2858 155.916 57.2559 124.357 51.9843L124.39 48.6677C132.292 48.1776 146.092 45.7705 151.745 41.0108Z" fill="#37474F"/>
<path d="M156.211 35.6466C156.211 35.6466 156.586 26.4213 150.803 22.7889C152.653 22.7034 154.497 23.058 156.183 23.8236C157.605 27.7828 158.22 31.7093 156.211 35.6466Z" fill="#263238"/>
<path d="M129.357 49.7842C129.322 49.4638 129.203 49.1583 129.012 48.899C128.82 48.6396 128.564 48.4358 128.268 48.3084C127.219 47.9404 126.109 47.7813 125 47.84C123.859 47.7813 122.719 47.9669 121.656 48.3846C121.384 48.5157 121.15 48.7149 120.977 48.963C120.805 49.2111 120.699 49.4996 120.671 49.8006C120.556 50.7917 120.485 52.469 121.139 53.4221C122.216 54.3443 123.594 54.8385 125.011 54.8108C126.422 54.8414 127.794 54.3465 128.861 53.4221C129.509 52.4527 129.444 50.7754 129.357 49.7842Z" fill="#455A64"/>
<path d="M52.4328 67.957C41.187 50.993 35.752 37.0461 44.863 35.8262C47.6459 36.4742 49.6064 39.6819 52.0353 46.8324C52.0353 46.8324 57.0183 57.6262 59.2565 62.2443C63.4499 65.6044 71.5262 73.1361 75.5943 74.8407C76.3186 75.1348 77.3805 74.503 78.1157 74.2416C80.098 73.55 81.2417 74.0347 83.175 73.8659C84.6889 73.7351 85.4623 73.2069 85.6474 73.5337C85.8724 73.908 85.9413 74.3558 85.8395 74.7805C85.7376 75.2052 85.4731 75.573 85.1028 75.8046C84.5201 76.2497 83.8274 76.5282 83.0987 76.6106C83.0987 76.6106 84.0137 77.3022 87.5317 77.2913C91.48 77.2913 93.0158 78.3424 89.9007 82.307C87.9456 84.7849 84.8523 85.5364 77.9197 83.0422C75.3533 82.1735 72.8526 81.1215 70.437 79.8945C65.6718 77.2804 67.3601 78.3751 63.6133 76.0007C60.5799 74.0783 53.5274 69.6235 52.4328 67.957Z" fill="#9C5456"/>
<path d="M197.567 67.9574C210.942 49.7463 215.887 37.3024 206.771 36.0825C203.993 36.7306 202.027 39.9437 199.598 47.0941C199.598 47.0941 192.982 57.632 190.749 62.2501C186.55 65.6103 178.474 73.1419 174.411 74.8465C173.692 75.1406 172.625 74.5089 171.89 74.2475C169.907 73.5558 168.764 74.0405 166.83 73.8717C165.316 73.741 164.543 73.2127 164.358 73.5395C164.133 73.9139 164.064 74.3616 164.166 74.7863C164.268 75.211 164.532 75.5788 164.902 75.8104C165.485 76.2555 166.178 76.5341 166.907 76.6164C166.907 76.6164 165.992 77.3081 162.474 77.2972C158.531 77.2972 156.995 78.3482 160.105 82.3129C162.06 84.7907 165.153 85.5423 172.086 83.0481C174.652 82.1793 177.153 81.1274 179.568 79.9003C184.339 77.2863 182.645 78.3809 186.392 76.0065C189.425 74.0786 196.396 69.5531 197.567 67.9574Z" fill="#FFB3B2"/>
<path d="M205.599 35.7773C205.599 35.7773 208.828 35.7773 210.457 37.3675C212.085 38.9578 212.695 41.8822 211.05 46.3751C209.406 50.868 204.913 58.2199 204.913 58.2199C204.913 58.2199 199.619 58.5086 194.914 53.738L199.608 44.9918C199.608 44.9918 201.422 38.4077 205.599 35.7773Z" fill="#6236FF"/>
<path opacity="0.1" d="M205.599 35.7773C205.599 35.7773 208.828 35.7773 210.457 37.3675C212.085 38.9578 212.695 41.8822 211.05 46.3751C209.406 50.868 204.913 58.2199 204.913 58.2199C204.913 58.2199 199.619 58.5086 194.914 53.738L199.608 44.9918C199.608 44.9918 201.422 38.4077 205.599 35.7773Z" fill="black"/>
</svg>
