<svg width="266" height="403" viewBox="0 0 266 403" fill="none" xmlns="http://www.w3.org/2000/svg">
<path opacity="0.1" fill-rule="evenodd" clip-rule="evenodd" d="M0 40.9869H136.203C136.203 40.9869 127.705 12.5758 99.9602 21.9615C72.2152 31.3472 75.393 13.7069 43.3165 6.95828C11.24 0.209714 0 40.9869 0 40.9869Z" fill="#211A38"/>
<path opacity="0.1" fill-rule="evenodd" clip-rule="evenodd" d="M20.4512 238.758H265.999C265.999 238.758 245.422 211.848 212.12 211.848C178.818 211.848 177.577 230.725 158.519 218.226C139.461 205.726 143.51 194.002 113.33 194.002C83.1506 194.002 79.5979 226.876 54.6238 220.518C29.6496 214.159 20.4512 238.758 20.4512 238.758Z" fill="#211A38"/>
<path fill-rule="evenodd" clip-rule="evenodd" d="M92.1196 202L92.1195 294.669L93.0506 293.296C94.8033 290.681 95.8979 288.857 96.3344 287.824C97.7268 284.529 97.8288 271.805 99.6136 271.805C101.398 271.805 100.856 285.801 99.6136 291.412C98.9574 294.375 96.4596 300.428 92.1203 309.57L92.1196 403H77.1196L77.1191 255.777C74.3828 252.489 72.5538 249.869 71.6321 247.918L71.4475 247.516C69.7497 243.721 67.9425 236.953 69.7544 236.953C71.3824 236.953 72.5658 242.089 77.1187 248.253L77.1196 202H92.1196Z" fill="#493E3C"/>
<path d="M80.6191 295C80.8646 295 81.0687 295.177 81.1111 295.41L81.1191 295.5V355.835C81.1191 356.111 80.8953 356.335 80.6191 356.335C80.3737 356.335 80.1695 356.158 80.1272 355.925L80.1191 355.835V295.5C80.1191 295.224 80.343 295 80.6191 295Z" fill="white"/>
<path d="M87.6191 214C87.8646 214 88.0687 214.177 88.1111 214.41L88.1191 214.5V274.835C88.1191 275.111 87.8953 275.335 87.6191 275.335C87.3737 275.335 87.1695 275.158 87.1272 274.925L87.1191 274.835V214.5C87.1191 214.224 87.343 214 87.6191 214Z" fill="white"/>
<path fill-rule="evenodd" clip-rule="evenodd" d="M182.88 63.5039L182.88 368.02L181.949 366.647C180.197 364.032 179.102 362.208 178.666 361.175C177.273 357.88 177.171 345.156 175.386 345.156C173.602 345.156 174.144 359.153 175.386 364.764C176.043 367.727 178.54 373.779 182.88 382.921L182.88 403H197.88L197.881 113.923C200.617 110.635 202.446 108.015 203.368 106.064L203.552 105.662C205.25 101.867 205.391 95.0988 205.246 95.0988C205.1 95.0988 202.434 100.235 197.881 106.399L197.88 63.5039H182.88Z" fill="#493E3C"/>
<path d="M193.5 308C193.255 308 193.05 308.177 193.008 308.41L193 308.5V368.835C193 369.111 193.224 369.335 193.5 369.335C193.745 369.335 193.95 369.158 193.992 368.925L194 368.835V308.5C194 308.224 193.776 308 193.5 308Z" fill="white"/>
<path d="M192.5 78C192.255 78 192.05 78.1769 192.008 78.4101L192 78.5V138.835C192 139.111 192.224 139.335 192.5 139.335C192.745 139.335 192.95 139.158 192.992 138.925L193 138.835V78.5C193 78.2239 192.776 78 192.5 78Z" fill="white"/>
<path fill-rule="evenodd" clip-rule="evenodd" d="M123.614 183.097C123.614 183.097 115.028 185.358 110.756 186.125C106.484 186.892 99.7788 186.125 98.9762 184.611C98.1736 183.097 97.6098 180.676 97.6098 180.676C97.6098 180.676 90.048 180.278 88.872 177.564C87.6961 174.85 83.5159 156.818 86.8719 136.979C90.2279 117.141 89.8144 115.154 110.756 112.442C131.698 109.731 123.614 183.097 123.614 183.097Z" fill="#CB5A23"/>
<path fill-rule="evenodd" clip-rule="evenodd" d="M117.204 113.828L117.072 113.831C110.339 113.982 102.491 117.497 98.8469 120.117C96.4496 121.842 93.4134 122.761 89.7383 122.874C92.1251 115.804 96.4741 114.292 110.757 112.442C113.203 112.126 115.352 112.587 117.204 113.828Z" fill="#D84B25"/>
<path fill-rule="evenodd" clip-rule="evenodd" d="M110.543 138.523L124.269 176.802C124.069 178.852 123.851 180.95 123.615 183.097L121.328 183.692C116.735 184.873 113.212 185.684 110.757 186.125C106.485 186.892 99.7793 186.125 98.9767 184.611C98.7993 184.276 98.6307 183.908 98.4708 183.507C101.857 184.436 103.936 183.492 104.709 180.676C105.964 176.105 105.73 162.549 104.709 154.827C104.041 149.775 100.594 147.151 94.37 146.957L94.0147 146.949L110.543 138.523ZM95.2678 157.981C95.2678 164.291 95.9897 171.528 97.4336 179.692L97.6103 180.676C92.5691 180.411 89.6565 179.374 88.8725 177.564L88.7769 177.327C88.7095 177.149 88.6349 176.932 88.5547 176.679C94.5451 172.96 92.0734 164.996 95.2678 157.981Z" fill="#D84B25"/>
<path fill-rule="evenodd" clip-rule="evenodd" d="M107.036 97.5183L115.131 112.442C115.131 112.442 96.7683 117.066 96.6522 117.068C93.8912 117.117 91.5787 112.903 91.4872 107.657C91.3956 102.411 93.5596 98.1194 96.3206 98.0712L107.036 97.5183Z" fill="url(#paint0_linear_2386_23040)"/>
<path fill-rule="evenodd" clip-rule="evenodd" d="M103.086 102.157L112.977 108.473L115.131 112.442L96.91 117.009C96.7469 117.048 96.6609 117.068 96.6522 117.068C93.8912 117.116 91.5787 112.903 91.4872 107.657C91.4616 106.191 91.6122 104.799 91.9027 103.554C93.788 103.104 95.1697 111.208 96.0211 108.395C96.8927 105.514 95.6342 102.157 97.1516 102.224C98.1632 102.269 99.2136 103.711 100.303 106.551L100.567 107.114C102.559 111.311 103.7 112.587 103.988 110.944C104.278 109.291 104.008 106.508 103.18 102.596L103.086 102.157Z" fill="url(#paint1_linear_2386_23040)"/>
<path d="M95.6324 97.8784C98.2876 97.8784 100.594 101.621 100.594 107.293C100.594 111.599 99.8206 114.368 98.206 115.597C98.0303 115.731 97.7793 115.697 97.6455 115.522C97.5116 115.346 97.5456 115.095 97.7213 114.961C99.0803 113.926 99.7938 111.371 99.7938 107.293C99.7938 102.006 97.7431 98.6784 95.6324 98.6784C95.4115 98.6784 95.2324 98.4993 95.2324 98.2784C95.2324 98.0575 95.4115 97.8784 95.6324 97.8784Z" fill="#193674"/>
<path d="M94.0656 102.793C94.9262 101.548 96.0841 101.426 97.1139 102.846C99.0152 105.469 98.19 113.189 96.1732 113.836C94.84 114.264 93.9508 113.093 93.4449 110.619C93.4006 110.402 93.5402 110.191 93.7566 110.147C93.973 110.103 94.1844 110.242 94.2286 110.459C94.6508 112.523 95.2379 113.296 95.9288 113.074C97.3315 112.624 98.0875 105.552 96.4662 103.316C95.7846 102.375 95.2905 102.427 94.7237 103.247C94.2413 103.945 93.841 105.179 93.841 105.733C93.841 105.954 93.6619 106.133 93.441 106.133C93.2201 106.133 93.041 105.954 93.041 105.733C93.041 105.013 93.4926 103.622 94.0656 102.793Z" fill="#193674"/>
<path d="M95.2672 154.427C95.4881 154.427 95.6672 154.606 95.6672 154.827C95.6672 164.154 96.4457 172.745 98.002 180.598C98.045 180.815 97.9041 181.026 97.6874 181.069C97.4707 181.112 97.2602 180.971 97.2173 180.754C95.6504 172.847 94.8672 164.205 94.8672 154.827C94.8672 154.606 95.0463 154.427 95.2672 154.427Z" fill="#85260C"/>
<path d="M106.589 145.567C106.81 145.567 106.989 145.746 106.989 145.967C106.989 160.511 107.877 172.913 109.652 183.172C109.689 183.39 109.544 183.597 109.326 183.634C109.108 183.672 108.901 183.526 108.864 183.308C107.08 173 106.189 160.553 106.189 145.967C106.189 145.746 106.369 145.567 106.589 145.567Z" fill="#85260C"/>
<path fill-rule="evenodd" clip-rule="evenodd" d="M127.86 287.824C127.86 287.824 120.029 288.938 118.53 291.237C117.031 293.535 124.635 296.339 124.635 296.339C124.635 296.339 121.38 308.255 121.38 318.913C121.38 329.572 127.116 325.075 128.713 314.927C130.311 304.779 131.365 291.237 131.365 291.237L127.86 287.824Z" fill="#493E3C"/>
<path fill-rule="evenodd" clip-rule="evenodd" d="M220.539 254.522C220.539 254.522 213.942 263.649 215.798 266.294C217.655 268.94 223.093 262.944 223.093 262.944C223.093 262.944 221.552 276.472 225.489 286.956C229.426 297.44 232.481 287.055 231.347 274.829C230.213 262.604 226.77 254.522 226.77 254.522H220.539Z" fill="#493E3C"/>
<path fill-rule="evenodd" clip-rule="evenodd" d="M116.792 112C116.792 112 105.419 121.211 94.4705 125.054C83.5222 128.897 79.851 123.672 82.3886 116.321C84.9262 108.97 91.9071 102.157 91.9071 102.157L76.7946 93.7349C76.7946 93.7349 59.94 108.469 58.1 130.42C56.2599 152.37 80.3086 153.521 90.2516 149.928C100.195 146.334 107.339 145.281 109.258 155.955C111.176 166.628 121.625 198.41 138.136 210.349C152.676 200.224 178.819 170.158 178.819 170.158C178.819 170.158 158.768 135.261 153.319 119.227C147.869 103.194 128.996 108.97 128.996 108.97L116.792 112Z" fill="#6236FF"/>
<path fill-rule="evenodd" clip-rule="evenodd" d="M81.6704 119.448C81.1089 125.03 85.1562 128.323 94.4701 125.054C96.4039 124.375 98.3477 123.571 100.301 122.641L99.5115 123.254C91.826 129.152 86.571 131.139 83.7458 129.215C80.9542 127.314 80.2295 124.163 81.5716 119.764L81.6704 119.448Z" fill="#275248"/>
<path fill-rule="evenodd" clip-rule="evenodd" d="M155.183 124.219C157.54 130.072 160.965 137.306 165.458 145.919C162.047 150.734 157.23 163.406 159.745 191.035L158.581 192.224C150.499 200.444 143.684 206.485 138.136 210.348C135.689 208.579 133.375 206.375 131.203 203.868L138.136 126.043L155.183 124.219Z" fill="#275248"/>
<path fill-rule="evenodd" clip-rule="evenodd" d="M113.361 114.663C116.78 115.968 119.454 118.388 121.385 121.922C125.978 130.327 125.619 143.18 123.615 153.219C122.462 158.999 119.166 165.119 113.726 171.582C112.125 167.119 110.909 163.044 110.102 159.809C115.469 151.495 117.966 143.347 117.595 135.366C117.216 127.215 113.997 121.558 107.939 118.396C109.701 117.28 111.471 116.064 113.249 114.747L113.361 114.663Z" fill="#275248"/>
<path fill-rule="evenodd" clip-rule="evenodd" d="M134.42 107.719C135.194 112.394 136.592 118.758 138.137 123.773C128.679 122.022 120.411 118.992 113.332 114.686C114.195 114.045 115.06 113.382 115.926 112.695L116.793 112L128.997 108.97C130.815 108.414 132.539 108.009 134.169 107.756L134.42 107.719Z" fill="white"/>
<path fill-rule="evenodd" clip-rule="evenodd" d="M78.8995 100.918L88.6485 105.651C87.4662 107.055 86.4199 108.476 85.5096 109.913L76.2317 104.487L78.8995 100.918ZM73.0514 97.2861L76.2317 99.2694L73.3753 103.146L69.4844 101.328C70.372 100.22 71.3104 99.1358 72.2998 98.0762L73.0514 97.2861Z" fill="white"/>
<path fill-rule="evenodd" clip-rule="evenodd" d="M120.258 1.16294C120.57 -0.430714 123.024 -0.89967 123.823 3.13947C124.629 7.21086 124.033 22.186 125.619 30.0759C127.301 38.4426 131.257 39.2371 137.487 42.001L137.486 4.06967H155.486L155.487 67.4124L156.402 66.5217L157.287 65.6421C164.68 58.2126 168.796 51.9889 169.635 46.9708L169.77 46.1259L169.903 45.2301C171.338 35.1938 173.05 13.1589 175.847 13.1589C178.819 13.1589 175.348 42.7286 173.678 51.535C172.3 58.8016 161.073 69.7489 155.485 78.7318L155.486 402.07H137.486L137.485 259.046C128.123 253.812 122.718 248.405 121.271 242.827L120.57 240.084L119.987 237.757C119.432 235.524 118.82 233.016 118.15 230.232L116.79 224.531L114.584 215.131L115.477 213.489C115.576 213.308 115.741 213.172 115.938 213.111C116.357 212.98 116.802 213.214 116.933 213.633L117.755 216.306L118.307 218.136L119.524 222.24L120.632 226.039L122.195 231.473C124.499 239.536 129.596 245.653 137.486 249.822L137.486 56.5993L136.183 55.2529C127.399 46.13 122.572 40.1535 121.704 37.3232C120.258 32.6061 119.946 2.75659 120.258 1.16294Z" fill="#493E3C"/>
<path fill-rule="evenodd" clip-rule="evenodd" d="M155.485 110.119L155.485 166.691L137.486 173.908L137.487 142.803L141.401 135.54C148.141 123.067 152.836 114.594 155.485 110.119Z" fill="#342A28"/>
<path fill-rule="evenodd" clip-rule="evenodd" d="M155.485 202.237L155.485 292.264L154.523 292.756C150.099 294.985 144.419 297.421 137.484 300.062L137.484 259.046C136.292 258.38 135.165 257.711 134.102 257.039L134.182 256.934C145.511 241.835 152.612 223.603 155.485 202.237Z" fill="#342A28"/>
<path d="M149.482 99.3306C149.728 99.3306 149.932 99.5074 149.974 99.7407L149.982 99.8306V232.643C149.982 232.919 149.759 233.143 149.482 233.143C149.237 233.143 149.033 232.966 148.99 232.733L148.982 232.643V99.8306C148.982 99.5544 149.206 99.3306 149.482 99.3306Z" fill="white"/>
<path fill-rule="evenodd" clip-rule="evenodd" d="M136.989 91.6966C136.989 91.6966 140.589 82.3177 138.136 74.1968C135.683 66.0759 123.701 61.5771 114.929 67.4761C106.157 73.3752 136.989 91.6966 136.989 91.6966Z" fill="#D84B25"/>
<path fill-rule="evenodd" clip-rule="evenodd" d="M126.715 81.3828C126.715 81.3828 122.726 70.0394 114.843 63.2713C106.96 56.5032 91.9322 55.8761 94.8386 67.3812C97.7449 78.8863 126.715 81.3828 126.715 81.3828Z" fill="url(#paint2_linear_2386_23040)"/>
<path fill-rule="evenodd" clip-rule="evenodd" d="M100.195 88.5611C100.195 88.5611 87.9741 88.8295 81.7716 82.2756C75.5692 75.7217 81.0329 62.9785 96.0776 66.7656C111.122 70.5527 111.81 75.0829 123.009 78.1589C134.208 81.2349 136.989 84.7428 136.989 89.5246C136.989 94.3063 100.195 88.5611 100.195 88.5611Z" fill="#493E3C"/>
<path fill-rule="evenodd" clip-rule="evenodd" d="M100.195 88.561C100.195 88.561 100.58 100.46 105.431 107.803C110.283 115.147 120.258 114.045 120.258 114.045C120.258 114.045 126.838 118.617 134.815 120.189C132.523 111.783 130.615 103.658 131.702 97.9018C135.997 97.9018 138.96 93.6155 137.933 89.1835C136.905 84.7514 131.051 84.7514 129.342 89.8914C121.475 90.5426 116.589 86.1912 113.552 84.124C108.335 87.4496 100.195 88.561 100.195 88.561Z" fill="#FFD398"/>
<path fill-rule="evenodd" clip-rule="evenodd" d="M109.359 90.5178C106.909 92.9574 104.402 96.0616 101.84 99.8305C101.12 97.3379 100.905 96.6601 100.648 93.6944L109.359 90.5178Z" fill="#D84B25"/>
<path fill-rule="evenodd" clip-rule="evenodd" d="M128.778 104.487C129.35 108.97 127.638 114.681 126.131 117.401C124.315 116.569 122.566 115.593 120.885 114.472L120.258 114.045C122.457 113.474 124.327 112.341 125.867 110.645L126.286 110.174C127.547 108.723 128.778 105.139 128.778 104.487Z" fill="#D84B25"/>
<path d="M129.027 101.758C129.247 101.775 129.412 101.967 129.396 102.187C128.914 108.543 125.896 112.648 120.38 114.426C120.17 114.493 119.945 114.378 119.877 114.168C119.809 113.957 119.925 113.732 120.135 113.664C125.331 111.989 128.14 108.168 128.598 102.127C128.615 101.906 128.807 101.741 129.027 101.758Z" fill="#D84B25"/>
<path d="M111.293 91.7191C111.487 91.6126 111.73 91.6831 111.836 91.8766C112.517 93.1122 112.832 94.5641 112.914 96.3845L112.932 96.8981C112.94 97.2396 112.94 97.5921 112.934 98.0315L112.9 99.6363C112.863 101.677 112.938 102.488 113.277 103.177C113.71 104.059 114.626 104.325 116.43 103.879C116.644 103.826 116.861 103.957 116.914 104.171C116.967 104.386 116.836 104.602 116.621 104.655C114.49 105.182 113.184 104.803 112.559 103.53C112.178 102.757 112.077 101.969 112.092 100.172L112.134 98.0276C112.143 97.3801 112.138 96.9279 112.115 96.4204C112.038 94.7119 111.747 93.3731 111.136 92.2624C111.029 92.0689 111.1 91.8256 111.293 91.7191Z" fill="#D84B25"/>
<path d="M103.076 94.4753C105.665 94.4145 108.337 94.7597 111.092 95.5101C111.305 95.5682 111.431 95.788 111.372 96.0012C111.314 96.2143 111.095 96.34 110.881 96.282C108.2 95.5514 105.605 95.2161 103.095 95.2751C102.874 95.2803 102.691 95.1055 102.686 94.8846C102.68 94.6638 102.855 94.4805 103.076 94.4753Z" fill="#B83410"/>
<path d="M125.619 92.2009C125.84 92.2009 126.019 92.38 126.019 92.6009C126.019 92.8218 125.84 93.0009 125.619 93.0009C122.778 93.0009 119.897 93.741 116.974 95.2254C116.777 95.3254 116.536 95.2468 116.436 95.0498C116.336 94.8528 116.415 94.612 116.612 94.512C119.644 92.9727 122.647 92.2009 125.619 92.2009Z" fill="#B83410"/>
<path fill-rule="evenodd" clip-rule="evenodd" d="M105.211 94.8687L108.999 95.3824L109.138 96.7387C109.138 96.7387 107.18 96.4041 106.7 97.6456C106.22 98.8872 109.359 98.6773 109.359 98.6773C109.359 98.6773 108.743 101.237 107.317 100.984C105.392 100.641 105.211 94.8687 105.211 94.8687Z" fill="#B83410"/>
<path fill-rule="evenodd" clip-rule="evenodd" d="M118.958 93.9243C118.958 93.9243 118.794 98.326 121.205 99.9782C123.616 101.63 123.822 97.3494 123.822 97.3494C123.822 97.3494 122.178 97.841 121.385 97.3494C120.591 96.8579 120.995 95.2494 123.822 95.4856C123.489 93.7347 123.147 92.6008 123.147 92.6008L118.958 93.9243Z" fill="#B83410"/>
<path d="M121.704 104.67C121.925 104.67 122.104 104.849 122.104 105.07C122.104 105.291 121.925 105.47 121.704 105.47C120.067 105.47 117.385 106.743 113.715 109.298C113.533 109.425 113.284 109.38 113.158 109.199C113.031 109.017 113.076 108.768 113.257 108.642C117.055 105.997 119.852 104.67 121.704 104.67Z" fill="#D84B25"/>
<path d="M110.244 60.0814C110.354 59.8896 110.598 59.8228 110.79 59.9323C117.501 63.7624 122.649 70.0429 126.235 78.7588C126.319 78.9631 126.222 79.1969 126.017 79.2809C125.813 79.365 125.579 79.2675 125.495 79.0632C121.974 70.504 116.94 64.3636 110.393 60.6271C110.201 60.5176 110.135 60.2733 110.244 60.0814Z" fill="#193674"/>
<path d="M132.021 93.3379C132.241 93.3654 132.396 93.5654 132.368 93.7846C131.668 99.3622 131.668 104.112 132.365 108.031C132.404 108.248 132.259 108.456 132.042 108.495C131.824 108.533 131.616 108.389 131.578 108.171C130.865 104.165 130.865 99.3369 131.575 93.685C131.599 93.4932 131.755 93.3502 131.94 93.3359L132.021 93.3379Z" fill="#D84B25"/>
<path d="M129.9 65.8957C130 65.6985 130.24 65.6192 130.438 65.7187C138.497 69.7839 141.192 77.3714 138.525 88.3561C138.473 88.5708 138.256 88.7026 138.042 88.6505C137.827 88.5984 137.695 88.3821 137.747 88.1674C140.333 77.5185 137.775 70.3155 130.077 66.433C129.88 66.3335 129.801 66.093 129.9 65.8957Z" fill="#193674"/>
<path fill-rule="evenodd" clip-rule="evenodd" d="M100.764 93.7347C106.372 92.087 111.486 86.8986 109.36 86.8986C107.234 86.8986 94.4713 85.737 91.5453 86.8986C88.6192 88.0603 78.9004 94.8685 78.9004 94.8685L89.8129 101.006C89.8129 101.006 95.1557 95.3823 100.764 93.7347Z" fill="#FFD398"/>
<path fill-rule="evenodd" clip-rule="evenodd" d="M137.485 150.271C137.485 150.271 129.847 153.706 128.777 155.787C127.707 157.868 129.237 164.705 130.059 169.008C130.881 173.31 134.825 172.06 137.485 170.623C140.145 169.185 145.918 160.922 145.918 160.922L137.485 150.271Z" fill="#FFD398"/>
<path fill-rule="evenodd" clip-rule="evenodd" d="M155.485 107.02V125.069L135.787 150.294C135.787 150.294 138.267 157.538 145.636 163.406C157.867 153.269 175.846 134.916 175.846 125.069C175.846 115.222 155.485 107.02 155.485 107.02Z" fill="#6236FF"/>
<path fill-rule="evenodd" clip-rule="evenodd" d="M142.743 141.388C144.787 145.846 148.785 150.474 154.736 155.275C153.454 156.504 152.173 157.694 150.914 158.831C146.71 155.916 142.893 151.502 139.463 145.59L142.743 141.388Z" fill="white"/>
<path d="M160.41 119.906C160.566 119.75 160.819 119.751 160.975 119.907C161.131 120.064 161.131 120.317 160.974 120.473L160.409 121.042C154.672 126.873 146.569 136.788 136.107 150.782C135.975 150.959 135.724 150.995 135.547 150.863C135.37 150.731 135.334 150.48 135.466 150.303L137.021 148.23C147.097 134.844 154.892 125.404 160.41 119.906Z" fill="#275248"/>
<path fill-rule="evenodd" clip-rule="evenodd" d="M111.531 167.393C116.775 159.37 119.684 150.168 120.258 139.788C121.197 122.801 110.938 118.094 108.544 118.001L108.474 118C106.219 118 109.237 113.745 112.881 112.658C116.526 111.572 124.495 114.412 127.358 125.069C130.221 135.726 129.075 154.973 120.978 165.915C119.124 168.421 117.469 170.219 116.013 171.31L115.772 171.485C114.419 172.441 112.547 172.118 111.591 170.765C110.881 169.76 110.857 168.423 111.531 167.393Z" fill="#D84B25"/>
<path fill-rule="evenodd" clip-rule="evenodd" d="M155.471 195.063C155.471 195.063 155.364 225.322 151.217 240.476C147.07 255.63 123.615 286.456 123.615 286.456L135.829 300.522C135.829 300.522 172.003 273.192 181.083 257.46C190.162 241.729 181.083 211.848 181.083 211.848C181.083 211.848 195.899 204.307 200.143 205.228C204.386 206.15 214.935 259.025 214.935 259.025L232.455 254.788C232.455 254.788 232.656 196.487 225.303 178.662C217.95 160.837 178.819 170.158 178.819 170.158L155.471 195.063Z" fill="url(#paint3_linear_2386_23040)"/>
<path fill-rule="evenodd" clip-rule="evenodd" d="M187.044 168.436C199.596 166.204 209.192 166.499 215.83 169.32C212.687 172.119 207.871 173.275 201.382 172.787C195.594 172.353 190.701 170.923 186.701 168.498L187.044 168.436Z" fill="url(#paint4_linear_2386_23040)"/>
<path fill-rule="evenodd" clip-rule="evenodd" d="M213.625 194.329L213.627 195.219C213.627 210.176 217.074 212.897 215.449 233.038L215.391 233.74C214.401 245.404 216.363 253.321 221.276 257.492L214.934 259.025L214.1 254.878C207.51 222.368 202.857 205.818 200.142 205.228C197.361 204.625 191.177 206.745 181.589 211.591L181.081 211.848L177.008 201.5C179.911 196.568 184.568 192.758 190.98 190.07C200.449 186.099 204.216 190.571 207.934 185.492L208.551 184.62C211.948 179.93 213.56 180.662 213.625 194.329Z" fill="url(#paint5_linear_2386_23040)"/>
<path fill-rule="evenodd" clip-rule="evenodd" d="M165.15 217.393L165.459 218.225C171.118 233.241 166.001 255.288 131.535 275.726C142.396 260.485 148.957 248.735 151.217 240.476C153.894 230.694 155.309 216.192 155.461 196.969L155.472 195.063L160.63 189.56C160.096 198.415 161.602 207.693 165.15 217.393Z" fill="url(#paint6_linear_2386_23040)"/>
<path fill-rule="evenodd" clip-rule="evenodd" d="M156.254 201.513L155.387 202.091C155.416 200.667 155.438 199.215 155.453 197.734L156.778 196.57C169.888 185.012 178.824 175.856 183.584 169.101C184.823 168.845 186.037 168.613 187.223 168.404C176.699 183.63 166.377 194.666 156.254 201.513Z" fill="#D84B25"/>
<path d="M175.886 199.239C176.087 199.147 176.324 199.236 176.416 199.437L176.689 200.039C177.899 202.742 179.488 206.63 181.456 211.703C181.536 211.909 181.433 212.141 181.227 212.221C181.022 212.301 180.79 212.199 180.71 211.993L180.264 210.846C178.359 205.967 176.833 202.274 175.689 199.769C175.597 199.568 175.685 199.331 175.886 199.239Z" fill="#193674"/>
<path d="M158.297 217.894C158.48 217.77 158.729 217.819 158.852 218.002C164.413 226.245 165.65 236.259 162.574 248.017C159.504 259.752 150.268 273.111 134.874 288.11C134.716 288.265 134.463 288.261 134.309 288.103C134.155 287.945 134.158 287.692 134.316 287.537C149.615 272.63 158.774 259.383 161.8 247.815C164.821 236.268 163.613 226.489 158.189 218.449C158.065 218.266 158.114 218.017 158.297 217.894Z" fill="#193674"/>
<path d="M180.829 202.759C190.112 195.196 198.039 192.303 204.612 194.134C211.28 195.992 217.168 214.833 222.54 250.901C222.572 251.12 222.422 251.323 222.203 251.356C221.985 251.388 221.781 251.237 221.748 251.019L221.43 248.903C216.211 214.668 210.451 196.592 204.397 194.905C198.125 193.157 190.437 195.964 181.334 203.38C181.163 203.519 180.911 203.494 180.772 203.322C180.632 203.151 180.658 202.899 180.829 202.759Z" fill="#193674"/>
<path d="M203.35 163.541C203.543 163.541 203.705 163.678 203.742 163.86L203.75 163.941V169.386C203.75 169.499 203.702 169.606 203.62 169.681L203.553 169.731L199.212 172.283C199.022 172.395 198.777 172.331 198.665 172.141C198.567 171.974 198.603 171.766 198.741 171.641L198.807 171.593L202.949 169.157L202.95 163.941C202.95 163.747 203.087 163.586 203.269 163.549L203.35 163.541Z" fill="#85260C"/>
<path d="M202.949 169.386C202.949 169.096 203.243 168.911 203.497 169.014L203.565 169.049L207.542 171.601C207.728 171.721 207.782 171.968 207.663 172.154C207.558 172.317 207.356 172.378 207.182 172.311L207.11 172.275L203.749 170.117L203.749 172.987C203.749 173.18 203.612 173.342 203.43 173.379L203.349 173.387C203.156 173.387 202.995 173.25 202.957 173.068L202.949 172.987V169.386Z" fill="#85260C"/>
<path d="M214.348 163.541C214.541 163.541 214.703 163.678 214.74 163.86L214.748 163.941V169.386C214.748 169.499 214.7 169.606 214.618 169.681L214.551 169.731L210.21 172.283C210.02 172.395 209.775 172.331 209.663 172.141C209.565 171.974 209.601 171.766 209.739 171.641L209.805 171.593L213.947 169.157L213.948 163.941C213.948 163.747 214.085 163.586 214.267 163.549L214.348 163.541Z" fill="#85260C"/>
<path d="M213.947 169.386C213.947 169.096 214.241 168.911 214.495 169.014L214.563 169.049L218.54 171.601C218.726 171.721 218.78 171.968 218.661 172.154C218.556 172.317 218.354 172.378 218.18 172.311L218.108 172.275L214.747 170.117L214.747 172.987C214.747 173.18 214.61 173.342 214.428 173.379L214.347 173.387C214.154 173.387 213.993 173.25 213.955 173.068L213.947 172.987V169.386Z" fill="#85260C"/>
<path fill-rule="evenodd" clip-rule="evenodd" d="M198.362 126C198.362 126 189.958 145.604 194.726 157.395C199.495 169.187 219.135 169.139 222.476 157.395C225.818 145.651 216.966 126 216.966 126C216.966 126 214.678 134.92 208.196 134.92C201.714 134.92 198.362 126 198.362 126Z" fill="#CB5A23"/>
<path fill-rule="evenodd" clip-rule="evenodd" d="M200.55 145.479C200.55 145.479 195.801 156.64 201.592 162.222C207.383 167.804 217.818 165.54 218.56 156.33C219.303 147.121 212.749 142.485 212.749 142.485L204.535 143.401L200.55 145.479Z" fill="#FFD398"/>
<path d="M216.125 145.77C216.312 145.654 216.559 145.712 216.675 145.899C218.216 148.38 219.002 151.249 219.035 154.496C219.037 154.717 218.86 154.898 218.639 154.9C218.418 154.902 218.237 154.725 218.235 154.504C218.203 151.399 217.457 148.674 215.996 146.321C215.879 146.134 215.937 145.887 216.125 145.77Z" fill="#85260C"/>
<path d="M201.904 151.717C202.003 151.659 202.126 151.677 202.204 151.754L202.245 151.807L204.466 155.624L205.938 152.7C205.989 152.598 206.102 152.546 206.21 152.568L206.273 152.589C206.376 152.641 206.428 152.754 206.406 152.862L206.384 152.925L204.706 156.262C204.628 156.417 204.426 156.442 204.31 156.331L204.267 156.275L201.813 152.059C201.744 151.939 201.784 151.786 201.904 151.717Z" fill="#C68936"/>
<path d="M213.86 151.401C213.92 151.277 214.07 151.225 214.194 151.286C214.298 151.336 214.351 151.449 214.33 151.557L214.309 151.62L212.395 155.545C212.323 155.693 212.135 155.727 212.015 155.632L211.968 155.583L209.882 152.727C209.801 152.615 209.825 152.459 209.937 152.377C210.029 152.309 210.154 152.315 210.239 152.383L210.286 152.432L212.127 154.953L213.86 151.401Z" fill="#C68936"/>
<path d="M206.66 155.215C206.762 155.161 206.884 155.184 206.959 155.264L206.998 155.318L208.509 158.161L209.858 155.328C209.907 155.224 210.019 155.17 210.127 155.189L210.191 155.21C210.295 155.259 210.349 155.371 210.33 155.479L210.309 155.543L208.747 158.825C208.67 158.987 208.46 159.012 208.344 158.894L208.301 158.835L206.557 155.553C206.492 155.431 206.538 155.279 206.66 155.215Z" fill="#C68936"/>
<path d="M215.169 155.901L215.235 155.916C215.342 155.956 215.406 156.063 215.396 156.172L215.381 156.238L213.742 160.588C213.678 160.757 213.469 160.8 213.343 160.689L213.3 160.64L211.265 157.615C211.188 157.5 211.219 157.345 211.333 157.268C211.429 157.203 211.552 157.214 211.636 157.285L211.68 157.335L213.445 159.958L214.913 156.062C214.945 155.975 215.02 155.918 215.105 155.903L215.169 155.901Z" fill="#C68936"/>
<path d="M210.759 159.301C210.836 159.186 210.991 159.156 211.106 159.233C211.201 159.297 211.238 159.416 211.203 159.52L211.174 159.58L208.959 162.869C208.871 163 208.69 163.014 208.581 162.912L208.54 162.862L206.796 160.07C206.723 159.953 206.758 159.799 206.875 159.726C206.973 159.665 207.096 159.679 207.177 159.754L207.22 159.805L208.76 162.269L210.759 159.301Z" fill="#C68936"/>
<path d="M201.894 157.186C201.991 157.124 202.114 157.137 202.196 157.21L202.239 157.261L204.404 160.621L205.95 158.191C206.012 158.094 206.129 158.054 206.234 158.086L206.295 158.114C206.392 158.176 206.432 158.293 206.4 158.398L206.372 158.459L204.618 161.219C204.532 161.354 204.35 161.371 204.239 161.271L204.197 161.22L201.819 157.532C201.744 157.416 201.778 157.261 201.894 157.186Z" fill="#C68936"/>
<path fill-rule="evenodd" clip-rule="evenodd" d="M205.055 147.726L208.007 151.933L210.737 147.726L207.896 142.94L205.055 147.726Z" fill="#D84B25"/>
<path fill-rule="evenodd" clip-rule="evenodd" d="M202.508 148.44C205.545 148.44 208.008 145.978 208.008 142.94C208.008 139.903 205.545 137.44 202.508 137.44C199.47 137.44 197.008 139.903 197.008 142.94C197.008 145.978 199.47 148.44 202.508 148.44Z" fill="white"/>
<path fill-rule="evenodd" clip-rule="evenodd" d="M213.508 148.44C216.545 148.44 219.008 145.978 219.008 142.94C219.008 139.903 216.545 137.44 213.508 137.44C210.47 137.44 208.008 139.903 208.008 142.94C208.008 145.978 210.47 148.44 213.508 148.44Z" fill="white"/>
<path fill-rule="evenodd" clip-rule="evenodd" d="M204.008 145.44C205.112 145.44 206.008 144.545 206.008 143.44C206.008 142.336 205.112 141.44 204.008 141.44C202.903 141.44 202.008 142.336 202.008 143.44C202.008 144.545 202.903 145.44 204.008 145.44Z" fill="#493E3C"/>
<path fill-rule="evenodd" clip-rule="evenodd" d="M212.008 145.44C213.112 145.44 214.008 144.545 214.008 143.44C214.008 142.336 213.112 141.44 212.008 141.44C210.903 141.44 210.008 142.336 210.008 143.44C210.008 144.545 210.903 145.44 212.008 145.44Z" fill="#493E3C"/>
<path d="M198.038 125.353C198.119 125.147 198.352 125.047 198.557 125.128C198.762 125.209 198.863 125.442 198.781 125.647C194.99 135.215 193.269 143.971 193.615 151.915C193.625 152.136 193.453 152.323 193.233 152.332C193.012 152.342 192.825 152.171 192.816 151.95C192.464 143.885 194.207 135.019 198.038 125.353Z" fill="#85260C"/>
<path d="M219.455 131.567C219.665 131.499 219.89 131.615 219.958 131.825C224.27 145.251 224.884 154.515 221.741 159.649C218.597 164.785 213.819 167.116 207.468 166.619C207.248 166.602 207.084 166.41 207.101 166.19C207.118 165.969 207.311 165.805 207.531 165.822C213.586 166.295 218.075 164.106 221.059 159.231C224.044 154.356 223.443 145.291 219.196 132.07C219.129 131.859 219.244 131.634 219.455 131.567Z" fill="#85260C"/>
<path d="M199.119 148.996C199.185 148.785 199.41 148.668 199.62 148.735C199.831 148.801 199.948 149.025 199.882 149.236C198.371 154.039 199.046 158.272 201.908 161.977C202.043 162.152 202.011 162.403 201.836 162.538C201.661 162.674 201.41 162.641 201.275 162.466C198.25 158.549 197.531 154.044 199.119 148.996Z" fill="#85260C"/>
<path d="M217.949 158.187C218.025 157.98 218.255 157.873 218.462 157.949C218.669 158.026 218.776 158.255 218.7 158.463C216.971 163.169 213.212 165.571 207.505 165.642C207.284 165.645 207.102 165.468 207.1 165.247C207.097 165.026 207.274 164.845 207.495 164.842C212.884 164.775 216.34 162.567 217.949 158.187Z" fill="#85260C"/>
<path d="M210.401 147.508C210.521 147.323 210.769 147.27 210.954 147.39C211.116 147.496 211.177 147.698 211.109 147.872L211.072 147.944L208.342 152.151C208.205 152.362 207.917 152.39 207.74 152.231L207.679 152.163L204.727 147.956C204.6 147.775 204.644 147.525 204.825 147.399C204.983 147.288 205.194 147.307 205.329 147.435L205.382 147.496L207.994 151.218L210.401 147.508Z" fill="#85260C"/>
<path d="M111.485 87.8618C111.706 87.8618 111.885 88.0409 111.885 88.2618C111.885 89.102 111.323 89.786 110.208 90.4427C109.444 90.8927 108.401 91.3482 106.845 91.9291L105.651 92.3616C103.936 92.9709 100.741 94.085 100.779 94.0715C96.1472 95.7066 92.5996 98.101 90.1268 101.253C89.9905 101.427 89.7391 101.457 89.5652 101.321C89.3914 101.185 89.3611 100.933 89.4974 100.759C92.0694 97.4807 95.7443 95.0005 100.513 93.3171L107.878 90.703C109.254 90.1929 109.071 90.1946 109.708 89.8096L109.802 89.7533C110.699 89.2253 111.085 88.755 111.085 88.2618C111.085 88.0409 111.265 87.8618 111.485 87.8618Z" fill="#D84B25"/>
<path d="M128.772 135.92C128.993 135.916 129.174 136.093 129.178 136.314C129.424 152.34 125.39 164.016 117.056 171.312C116.89 171.457 116.637 171.44 116.492 171.274C116.346 171.108 116.363 170.855 116.529 170.71C124.665 163.587 128.621 152.136 128.378 136.326C128.374 136.105 128.551 135.923 128.772 135.92Z" fill="#85260C"/>
<path d="M127.732 280.773C127.875 280.643 128.087 280.637 128.237 280.747L128.297 280.802L142.2 296.208C142.348 296.372 142.335 296.625 142.171 296.773C142.028 296.903 141.816 296.909 141.666 296.799L141.606 296.744L127.703 281.338C127.555 281.174 127.568 280.921 127.732 280.773Z" fill="#193674"/>
<path d="M232.38 248.75C232.597 248.706 232.808 248.845 232.852 249.062C232.891 249.251 232.789 249.437 232.618 249.51L232.541 249.534L213.709 253.381C213.492 253.425 213.281 253.286 213.237 253.069C213.198 252.88 213.3 252.694 213.471 252.621L213.549 252.597L232.38 248.75Z" fill="#193674"/>
<path d="M118.848 149.872L118.928 149.883C119.143 149.935 119.275 150.151 119.224 150.365C118.184 154.679 115.09 162.25 112.633 166.461L112.398 166.858C110.845 169.424 111.348 170.918 113.976 171.649C114.188 171.709 114.313 171.929 114.254 172.142C114.194 172.355 113.974 172.479 113.761 172.42C110.675 171.562 109.931 169.543 111.591 166.652L111.713 166.444C114.162 162.398 117.392 154.55 118.446 150.178C118.491 149.99 118.662 149.865 118.848 149.872Z" fill="#85260C"/>
<path d="M108.263 115.464C111.575 112.14 115.493 111.545 119.923 113.685C123.428 115.379 126.068 119.928 127.889 127.311C127.942 127.525 127.811 127.742 127.597 127.795C127.382 127.848 127.166 127.717 127.113 127.502C125.343 120.329 122.814 115.97 119.575 114.405C115.447 112.411 111.897 112.95 108.83 116.028C108.674 116.185 108.421 116.185 108.264 116.029C108.108 115.873 108.107 115.62 108.263 115.464Z" fill="#85260C"/>
<path d="M144 71.7754C144.245 71.7754 144.45 71.9523 144.492 72.1855L144.5 72.2754V104.487C144.5 104.763 144.276 104.987 144 104.987C143.755 104.987 143.55 104.81 143.508 104.577L143.5 104.487V72.2754C143.5 71.9992 143.724 71.7754 144 71.7754Z" fill="white"/>
<path d="M149.482 13.5632C149.728 13.5632 149.932 13.7401 149.974 13.9734L149.982 14.0632V27.7629C149.982 28.0391 149.759 28.2629 149.482 28.2629C149.237 28.2629 149.033 28.0861 148.99 27.8528L148.982 27.7629V14.0632C148.982 13.7871 149.206 13.5632 149.482 13.5632Z" fill="white"/>
<path d="M144 327.047C144.245 327.047 144.45 327.224 144.492 327.457L144.5 327.547V387.882C144.5 388.158 144.276 388.382 144 388.382C143.755 388.382 143.55 388.205 143.508 387.972L143.5 387.882V327.547C143.5 327.27 143.724 327.047 144 327.047Z" fill="white"/>
<path opacity="0.1" fill-rule="evenodd" clip-rule="evenodd" d="M178.818 106.779H265.033C265.033 106.779 259.875 88.3813 241.528 88.3813C223.181 88.3813 216.768 103.808 204.451 100.216C192.133 96.6243 178.818 106.779 178.818 106.779Z" fill="#211A38"/>
<defs>
<linearGradient id="paint0_linear_2386_23040" x1="103.308" y1="97.5183" x2="103.308" y2="117.069" gradientUnits="userSpaceOnUse">
<stop stop-color="#0BA9A7"/>
<stop offset="1" stop-color="#44C983"/>
</linearGradient>
<linearGradient id="paint1_linear_2386_23040" x1="103.308" y1="102.157" x2="103.308" y2="117.069" gradientUnits="userSpaceOnUse">
<stop stop-color="#0BA9A7"/>
<stop offset="1" stop-color="#44C983"/>
</linearGradient>
<linearGradient id="paint2_linear_2386_23040" x1="110.593" y1="58.4109" x2="110.593" y2="81.3828" gradientUnits="userSpaceOnUse">
<stop stop-color="#0BA9A7"/>
<stop offset="1" stop-color="#44C983"/>
</linearGradient>
<linearGradient id="paint3_linear_2386_23040" x1="178.038" y1="166.958" x2="178.038" y2="300.522" gradientUnits="userSpaceOnUse">
<stop stop-color="#0BA9A7"/>
<stop offset="1" stop-color="#44C983"/>
</linearGradient>
<linearGradient id="paint4_linear_2386_23040" x1="201.266" y1="166.958" x2="201.266" y2="172.896" gradientUnits="userSpaceOnUse">
<stop stop-color="#0BA9A7"/>
<stop offset="1" stop-color="#44C983"/>
</linearGradient>
<linearGradient id="paint5_linear_2386_23040" x1="199.142" y1="182.01" x2="199.142" y2="259.025" gradientUnits="userSpaceOnUse">
<stop stop-color="#0BA9A7"/>
<stop offset="1" stop-color="#44C983"/>
</linearGradient>
<linearGradient id="paint6_linear_2386_23040" x1="149.483" y1="189.56" x2="149.483" y2="275.726" gradientUnits="userSpaceOnUse">
<stop stop-color="#0BA9A7"/>
<stop offset="1" stop-color="#44C983"/>
</linearGradient>
</defs>
</svg>
