<svg width="24" height="24" viewBox="0 0 24 24" fill="none" xmlns="http://www.w3.org/2000/svg">
<path fill-rule="evenodd" clip-rule="evenodd" d="M13.2746 4.75C13.2746 4.19772 12.8269 3.75 12.2746 3.75C11.7223 3.75 11.2746 4.19772 11.2746 4.75L11.2746 17.3285L6.95857 12.9946C6.56885 12.6032 5.93569 12.6019 5.54436 12.9916C5.15303 13.3813 5.15172 14.0145 5.54143 14.4058L11.554 20.4433C11.7033 20.5985 11.9022 20.7055 12.1252 20.7389C12.1745 20.7464 12.2246 20.7502 12.275 20.7502C12.541 20.7502 12.796 20.6442 12.9836 20.4558L19.0076 14.4058C19.3973 14.0144 19.3959 13.3813 19.0046 12.9916C18.6132 12.6019 17.9801 12.6032 17.5904 12.9946L13.2746 17.329L13.2746 4.75Z" fill="black"/>
</svg>
