<svg width="20" height="20" viewBox="0 0 20 20" fill="none" xmlns="http://www.w3.org/2000/svg">
<path fill-rule="evenodd" clip-rule="evenodd" d="M3.27487 10C3.27487 9.53976 3.64796 9.16667 4.1082 9.16667L9.16742 9.16667L9.16742 4.10744C9.16742 3.64721 9.54052 3.27411 10.0008 3.27411C10.461 3.27411 10.8341 3.64721 10.8341 4.10744L10.8341 9.16667L15.8933 9.16667C16.3535 9.16667 16.7266 9.53976 16.7266 10C16.7266 10.4602 16.3535 10.8333 15.8933 10.8333L10.8341 10.8333L10.8341 15.8926C10.8341 16.3528 10.461 16.7259 10.0008 16.7259C9.54052 16.7259 9.16742 16.3528 9.16742 15.8926L9.16742 10.8333L4.1082 10.8333C3.64796 10.8333 3.27487 10.4602 3.27487 10Z" fill="#0E0E17" fill-opacity="0.42"/>
</svg>
