<svg width="24" height="24" viewBox="0 0 24 24" fill="none" xmlns="http://www.w3.org/2000/svg">
<path fill-rule="evenodd" clip-rule="evenodd" d="M19.25 13.2743C19.8023 13.2743 20.25 12.8266 20.25 12.2743C20.25 11.722 19.8023 11.2743 19.25 11.2743L6.67151 11.2743L11.0054 6.95826C11.3968 6.56855 11.3981 5.93539 11.0084 5.54405C10.6187 5.15272 9.9855 5.15141 9.59416 5.54113L3.55667 11.5537C3.40152 11.703 3.29448 11.9019 3.26108 12.1249C3.25361 12.1742 3.24981 12.2243 3.24981 12.2747C3.24981 12.5407 3.35576 12.7957 3.54422 12.9833L9.59422 19.0073C9.98559 19.397 10.6187 19.3956 11.0084 19.0043C11.3981 18.6129 11.3968 17.9797 11.0054 17.5901L6.67099 13.2743L19.25 13.2743Z" fill="#0E0E17"/>
</svg>
