<svg width="24" height="24" viewBox="0 0 24 24" fill="none" xmlns="http://www.w3.org/2000/svg">
<path fill-rule="evenodd" clip-rule="evenodd" d="M12 15C11.4477 15 11 15.4477 11 16V19H9V16C9 14.3431 10.3431 13 12 13C13.6569 13 15 14.3431 15 16V19H13V16C13 15.4477 12.5523 15 12 15Z" fill="#AAAAC1"/>
<path fill-rule="evenodd" clip-rule="evenodd" d="M4.44743 8.89443C3.95345 9.14142 3.35278 8.9412 3.10579 8.44722C2.8588 7.95324 3.05903 7.35257 3.55301 7.10558L5.53471 6.11473C5.54722 6.10814 5.55988 6.1018 5.5727 6.09573L11.553 3.10558C11.8345 2.96482 12.1659 2.96482 12.4474 3.10558L18.4276 6.09566C18.4405 6.10178 18.4533 6.10816 18.4659 6.11481L20.4474 7.10558C20.9414 7.35257 21.1416 7.95324 20.8946 8.44722C20.6477 8.9412 20.047 9.14142 19.553 8.89443L19.0002 8.61804V15.2413V15.2413C19.0002 16.0463 19.0002 16.7106 18.956 17.2518C18.9101 17.8139 18.8115 18.3306 18.5642 18.816C18.1808 19.5686 17.5688 20.1805 16.8162 20.564C16.3308 20.8113 15.8141 20.9099 15.252 20.9558C14.7108 21 14.0465 21 13.2415 21H10.7589C9.95397 21 9.2896 21 8.7484 20.9558C8.1863 20.9099 7.6696 20.8113 7.18426 20.564C6.43161 20.1805 5.81969 19.5686 5.4362 18.816C5.18891 18.3306 5.09034 17.8139 5.04442 17.2518C5.0002 16.7106 5.00021 16.0463 5.00022 15.2413L5.00022 8.61804L4.44743 8.89443ZM7.00022 7.61804V15.2C7.00022 16.0566 7.001 16.6389 7.03777 17.089C7.07359 17.5274 7.13852 17.7516 7.21821 17.908C7.40996 18.2843 7.71592 18.5903 8.09224 18.782C8.24864 18.8617 8.47285 18.9266 8.91126 18.9624C9.36135 18.9992 9.94364 19 10.8002 19H13.2002C14.0568 19 14.6391 18.9992 15.0892 18.9624C15.5276 18.9266 15.7518 18.8617 15.9082 18.782C16.2845 18.5903 16.5905 18.2843 16.7822 17.908C16.8619 17.7516 16.9269 17.5274 16.9627 17.089C16.9994 16.6389 17.0002 16.0566 17.0002 15.2V7.61804L12.0002 5.11804L7.00022 7.61804Z" fill="#AAAAC1"/>
</svg>
