<svg width="20" height="20" viewBox="0 0 20 20" fill="none" xmlns="http://www.w3.org/2000/svg">
<path fill-rule="evenodd" clip-rule="evenodd" d="M5.00065 2.49999C5.00065 2.03975 5.37375 1.66666 5.83398 1.66666C6.29422 1.66666 6.66732 2.03975 6.66732 2.49999V3.33332L14.5807 3.33332C16.34 3.33332 17.3077 5.37949 16.1906 6.7392L14.8808 8.33332L16.1906 9.92745C17.3077 11.2872 16.34 13.3333 14.5807 13.3333H6.66732V16.6667H7.50065C7.96089 16.6667 8.33398 17.0398 8.33398 17.5C8.33398 17.9602 7.96089 18.3333 7.50065 18.3333H4.16732C3.70708 18.3333 3.33398 17.9602 3.33398 17.5C3.33398 17.0398 3.70708 16.6667 4.16732 16.6667H5.00065V2.49999ZM6.66732 11.6667H14.5807C14.9328 11.6667 15.1261 11.2572 14.9028 10.9855L13.5931 9.39136C13.0879 8.77646 13.0879 7.89019 13.5931 7.27529L14.9028 5.68117C15.1261 5.40944 14.9328 4.99999 14.5807 4.99999H6.66732L6.66732 11.6667Z" fill="#FF9E2A"/>
</svg>
