<svg width="158" height="27" viewBox="0 0 158 27" fill="none" xmlns="http://www.w3.org/2000/svg">
<rect y="9" width="2" height="9" rx="1" fill="white" fill-opacity="0.42"/>
<rect x="4" y="5" width="2" height="17" rx="1" fill="white" fill-opacity="0.42"/>
<rect x="8" y="8" width="2" height="11" rx="1" fill="white" fill-opacity="0.42"/>
<rect x="12" y="2" width="2" height="23" rx="1" fill="white" fill-opacity="0.42"/>
<rect x="16" y="10" width="2" height="7" rx="1" fill="white" fill-opacity="0.42"/>
<rect x="20" y="13" width="2" height="1" rx="0.5" fill="white" fill-opacity="0.42"/>
<rect x="24" y="8" width="2" height="11" rx="1" fill="white" fill-opacity="0.42"/>
<rect x="28" y="5" width="2" height="17" rx="1" fill="white" fill-opacity="0.42"/>
<rect x="32" y="8" width="2" height="11" rx="1" fill="white" fill-opacity="0.42"/>
<rect x="36" y="10" width="2" height="7" rx="1" fill="white" fill-opacity="0.42"/>
<rect x="40" y="8" width="2" height="11" rx="1" fill="white" fill-opacity="0.42"/>
<rect x="44" y="3" width="2" height="21" rx="1" fill="white" fill-opacity="0.42"/>
<rect x="48" y="5" width="2" height="17" rx="1" fill="white" fill-opacity="0.42"/>
<rect x="52" y="8" width="2" height="11" rx="1" fill="white" fill-opacity="0.42"/>
<rect x="56" width="2" height="27" rx="1" fill="white" fill-opacity="0.42"/>
<rect x="60" y="8" width="2" height="11" rx="1" fill="white" fill-opacity="0.42"/>
<rect x="64" y="5" width="2" height="17" rx="1" fill="white" fill-opacity="0.42"/>
<rect x="68" y="8" width="2" height="11" rx="1" fill="white" fill-opacity="0.42"/>
<rect x="72" y="12" width="2" height="3" rx="1" fill="white" fill-opacity="0.42"/>
<rect x="76" y="13" width="2" height="1" rx="0.5" fill="white" fill-opacity="0.42"/>
<rect x="80" y="11" width="2" height="5" rx="1" fill="white" fill-opacity="0.42"/>
<rect x="84" y="9" width="2" height="9" rx="1" fill="white" fill-opacity="0.42"/>
<rect x="88" y="6" width="2" height="15" rx="1" fill="white" fill-opacity="0.42"/>
<rect x="92" y="9" width="2" height="9" rx="1" fill="white" fill-opacity="0.42"/>
<rect x="96" y="3" width="2" height="21" rx="1" fill="white" fill-opacity="0.42"/>
<rect x="100" y="5" width="2" height="17" rx="1" fill="white" fill-opacity="0.42"/>
<rect x="104" y="10" width="2" height="7" rx="1" fill="white" fill-opacity="0.42"/>
<rect x="108" y="5" width="2" height="17" rx="1" fill="white" fill-opacity="0.42"/>
<rect x="112" y="8" width="2" height="11" rx="1" fill="white" fill-opacity="0.42"/>
<rect x="116" y="1" width="2" height="25" rx="1" fill="white" fill-opacity="0.42"/>
<rect x="120" y="10" width="2" height="7" rx="1" fill="white" fill-opacity="0.42"/>
<rect x="124" y="5" width="2" height="17" rx="1" fill="white" fill-opacity="0.42"/>
<rect x="128" y="8" width="2" height="11" rx="1" fill="white" fill-opacity="0.42"/>
<rect x="132" y="4" width="2" height="19" rx="1" fill="white" fill-opacity="0.42"/>
<rect x="136" y="11" width="2" height="5" rx="1" fill="white" fill-opacity="0.42"/>
<rect x="140" y="8" width="2" height="11" rx="1" fill="white" fill-opacity="0.42"/>
<rect x="144" y="10" width="2" height="7" rx="1" fill="white" fill-opacity="0.42"/>
<rect x="148" y="8" width="2" height="11" rx="1" fill="white" fill-opacity="0.42"/>
<rect x="152" y="11" width="2" height="5" rx="1" fill="white" fill-opacity="0.42"/>
<rect x="156" y="13" width="2" height="1" rx="0.5" fill="white" fill-opacity="0.42"/>
</svg>
