<svg width="20" height="20" viewBox="0 0 20 20" fill="none" xmlns="http://www.w3.org/2000/svg">
<path fill-rule="evenodd" clip-rule="evenodd" d="M9.99935 1.66675C5.39698 1.66675 1.66602 5.39771 1.66602 10.0001C1.66602 14.6025 5.39698 18.3334 9.99935 18.3334C14.6017 18.3334 18.3327 14.6025 18.3327 10.0001C18.3327 5.39771 14.6017 1.66675 9.99935 1.66675ZM8.0886 6.91083C7.76317 6.58539 7.23553 6.58539 6.91009 6.91083C6.58466 7.23626 6.58466 7.7639 6.91009 8.08934L8.82084 10.0001L6.91009 11.9108C6.58466 12.2363 6.58466 12.7639 6.91009 13.0893C7.23553 13.4148 7.76317 13.4148 8.0886 13.0893L9.99935 11.1786L11.9101 13.0893C12.2355 13.4148 12.7632 13.4148 13.0886 13.0893C13.414 12.7639 13.414 12.2363 13.0886 11.9108L11.1779 10.0001L13.0886 8.08934C13.414 7.7639 13.414 7.23626 13.0886 6.91083C12.7632 6.58539 12.2355 6.58539 11.9101 6.91083L9.99935 8.82157L8.0886 6.91083Z" fill="#0E0E17" fill-opacity="0.42"/>
</svg>
