<svg width="54" height="99" viewBox="0 0 54 99" fill="none" xmlns="http://www.w3.org/2000/svg">
<path d="M37.716 3.66984L31.6371 0.160654C31.3637 0.0065678 31.1699 -0.0331947 31.0605 0.0264515L30.3199 0.458888C30.1907 0.528475 30.1956 0.752147 30.3597 1.09014L31.8508 4.15198L30.7474 5.14608C30.6303 5.23634 30.5385 5.35525 30.4808 5.49133C30.4231 5.6274 30.4015 5.77605 30.418 5.92293C30.4345 6.06981 30.4885 6.20996 30.5749 6.32986C30.6614 6.44975 30.7773 6.54535 30.9114 6.60742L36.9854 10.1166L37.7309 9.68914L37.716 3.66984Z" fill="#6236FF"/>
<path opacity="0.5" d="M37.716 3.66984L31.6371 0.160654C31.3637 0.0065678 31.1699 -0.0331947 31.0605 0.0264515L30.3199 0.458888C30.1907 0.528475 30.1956 0.752147 30.3597 1.09014L31.8508 4.15198L30.7474 5.14608C30.6303 5.23634 30.5385 5.35525 30.4808 5.49133C30.4231 5.6274 30.4015 5.77605 30.418 5.92293C30.4345 6.06981 30.4885 6.20996 30.5749 6.32986C30.6614 6.44975 30.7773 6.54535 30.9114 6.60742L36.9854 10.1166L37.7309 9.68914L37.716 3.66984Z" fill="white"/>
<path d="M30.8963 0.593156C30.2999 0.245219 30.0613 0.468893 30.3595 1.09021L31.8507 4.15204L30.7472 5.14615C30.6302 5.23641 30.5384 5.35532 30.4807 5.49139C30.423 5.62747 30.4013 5.77612 30.4178 5.923C30.4343 6.06988 30.4884 6.21003 30.5748 6.32992C30.6612 6.44982 30.7771 6.54541 30.9112 6.60748L36.9852 10.1167V4.09737L30.8963 0.593156Z" fill="#6236FF"/>
<path d="M37.6858 23.0102C37.4964 23.0089 37.3151 22.933 37.1812 22.7991C37.0472 22.6651 36.9714 22.4838 36.9701 22.2944V2.10417C36.9701 1.91434 37.0455 1.73229 37.1797 1.59806C37.314 1.46383 37.496 1.38841 37.6858 1.38841C37.8757 1.38841 38.0577 1.46383 38.192 1.59806C38.3262 1.73229 38.4016 1.91434 38.4016 2.10417V22.2944C38.4003 22.4838 38.3245 22.6651 38.1905 22.7991C38.0566 22.933 37.8753 23.0089 37.6858 23.0102Z" fill="#E0E0E0"/>
<path d="M8.92127 94.019V92.7565H9.22944C9.70167 91.9085 10.4118 91.2174 11.2723 90.7683C14.4137 88.9541 19.5035 88.9541 22.6449 90.7683C23.5053 91.2174 24.2155 91.9085 24.6877 92.7565H25.0009V93.9793C25.0009 95.1871 24.2454 96.3949 22.6498 97.3195C19.5085 99.1287 14.4187 99.1287 11.2773 97.3195C9.69667 96.4098 8.91133 95.212 8.92127 94.019Z" fill="#263238"/>
<path d="M16.9595 97.399C21.4012 97.399 25.0018 95.3205 25.0018 92.7565C25.0018 90.1925 21.4012 88.114 16.9595 88.114C12.5179 88.114 8.91725 90.1925 8.91725 92.7565C8.91725 95.3205 12.5179 97.399 16.9595 97.399Z" fill="#455A64"/>
<path d="M19.0372 30.2822V92.1949C19.0203 92.3769 18.9552 92.5512 18.8486 92.6997C18.742 92.8482 18.5978 92.9656 18.4308 93.0399C17.9773 93.2704 17.4757 93.3905 16.967 93.3905C16.4582 93.3905 15.9567 93.2704 15.5032 93.0399C15.3361 92.9656 15.1919 92.8482 15.0853 92.6997C14.9787 92.5512 14.9137 92.3769 14.8968 92.1949V30.2822H19.0372Z" fill="#37474F"/>
<path d="M14.8909 35.506V39.5669L19.0313 41.9528V37.9018L14.8909 35.506Z" fill="#263238"/>
<path d="M32.5129 27.9261L40.1675 32.3498C40.1284 32.4104 40.0777 32.4628 40.0184 32.5039L26.6278 40.2331C26.5135 40.2977 26.424 40.2331 26.424 40.1138V30.466C26.4604 28.6098 26.8396 26.7764 27.5424 25.0581L32.5129 27.9261Z" fill="#37474F"/>
<path d="M40.2263 21.6135V32.4095L27.5465 25.0879C27.5576 25.0507 27.5709 25.0142 27.5863 24.9785C28.9482 21.5837 31.2396 18.7008 33.7249 17.2742C34.586 16.7306 35.5753 16.4237 36.5929 16.3845C38.8346 16.3596 40.2263 18.3628 40.2263 21.6135Z" fill="#263238"/>
<path d="M54.0006 44.4382V43.4838H53.9111V43.618C53.8515 43.3505 53.7667 43.0892 53.6576 42.8377C52.9664 41.4392 51.8443 40.2997 50.4566 39.5869L41.4053 34.343C41.194 34.2341 40.9596 34.1772 40.7219 34.1772C40.4841 34.1772 40.2497 34.2341 40.0384 34.343L26.1756 42.3406C26.0003 42.202 25.8506 42.0338 25.7333 41.8436V42.8377C25.7423 42.9227 25.7731 43.004 25.8227 43.0737C25.8724 43.1433 25.9391 43.199 26.0166 43.2353L35.0778 48.4543C37.7395 49.8807 40.7278 50.5866 43.7464 50.5022C46.2592 50.5278 48.7384 49.9246 50.9586 48.7476C52.9965 47.5746 54.0006 46.0238 54.0006 44.4382Z" fill="#263238"/>
<path d="M53.6568 42.8277C52.9655 41.4292 51.8434 40.2897 50.4558 39.577L41.4045 34.343C41.1931 34.2341 40.9588 34.1772 40.721 34.1772C40.4832 34.1772 40.2489 34.2341 40.0376 34.343L26.1748 42.3406L35.077 47.4851C37.7387 48.9114 40.727 49.6174 43.7456 49.5329C46.2583 49.5585 48.7376 48.9554 50.9578 47.7784C52.787 46.7246 53.786 45.3677 53.9699 43.9511C53.9191 43.5637 53.8137 43.1855 53.6568 42.8277Z" fill="#455A64"/>
<path d="M53.9695 43.951C53.9188 43.5636 53.8133 43.1854 53.6564 42.8276C52.9651 41.4292 51.8431 40.2897 50.4554 39.5769L41.4041 34.343C41.1927 34.234 40.9584 34.1771 40.7206 34.1771C40.4829 34.1771 40.2485 34.234 40.0372 34.343L26.1744 42.3405L26.0154 42.2511C25.9323 42.2243 25.8598 42.1719 25.8084 42.1013C25.757 42.0307 25.7293 41.9457 25.7293 41.8584C25.7293 41.7711 25.757 41.6861 25.8084 41.6155C25.8598 41.5449 25.9323 41.4925 26.0154 41.4657L40.0272 33.3737C40.2386 33.2647 40.4729 33.2079 40.7107 33.2079C40.9485 33.2079 41.1828 33.2647 41.3941 33.3737L50.4554 38.6027C52.0857 39.5471 53.1494 40.6804 53.6564 41.8584C53.8221 42.238 53.9309 42.64 53.9795 43.0513C54.011 43.3506 54.0077 43.6525 53.9695 43.951Z" fill="#37474F"/>
<path d="M26.3181 41.3265L40.3299 33.2345L40.0218 32.5039L26.6312 40.238L26.3181 41.3265Z" fill="#455A64"/>
<path d="M38.9945 20.9475C38.9882 20.8313 38.9548 20.7182 38.897 20.6172C38.8391 20.5162 38.7585 20.4302 38.6614 20.3659L21.5976 10.5193C21.4949 10.4654 21.3807 10.4371 21.2646 10.4371C21.1486 10.4371 21.0343 10.4654 20.9316 10.5193L20.5538 10.7331C20.4574 10.7968 20.3772 10.8821 20.3194 10.9821C20.2616 11.0822 20.2278 11.1943 20.2208 11.3097V24.3921C20.2278 24.5074 20.2616 24.6195 20.3194 24.7196C20.3772 24.8197 20.4574 24.9049 20.5538 24.9686L37.6176 34.8152C37.7203 34.8692 37.8346 34.8974 37.9506 34.8974C38.0667 34.8974 38.181 34.8692 38.2837 34.8152L38.6614 34.6015C38.7576 34.5375 38.8376 34.4522 38.8954 34.3522C38.9531 34.2522 38.987 34.1402 38.9945 34.0249V20.9475Z" fill="#6236FF"/>
<path opacity="0.35" d="M38.9193 20.6194L37.9749 21.1661L20.3444 10.9865C20.4008 10.8858 20.481 10.8005 20.5781 10.738L20.9558 10.5242C21.0585 10.4703 21.1728 10.4421 21.2888 10.4421C21.4049 10.4421 21.5192 10.4703 21.6219 10.5242L38.6807 20.3708C38.7793 20.433 38.8612 20.5183 38.9193 20.6194Z" fill="black"/>
<path opacity="0.2" d="M37.9506 21.1613L37.7767 21.2657C37.8314 21.2892 37.8775 21.329 37.9086 21.3798C37.9398 21.4305 37.9544 21.4896 37.9506 21.549V34.6265C37.9555 34.669 37.9483 34.7121 37.9298 34.7508C37.9114 34.7895 37.8824 34.8222 37.8463 34.8452C37.7951 34.8651 37.7384 34.8651 37.6872 34.8452L37.6176 34.8154L20.5538 24.9638C20.4574 24.9001 20.3772 24.8148 20.3194 24.7147C20.2616 24.6147 20.2278 24.5025 20.2208 24.3872V11.3147C20.2252 11.1971 20.2595 11.0825 20.3202 10.9817L37.9506 21.1613Z" fill="black"/>
<path opacity="0.2" d="M37.9508 21.1612L30.0476 24.0988C29.7745 24.2 29.4752 24.206 29.1982 24.1158C28.9212 24.0256 28.6828 23.8444 28.5217 23.6017L27.2542 21.6582L20.2557 10.9368L26.9908 21.7427L20.211 24.397C20.2188 24.5147 20.2546 24.6289 20.3154 24.73L27.0107 21.7477L28.5018 24.1087C28.6648 24.3709 28.9169 24.5656 29.2118 24.6569C29.5067 24.7482 29.8247 24.73 30.1073 24.6058L31.1561 24.1435L37.8514 34.8251C37.8875 34.8021 37.9165 34.7694 37.9349 34.7307C37.9534 34.6921 37.9606 34.649 37.9557 34.6064V34.3877L31.1859 24.1485L37.9508 21.1612Z" fill="black"/>
<path d="M34.942 23.259C34.9362 23.1433 34.9029 23.0308 34.845 22.9305C34.7871 22.8303 34.7062 22.7452 34.609 22.6824L17.5452 12.8308C17.4408 12.7795 17.3261 12.7528 17.2097 12.7528C17.0934 12.7528 16.9786 12.7795 16.8742 12.8308L16.5014 13.0495C16.4042 13.1124 16.3233 13.1974 16.2654 13.2977C16.2075 13.3979 16.1743 13.5105 16.1684 13.6261V26.7035C16.1743 26.8192 16.2075 26.9317 16.2654 27.032C16.3233 27.1322 16.4042 27.2173 16.5014 27.2801L33.5602 37.1317C33.6637 37.1833 33.7777 37.2102 33.8933 37.2102C34.0089 37.2102 34.1229 37.1833 34.2263 37.1317L34.6041 36.913C34.7013 36.8501 34.7822 36.7651 34.8401 36.6648C34.898 36.5646 34.9312 36.452 34.9371 36.3364L34.942 23.259Z" fill="#6236FF"/>
<path opacity="0.35" d="M34.8581 22.9307L33.9087 23.4774L16.2783 13.2978C16.3364 13.1968 16.4183 13.1115 16.5169 13.0493L16.8946 12.8306C16.9981 12.7789 17.1121 12.7521 17.2277 12.7521C17.3433 12.7521 17.4573 12.7789 17.5607 12.8306L34.6195 22.6821C34.7192 22.743 34.8014 22.8286 34.8581 22.9307Z" fill="black"/>
<path opacity="0.2" d="M33.9139 23.4775L33.74 23.5819C33.7947 23.6054 33.8408 23.6452 33.8719 23.6959C33.9031 23.7467 33.9177 23.8058 33.9139 23.8652V36.9426C33.9188 36.9852 33.9116 37.0283 33.8931 37.0669C33.8747 37.1056 33.8457 37.1383 33.8096 37.1613C33.7584 37.1813 33.7016 37.1813 33.6505 37.1613L33.5809 37.1315L16.5171 27.2799C16.4207 27.2162 16.3405 27.1309 16.2827 27.0309C16.2249 26.9308 16.1911 26.8187 16.1841 26.7034V13.6309C16.1885 13.5133 16.2227 13.3987 16.2835 13.2979L33.9139 23.4775Z" fill="black"/>
<path opacity="0.2" d="M33.909 23.4775L25.9959 26.4299C25.7229 26.5321 25.4232 26.5386 25.146 26.4483C24.8688 26.358 24.6304 26.1763 24.47 25.9329L23.2025 23.9894L16.2189 13.263L22.9639 24.054L16.1841 26.7083C16.1882 26.8267 16.2243 26.9418 16.2885 27.0413L22.9838 24.0988L24.4749 26.4548C24.6388 26.7174 24.8917 26.9122 25.1875 27.0035C25.4833 27.0948 25.802 27.0764 26.0854 26.9518L27.1342 26.4846L33.8294 37.1712C33.8643 37.146 33.8918 37.1121 33.9093 37.0728C33.9267 37.0335 33.9335 36.9903 33.9289 36.9476V36.7338L27.1689 26.4747L33.909 23.4775Z" fill="black"/>
<path d="M30.9171 25.5899C30.9113 25.4743 30.878 25.3617 30.8201 25.2615C30.7622 25.1613 30.6813 25.0762 30.5841 25.0133L13.5203 15.1518C13.4172 15.0991 13.3031 15.0715 13.1873 15.0715C13.0715 15.0715 12.9573 15.0991 12.8543 15.1518L12.4765 15.3705C12.3793 15.4334 12.2984 15.5184 12.2405 15.6187C12.1826 15.7189 12.1493 15.8315 12.1435 15.9471V29.0196C12.1501 29.135 12.1837 29.2473 12.2415 29.3474C12.2994 29.4475 12.3798 29.5327 12.4765 29.5962L29.5403 39.4477C29.6437 39.4994 29.7577 39.5262 29.8733 39.5262C29.9889 39.5262 30.1029 39.4994 30.2063 39.4477L30.5841 39.229C30.6808 39.1656 30.7612 39.0804 30.8191 38.9803C30.8769 38.8802 30.9105 38.7679 30.9171 38.6524V25.5899Z" fill="#6236FF"/>
<path opacity="0.35" d="M30.8184 25.247L29.874 25.7937L12.2436 15.6141C12.2985 15.5124 12.3791 15.4267 12.4772 15.3656L12.8549 15.1469C12.9576 15.0929 13.0719 15.0647 13.188 15.0647C13.304 15.0647 13.4183 15.0929 13.521 15.1469L30.5848 24.9984C30.6829 25.0596 30.7634 25.1452 30.8184 25.247Z" fill="black"/>
<path opacity="0.2" d="M29.8733 25.7887L29.6993 25.8931C29.754 25.9166 29.8001 25.9564 29.8313 26.0072C29.8624 26.0579 29.8771 26.117 29.8733 26.1764V39.2539C29.8782 39.2964 29.8709 39.3395 29.8525 39.3782C29.834 39.4169 29.8051 39.4496 29.7689 39.4726C29.7178 39.4925 29.661 39.4925 29.6099 39.4726L29.5403 39.4427L12.4765 29.5962C12.3801 29.5324 12.2998 29.4472 12.242 29.3471C12.1843 29.247 12.1505 29.1349 12.1435 29.0196V15.9421C12.1479 15.8245 12.1821 15.7099 12.2429 15.6091L29.8733 25.7887Z" fill="black"/>
<path opacity="0.2" d="M29.8733 25.7937L21.9702 28.7412C21.6981 28.8449 21.3986 28.8521 21.1218 28.7616C20.845 28.6712 20.6076 28.4885 20.4492 28.2441L19.1768 26.2957L12.1783 15.5743L18.9233 26.3702L12.1435 29.0245C12.1522 29.1421 12.1879 29.256 12.2479 29.3575L18.9431 26.3752L20.4343 28.7362C20.5972 28.9984 20.8493 29.1931 21.1443 29.2844C21.4392 29.3757 21.7572 29.3576 22.0398 29.2333L23.0886 28.771L29.7838 39.4526C29.82 39.4296 29.8489 39.3969 29.8674 39.3583C29.8858 39.3196 29.8931 39.2765 29.8882 39.2339V39.0152L23.1234 28.7561L29.8733 25.7937Z" fill="black"/>
<path d="M38.4519 16.0118C37.095 15.301 35.2956 15.4253 33.3273 16.5635C31.1154 17.836 29.1223 20.1373 27.7255 22.7817C27.4008 23.392 27.1088 24.0192 26.8507 24.6605C26.0832 26.5019 25.6701 28.4715 25.633 30.4661V41.4957C25.3959 41.498 25.162 41.4417 24.952 41.3316L0.680962 27.2899C0.4808 27.1572 0.314802 26.979 0.196474 26.77C0.0781462 26.561 0.0108294 26.327 0 26.0871V15.649C0 10.42 3.44457 4.21678 7.68939 1.73152C9.6776 0.568415 11.5316 0.473975 12.9035 1.23446L38.4519 16.0118Z" fill="#455A64"/>
<path d="M26.8502 24.6604C26.0827 26.5018 25.6696 28.4714 25.6325 30.466V41.4956C25.549 41.495 25.4658 41.4866 25.3839 41.4707C25.3839 40.8345 25.3839 37.2955 25.3839 30.471C25.3839 22.3591 31.6219 17.2047 33.3368 16.5535C31.1249 17.826 29.1317 20.1273 27.735 22.7716C27.4066 23.385 27.1112 24.0155 26.8502 24.6604Z" fill="#37474F"/>
<path d="M26.6325 40.233C26.5182 40.3026 26.4237 40.233 26.4237 40.1187V30.4659C26.462 28.6111 26.8428 26.7794 27.5471 25.063C27.5582 25.0258 27.5715 24.9893 27.5868 24.9536C27.8578 24.2726 28.1698 23.6086 28.5213 22.9654C29.8832 20.4504 31.7422 18.3826 33.7254 17.2444C34.5866 16.7008 35.5758 16.3939 36.5934 16.3546C37.1127 16.3517 37.6247 16.4763 38.0846 16.7175C39.4217 17.4332 40.207 19.163 40.207 21.5836V32.141C40.2042 32.2126 40.1842 32.2825 40.1487 32.3448C40.1133 32.4071 40.0633 32.4599 40.0032 32.4989L40.3114 33.2295L40.381 33.1848C40.4895 33.1096 40.5852 33.0173 40.6643 32.9114C40.8625 32.6652 40.9774 32.3623 40.9923 32.0466V21.6135C40.9923 18.815 39.9982 16.8666 38.4325 16.0415C37.0706 15.3257 35.2762 15.45 33.3029 16.5883C31.096 17.8607 29.1028 20.1621 27.7012 22.8064C27.378 23.4168 27.0877 24.0439 26.8313 24.6852C26.0638 26.5266 25.6506 28.4962 25.6135 30.4908V41.4955H25.7328C25.9293 41.4836 26.1209 41.4293 26.2945 41.3365L26.6325 40.233Z" fill="#455A64"/>
</svg>
