<svg width="24" height="24" viewBox="0 0 24 24" fill="none" xmlns="http://www.w3.org/2000/svg">
<path fill-rule="evenodd" clip-rule="evenodd" d="M4.75 10.7259C4.19772 10.7259 3.75 11.1736 3.75 11.7259C3.75 12.2782 4.19772 12.7259 4.75 12.7259H17.3285L12.9946 17.0419C12.6032 17.4316 12.6019 18.0648 12.9916 18.4561C13.3813 18.8475 14.0145 18.8488 14.4058 18.4591L20.4433 12.4465C20.5985 12.2972 20.7055 12.0983 20.7389 11.8753C20.7464 11.826 20.7502 11.7759 20.7502 11.7254C20.7502 11.4595 20.6442 11.2045 20.4558 11.0169L14.4058 4.99286C14.0144 4.60318 13.3813 4.60454 12.9916 4.99591C12.6019 5.38727 12.6032 6.02043 12.9946 6.41012L17.329 10.7259H4.75Z" fill="white"/>
</svg>
