<svg width="20" height="37" viewBox="0 0 20 37" fill="none" xmlns="http://www.w3.org/2000/svg">
<path d="M15.8566 31.4386L19.1606 29.5499C19.1606 29.5499 20.7454 20.8189 19.5593 13.3138C17.8948 2.76377 10.7087 -0.874166 8.09734 0.172362C5.486 1.21889 4.87802 4.34851 9.59238 10.4433C12.3682 14.0413 15.9463 21.6461 15.8566 31.4386Z" fill="#6236FF"/>
<path opacity="0.3" d="M15.8566 31.4386L19.1606 29.5499C19.1606 29.5499 20.7454 20.8189 19.5593 13.3138C17.8948 2.76377 10.7087 -0.874166 8.09734 0.172362C5.486 1.21889 4.87802 4.34851 9.59238 10.4433C12.3682 14.0413 15.9463 21.6461 15.8566 31.4386Z" fill="black"/>
<path d="M17.0538 27.2476H17.0239C16.9617 27.2377 16.9057 27.2042 16.8677 27.1541C16.8296 27.1039 16.8123 27.041 16.8196 26.9785C18.185 17.1013 14.2132 6.27717 9.74801 1.91663C9.70307 1.87302 9.6773 1.81333 9.67637 1.75072C9.67543 1.6881 9.69941 1.62768 9.74302 1.58274C9.78664 1.5378 9.84632 1.51203 9.90894 1.51109C9.97156 1.51016 10.032 1.53414 10.0769 1.57775C14.6218 6.023 18.6734 17.0265 17.288 27.0433C17.2807 27.1001 17.2528 27.1522 17.2097 27.1899C17.1665 27.2275 17.111 27.2481 17.0538 27.2476Z" fill="white"/>
<path d="M6.69281 36.7311C6.19447 37.0301 5.09312 36.3773 4.69943 36.1032C3.99015 35.6223 3.41687 34.9666 3.03495 34.1995C2.60826 33.3302 2.46365 32.3493 2.62132 31.3938C2.70476 30.8879 2.82298 30.3884 2.97515 29.8988L3.39376 28.4536C3.56155 27.986 3.63276 27.4893 3.60306 26.9934C3.47848 25.9967 2.60637 25.309 1.79905 24.711C0.916975 24.0532 -0.00496335 23.1811 2.01135e-05 21.99C0.0673826 21.0665 0.436904 20.1909 1.05153 19.4983C1.61964 18.7757 2.2974 18.1378 2.8107 17.3803C3.21738 16.8493 3.43016 16.1951 3.41369 15.5265C3.3571 15.1181 3.21989 14.7251 3.01003 14.3703C2.5244 13.6327 2.10101 12.8559 1.74423 12.048C1.45519 11.2158 1.49506 10.1792 2.14291 9.58618C2.43502 9.37116 2.76698 9.21636 3.11946 9.13081C3.47194 9.04525 3.83792 9.03065 4.1961 9.08783C4.87176 9.17213 5.52118 9.40164 6.09978 9.7606C7.9935 10.8121 9.08986 13.0497 11.0832 13.862C11.8762 14.1043 12.6834 14.2974 13.5002 14.4401C13.9096 14.517 14.2984 14.6787 14.6417 14.9147C14.985 15.1507 15.2751 15.4558 15.4936 15.8105C16.2262 17.3056 14.8607 19.0946 15.379 20.6594C15.8375 22.0399 17.183 22.5681 17.9355 23.814C18.2421 24.3661 18.3659 25.0011 18.2893 25.628C18.2225 26.6841 17.9642 27.7192 17.5269 28.6828C17.0349 29.6411 16.4736 30.5622 15.8474 31.4387C15.8275 31.4686 6.77255 36.6863 6.69281 36.7311Z" fill="#6236FF"/>
<path opacity="0.15" d="M6.69281 36.7311C6.19447 37.0301 5.09312 36.3773 4.69943 36.1032C3.99015 35.6223 3.41687 34.9666 3.03495 34.1995C2.60826 33.3302 2.46365 32.3493 2.62132 31.3938C2.70476 30.8879 2.82298 30.3884 2.97515 29.8988L3.39376 28.4536C3.56155 27.986 3.63276 27.4893 3.60306 26.9934C3.47848 25.9967 2.60637 25.309 1.79905 24.711C0.916975 24.0532 -0.00496335 23.1811 2.01135e-05 21.99C0.0673826 21.0665 0.436904 20.1909 1.05153 19.4983C1.61964 18.7757 2.2974 18.1378 2.8107 17.3803C3.21738 16.8493 3.43016 16.1951 3.41369 15.5265C3.3571 15.1181 3.21989 14.7251 3.01003 14.3703C2.5244 13.6327 2.10101 12.8559 1.74423 12.048C1.45519 11.2158 1.49506 10.1792 2.14291 9.58618C2.43502 9.37116 2.76698 9.21636 3.11946 9.13081C3.47194 9.04525 3.83792 9.03065 4.1961 9.08783C4.87176 9.17213 5.52118 9.40164 6.09978 9.7606C7.9935 10.8121 9.08986 13.0497 11.0832 13.862C11.8762 14.1043 12.6834 14.2974 13.5002 14.4401C13.9096 14.517 14.2984 14.6787 14.6417 14.9147C14.985 15.1507 15.2751 15.4558 15.4936 15.8105C16.2262 17.3056 14.8607 19.0946 15.379 20.6594C15.8375 22.0399 17.183 22.5681 17.9355 23.814C18.2421 24.3661 18.3659 25.0011 18.2893 25.628C18.2225 26.6841 17.9642 27.7192 17.5269 28.6828C17.0349 29.6411 16.4736 30.5622 15.8474 31.4387C15.8275 31.4686 6.77255 36.6863 6.69281 36.7311Z" fill="black"/>
<path d="M12.055 33.8756C12.0238 33.8749 11.993 33.8681 11.9645 33.8554C11.936 33.8427 11.9103 33.8245 11.889 33.8017C11.8676 33.779 11.851 33.7522 11.8402 33.7229C11.8293 33.6937 11.8244 33.6626 11.8257 33.6314C12.2145 24.2824 7.80908 13.9567 4.60471 10.9566C4.5827 10.9352 4.56521 10.9097 4.55327 10.8814C4.54132 10.8532 4.53517 10.8228 4.53517 10.7922C4.53517 10.7615 4.54132 10.7311 4.55327 10.7029C4.56521 10.6746 4.5827 10.6491 4.60471 10.6277C4.64853 10.5845 4.70761 10.5603 4.76916 10.5603C4.83071 10.5603 4.88979 10.5845 4.93361 10.6277C8.20277 13.6876 12.6979 24.1827 12.3042 33.6663C12.2978 33.7267 12.2683 33.7822 12.2219 33.8213C12.1754 33.8603 12.1155 33.8798 12.055 33.8756Z" fill="white"/>
<path d="M10.6547 22.8372C10.6318 22.8423 10.6079 22.8423 10.585 22.8372C8.36897 22.2273 6.09297 21.8614 3.79749 21.7458C3.74061 21.7375 3.68862 21.7091 3.65102 21.6656C3.61342 21.6221 3.59272 21.5666 3.59272 21.5091C3.59272 21.4516 3.61342 21.3961 3.65102 21.3526C3.68862 21.3091 3.74061 21.2807 3.79749 21.2724C6.13334 21.3946 8.44914 21.7689 10.7046 22.3887C10.7586 22.405 10.8049 22.4402 10.835 22.4878C10.8651 22.5355 10.877 22.5924 10.8686 22.6482C10.8601 22.7039 10.8318 22.7548 10.7888 22.7913C10.7459 22.8279 10.6912 22.8477 10.6348 22.8472L10.6547 22.8372Z" fill="white"/>
</svg>
