<svg width="20" height="20" viewBox="0 0 20 20" fill="none" xmlns="http://www.w3.org/2000/svg">
<path fill-rule="evenodd" clip-rule="evenodd" d="M13.5338 3.3335H6.46493C5.79413 3.33349 5.24049 3.33348 4.7895 3.37032C4.32108 3.4086 3.89049 3.49073 3.48605 3.69681C2.85884 4.01639 2.34891 4.52632 2.02933 5.15353C1.82325 5.55797 1.74112 5.98856 1.70284 6.45698C1.67828 6.75765 1.67009 7.10394 1.66737 7.50016H1.66602V8.09625C1.66602 8.09772 1.66602 8.09918 1.66602 8.10065V9.16683L1.66602 11.8679C1.66601 12.5387 1.666 13.0924 1.70284 13.5434C1.74112 14.0118 1.82325 14.4424 2.02933 14.8468C2.34891 15.474 2.85884 15.9839 3.48605 16.3035C3.89049 16.5096 4.32108 16.5917 4.7895 16.63C5.2405 16.6669 5.79414 16.6668 6.46495 16.6668H13.5337C14.2046 16.6668 14.7582 16.6669 15.2092 16.63C15.6776 16.5917 16.1082 16.5096 16.5127 16.3035C17.1399 15.9839 17.6498 15.474 17.9694 14.8468C18.1754 14.4424 18.2576 14.0118 18.2959 13.5434C18.3327 13.0924 18.3327 12.5387 18.3327 11.8679L18.3327 9.16683L18.3327 8.13239C18.3327 8.10196 18.3327 8.07177 18.3327 8.04182V7.50016H18.3313C18.3286 7.10394 18.3204 6.75765 18.2959 6.45698C18.2576 5.98856 18.1754 5.55797 17.9694 5.15353C17.6498 4.52632 17.1399 4.01639 16.5127 3.69681C16.1082 3.49073 15.6776 3.4086 15.2092 3.37032C14.7582 3.33348 14.2046 3.33349 13.5338 3.3335ZM16.6645 7.50016C16.6619 7.12889 16.6547 6.83735 16.6347 6.59269C16.6049 6.22735 16.5508 6.04051 16.4844 5.91018C16.3246 5.59658 16.0696 5.34161 15.756 5.18182C15.6257 5.11541 15.4388 5.06131 15.0735 5.03146C14.6984 5.00081 14.2132 5.00016 13.4994 5.00016H6.49935C5.78553 5.00016 5.30029 5.00081 4.92522 5.03146C4.55987 5.06131 4.37303 5.11541 4.2427 5.18182C3.9291 5.34161 3.67413 5.59658 3.51434 5.91018C3.44793 6.04051 3.39383 6.22735 3.36398 6.59269C3.34399 6.83735 3.33676 7.12889 3.33415 7.50016H16.6645ZM3.33268 9.16683V11.8335C3.33268 12.5473 3.33333 13.0326 3.36398 13.4076C3.39383 13.773 3.44793 13.9598 3.51434 14.0901C3.67413 14.4038 3.9291 14.6587 4.2427 14.8185C4.37303 14.8849 4.55987 14.939 4.92522 14.9689C5.30029 14.9995 5.78553 15.0002 6.49935 15.0002H13.4994C14.2132 15.0002 14.6984 14.9995 15.0735 14.9689C15.4388 14.939 15.6257 14.8849 15.756 14.8185C16.0696 14.6587 16.3246 14.4038 16.4844 14.0901C16.5508 13.9598 16.6049 13.773 16.6347 13.4076C16.6654 13.0326 16.666 12.5473 16.666 11.8335V9.16683H3.33268ZM4.99935 12.5002C4.99935 12.0399 5.37245 11.6668 5.83268 11.6668H9.16602C9.62625 11.6668 9.99935 12.0399 9.99935 12.5002C9.99935 12.9604 9.62625 13.3335 9.16602 13.3335H5.83268C5.37245 13.3335 4.99935 12.9604 4.99935 12.5002Z" fill="#FF9129"/>
</svg>
