<svg width="24" height="24" viewBox="0 0 24 24" fill="none" xmlns="http://www.w3.org/2000/svg">
<g clip-path="url(#clip0_0_46781)">
<path fill-rule="evenodd" clip-rule="evenodd" d="M22.0172 11.5111C22.7156 12.5005 22.9105 13.6593 22.9105 14.6976C22.9105 16.3565 21.4398 17.63 19.7979 17.3929L17.1177 17.0057C15.6418 16.7926 14.5466 15.5277 14.5466 14.0366V13.8794C14.5466 13.3271 14.0989 12.8794 13.5466 12.8794L10.4755 12.8794C9.92322 12.8794 9.4755 13.3271 9.4755 13.8794V14.0366C9.4755 15.5277 8.38025 16.7926 6.90438 17.0058L4.20396 17.3958C2.57269 17.6314 1.11154 16.3662 1.11154 14.718C1.11154 13.6682 1.30602 12.4941 2.01275 11.4924C3.3139 9.64817 6.33097 6.63671 12.011 6.63671C17.6937 6.63671 20.719 9.67187 22.0172 11.5111ZM20.9105 14.6976C20.9105 13.8828 20.7536 13.189 20.3833 12.6645C19.3363 11.1812 16.8558 8.63671 12.011 8.63671C7.16398 8.63671 4.69301 11.1627 3.64695 12.6454C3.26968 13.1801 3.11154 13.8875 3.11154 14.718C3.11154 15.1478 3.49261 15.4778 3.91804 15.4164L6.61846 15.0263C7.11042 14.9552 7.4755 14.5336 7.4755 14.0366V13.8794C7.4755 12.2225 8.81865 10.8794 10.4755 10.8794L13.5466 10.8794C15.2034 10.8794 16.5466 12.2225 16.5466 13.8794V14.0366C16.5466 14.5336 16.9117 14.9552 17.4036 15.0263L20.0839 15.4134C20.5199 15.4764 20.9105 15.1382 20.9105 14.6976Z" fill="white"/>
</g>
<defs>
<clipPath id="clip0_0_46781">
<rect width="24" height="24" fill="white"/>
</clipPath>
</defs>
</svg>
