<svg width="24" height="24" viewBox="0 0 24 24" fill="none" xmlns="http://www.w3.org/2000/svg">
<path fill-rule="evenodd" clip-rule="evenodd" d="M13.6428 3H10.3572H10.3572C9.2734 2.99999 8.39925 2.99998 7.69138 3.05782C6.96253 3.11737 6.32234 3.24318 5.73005 3.54497C4.78924 4.02434 4.02434 4.78924 3.54497 5.73005C3.24318 6.32234 3.11737 6.96253 3.05782 7.69138C2.99998 8.39925 2.99999 9.2734 3 10.3572V10.3572V13.6428V13.6428C3 14.1711 2.99999 14.6496 3.00669 15.0833L3.00668 15.0833C3.01372 15.5393 3.02817 15.9458 3.05782 16.3086C3.07642 16.5364 3.10151 16.7555 3.13641 16.9672C3.15576 17.0846 3.17812 17.1997 3.20408 17.3127C3.28112 17.6481 3.38978 17.9654 3.54497 18.27C4.02434 19.2108 4.78924 19.9757 5.73005 20.455C6.32234 20.7568 6.96253 20.8826 7.69138 20.9422C8.39923 21 9.27334 21 10.3571 21H10.3572H13.6428H13.6429C14.7267 21 15.6008 21 16.3086 20.9422C17.0375 20.8826 17.6777 20.7568 18.27 20.455C19.2108 19.9757 19.9757 19.2108 20.455 18.27C20.7002 17.7887 20.8293 17.2759 20.901 16.7095C20.9175 16.5788 20.931 16.4453 20.9422 16.3086C20.9422 16.3086 20.9422 16.3086 20.9422 16.3086C20.986 15.7727 20.9966 15.1414 20.9992 14.3959C21 14.1569 21 13.9061 21 13.6429V13.6428V10.3572V10.3571C21 9.27334 21 8.39923 20.9422 7.69138C20.8826 6.96253 20.7568 6.32234 20.455 5.73005C19.9757 4.78924 19.2108 4.02434 18.27 3.54497C17.6777 3.24318 17.0375 3.11737 16.3086 3.05782C15.6007 2.99998 14.7266 2.99999 13.6428 3H13.6428ZM19 13.0931V10.4C19 9.2634 18.9992 8.47108 18.9488 7.85424C18.8994 7.24907 18.8072 6.90138 18.673 6.63803C18.3854 6.07354 17.9265 5.6146 17.362 5.32698C17.0986 5.1928 16.7509 5.10062 16.1458 5.05118C15.5289 5.00078 14.7366 5 13.6 5H10.4C9.2634 5 8.47108 5.00078 7.85424 5.05118C7.24907 5.10062 6.90138 5.1928 6.63803 5.32698C6.07354 5.6146 5.6146 6.07354 5.32698 6.63803C5.1928 6.90138 5.10062 7.24907 5.05118 7.85424C5.00078 8.47108 5 9.26339 5 10.4V13.6C5 13.6855 5.00001 13.7691 5.00003 13.8507L5.34983 13.6345L5.42847 13.5857C5.75817 13.381 6.08976 13.1751 6.46333 13.079C6.78942 12.9951 7.12909 12.9779 7.46197 13.0286C7.84332 13.0866 8.19396 13.258 8.54259 13.4285L8.62575 13.4691L9.1541 13.7262C9.68349 13.9838 9.74663 14.001 9.78881 14.0065C9.86 14.0159 9.93238 14.0099 10.001 13.9888C10.0417 13.9763 10.1011 13.9489 10.5802 13.6068L13.0859 11.8177L13.179 11.751C13.5633 11.4754 13.9489 11.1988 14.3938 11.08C14.7814 10.9766 15.1881 10.9679 15.5797 11.0548C16.0294 11.1545 16.4264 11.4145 16.822 11.6736L16.9179 11.7363L19 13.0931ZM5.05314 16.1694C5.10304 16.76 5.19455 17.1021 5.32698 17.362C5.6146 17.9265 6.07354 18.3854 6.63803 18.673C6.90138 18.8072 7.24907 18.8994 7.85424 18.9488C8.47108 18.9992 9.26339 19 10.4 19H13.6C14.7366 19 15.5289 18.9992 16.1458 18.9488C16.7509 18.8994 17.0986 18.8072 17.362 18.673C17.9265 18.3854 18.3854 17.9265 18.673 17.362C18.8072 17.0986 18.8994 16.7509 18.9488 16.1458C18.9655 15.9418 18.9767 15.7186 18.9843 15.4701L15.8259 13.4119C15.2633 13.0452 15.1926 13.0175 15.1467 13.0073C15.0684 12.99 14.987 12.9917 14.9095 13.0124C14.864 13.0245 14.7946 13.0552 14.2481 13.4454L11.7424 15.2344L11.6612 15.2926C11.3225 15.5355 10.982 15.7796 10.5886 15.9005C10.2454 16.006 9.88347 16.0363 9.52751 15.9894C9.11943 15.9356 8.7431 15.7515 8.36868 15.5684L8.27892 15.5246L7.75056 15.2674C7.25896 15.0282 7.20094 15.0119 7.16131 15.0058C7.09473 14.9957 7.0268 14.9991 6.96158 15.0159C6.92275 15.0259 6.86667 15.048 6.40166 15.3355L5.05314 16.1694ZM9 11C10.1046 11 11 10.1046 11 9C11 7.89543 10.1046 7 9 7C7.89543 7 7 7.89543 7 9C7 10.1046 7.89543 11 9 11Z" fill="#0E0E17" fill-opacity="0.7"/>
</svg>
