<svg width="12" height="12" viewBox="0 0 12 12" fill="none" xmlns="http://www.w3.org/2000/svg">
<path fill-rule="evenodd" clip-rule="evenodd" d="M4.85045 1.75929C5.28165 0.7443 6.72022 0.7443 7.15142 1.75929L7.93022 3.5925L9.85439 3.75366C10.9431 3.84485 11.3992 5.19063 10.5901 5.92491L9.11869 7.26042L9.60034 9.47849C9.84369 10.5991 8.57568 11.4286 7.64639 10.7567L6.00093 9.56694L4.35547 10.7567C3.42618 11.4286 2.15818 10.5991 2.40152 9.47849L2.88318 7.26042L1.41169 5.92492C0.602648 5.19064 1.05869 3.84485 2.14744 3.75366L4.07164 3.5925L4.85045 1.75929ZM6.23103 2.15029C6.14479 1.9473 5.85708 1.9473 5.77084 2.1503L4.93307 4.1223C4.82427 4.37839 4.58265 4.55321 4.30537 4.57643L2.2309 4.75017C2.01315 4.76841 1.92195 5.03757 2.08375 5.18442L3.66218 6.61698C3.86068 6.79714 3.94793 7.06954 3.89105 7.3315L3.37875 9.6907C3.33008 9.91483 3.58368 10.0807 3.76954 9.94634L5.56148 8.65067C5.82376 8.46103 6.1781 8.46103 6.44038 8.65067L8.23233 9.94634C8.41818 10.0807 8.67179 9.91483 8.62312 9.6907L8.11082 7.3315C8.05393 7.06954 8.14118 6.79714 8.33968 6.61698L9.91807 5.18442C10.0799 5.03757 9.98867 4.76841 9.77092 4.75017L7.69649 4.57643C7.41922 4.55321 7.17759 4.37839 7.0688 4.1223L6.23103 2.15029Z" fill="#AAAAC1"/>
</svg>
