<svg width="319" height="275" viewBox="0 0 319 275" fill="none" xmlns="http://www.w3.org/2000/svg">
<g filter="url(#filter0_d_2386_21572)">
<path d="M0 25.6C0 16.6392 0 12.1587 1.7439 8.73615C3.27787 5.72556 5.72556 3.27787 8.73615 1.7439C12.1587 0 16.6392 0 25.6 0H293.4C302.361 0 306.841 0 310.264 1.7439C313.274 3.27787 315.722 5.72556 317.256 8.73615C319 12.1587 319 16.6392 319 25.6V249.4C319 258.361 319 262.841 317.256 266.264C315.722 269.274 313.274 271.722 310.264 273.256C306.841 275 302.361 275 293.4 275H25.6C16.6392 275 12.1587 275 8.73615 273.256C5.72556 271.722 3.27787 269.274 1.7439 266.264C0 262.841 0 258.361 0 249.4V25.6Z" fill="white"/>
</g>
<defs>
<filter id="filter0_d_2386_21572" x="-36" y="-31" width="391" height="347" filterUnits="userSpaceOnUse" color-interpolation-filters="sRGB">
<feFlood flood-opacity="0" result="BackgroundImageFix"/>
<feColorMatrix in="SourceAlpha" type="matrix" values="0 0 0 0 0 0 0 0 0 0 0 0 0 0 0 0 0 0 127 0" result="hardAlpha"/>
<feOffset dy="5"/>
<feGaussianBlur stdDeviation="18"/>
<feColorMatrix type="matrix" values="0 0 0 0 0.054902 0 0 0 0 0.054902 0 0 0 0 0.0901961 0 0 0 0.08 0"/>
<feBlend mode="normal" in2="BackgroundImageFix" result="effect1_dropShadow_2386_21572"/>
<feBlend mode="normal" in="SourceGraphic" in2="effect1_dropShadow_2386_21572" result="shape"/>
</filter>
</defs>
</svg>
