<svg width="24" height="24" viewBox="0 0 24 24" fill="none" xmlns="http://www.w3.org/2000/svg">
<path fill-rule="evenodd" clip-rule="evenodd" d="M8.17803 6.02048C8.0838 6.02507 7.99512 6.03068 7.91104 6.03755C7.47262 6.07337 7.24842 6.1383 7.09202 6.21799C6.7157 6.40973 6.40974 6.7157 6.21799 7.09202C6.1383 7.24842 6.07337 7.47262 6.03755 7.91104C6.00078 8.36113 6 8.94342 6 9.8V16.2C6 17.0566 6.00078 17.6389 6.03755 18.089C6.07337 18.5274 6.1383 18.7516 6.21799 18.908C6.40974 19.2843 6.7157 19.5903 7.09202 19.782C7.24842 19.8617 7.47262 19.9266 7.91104 19.9624C8.36113 19.9992 8.94342 20 9.8 20H14.2C15.0566 20 15.6389 19.9992 16.089 19.9624C16.5274 19.9266 16.7516 19.8617 16.908 19.782C17.2843 19.5903 17.5903 19.2843 17.782 18.908C17.8617 18.7516 17.9266 18.5274 17.9624 18.089C17.9992 17.6389 18 17.0566 18 16.2V9.8C18 8.94342 17.9992 8.36113 17.9624 7.91104C17.9266 7.47262 17.8617 7.24842 17.782 7.09202C17.5903 6.7157 17.2843 6.40973 16.908 6.21799C16.7516 6.1383 16.5274 6.07337 16.089 6.03755C16.0049 6.03068 15.9162 6.02507 15.822 6.02048C15.4044 7.17496 14.2986 8 13 8H11C9.70145 8 8.5956 7.17496 8.17803 6.02048ZM15.836 4.01919C15.982 4.02535 16.1205 4.03347 16.2518 4.04419C16.8139 4.09012 17.3306 4.18868 17.816 4.43597C18.5686 4.81947 19.1805 5.43139 19.564 6.18404C19.8113 6.66937 19.9099 7.18608 19.9558 7.74817C20 8.28936 20 8.95371 20 9.75866V9.75868V9.7587V9.75873V16.2413V16.2413V16.2413V16.2413C20 17.0463 20 17.7106 19.9558 18.2518C19.9099 18.8139 19.8113 19.3306 19.564 19.816C19.1805 20.5686 18.5686 21.1805 17.816 21.564C17.3306 21.8113 16.8139 21.9099 16.2518 21.9558C15.7106 22 15.0463 22 14.2413 22H9.75868C8.95372 22 8.28937 22 7.74818 21.9558C7.18608 21.9099 6.66938 21.8113 6.18404 21.564C5.43139 21.1805 4.81947 20.5686 4.43598 19.816C4.18868 19.3306 4.09012 18.8139 4.0442 18.2518C3.99998 17.7106 3.99999 17.0463 4 16.2413V16.2413V16.2413V9.7587V9.75868V9.75867C3.99999 8.95371 3.99998 8.28936 4.0442 7.74817C4.09012 7.18608 4.18868 6.66937 4.43598 6.18404C4.81947 5.43139 5.43139 4.81947 6.18404 4.43597C6.66938 4.18868 7.18608 4.09012 7.74818 4.04419C7.87945 4.03347 8.01798 4.02535 8.164 4.01919C8.57036 2.84399 9.68662 2 11 2H13C14.3134 2 15.4296 2.84399 15.836 4.01919ZM10 5C10 4.44772 10.4477 4 11 4H13C13.5523 4 14 4.44772 14 5C14 5.55228 13.5523 6 13 6H11C10.4477 6 10 5.55228 10 5ZM10 12C10 12.5523 9.55229 13 9 13C8.44772 13 8 12.5523 8 12C8 11.4477 8.44772 11 9 11C9.55229 11 10 11.4477 10 12ZM13 11C12.4477 11 12 11.4477 12 12C12 12.5523 12.4477 13 13 13H15C15.5523 13 16 12.5523 16 12C16 11.4477 15.5523 11 15 11H13ZM13 15C12.4477 15 12 15.4477 12 16C12 16.5523 12.4477 17 13 17H15C15.5523 17 16 16.5523 16 16C16 15.4477 15.5523 15 15 15H13ZM9 17C9.55229 17 10 16.5523 10 16C10 15.4477 9.55229 15 9 15C8.44772 15 8 15.4477 8 16C8 16.5523 8.44772 17 9 17Z" fill="#0E0E17"/>
</svg>
