<svg width="20" height="20" viewBox="0 0 20 20" fill="none" xmlns="http://www.w3.org/2000/svg">
<path fill-rule="evenodd" clip-rule="evenodd" d="M7.50065 1.6665C5.19946 1.6665 3.33398 3.53199 3.33398 5.83317V15.8242C3.33398 17.9523 5.82343 19.1073 7.44835 17.7331L9.46252 16.0297C9.77317 15.7669 10.2281 15.7669 10.5388 16.0297L12.5529 17.7331C14.1778 19.1073 16.6673 17.9523 16.6673 15.8242V5.83317C16.6673 3.53198 14.8018 1.6665 12.5006 1.6665H7.50065ZM5.00065 5.83317C5.00065 4.45246 6.11994 3.33317 7.50065 3.33317H12.5006C13.8813 3.33317 15.0006 4.45246 15.0006 5.83317V15.8242C15.0006 16.5335 14.1708 16.9185 13.6291 16.4605L11.615 14.7571C10.6831 13.9689 9.31823 13.9689 8.38628 14.7571L6.37211 16.4605C5.83047 16.9186 5.00065 16.5336 5.00065 15.8242V5.83317ZM13.0899 7.25576C13.4153 6.93032 13.4153 6.40269 13.0899 6.07725C12.7645 5.75181 12.2368 5.75181 11.9114 6.07725L9.16732 8.82133L8.08991 7.74392C7.76447 7.41848 7.23683 7.41848 6.9114 7.74392C6.58596 8.06935 6.58596 8.59699 6.9114 8.92243L8.57806 10.5891C8.9035 10.9145 9.43114 10.9145 9.75657 10.5891L13.0899 7.25576Z" fill="white"/>
</svg>
