<svg width="20" height="20" viewBox="0 0 20 20" fill="none" xmlns="http://www.w3.org/2000/svg">
<path fill-rule="evenodd" clip-rule="evenodd" d="M13.5338 3.33301H6.46493C5.79413 3.333 5.24049 3.33299 4.7895 3.36984C4.32108 3.40811 3.89049 3.49024 3.48605 3.69632C2.85884 4.0159 2.34891 4.52583 2.02933 5.15304C1.82325 5.55749 1.74112 5.98807 1.70284 6.45649C1.67828 6.75716 1.67009 7.10345 1.66737 7.49967H1.66602V8.09576C1.66602 8.09723 1.66602 8.0987 1.66602 8.10016V9.16634L1.66602 11.8674C1.66601 12.5382 1.666 13.0919 1.70284 13.5429C1.74112 14.0113 1.82325 14.4419 2.02933 14.8463C2.34891 15.4735 2.85884 15.9835 3.48605 16.303C3.89049 16.5091 4.32108 16.5912 4.7895 16.6295C5.2405 16.6664 5.79414 16.6664 6.46495 16.6663H13.5337C14.2046 16.6664 14.7582 16.6664 15.2092 16.6295C15.6776 16.5912 16.1082 16.5091 16.5127 16.303C17.1399 15.9835 17.6498 15.4735 17.9694 14.8463C18.1754 14.4419 18.2576 14.0113 18.2959 13.5429C18.3327 13.0919 18.3327 12.5382 18.3327 11.8674L18.3327 9.16634L18.3327 8.13191C18.3327 8.10147 18.3327 8.07128 18.3327 8.04133V7.49967H18.3313C18.3286 7.10345 18.3204 6.75716 18.2959 6.45649C18.2576 5.98807 18.1754 5.55749 17.9694 5.15304C17.6498 4.52583 17.1399 4.0159 16.5127 3.69632C16.1082 3.49024 15.6776 3.40811 15.2092 3.36984C14.7582 3.33299 14.2046 3.333 13.5338 3.33301ZM16.6645 7.49967C16.6619 7.1284 16.6547 6.83687 16.6347 6.59221C16.6049 6.22686 16.5508 6.04002 16.4844 5.90969C16.3246 5.59609 16.0696 5.34112 15.756 5.18133C15.6257 5.11492 15.4388 5.06082 15.0735 5.03097C14.6984 5.00032 14.2132 4.99968 13.4994 4.99968H6.49935C5.78553 4.99968 5.30029 5.00032 4.92522 5.03097C4.55987 5.06082 4.37303 5.11492 4.2427 5.18133C3.9291 5.34112 3.67413 5.59609 3.51434 5.90969C3.44793 6.04002 3.39383 6.22686 3.36398 6.59221C3.34399 6.83687 3.33676 7.1284 3.33415 7.49967H16.6645ZM3.33268 9.16634V11.833C3.33268 12.5468 3.33333 13.0321 3.36398 13.4071C3.39383 13.7725 3.44793 13.9593 3.51434 14.0897C3.67413 14.4033 3.9291 14.6582 4.2427 14.818C4.37303 14.8844 4.55987 14.9385 4.92522 14.9684C5.30029 14.999 5.78553 14.9997 6.49935 14.9997H13.4994C14.2132 14.9997 14.6984 14.999 15.0735 14.9684C15.4388 14.9385 15.6257 14.8844 15.756 14.818C16.0696 14.6582 16.3246 14.4033 16.4844 14.0897C16.5508 13.9593 16.6049 13.7725 16.6347 13.4071C16.6654 13.0321 16.666 12.5468 16.666 11.833V9.16634H3.33268ZM4.99935 12.4997C4.99935 12.0394 5.37245 11.6663 5.83268 11.6663H9.16602C9.62625 11.6663 9.99935 12.0394 9.99935 12.4997C9.99935 12.9599 9.62625 13.333 9.16602 13.333H5.83268C5.37245 13.333 4.99935 12.9599 4.99935 12.4997Z" fill="#BC36DE"/>
</svg>
