<svg width="24" height="24" viewBox="0 0 24 24" fill="none" xmlns="http://www.w3.org/2000/svg">
<path d="M10 20H14C14 21.1046 13.1046 22 12 22C10.8954 22 10 21.1046 10 20Z" fill="#6236FF"/>
<path opacity="0.25" d="M13.0051 4H10.9963L9.96997 4.36922C7.58872 5.22582 6.00093 7.48439 6.00093 10.015V13.3354C6.00093 14.0691 5.65593 14.7601 5.06947 15.2011C3.0221 16.7405 4.11079 20 6.6723 20H17.3295C19.891 20 20.9797 16.7405 18.9324 15.2011C18.3459 14.7602 18.0009 14.0691 18.0009 13.3354V10.0151C18.0009 7.48444 16.4131 5.22582 14.0317 4.36927L13.0051 4Z" fill="#6236FF"/>
<path d="M11 3C11 2.44772 11.4477 2 12 2C12.5523 2 13 2.44772 13 3V4H11V3Z" fill="#6236FF"/>
</svg>
