<svg width="20" height="20" viewBox="0 0 20 20" fill="none" xmlns="http://www.w3.org/2000/svg">
<path fill-rule="evenodd" clip-rule="evenodd" d="M7.50065 1.6665C5.19946 1.6665 3.33398 3.53199 3.33398 5.83317V15.8242C3.33398 17.9523 5.82343 19.1073 7.44835 17.7331L9.46252 16.0297C9.77317 15.7669 10.2281 15.7669 10.5388 16.0297L12.5529 17.7331C14.1778 19.1073 16.6673 17.9523 16.6673 15.8242V5.83317C16.6673 3.53198 14.8018 1.6665 12.5006 1.6665H7.50065ZM5.00065 5.83317C5.00065 4.45246 6.11994 3.33317 7.50065 3.33317H12.5006C13.8813 3.33317 15.0006 4.45246 15.0006 5.83317V15.8242C15.0006 16.5335 14.1708 16.9185 13.6291 16.4605L11.615 14.7571C10.6831 13.9689 9.31823 13.9689 8.38628 14.7571L6.37211 16.4605C5.83047 16.9186 5.00065 16.5336 5.00065 15.8242V5.83317ZM10.834 6.6665C10.834 6.20627 10.4609 5.83317 10.0007 5.83317C9.54041 5.83317 9.16732 6.20627 9.16732 6.6665V7.49984H8.33398C7.87375 7.49984 7.50065 7.87293 7.50065 8.33317C7.50065 8.79341 7.87375 9.1665 8.33398 9.1665H9.16732V9.99984C9.16732 10.4601 9.54041 10.8332 10.0007 10.8332C10.4609 10.8332 10.834 10.4601 10.834 9.99984V9.1665H11.6673C12.1276 9.1665 12.5007 8.79341 12.5007 8.33317C12.5007 7.87293 12.1276 7.49984 11.6673 7.49984H10.834V6.6665Z" fill="#3E35E5"/>
</svg>
