<svg width="35" height="49" viewBox="0 0 35 49" fill="none" xmlns="http://www.w3.org/2000/svg">
<path d="M34.6902 10.5812H0.0258487L3.04758 41.1914C3.23392 43.1505 4.62392 45.0793 7.21757 46.5751C12.8128 49.8083 21.878 49.8083 27.4733 46.5751C30.0669 45.0642 31.4519 43.1505 31.6432 41.1914L34.6902 10.5812Z" fill="#37474F"/>
<path d="M17.3599 20.0442C26.9474 20.0442 34.7197 15.5571 34.7197 10.0221C34.7197 4.48704 26.9474 0 17.3599 0C7.77227 0 0 4.48704 0 10.0221C0 15.5571 7.77227 20.0442 17.3599 20.0442Z" fill="#455A64"/>
<path d="M17.3595 18.6139C12.9679 18.6139 8.86337 17.6419 5.77616 15.8742C2.96091 14.2475 1.40975 12.1675 1.40975 10.0221C1.40975 7.87667 2.96091 5.79672 5.77616 4.17002C8.84322 2.4023 12.9477 1.42528 17.3595 1.42528C21.7712 1.42528 25.8556 2.4023 28.9176 4.17002C31.7379 5.79672 33.289 7.87667 33.289 10.0221C33.289 12.1675 31.7379 14.2475 28.9176 15.8742C25.8556 17.6419 21.7511 18.6139 17.3595 18.6139Z" fill="#37474F"/>
<path opacity="0.1" d="M29.2765 12.0517C28.4103 11.402 26.8692 11.9912 26.2548 11.0847C26.0634 10.7977 26.0281 10.4099 25.7511 10.1883C24.9453 9.52349 23.7366 11.3265 22.8805 10.6919C22.5682 10.4653 22.4877 9.98179 22.1402 9.82566C21.8833 9.71487 21.5912 9.82566 21.3142 9.82566C21.0165 9.77495 20.7382 9.64407 20.5093 9.44708C20.2804 9.2501 20.1094 8.99445 20.0149 8.70762C19.8333 8.13053 19.5631 7.58516 19.2141 7.091C18.9139 6.76442 18.5027 6.56151 18.0608 6.5219C16.973 6.42621 16.0816 7.31259 15.3513 8.12342C15.2355 8.25436 15.1146 8.3853 14.9988 8.52128C14.7919 8.78188 14.5372 9.00066 14.2484 9.16592C14.0963 9.25471 13.9154 9.28003 13.7448 9.23642C13.6542 9.19906 13.5722 9.14361 13.5038 9.07347C13.4354 9.00333 13.382 8.91997 13.3469 8.82848C13.0397 8.1637 13.1102 7.14135 12.4001 6.95501C12.2087 6.90465 11.9821 6.92983 11.831 6.79889C11.6799 6.66795 11.685 6.47153 11.5792 6.32548C11.5033 6.24291 11.4104 6.17768 11.307 6.13423C11.2036 6.09077 11.092 6.07012 10.9799 6.07367C9.51938 5.96287 8.23011 6.94494 7.09696 7.87161C6.48758 7.46871 6.42211 6.5773 6.65377 5.85712C7.23797 4.11458 9.0762 3.15267 10.7986 2.50803C11.6044 2.20586 12.4253 1.93893 13.2512 1.69719C10.6206 2.03406 8.07669 2.86265 5.75229 4.13976C2.93704 5.76646 1.38589 7.84642 1.38589 9.99185C1.38589 12.1373 2.93704 14.2172 5.75229 15.8439C8.81934 17.6117 12.9239 18.5836 17.3356 18.5836C21.7473 18.5836 25.8317 17.6117 28.8937 15.8439L29.075 15.7331C29.2463 15.3756 29.4024 15.013 29.5384 14.6403C29.8859 13.7841 30.0269 12.6208 29.2765 12.0517Z" fill="black"/>
<path d="M9.20114 44.349C8.43963 44.0579 7.70209 43.7077 6.99528 43.3014C6.73339 43.1504 6.49166 42.9993 6.24992 42.8381C5.76319 42.3745 5.47295 41.7417 5.43908 41.0704L3.72173 20.4773C3.6613 19.7873 3.97354 19.5154 4.44695 19.8326C4.72562 20.0207 5.01772 20.202 5.32325 20.3766C6.19881 20.8808 7.11528 21.3104 8.06295 21.6608C8.40205 21.801 8.6973 22.0296 8.91789 22.3228C9.13847 22.6161 9.2763 22.9631 9.31698 23.3278L10.3242 43.4978C10.3519 43.6418 10.3388 43.7907 10.2863 43.9276C10.2339 44.0645 10.1441 44.184 10.0273 44.2725C9.91042 44.3611 9.77112 44.4152 9.62512 44.4287C9.47913 44.4422 9.33226 44.4146 9.20114 44.349Z" fill="#263238"/>
<path d="M20.0297 24.3905L19.6873 44.4145C19.6794 44.7576 19.544 45.0854 19.3075 45.334C19.071 45.5826 18.7503 45.7342 18.4081 45.7592C17.7131 45.7894 17.008 45.7894 16.308 45.7592C15.9666 45.733 15.6472 45.5809 15.4117 45.3324C15.1763 45.0839 15.0416 44.7567 15.0338 44.4145L14.7065 24.3905C14.7016 24.2301 14.7308 24.0705 14.792 23.9221C14.8532 23.7738 14.945 23.6401 15.0615 23.5297C15.1781 23.4194 15.3166 23.3349 15.468 23.2819C15.6195 23.2289 15.7804 23.2085 15.9403 23.2221C16.8915 23.2724 17.8447 23.2724 18.7959 23.2221C18.9558 23.2085 19.1167 23.2289 19.2682 23.2819C19.4196 23.3349 19.5582 23.4194 19.6747 23.5297C19.7912 23.6401 19.8831 23.7738 19.9442 23.9221C20.0054 24.0705 20.0346 24.2301 20.0297 24.3905Z" fill="#263238"/>
<path d="M31.0234 20.4773L29.2859 41.0855C29.247 41.7581 28.9556 42.3912 28.4701 42.8583C28.2334 43.0144 27.9664 43.1705 27.7247 43.3166C27.0233 43.7155 26.2926 44.0607 25.539 44.349C25.4081 44.4155 25.2612 44.4441 25.115 44.4314C24.9687 44.4187 24.8289 44.3653 24.7115 44.2772C24.594 44.1891 24.5036 44.0699 24.4505 43.933C24.3974 43.7962 24.3836 43.6472 24.4109 43.5029L25.4181 23.3278C25.4588 22.9631 25.5966 22.6161 25.8172 22.3229C26.0378 22.0296 26.333 21.801 26.6721 21.6608C27.6151 21.309 28.528 20.8812 29.4018 20.3816C29.709 20.2054 30.0061 20.019 30.2881 19.8276C30.7615 19.5053 31.0788 19.7722 31.0234 20.4773Z" fill="#263238"/>
<path d="M2.42779 12.9532C3.32444 14.1609 4.47439 15.1579 5.79703 15.8742C8.86409 17.642 12.9686 18.614 17.3803 18.614C21.7921 18.614 25.8765 17.642 28.9385 15.8742C29.8331 15.3694 30.6592 14.7516 31.3962 14.036C31.3371 13.7353 31.2335 13.4451 31.0889 13.1748C30.936 12.8827 30.7136 12.6325 30.4414 12.4464C30.1692 12.2602 29.8555 12.1437 29.5277 12.1072C29.15 12.1072 28.7773 12.1928 28.4046 12.1726C28.2173 12.1815 28.032 12.13 27.8761 12.0258C27.7202 11.9215 27.6018 11.77 27.5384 11.5935C27.5032 11.4273 27.5384 11.251 27.5132 11.0898C27.4276 10.6517 26.8736 10.4654 26.4304 10.5459C25.9872 10.6265 25.5995 10.8834 25.1663 10.9942C24.9556 11.0707 24.725 11.0724 24.5132 10.999C24.3014 10.9256 24.1213 10.7817 24.003 10.5913C23.9174 10.3797 23.9476 10.1279 23.8267 9.93151C23.585 9.52358 22.8698 9.61423 22.6331 9.20126C22.4468 8.8739 22.6784 8.48109 22.7338 8.11344C22.753 7.8014 22.6784 7.49076 22.5195 7.2215C22.3606 6.95224 22.1248 6.73669 21.8424 6.60258C21.2755 6.34593 20.6617 6.20877 20.0395 6.19967C19.3724 6.0643 18.679 6.16209 18.0753 6.47667C17.4911 6.87957 17.2746 7.61989 16.9976 8.26957C16.7206 8.91924 16.2069 9.59913 15.4867 9.5941C15.4679 9.30008 15.3694 9.01673 15.2017 8.7745C15.034 8.53226 14.8035 8.34029 14.5349 8.2192C14.2063 8.10892 13.8695 8.02472 13.5276 7.96739C12.4952 7.68536 11.5131 6.82417 10.5059 7.10116C10.0792 7.25067 9.69302 7.4972 9.37779 7.82134L7.69569 9.29694C7.28583 9.59618 6.96824 10.0045 6.7791 10.4754C6.74477 10.6838 6.68384 10.8869 6.5978 11.0798C6.28052 11.5834 5.62077 11.3819 5.13226 11.392C4.46296 11.3451 3.79976 11.5458 3.26885 11.9561C2.92089 12.225 2.63417 12.5649 2.42779 12.9532Z" fill="#6236FF"/>
<path opacity="0.1" d="M28.9187 15.8742C29.8134 15.3694 30.6394 14.7516 31.3764 14.036C31.3532 13.9322 31.3246 13.8297 31.2908 13.7288C30.7019 14.2132 30.0097 14.5558 29.2676 14.7305C28.5254 14.9051 27.753 14.907 27.01 14.7361C26.5241 14.5613 26.0149 14.4594 25.4991 14.4339C25.2376 14.4282 24.9828 14.5173 24.7819 14.6849C24.581 14.8525 24.4476 15.0871 24.4063 15.3454C24.4242 15.4131 24.4242 15.4843 24.4063 15.5519C24.381 15.5865 24.3486 15.6152 24.3112 15.636C24.2738 15.6569 24.2324 15.6694 24.1897 15.6728C22.8702 15.9599 21.3694 15.1692 20.201 15.8591C19.8262 16.1661 19.4212 16.4344 18.9923 16.6599C18.4677 16.7623 17.924 16.6879 17.4462 16.4484C17.3024 16.4086 17.1697 16.3362 17.0584 16.2368C16.857 16.0304 16.862 15.703 16.7059 15.4663C16.5637 15.296 16.3822 15.1629 16.1771 15.0785C15.4993 14.6567 14.714 14.4398 13.9158 14.454C13.4401 14.5426 12.9959 14.7543 12.6274 15.068C12.259 15.3817 11.9791 15.7864 11.8157 16.2419C9.95734 15.5922 8.61267 13.4216 6.65358 13.6281C6.48235 13.0237 7.20254 12.5654 7.80688 12.3841C8.41123 12.2028 9.16162 11.9208 9.1868 11.2913C9.1868 11.0294 9.06594 10.7877 9.09615 10.5157C9.14148 10.1531 9.50409 9.83078 9.39329 9.47824C9.31749 9.32526 9.21711 9.18575 9.09615 9.06527C8.92891 8.83419 8.86008 8.54624 8.90477 8.26451L7.75147 9.27176C7.34161 9.57099 7.02402 9.97932 6.83488 10.4502C6.80055 10.6586 6.73963 10.8617 6.65358 11.0546C6.3363 11.5582 5.67655 11.3568 5.18804 11.3668C4.51874 11.3199 3.85556 11.5206 3.32465 11.9309C2.97193 12.2016 2.68164 12.5452 2.47352 12.9381C3.37017 14.1458 4.52012 15.1428 5.84276 15.8591C8.90982 17.6268 13.0143 18.5988 17.4261 18.5988C21.8378 18.5988 25.8567 17.6419 28.9187 15.8742Z" fill="black"/>
</svg>
