<svg width="24" height="24" viewBox="0 0 24 24" fill="none" xmlns="http://www.w3.org/2000/svg">
<path fill-rule="evenodd" clip-rule="evenodd" d="M3.92984 12C3.92984 11.4477 4.37755 11 4.92984 11L11.0009 11L11.0009 4.92893C11.0009 4.37665 11.4486 3.92893 12.0009 3.92893C12.5532 3.92893 13.0009 4.37665 13.0009 4.92893L13.0009 11H19.072C19.6243 11 20.072 11.4477 20.072 12C20.072 12.5523 19.6243 13 19.072 13H13.0009L13.0009 19.0711C13.0009 19.6234 12.5532 20.0711 12.0009 20.0711C11.4486 20.0711 11.0009 19.6234 11.0009 19.0711V13L4.92984 13C4.37755 13 3.92984 12.5523 3.92984 12Z" fill="white"/>
</svg>
