<svg width="20" height="20" viewBox="0 0 20 20" fill="none" xmlns="http://www.w3.org/2000/svg">
<path fill-rule="evenodd" clip-rule="evenodd" d="M9.99935 3.33268C6.31745 3.33268 3.33268 6.31745 3.33268 9.99935C3.33268 13.6812 6.31745 16.666 9.99935 16.666C13.6812 16.666 16.666 13.6812 16.666 9.99935C16.666 6.31745 13.6812 3.33268 9.99935 3.33268ZM1.66602 9.99935C1.66602 5.39698 5.39698 1.66602 9.99935 1.66602C14.6017 1.66602 18.3327 5.39698 18.3327 9.99935C18.3327 14.6017 14.6017 18.3327 9.99935 18.3327C5.39698 18.3327 1.66602 14.6017 1.66602 9.99935Z" fill="#0E0E17" fill-opacity="0.42"/>
<path d="M9.99935 5.83398C9.53911 5.83398 9.16602 6.20708 9.16602 6.66732C9.16602 7.12756 9.53911 7.50065 9.99935 7.50065C10.4596 7.50065 10.8327 7.12756 10.8327 6.66732C10.8327 6.20708 10.4596 5.83398 9.99935 5.83398Z" fill="#0E0E17" fill-opacity="0.42"/>
<path d="M10.8327 10.0007C10.8327 9.54041 10.4596 9.16732 9.99935 9.16732C9.53911 9.16732 9.16602 9.54041 9.16602 10.0007V13.334C9.16602 13.7942 9.53911 14.1673 9.99935 14.1673C10.4596 14.1673 10.8327 13.7942 10.8327 13.334V10.0007Z" fill="#0E0E17" fill-opacity="0.42"/>
</svg>
