<svg width="20" height="20" viewBox="0 0 20 20" fill="none" xmlns="http://www.w3.org/2000/svg">
<path fill-rule="evenodd" clip-rule="evenodd" d="M7.50065 13.3337C6.11994 13.3337 5.00065 14.4529 5.00065 15.8337C5.00065 16.2939 5.37375 16.667 5.83398 16.667H14.1673C14.6276 16.667 15.0007 16.2939 15.0007 15.8337C15.0007 14.4529 13.8814 13.3337 12.5007 13.3337H7.50065ZM3.33398 15.8337C3.33398 13.5325 5.19946 11.667 7.50065 11.667H12.5007C14.8018 11.667 16.6673 13.5325 16.6673 15.8337C16.6673 17.2144 15.548 18.3337 14.1673 18.3337H5.83398C4.45327 18.3337 3.33398 17.2144 3.33398 15.8337Z" fill="#3528D8"/>
<path fill-rule="evenodd" clip-rule="evenodd" d="M10.0007 3.33366C8.61994 3.33366 7.50065 4.45295 7.50065 5.83366C7.50065 7.21437 8.61994 8.33366 10.0007 8.33366C11.3814 8.33366 12.5007 7.21437 12.5007 5.83366C12.5007 4.45295 11.3814 3.33366 10.0007 3.33366ZM5.83398 5.83366C5.83398 3.53247 7.69946 1.66699 10.0007 1.66699C12.3018 1.66699 14.1673 3.53247 14.1673 5.83366C14.1673 8.13485 12.3018 10.0003 10.0007 10.0003C7.69946 10.0003 5.83398 8.13485 5.83398 5.83366Z" fill="#3528D8"/>
</svg>
