<svg width="20" height="20" viewBox="0 0 20 20" fill="none" xmlns="http://www.w3.org/2000/svg">
<path d="M8.33398 16.667H11.6673C11.6673 17.5875 10.9211 18.3337 10.0007 18.3337C9.08018 18.3337 8.33398 17.5875 8.33398 16.667Z" fill="#6236FF"/>
<path fill-rule="evenodd" clip-rule="evenodd" d="M9.99992 1.66699C9.53968 1.66699 9.16659 2.04009 9.16659 2.50033V3.33366C9.16659 3.35678 9.16753 3.37968 9.16937 3.40233C6.80326 3.79793 4.99995 5.8552 4.99995 8.33366V9.96479C4.99995 10.3237 4.87003 10.6705 4.63419 10.9411L4.09715 11.5572C2.35813 13.5522 3.77508 16.667 6.42166 16.667H13.5782C16.2248 16.667 17.6418 13.5522 15.9028 11.5572L15.3657 10.9411C15.1299 10.6705 15 10.3237 15 9.96479V8.33366C15 5.85518 13.1966 3.79788 10.8305 3.40232C10.8323 3.37968 10.8333 3.35678 10.8333 3.33366V2.50033C10.8333 2.04009 10.4602 1.66699 9.99992 1.66699ZM6.66662 8.33366C6.66662 6.49271 8.15901 5.00033 9.99996 5.00033C11.8409 5.00033 13.3333 6.49271 13.3333 8.33366V9.96479C13.3333 10.7263 13.609 11.4621 14.1094 12.0362L14.6464 12.6523C15.4455 13.569 14.7944 15.0003 13.5782 15.0003H6.42166C5.20552 15.0003 4.55442 13.569 5.35352 12.6523L5.89055 12.0362C6.39095 11.4621 6.66662 10.7263 6.66662 9.96479V8.33366Z" fill="#6236FF"/>
</svg>
