<svg width="20" height="20" viewBox="0 0 20 20" fill="none" xmlns="http://www.w3.org/2000/svg">
<path d="M10.0361 12.6066L7.10653 15.5362C6.75183 15.8785 6.27813 16.0698 5.78518 16.0698C5.29224 16.0698 4.81854 15.8785 4.46384 15.5362C4.28988 15.3629 4.15185 15.157 4.05766 14.9302C3.96348 14.7035 3.91499 14.4603 3.91499 14.2148C3.91499 13.9693 3.96348 13.7262 4.05766 13.4994C4.15185 13.2727 4.28988 13.0667 4.46384 12.8935L7.39345 9.96386C7.53563 9.82168 7.6155 9.62885 7.6155 9.42778C7.6155 9.2267 7.53563 9.03387 7.39345 8.89169C7.25127 8.74951 7.05843 8.66963 6.85736 8.66963C6.65629 8.66963 6.46345 8.74951 6.32127 8.89169L3.39167 11.8288C2.80148 12.4712 2.48229 13.3168 2.50076 14.189C2.51922 15.0611 2.87391 15.8924 3.49075 16.5092C4.10759 17.1261 4.93889 17.4808 5.81104 17.4992C6.68319 17.5177 7.52876 17.1985 8.17115 16.6083L11.1083 13.6787C11.2505 13.5365 11.3304 13.3437 11.3304 13.1426C11.3304 12.9416 11.2505 12.7487 11.1083 12.6066C10.9661 12.4644 10.7733 12.3845 10.5722 12.3845C10.3712 12.3845 10.1783 12.4644 10.0361 12.6066ZM16.5145 3.4855C15.8793 2.85429 15.0202 2.5 14.1248 2.5C13.2293 2.5 12.3702 2.85429 11.735 3.4855L8.79785 6.41511C8.72745 6.48551 8.6716 6.56909 8.6335 6.66107C8.5954 6.75305 8.57579 6.85164 8.57579 6.9512C8.57579 7.05076 8.5954 7.14935 8.6335 7.24133C8.6716 7.33331 8.72745 7.41689 8.79785 7.48729C8.86825 7.55769 8.95183 7.61353 9.04381 7.65163C9.13579 7.68973 9.23438 7.70934 9.33394 7.70934C9.4335 7.70934 9.53208 7.68973 9.62406 7.65163C9.71605 7.61353 9.79962 7.55769 9.87002 7.48729L12.7996 4.55768C13.1543 4.21536 13.628 4.02405 14.121 4.02405C14.6139 4.02405 15.0876 4.21536 15.4423 4.55768C15.6163 4.73096 15.7543 4.93688 15.8485 5.16363C15.9427 5.39038 15.9912 5.63349 15.9912 5.87902C15.9912 6.12456 15.9427 6.36767 15.8485 6.59442C15.7543 6.82117 15.6163 7.02709 15.4423 7.20037L12.5127 10.13C12.4419 10.2002 12.3858 10.2837 12.3474 10.3757C12.3091 10.4677 12.2894 10.5664 12.2894 10.6661C12.2894 10.7657 12.3091 10.8644 12.3474 10.9564C12.3858 11.0484 12.4419 11.132 12.5127 11.2022C12.5829 11.2729 12.6664 11.3291 12.7584 11.3674C12.8504 11.4058 12.9491 11.4255 13.0488 11.4255C13.1485 11.4255 13.2472 11.4058 13.3392 11.3674C13.4312 11.3291 13.5147 11.2729 13.5849 11.2022L16.5145 8.26499C17.1457 7.62983 17.5 6.77072 17.5 5.87525C17.5 4.97978 17.1457 4.12067 16.5145 3.4855ZM7.55956 12.4404C7.63011 12.5104 7.71378 12.5658 7.80578 12.6034C7.89777 12.6409 7.99628 12.66 8.09565 12.6594C8.19502 12.66 8.29352 12.6409 8.38552 12.6034C8.47751 12.5658 8.56118 12.5104 8.63174 12.4404L12.3466 8.72558C12.4888 8.5834 12.5687 8.39056 12.5687 8.18949C12.5687 7.98842 12.4888 7.79558 12.3466 7.6534C12.2044 7.51122 12.0116 7.43134 11.8105 7.43134C11.6094 7.43134 11.4166 7.51122 11.2744 7.6534L7.55956 11.3683C7.48879 11.4385 7.43262 11.522 7.39429 11.614C7.35595 11.706 7.33622 11.8047 7.33622 11.9044C7.33622 12.004 7.35595 12.1027 7.39429 12.1947C7.43262 12.2867 7.48879 12.3702 7.55956 12.4404Z" fill="#0E0E17"/>
</svg>
