<svg width="20" height="20" viewBox="0 0 20 20" fill="none" xmlns="http://www.w3.org/2000/svg">
<path fill-rule="evenodd" clip-rule="evenodd" d="M6.46493 3.33337H13.5338C14.2046 3.33336 14.7582 3.33336 15.2092 3.3702C15.6776 3.40847 16.1082 3.49061 16.5127 3.69669C17.1399 4.01626 17.6498 4.5262 17.9694 5.15341C18.1754 5.55785 18.2576 5.98844 18.2959 6.45685C18.3327 6.90784 18.3327 7.46147 18.3327 8.13227V11.8678C18.3327 12.5386 18.3327 13.0922 18.2959 13.5432C18.2576 14.0116 18.1754 14.4422 17.9694 14.8467C17.6498 15.4739 17.1399 15.9838 16.5127 16.3034C16.1082 16.5095 15.6776 16.5916 15.2092 16.6299C14.7582 16.6667 14.2046 16.6667 13.5337 16.6667H6.46495C5.79414 16.6667 5.24049 16.6667 4.78949 16.6299C4.32108 16.5916 3.89049 16.5095 3.48605 16.3034C2.85884 15.9838 2.34891 15.4739 2.02933 14.8467C1.82325 14.4422 1.74112 14.0116 1.70284 13.5432C1.666 13.0922 1.66601 12.5386 1.66602 11.8678V8.13229C1.66601 7.46148 1.666 6.90785 1.70284 6.45685C1.74112 5.98844 1.82325 5.55785 2.02933 5.15341C2.34891 4.5262 2.85884 4.01626 3.48605 3.69669C3.89049 3.49061 4.32108 3.40847 4.78949 3.3702C5.24049 3.33336 5.79413 3.33336 6.46493 3.33337ZM4.92521 5.03133C4.55987 5.06118 4.37303 5.11529 4.2427 5.1817C3.9291 5.34149 3.67413 5.59645 3.51434 5.91006C3.44793 6.04039 3.39383 6.22723 3.36398 6.59257C3.33333 6.96765 3.33268 7.45289 3.33268 8.16671V11.8334C3.33268 12.5472 3.33333 13.0324 3.36398 13.4075C3.39383 13.7729 3.44793 13.9597 3.51434 14.09C3.67413 14.4036 3.9291 14.6586 4.2427 14.8184C4.37303 14.8848 4.55987 14.9389 4.92521 14.9687C5.30029 14.9994 5.78553 15 6.49935 15H13.4993C14.2132 15 14.6984 14.9994 15.0735 14.9687C15.4388 14.9389 15.6257 14.8848 15.756 14.8184C16.0696 14.6586 16.3246 14.4036 16.4844 14.09C16.5508 13.9597 16.6049 13.7729 16.6347 13.4075C16.6654 13.0324 16.666 12.5472 16.666 11.8334V8.16671C16.666 7.45289 16.6654 6.96765 16.6347 6.59257C16.6049 6.22723 16.5508 6.04039 16.4844 5.91006C16.3246 5.59645 16.0696 5.34149 15.756 5.1817C15.6257 5.11529 15.4388 5.06118 15.0735 5.03133C14.6984 5.00069 14.2132 5.00004 13.4994 5.00004H6.49935C5.78553 5.00004 5.30029 5.00069 4.92521 5.03133Z" fill="#0E0E17" fill-opacity="0.42"/>
<path fill-rule="evenodd" clip-rule="evenodd" d="M5.14623 7.02863C5.40658 6.64911 5.9253 6.5525 6.30482 6.81286L9.52867 9.02442C9.81273 9.21929 10.1874 9.21929 10.4715 9.02442L13.6953 6.81286C14.0749 6.5525 14.5936 6.64911 14.8539 7.02863C15.1143 7.40815 15.0177 7.92687 14.6382 8.18722L11.4143 10.3988C10.5621 10.9834 9.43805 10.9834 8.58586 10.3988L5.362 8.18722C4.98248 7.92687 4.88588 7.40815 5.14623 7.02863Z" fill="#0E0E17" fill-opacity="0.42"/>
</svg>
