<svg width="32" height="32" viewBox="0 0 32 32" fill="none" xmlns="http://www.w3.org/2000/svg">
<path fill-rule="evenodd" clip-rule="evenodd" d="M10.9047 8.02715C10.7791 8.03326 10.6608 8.04075 10.5487 8.04991C9.96415 8.09767 9.66521 8.18423 9.45668 8.29049C8.95491 8.54615 8.54696 8.9541 8.2913 9.45586C8.18505 9.6644 8.09848 9.96334 8.05072 10.5479C8.00169 11.148 8.00065 11.9244 8.00065 13.0665V21.5998C8.00065 22.7419 8.00169 23.5183 8.05072 24.1185C8.09848 24.703 8.18505 25.0019 8.2913 25.2105C8.54696 25.7122 8.95491 26.1202 9.45668 26.3759C9.66521 26.4821 9.96415 26.5687 10.5487 26.6164C11.1488 26.6655 11.9252 26.6665 13.0673 26.6665H18.934C20.0761 26.6665 20.8525 26.6655 21.4526 26.6164C22.0372 26.5687 22.3361 26.4821 22.5446 26.3759C23.0464 26.1202 23.4543 25.7122 23.71 25.2105C23.8163 25.0019 23.9028 24.703 23.9506 24.1185C23.9996 23.5183 24.0007 22.7419 24.0007 21.5998V13.0665C24.0007 11.9244 23.9996 11.148 23.9506 10.5479C23.9028 9.96334 23.8163 9.6644 23.71 9.45586C23.4543 8.9541 23.0464 8.54615 22.5446 8.29049C22.3361 8.18423 22.0372 8.09767 21.4526 8.04991C21.3405 8.04075 21.2223 8.03326 21.0966 8.02715C20.5399 9.56646 19.0654 10.6665 17.334 10.6665H14.6673C12.9359 10.6665 11.4614 9.56645 10.9047 8.02715ZM21.1153 5.35876C21.31 5.36696 21.4947 5.3778 21.6698 5.3921C22.4192 5.45333 23.1082 5.58475 23.7553 5.91447C24.7588 6.42579 25.5747 7.24169 26.086 8.24522C26.4157 8.89234 26.5472 9.58127 26.6084 10.3307C26.6674 11.0523 26.6673 11.9381 26.6673 13.0114V13.0115V21.6549V21.6549C26.6673 22.7282 26.6674 23.614 26.6084 24.3356C26.5472 25.0851 26.4157 25.774 26.086 26.4211C25.5747 27.4247 24.7588 28.2405 23.7553 28.7519C23.1082 29.0816 22.4192 29.213 21.6698 29.2742C20.9482 29.3332 20.0624 29.3332 18.9891 29.3332H13.0122C11.9389 29.3332 11.0531 29.3332 10.3316 29.2742C9.58209 29.213 8.89315 29.0816 8.24604 28.7519C7.24251 28.2405 6.42661 27.4247 5.91528 26.4211C5.58556 25.774 5.45414 25.0851 5.39291 24.3356C5.33395 23.614 5.33397 22.7282 5.33398 21.6549V21.6549V13.0114V13.0114C5.33397 11.9381 5.33395 11.0523 5.39291 10.3307C5.45414 9.58127 5.58556 8.89234 5.91528 8.24522C6.42661 7.24169 7.24251 6.42579 8.24604 5.91447C8.89315 5.58475 9.58209 5.45333 10.3316 5.3921C10.5066 5.3778 10.6913 5.36697 10.886 5.35876C11.4278 3.79182 12.9161 2.6665 14.6673 2.6665H17.334C19.0852 2.6665 20.5735 3.79182 21.1153 5.35876ZM13.334 6.6665C13.334 5.93012 13.9309 5.33317 14.6673 5.33317H17.334C18.0704 5.33317 18.6673 5.93012 18.6673 6.6665C18.6673 7.40288 18.0704 7.99984 17.334 7.99984H14.6673C13.9309 7.99984 13.334 7.40288 13.334 6.6665ZM13.334 15.9998C13.334 16.7362 12.737 17.3332 12.0007 17.3332C11.2643 17.3332 10.6673 16.7362 10.6673 15.9998C10.6673 15.2635 11.2643 14.6665 12.0007 14.6665C12.737 14.6665 13.334 15.2635 13.334 15.9998ZM17.334 14.6665C16.5976 14.6665 16.0007 15.2635 16.0007 15.9998C16.0007 16.7362 16.5976 17.3332 17.334 17.3332H20.0007C20.737 17.3332 21.334 16.7362 21.334 15.9998C21.334 15.2635 20.737 14.6665 20.0007 14.6665H17.334ZM17.334 19.9998C16.5976 19.9998 16.0007 20.5968 16.0007 21.3332C16.0007 22.0695 16.5976 22.6665 17.334 22.6665H20.0007C20.737 22.6665 21.334 22.0695 21.334 21.3332C21.334 20.5968 20.737 19.9998 20.0007 19.9998H17.334ZM12.0007 22.6665C12.737 22.6665 13.334 22.0695 13.334 21.3332C13.334 20.5968 12.737 19.9998 12.0007 19.9998C11.2643 19.9998 10.6673 20.5968 10.6673 21.3332C10.6673 22.0695 11.2643 22.6665 12.0007 22.6665Z" fill="#0E0E17"/>
</svg>
