<svg width="229" height="192" viewBox="0 0 229 192" fill="none" xmlns="http://www.w3.org/2000/svg">
<g opacity="0.25">
<path d="M35.651 174.71C79.7759 197.763 151.319 197.763 195.45 174.71C239.58 151.658 239.574 114.285 195.45 91.2324C151.325 68.1799 79.7759 68.1746 35.6457 91.2324C-8.4844 114.29 -8.47913 151.658 35.651 174.71Z" fill="#FAFAFA"/>
<path d="M152.473 178.943C161.394 178.943 168.626 175.496 168.626 171.243C168.626 166.991 161.394 163.543 152.473 163.543C143.552 163.543 136.32 166.991 136.32 171.243C136.32 175.496 143.552 178.943 152.473 178.943Z" fill="#F0F0F0"/>
<path d="M26.1581 38.0914V64.5832C26.1581 65.4522 26.769 65.8104 27.5274 65.3732L89.0326 29.8595C89.4306 29.5994 89.7619 29.2494 89.9998 28.8377C90.2376 28.426 90.3754 27.9642 90.4019 27.4895V0.976613C90.4019 0.107598 89.7857 -0.250541 89.0326 0.1866L27.5274 35.7003C27.1257 35.9616 26.792 36.3147 26.5539 36.7305C26.3158 37.1463 26.1801 37.6128 26.1581 38.0914Z" fill="#F0F0F0"/>
<path d="M30.4413 37.6743L48.8749 27.0354C49.7229 26.5456 50.4023 26.9406 50.4023 27.915V46.4381C50.3734 46.9664 50.2199 47.4804 49.9545 47.938C49.689 48.3957 49.3191 48.7841 48.8749 49.0715L30.4413 59.7156C29.5986 60.2002 28.9139 59.8052 28.9139 58.8308V40.3182C28.9425 39.7884 29.0957 39.2728 29.3611 38.8133C29.6265 38.3539 29.9966 37.9636 30.4413 37.6743Z" fill="#FAFAFA"/>
<path d="M45.3673 36.28L39.8846 47.6456L37.0932 46.034C36.8252 45.8874 36.5107 45.8505 36.216 45.931C35.9213 46.0116 35.6694 46.2033 35.5132 46.4659L28.9139 57.8473V58.8427C28.9139 59.8171 29.5986 60.2121 30.4413 59.7275L48.8749 49.0834C49.3182 48.7951 49.6875 48.4065 49.9528 47.949C50.2182 47.4915 50.3721 46.978 50.4023 46.4501V39.9351L46.7155 36.0693C46.6332 35.9542 46.5205 35.8642 46.39 35.8094C46.2595 35.7546 46.1163 35.7371 45.9765 35.759C45.8366 35.7808 45.7056 35.8411 45.598 35.9331C45.4904 36.0251 45.4105 36.1452 45.3673 36.28Z" fill="#6236FF"/>
<path d="M31.6842 44.454C32.8232 43.7111 33.7711 42.7102 34.451 41.5325C35.1309 40.3549 35.5236 39.0335 35.5974 37.6757C35.5974 36.5328 35.2288 35.7059 34.6231 35.2635L30.4413 37.6757C29.998 37.964 29.6287 38.3526 29.3634 38.8101C29.098 39.2676 28.9441 39.7811 28.9139 40.309V44.7173C29.6355 45.1387 30.6045 45.0755 31.6842 44.454Z" fill="#6236FF"/>
<path d="M57.2813 23.9136L84.9791 7.91848C85.6111 7.55508 86.122 7.81315 86.122 8.49782C86.0942 8.88151 85.9762 9.25321 85.7776 9.58268C85.579 9.91215 85.3054 10.1901 84.9791 10.3939L57.2813 26.3837C56.6493 26.7471 56.1384 26.4891 56.1384 25.8044C56.167 25.4216 56.2854 25.051 56.484 24.7225C56.6825 24.394 56.9557 24.1169 57.2813 23.9136Z" fill="#FAFAFA"/>
<path d="M57.2813 29.3872L84.9791 13.3921C85.6111 13.0287 86.122 13.2868 86.122 13.9714C86.0942 14.3551 85.9762 14.7268 85.7776 15.0563C85.579 15.3858 85.3054 15.6637 84.9791 15.8675L57.2813 31.8573C56.6493 32.2207 56.1384 31.9627 56.1384 31.2833C56.1662 30.8996 56.2842 30.5279 56.4828 30.1984C56.6814 29.8689 56.955 29.591 57.2813 29.3872Z" fill="#FAFAFA"/>
<path d="M57.2813 34.8586L84.9791 18.8688C85.6111 18.5054 86.122 18.7634 86.122 19.4428C86.0942 19.8265 85.9762 20.1982 85.7776 20.5277C85.579 20.8572 85.3054 21.1351 84.9791 21.3389L57.2813 37.3287C56.6493 37.6974 56.1384 37.4394 56.1384 36.7547C56.1662 36.371 56.2842 35.9993 56.4828 35.6698C56.6814 35.3403 56.955 35.0624 57.2813 34.8586Z" fill="#FAFAFA"/>
<path d="M57.2813 40.3292L84.9791 24.3393C85.6111 23.9759 86.122 24.234 86.122 24.9186C86.0934 25.3014 85.975 25.6721 85.7764 26.0006C85.5779 26.329 85.3047 26.6061 84.9791 26.8094L57.2813 42.8309C56.6493 43.1943 56.1384 42.9362 56.1384 42.2515C56.1621 41.8633 56.2782 41.4863 56.477 41.1519C56.6758 40.8176 56.9515 40.5355 57.2813 40.3292Z" fill="#FAFAFA"/>
<path d="M13.3085 121.444V82.5701C13.3338 82.0951 13.4711 81.6328 13.709 81.2209C13.947 80.809 14.279 80.4592 14.6779 80.2001L61.1939 53.3396C61.947 52.9025 62.5632 53.2554 62.5632 54.1296V93.0035C62.5367 93.4783 62.3989 93.9401 62.161 94.3518C61.9232 94.7635 61.5919 95.1135 61.1939 95.3736L14.6779 122.234C13.9195 122.671 13.3085 122.318 13.3085 121.444Z" fill="#F0F0F0"/>
<path d="M13.3085 119.5V121.443C13.3085 122.318 13.9195 122.671 14.6779 122.233L61.1939 95.373C61.5919 95.1129 61.9232 94.7628 62.161 94.3512C62.3989 93.9395 62.5367 93.4776 62.5632 93.0029V91.0542L13.3085 119.5Z" fill="#6236FF"/>
<path d="M35.8135 84.2443L40.5536 83.9968C41.133 83.9652 41.291 84.2917 40.9065 84.7341L35.4607 90.9279C35.0762 91.365 34.7654 91.2439 34.7654 90.6645V85.3556C34.7675 85.0723 34.8767 84.8002 35.0711 84.594C35.2655 84.3879 35.5308 84.263 35.8135 84.2443Z" fill="#6236FF"/>
<path d="M34.592 94.3252C34.0239 94.3326 33.4641 94.189 32.9698 93.9091C31.8006 93.2297 31.158 91.8024 31.158 89.938C31.158 86.1354 33.8388 81.5112 37.1358 79.5888C38.7632 78.6461 40.2959 78.5039 41.4756 79.178C42.6554 79.8522 43.2926 81.2847 43.2926 83.1439C43.2926 86.9517 40.6066 91.5707 37.3149 93.4931C36.4955 94.0036 35.5567 94.2905 34.592 94.3252ZM39.8587 79.1201C38.9585 79.1556 38.0834 79.4262 37.3201 79.9048C34.1232 81.7482 31.5267 86.2513 31.5267 89.938C31.5267 91.6866 32.1061 92.9875 33.1594 93.5931C34.2128 94.1988 35.6243 94.0566 37.1358 93.1823C40.3327 91.3337 42.9292 86.8622 42.9292 83.1439C42.9292 81.3953 42.3499 80.0997 41.2965 79.4888C40.8559 79.2422 40.3584 79.1151 39.8535 79.1201H39.8587Z" fill="#6236FF"/>
<path d="M15.874 46.4424L12.9931 44.7887C11.6185 43.867 9.70663 43.9039 7.59466 45.1257C3.38126 47.5485 0 53.6947 0 58.8562V60.0307C0 65.1921 6.94158 70.7959 6.94158 70.7959L9.7751 72.4023C9.7751 72.4023 8.07394 70.4588 8.26881 70.0586C10.149 66.2454 15.1788 55.4696 15.1788 51.2562V50.0818C15.1895 49.2317 15.0813 48.3844 14.8575 47.5643L15.1788 47.7486L15.874 46.4424ZM7.58939 58.2768C5.48269 59.4882 3.79206 58.5033 3.79206 56.0859C4.91915 55.9068 7.75793 51.0614 7.58939 49.5077C9.69609 48.2963 11.3815 49.2812 11.3867 51.6987C11.3154 53.0164 10.9343 54.2988 10.2745 55.4417C9.61477 56.5847 8.69484 57.556 7.58939 58.2768Z" fill="#6236FF"/>
<g opacity="0.2">
<path d="M15.874 46.4424L12.9931 44.7887C11.6185 43.867 9.70663 43.9039 7.59466 45.1257C3.38126 47.5485 0 53.6947 0 58.8562V60.0307C0 65.1921 6.94158 70.7959 6.94158 70.7959L9.7751 72.4023C9.7751 72.4023 8.07394 70.4588 8.26881 70.0586C10.149 66.2454 15.1788 55.4696 15.1788 51.2562V50.0818C15.1895 49.2317 15.0813 48.3844 14.8575 47.5643L15.1788 47.7486L15.874 46.4424ZM7.58939 58.2768C5.48269 59.4882 3.79206 58.5033 3.79206 56.0859C4.91915 55.9068 7.75793 51.0614 7.58939 49.5077C9.69609 48.2963 11.3815 49.2812 11.3867 51.6987C11.3154 53.0164 10.9343 54.2988 10.2745 55.4417C9.61477 56.5847 8.69484 57.556 7.58939 58.2768Z" fill="black"/>
</g>
<path d="M15.8737 46.4433C15.8422 46.421 15.8087 46.4016 15.7736 46.3854C14.4201 45.627 12.6136 45.7323 10.6228 46.8805C7.62071 48.6185 5.0242 52.2578 3.77598 56.0868C3.29328 57.5435 3.03749 59.0658 3.01756 60.6004V61.7907C3.01756 65.7671 7.52064 70.3807 9.59047 72.2926C9.63526 72.3327 9.68278 72.3696 9.73268 72.4032C9.85438 72.4777 9.99035 72.5259 10.1318 72.5447C10.2733 72.5635 10.4172 72.5525 10.5541 72.5123C10.6911 72.4721 10.8181 72.4037 10.927 72.3114C11.0358 72.2191 11.1242 72.105 11.1863 71.9766C12.977 68.2898 18.1858 57.2928 18.1858 53.0162V51.8418C18.2174 49.1873 17.3168 47.3123 15.8737 46.4433ZM6.89389 58.599C6.85016 58.3486 6.82901 58.0948 6.83069 57.8406C6.90025 56.5223 7.27992 55.239 7.93883 54.095C8.59775 52.9511 9.51731 51.9788 10.6228 51.2571C10.8436 51.1299 11.0743 51.0207 11.3127 50.9306C13.0823 50.2881 14.4201 51.3045 14.4201 53.4481C14.3492 54.7653 13.9683 56.0471 13.3084 57.1892C12.6486 58.3314 11.7284 59.3016 10.6228 60.021C8.76359 61.106 7.21517 60.4529 6.89389 58.599Z" fill="#6236FF"/>
<path d="M14.4207 53.4531C14.3498 54.7702 13.9689 56.052 13.309 57.1942C12.6492 58.3363 11.729 59.3066 10.6234 60.026C8.7642 61.0793 7.21577 60.4526 6.8945 58.5987C7.13584 58.5137 7.36861 58.4062 7.58971 58.2774C8.69447 57.5563 9.6136 56.5848 10.2725 55.4418C10.9314 54.2989 11.3114 53.0166 11.3818 51.6992C11.3842 51.443 11.3612 51.1872 11.3133 50.9356C13.0829 50.293 14.4207 51.3095 14.4207 53.4531Z" fill="#6236FF"/>
<g opacity="0.2">
<path d="M14.4207 53.4531C14.3498 54.7702 13.9689 56.052 13.309 57.1942C12.6492 58.3363 11.729 59.3066 10.6234 60.026C8.7642 61.0793 7.21577 60.4526 6.8945 58.5987C7.13584 58.5137 7.36861 58.4062 7.58971 58.2774C8.69447 57.5563 9.6136 56.5848 10.2725 55.4418C10.9314 54.2989 11.3114 53.0166 11.3818 51.6992C11.3842 51.443 11.3612 51.1872 11.3133 50.9356C13.0829 50.293 14.4207 51.3095 14.4207 53.4531Z" fill="black"/>
</g>
<path d="M69.7583 118.847C69.7583 118.847 71.6596 106.733 67.4357 96.3155C63.2118 85.8978 57.5184 85.2553 54.569 86.7352C51.6196 88.2152 53.5157 93.9928 56.149 97.8744C59.6567 102.967 65.4501 113.933 65.2605 123.782L69.7583 118.847Z" fill="#6236FF"/>
<path opacity="0.2" d="M69.7583 118.847C69.7583 118.847 71.6596 106.733 67.4357 96.3155C63.2118 85.8978 57.5184 85.2553 54.569 86.7352C51.6196 88.2152 53.5157 93.9928 56.149 97.8744C59.6567 102.967 65.4501 113.933 65.2605 123.782L69.7583 118.847Z" fill="black"/>
<path d="M67.8614 119.615C67.8141 119.614 67.7676 119.603 67.7246 119.583C67.6815 119.564 67.6429 119.535 67.611 119.501C67.5791 119.466 67.5545 119.425 67.5387 119.38C67.5229 119.336 67.5162 119.288 67.519 119.241C68.2142 102.656 59.9296 90.274 56.3535 87.8618C56.3144 87.8355 56.2809 87.8018 56.2549 87.7626C56.2288 87.7233 56.2108 87.6793 56.2017 87.6331C56.1927 87.5869 56.1928 87.5394 56.2021 87.4932C56.2115 87.447 56.2298 87.4032 56.2561 87.3641C56.2824 87.325 56.3161 87.2915 56.3553 87.2654C56.3945 87.2394 56.4385 87.2213 56.4847 87.2123C56.531 87.2032 56.5785 87.2034 56.6247 87.2127C56.6708 87.222 56.7147 87.2404 56.7538 87.2666C60.9672 90.0791 68.9305 102.74 68.23 119.273C68.2287 119.32 68.218 119.366 68.1987 119.408C68.1794 119.451 68.1517 119.489 68.1174 119.521C68.0831 119.553 68.0428 119.578 67.9988 119.594C67.9549 119.61 67.9081 119.617 67.8614 119.615Z" fill="white"/>
<path d="M69.0095 133.23C68.288 131.418 66.4236 129.396 61.6361 127.237C56.8486 125.077 53.2462 122.196 52.5825 120.111C52.3828 119.535 52.3567 118.912 52.5075 118.322C52.6582 117.731 52.9792 117.197 53.4305 116.787C53.4305 116.787 48.9169 116.261 48.3481 113.496C47.6371 110.009 51.5819 109.783 51.5819 109.783C51.5819 109.783 46.4046 102.493 45.03 99.2491C43.6554 96.0047 45.2407 95.8099 48.5798 97.0476C51.9189 98.2852 58.2812 104.516 59.266 106.417C59.266 106.417 60.9883 104.31 62.8422 105.696C64.6961 107.081 64.7856 111.226 63.6901 112.721C64.4289 112.584 65.1917 112.663 65.8862 112.95C66.5807 113.237 67.1772 113.719 67.6033 114.338C69.4888 116.808 70.1103 122.986 70.1103 122.986L69.0095 133.23Z" fill="#6236FF"/>
<path d="M69.3472 131.546C69.2672 131.545 69.1898 131.517 69.1269 131.468C69.0641 131.418 69.0193 131.349 68.9996 131.272C66.44 120.606 54.2896 103.584 46.7423 98.1701C46.7039 98.1428 46.6713 98.1082 46.6463 98.0683C46.6213 98.0283 46.6044 97.9839 46.5965 97.9374C46.5887 97.8909 46.5901 97.8434 46.6007 97.7975C46.6112 97.7516 46.6307 97.7082 46.658 97.6698C46.6854 97.6314 46.72 97.5988 46.7599 97.5738C46.7998 97.5487 46.8443 97.5318 46.8908 97.524C46.9372 97.5162 46.9848 97.5176 47.0307 97.5281C47.0766 97.5387 47.12 97.5582 47.1584 97.5855C54.8004 103.068 67.1036 120.306 69.7001 131.103C69.7207 131.196 69.7041 131.293 69.6539 131.374C69.6037 131.455 69.5239 131.512 69.4315 131.535L69.3472 131.546Z" fill="white"/>
<path d="M164.682 24.1503C164.619 24.1496 164.557 24.1333 164.502 24.1029L163.022 23.2445C162.982 23.2209 162.946 23.1896 162.917 23.1523C162.889 23.1149 162.867 23.0723 162.855 23.0268C162.843 22.9813 162.84 22.9339 162.846 22.8872C162.852 22.8405 162.867 22.7955 162.891 22.7547C162.914 22.7138 162.946 22.6781 162.983 22.6494C163.02 22.6207 163.063 22.5996 163.108 22.5874C163.154 22.5752 163.201 22.572 163.248 22.5781C163.295 22.5842 163.34 22.5995 163.381 22.623L164.861 23.4815C164.901 23.5049 164.937 23.5362 164.966 23.5736C164.995 23.6109 165.016 23.6535 165.028 23.699C165.04 23.7445 165.043 23.792 165.037 23.8387C165.031 23.8854 165.016 23.9305 164.992 23.9713C164.961 24.0258 164.915 24.0711 164.861 24.1025C164.806 24.1339 164.744 24.1504 164.682 24.1503Z" fill="white"/>
<path d="M69.0114 55.376V133.735C69.0114 134.609 69.6223 134.962 70.3755 134.525L161.775 81.7571C162.173 81.497 162.504 81.147 162.742 80.7353C162.98 80.3237 163.118 79.8618 163.144 79.3871V1.02834C163.144 0.154058 162.528 -0.198814 161.775 0.238326L70.3755 53.0059C69.9778 53.266 69.6471 53.6161 69.4101 54.0279C69.1731 54.4397 69.0365 54.9015 69.0114 55.376Z" fill="#455A64"/>
<path d="M79.7086 69.8474C79.7086 72.5808 81.7468 73.6131 84.2696 72.1595L156.724 30.3256V20.4452L84.2696 62.2738C81.7468 63.7327 79.7086 67.1192 79.7086 69.8474Z" fill="#F5F5F5"/>
<path d="M162.885 16.9018C165.402 15.4482 167.446 16.4805 167.446 19.2087C167.446 21.9369 165.402 25.3287 162.885 26.7823L156.749 30.3268V20.4464L162.885 16.9018Z" fill="#6236FF"/>
<path d="M160.674 25.2271C160.412 25.2308 160.154 25.1634 159.927 25.0322C159.647 24.8449 159.423 24.5855 159.278 24.2815C159.133 23.9774 159.074 23.6399 159.105 23.3047C159.143 22.4803 159.378 21.6771 159.79 20.9623C160.203 20.2475 160.78 19.642 161.475 19.1966C161.74 18.9803 162.065 18.8499 162.406 18.8226C162.747 18.7954 163.089 18.8727 163.385 19.0442C163.681 19.2157 163.918 19.4734 164.064 19.7828C164.21 20.0923 164.259 20.4389 164.203 20.7766C164.164 21.6007 163.928 22.4034 163.516 23.118C163.104 23.8326 162.527 24.4383 161.833 24.8847C161.484 25.0984 161.084 25.2164 160.674 25.2271ZM162.628 19.5653C162.346 19.5792 162.072 19.6664 161.833 19.8181C161.251 20.2045 160.767 20.7204 160.418 21.3253C160.069 21.9302 159.865 22.6077 159.821 23.3047C159.767 23.5144 159.783 23.7362 159.867 23.936C159.95 24.1358 160.098 24.3026 160.285 24.4108C160.473 24.519 160.691 24.5627 160.906 24.535C161.121 24.5074 161.321 24.4101 161.475 24.258C162.057 23.8721 162.542 23.3564 162.891 22.7514C163.24 22.1464 163.444 21.4686 163.487 20.7714C163.514 20.5625 163.485 20.3503 163.404 20.1561C163.322 19.9618 163.191 19.7926 163.023 19.6654C162.903 19.5966 162.767 19.562 162.628 19.5653Z" fill="white"/>
<path d="M163.94 38.5291L93.8923 78.9462C93.4929 79.2048 93.1604 79.5544 92.9224 79.9664C92.6843 80.3784 92.5474 80.8411 92.523 81.3163V102.873C92.523 103.747 93.1339 104.1 93.8923 103.663L163.94 63.2302C164.339 62.9711 164.671 62.6213 164.909 62.2094C165.147 61.7975 165.284 61.3352 165.31 60.8602V39.3192C165.283 38.4449 164.672 38.092 163.94 38.5291Z" fill="#6236FF"/>
<path opacity="0.2" d="M163.94 38.5291L93.8923 78.9462C93.4929 79.2048 93.1604 79.5544 92.9224 79.9664C92.6843 80.3784 92.5474 80.8411 92.523 81.3163V102.873C92.523 103.747 93.1339 104.1 93.8923 103.663L163.94 63.2302C164.339 62.9711 164.671 62.6213 164.909 62.2094C165.147 61.7975 165.284 61.3352 165.31 60.8602V39.3192C165.283 38.4449 164.672 38.092 163.94 38.5291Z" fill="white"/>
<path d="M119.357 67.8364L132.05 60.5051C132.682 60.1417 133.193 60.3998 133.193 61.0845C133.164 61.4672 133.046 61.8379 132.847 62.1664C132.649 62.4949 132.376 62.772 132.05 62.9752L119.357 70.3066C118.725 70.67 118.214 70.4119 118.214 69.7272C118.243 69.3444 118.361 68.9738 118.56 68.6453C118.758 68.3168 119.032 68.0397 119.357 67.8364Z" fill="white"/>
<path d="M118.214 74.6682C118.214 75.3529 118.741 75.6109 119.357 75.2475L157.725 53.0956C158.05 52.8909 158.323 52.6126 158.52 52.2832C158.718 51.9539 158.835 51.5826 158.863 51.1995C158.863 50.5201 158.336 50.262 157.725 50.6254L119.357 72.7774C119.032 72.9807 118.758 73.2578 118.56 73.5863C118.361 73.9148 118.243 74.2854 118.214 74.6682Z" fill="white"/>
<path d="M118.214 79.6076C118.214 80.2923 118.741 80.5504 119.357 80.187L157.725 58.035C158.05 57.8303 158.323 57.552 158.52 57.2227C158.718 56.8933 158.835 56.5221 158.863 56.139C158.863 55.4595 158.336 55.2015 157.725 55.5649L119.357 77.7168C119.032 77.9201 118.758 78.1972 118.56 78.5257C118.361 78.8542 118.243 79.2248 118.214 79.6076Z" fill="white"/>
<path d="M118.214 84.548C118.214 85.2327 118.741 85.4908 119.357 85.1274L157.725 62.9754C158.05 62.7707 158.323 62.4924 158.52 62.1631C158.718 61.8337 158.835 61.4625 158.863 61.0794C158.863 60.3999 158.336 60.1419 157.725 60.5053L119.357 82.6572C119.032 82.8605 118.758 83.1376 118.56 83.4661C118.361 83.7946 118.243 84.1652 118.214 84.548Z" fill="white"/>
<path d="M96.0505 80.1771L112.567 70.639C113.325 70.2071 113.936 70.56 113.936 71.429V88.0351C113.911 88.51 113.773 88.9722 113.535 89.384C113.297 89.7958 112.966 90.1457 112.567 90.4051L96.0505 99.938C95.2974 100.375 94.6812 100.022 94.6812 99.1532V82.5471C94.7065 82.0721 94.8437 81.6098 95.0817 81.1979C95.3197 80.7861 95.6516 80.4363 96.0505 80.1771Z" fill="white"/>
<path d="M109.428 78.93L104.514 89.1159L102.012 87.6729C101.771 87.5334 101.484 87.4956 101.214 87.5677C100.944 87.6398 100.715 87.8159 100.575 88.0573L94.6812 98.259V99.1491C94.6812 100.023 95.2974 100.376 96.0505 99.9391L112.567 90.4063C112.966 90.1471 113.298 89.7973 113.536 89.3855C113.774 88.9736 113.911 88.5113 113.936 88.0363V82.206L110.613 78.7404C110.538 78.6436 110.438 78.5688 110.324 78.5239C110.21 78.4789 110.086 78.4654 109.965 78.4848C109.843 78.5041 109.73 78.5557 109.635 78.634C109.541 78.7123 109.469 78.8146 109.428 78.93Z" fill="#6236FF"/>
<path d="M97.1618 86.2557C98.1829 85.5896 99.0327 84.6921 99.6421 83.6361C100.252 82.5801 100.604 81.3954 100.669 80.1779C100.705 79.7737 100.644 79.367 100.492 78.9908C100.34 78.6147 100.101 78.2797 99.7952 78.0133L96.0505 80.1779C95.6516 80.4371 95.3197 80.7869 95.0817 81.1988C94.8437 81.6106 94.7065 82.0729 94.6812 82.548V86.498C95.3184 86.8667 96.1927 86.814 97.1618 86.2557Z" fill="#6236FF"/>
<path d="M163.94 70.6373L93.8923 111.054C93.4934 111.314 93.1615 111.663 92.9235 112.075C92.6855 112.487 92.5483 112.949 92.523 113.424V134.997C92.523 135.866 93.1339 136.219 93.8923 135.787L163.94 95.3437C164.339 95.0845 164.671 94.7347 164.909 94.3228C165.147 93.9109 165.284 93.4486 165.31 92.9736V71.4273C165.283 70.5583 164.672 70.216 163.94 70.6373Z" fill="#6236FF"/>
<path opacity="0.2" d="M163.94 70.6373L93.8923 111.054C93.4934 111.314 93.1615 111.663 92.9235 112.075C92.6855 112.487 92.5483 112.949 92.523 113.424V134.997C92.523 135.866 93.1339 136.219 93.8923 135.787L163.94 95.3437C164.339 95.0845 164.671 94.7347 164.909 94.3228C165.147 93.9109 165.284 93.4486 165.31 92.9736V71.4273C165.283 70.5583 164.672 70.216 163.94 70.6373Z" fill="white"/>
<path d="M119.357 99.9474L132.05 92.6213C132.682 92.2579 133.193 92.516 133.193 93.1954C133.165 93.5791 133.047 93.9508 132.848 94.2803C132.65 94.6097 132.376 94.8877 132.05 95.0914L119.357 102.417C118.725 102.781 118.214 102.523 118.214 101.843C118.242 101.46 118.36 101.088 118.559 100.759C118.757 100.429 119.031 100.151 119.357 99.9474Z" fill="white"/>
<path d="M118.214 106.783C118.214 107.463 118.741 107.721 119.357 107.358L157.725 85.2056C158.05 85.0014 158.322 84.724 158.519 84.3956C158.717 84.0672 158.835 83.697 158.863 83.3148C158.863 82.6301 158.336 82.3721 157.725 82.7355L119.357 104.887C119.031 105.091 118.757 105.369 118.559 105.699C118.36 106.028 118.242 106.4 118.214 106.783Z" fill="white"/>
<path d="M118.214 111.724C118.214 112.403 118.741 112.661 119.357 112.298L157.725 90.146C158.05 89.9418 158.322 89.6644 158.519 89.336C158.717 89.0076 158.835 88.6374 158.863 88.2552C158.863 87.5706 158.336 87.3125 157.725 87.6759L119.357 109.828C119.031 110.032 118.757 110.31 118.559 110.639C118.36 110.969 118.242 111.34 118.214 111.724Z" fill="white"/>
<path d="M118.214 116.663C118.214 117.343 118.741 117.601 119.357 117.237L157.725 95.0854C158.05 94.8813 158.322 94.6038 158.519 94.2754C158.717 93.947 158.835 93.5769 158.863 93.1947C158.863 92.51 158.336 92.2519 157.725 92.6153L119.357 114.767C119.031 114.971 118.757 115.249 118.559 115.578C118.36 115.908 118.242 116.28 118.214 116.663Z" fill="white"/>
<path d="M96.0505 112.293L112.567 102.754C113.325 102.317 113.936 102.67 113.936 103.544V120.145C113.912 120.62 113.775 121.083 113.537 121.495C113.299 121.907 112.967 122.257 112.567 122.515L96.0505 132.053C95.2974 132.491 94.6812 132.138 94.6812 131.263V114.663C94.7065 114.188 94.8437 113.725 95.0817 113.313C95.3197 112.901 95.6516 112.552 96.0505 112.293Z" fill="white"/>
<path d="M109.428 111.046L104.514 121.232L102.012 119.783C101.892 119.715 101.76 119.67 101.623 119.652C101.486 119.635 101.346 119.644 101.213 119.681C101.079 119.717 100.954 119.779 100.845 119.863C100.735 119.948 100.643 120.053 100.575 120.173L94.6812 130.375V131.265C94.6812 132.139 95.2974 132.492 96.0505 132.055L112.567 122.517C112.966 122.259 113.298 121.91 113.536 121.499C113.774 121.088 113.911 120.626 113.936 120.152V114.317L110.613 110.856C110.539 110.758 110.439 110.682 110.325 110.635C110.21 110.589 110.085 110.575 109.964 110.595C109.842 110.614 109.728 110.667 109.633 110.746C109.539 110.826 109.468 110.929 109.428 111.046Z" fill="#6236FF"/>
<path d="M97.1618 118.366C98.1828 117.701 99.0326 116.804 99.6421 115.749C100.252 114.694 100.604 113.51 100.669 112.293C100.705 111.889 100.644 111.482 100.492 111.106C100.34 110.73 100.101 110.395 99.7952 110.128L96.0505 112.293C95.6516 112.552 95.3197 112.902 95.0817 113.314C94.8437 113.726 94.7065 114.188 94.6812 114.663V118.613C95.3184 118.977 96.1927 118.924 97.1618 118.366Z" fill="#6236FF"/>
<path d="M163.144 4.38326V1.02834C163.144 0.154058 162.528 -0.198814 161.775 0.238326L70.3807 53.0059C69.9818 53.2651 69.6499 53.6149 69.4119 54.0268C69.1739 54.4386 69.0367 54.901 69.0114 55.376V58.7362L163.144 4.38326Z" fill="#6236FF"/>
<path d="M151.93 7.20717C151.636 7.40063 151.391 7.66063 151.215 7.96619C151.039 8.27175 150.938 8.61432 150.919 8.96626C150.919 9.61407 151.372 9.87741 151.93 9.55087C152.227 9.36008 152.473 9.10154 152.65 8.79659C152.827 8.49165 152.929 8.14904 152.947 7.79705C152.947 7.14924 152.494 6.8859 151.93 7.20717Z" fill="#F5F5F5"/>
<path d="M155.961 4.91125C155.665 5.10413 155.419 5.36387 155.243 5.66947C155.066 5.97506 154.964 6.31793 154.945 6.67034C154.945 7.31815 155.403 7.57622 155.961 7.25495C156.257 7.06301 156.504 6.80349 156.681 6.49769C156.858 6.1919 156.959 5.84856 156.977 5.49586C156.977 4.82171 156.525 4.56364 155.961 4.91125Z" fill="#F5F5F5"/>
<path d="M159.99 2.56214C159.694 2.75293 159.447 3.01147 159.27 3.31642C159.094 3.62137 158.992 3.96398 158.974 4.31597C158.974 4.96378 159.427 5.22712 159.99 4.90584C160.285 4.71238 160.53 4.45238 160.706 4.14682C160.881 3.84126 160.983 3.49869 161.002 3.14675C161.002 2.49894 160.549 2.2356 159.99 2.56214Z" fill="#F5F5F5"/>
<path d="M164.603 167.769C164.763 168.174 164.872 168.597 164.93 169.028C165.078 169.474 165.113 169.95 165.03 170.413C164.675 171.004 164.111 171.44 163.45 171.635C162.979 171.743 162.491 171.752 162.017 171.662C161.543 171.571 161.093 171.382 160.695 171.108C159.732 170.534 159.01 169.834 157.641 169.449C156.664 169.239 155.744 168.82 154.944 168.222C154.186 167.616 153.174 165.931 154.623 165.541C156.071 165.151 159.226 166.526 162.096 166.652L164.603 167.769Z" fill="#263238"/>
<path d="M164.465 165.873C164.465 165.873 164.634 167.885 164.634 168.133C164.634 168.812 162.127 169.713 161.663 168.133L161.263 165.994L164.465 165.873Z" fill="#F28F8F"/>
<path d="M161.391 121.733C162.253 123 163.043 124.316 163.756 125.672C163.756 125.672 164.004 128.601 164.004 130.549C164.004 134.131 163.451 136.896 162.95 143.953C163.765 145.341 164.231 146.906 164.309 148.514C164.52 151.711 164.525 151.674 164.546 166.421C164.066 166.68 163.539 166.84 162.997 166.893C162.454 166.945 161.906 166.889 161.386 166.727L156.646 146.076L156.119 137.97L154.634 127.895L161.391 121.733Z" fill="#37474F"/>
<path d="M150.173 171.461C150.341 171.635 150.283 171.988 150.362 172.567C150.45 173.012 150.473 173.468 150.431 173.92C150.154 174.547 149.655 175.048 149.03 175.327C148.575 175.491 148.092 175.559 147.609 175.527C147.127 175.495 146.657 175.364 146.228 175.142C145.206 174.689 144.4 174.089 142.994 173.873C141.999 173.787 141.034 173.487 140.166 172.993C139.339 172.467 138.122 170.939 139.513 170.36C140.903 169.781 144.39 170.818 147.25 170.587L150.173 171.461Z" fill="#263238"/>
<path d="M150.83 168.932C150.83 168.932 150.303 171.229 150.161 171.74C149.845 172.967 147.122 173.03 147.122 171.613L147.307 168.348L150.83 168.932Z" fill="#F28F8F"/>
<path d="M155.245 122.358C156.609 125.039 157.925 127.403 157.967 130.258C158.068 136.299 155.561 142.951 154.639 147.317C154.913 148.897 154.991 150.505 154.871 152.104C154.686 153.932 150.52 170.538 150.52 170.538C150.52 170.538 148.203 171.023 147.218 169.975L148.387 138L148.703 128.715L155.245 122.358Z" fill="#37474F"/>
<path d="M153.368 105.986L154.227 110.741L158.525 110.425L157.624 105.038L153.368 105.986Z" fill="#FFA8A7"/>
<path d="M163.06 110.077C162.633 108.787 160.995 107.381 159.373 107.686C156.937 108.1 154.535 108.699 152.189 109.477C150.688 110.004 149.319 111.315 149.193 116.255L148.724 128.685C149.373 129.262 150.152 129.674 150.994 129.886C153.274 130.512 154.781 130.886 158.246 130.128C162.76 129.143 163.834 126.41 163.834 126.41C163.834 126.41 163.66 119.831 163.523 116.255C163.413 113.216 163.35 110.967 163.06 110.077Z" fill="#455A64"/>
<path d="M151.536 99.9134L129.652 93.9778C127.672 93.6355 126.845 98.4703 128.826 98.8074L151.299 101.077L151.536 99.9134Z" fill="#263238"/>
<path d="M145.241 109.941L140.77 110.078C140.77 110.078 141.444 103.426 141.86 102.552C142.276 101.677 143.271 101.498 144.262 101.219C145.252 100.94 145.246 100.466 145.246 100.466L144.356 100.377C143.577 100.298 143.266 99.3233 143.603 98.6649C143.766 98.3594 144.03 97.8749 144.504 98.0066L145.684 98.3278C145.702 97.8074 145.572 97.2924 145.31 96.8426C144.915 96.4055 144.651 96.5424 143.861 96.2685C143.277 96.0631 142.081 95.6997 141.117 96.0947C140.153 96.4897 139.421 98.3015 139.174 99.5813C138.923 101.061 138.517 102.511 137.962 103.905C137.104 106.275 135.856 111.142 135.724 113.091C135.666 113.991 135.75 114.528 136.751 114.765C137.752 115.002 145.115 115.018 145.115 115.018L145.241 109.941Z" fill="#FFA8A7"/>
<path d="M150.189 100.356C150.189 100.356 149.135 101.894 149.283 102.062C149.521 102.221 149.785 102.337 150.062 102.405L150.189 100.356Z" fill="#FFA8A7"/>
<path d="M153.363 95.4995C152.362 96.0261 150.635 96.9373 150.156 100.603C149.666 104.363 150.314 105.575 150.819 106.075C151.167 106.412 153.031 106.433 153.979 106.149C155.149 105.801 157.787 104.795 158.993 102.862C160.41 100.587 160.726 97.543 159.13 96.3316C158.318 95.7156 157.363 95.3161 156.354 95.1705C155.345 95.025 154.316 95.1382 153.363 95.4995Z" fill="#FFA8A7"/>
<path d="M156.306 140.884L158.586 134.437C160.354 133.811 161.938 132.754 163.195 131.362C163.195 131.362 162.668 133.2 159.066 135.085L156.564 141.184V144.576L156.306 140.884Z" fill="#263238"/>
<path d="M149.951 96.7366C150.278 97.6372 150.831 99.8492 153.137 100.771C153.137 100.771 153.469 99.3647 154.649 99.5122C155.829 99.6596 156.034 101.171 155.307 102.109C154.58 103.046 153.875 102.709 153.875 102.709C153.875 102.709 153.717 104.726 155.065 105.643C155.567 105.939 156.131 106.114 156.712 106.155C157.293 106.196 157.876 106.102 158.415 105.88C159.189 105.527 160.29 103.668 160.932 102.14C162.291 98.917 162.486 96.3468 160.406 95.5147C160.147 94.0505 159.489 93.4975 158.162 93.2237C155.307 92.6391 153.148 94.514 150.752 94.1822C149.524 94.0084 149.572 95.7043 149.951 96.7366Z" fill="#263238"/>
<path d="M160.474 96.0269L161.822 95.1895C161.705 95.0253 161.529 94.9119 161.331 94.8723C161.133 94.8328 160.927 94.8701 160.756 94.9766C160.584 95.0832 160.46 95.251 160.407 95.4461C160.355 95.6411 160.379 95.8488 160.474 96.0269Z" fill="#263238"/>
<path d="M144.242 109.852C144.242 109.852 150.536 109.489 152.142 109.478C153.748 109.467 155.455 112.211 154.454 114.081C153.791 115.308 151.721 115.73 149.114 115.856C146.507 115.982 143.879 115.982 143.879 115.982C143.879 115.982 141.535 113.312 144.242 109.852Z" fill="#455A64"/>
<path d="M149.192 115.855C149.192 115.855 153.179 115.803 154.485 114.08C154.485 114.08 154.179 115.134 152.631 115.782C151.521 116.208 150.352 116.46 149.165 116.53L149.192 115.855Z" fill="#37474F"/>
<path d="M129.652 93.9778C127.672 93.6355 126.845 98.4703 128.826 98.8074L131.986 99.1234C130.7 98.9918 131.591 94.4992 132.57 94.7626L129.652 93.9778Z" fill="#455A64"/>
<path d="M209.348 92.6866C209.349 93.667 209.053 94.6247 208.501 95.4349C207.949 96.2451 207.166 96.8701 206.253 97.2283C205.34 97.5865 204.341 97.6614 203.385 97.4431C202.429 97.2248 201.562 96.7235 200.895 96.0046L200.574 95.6149C199.824 94.6151 199.487 93.3658 199.631 92.1247C199.776 90.8835 200.391 89.7452 201.351 88.9446C202.31 88.144 203.54 87.7422 204.787 87.822C206.034 87.9019 207.203 88.4573 208.052 89.3738L208.384 89.774C209.01 90.6163 209.348 91.6374 209.348 92.6866Z" fill="#455A64"/>
<path d="M209.348 92.6873C209.348 93.6677 209.053 94.6255 208.501 95.4356C207.949 96.2458 207.165 96.8708 206.253 97.229C205.34 97.5872 204.341 97.6621 203.385 97.4438C202.429 97.2255 201.561 96.7242 200.895 96.0053L200.573 95.6156L180.265 71.0883L188.823 66.1481L208.052 89.364L208.384 89.7642C209.012 90.6093 209.35 91.6346 209.348 92.6873Z" fill="#455A64"/>
<path d="M192.548 85.9199C193.401 86.8145 194.562 87.3518 195.796 87.4233C197.03 87.4949 198.245 87.0952 199.195 86.3052C200.146 85.5152 200.761 84.3938 200.916 83.1676C201.072 81.9414 200.756 80.702 200.032 79.6999L197.52 76.6715C198.271 77.6717 198.609 78.9221 198.464 80.1644C198.319 81.4066 197.703 82.5458 196.742 83.3464C195.781 84.147 194.549 84.5479 193.301 84.4661C192.053 84.3844 190.884 83.8264 190.036 82.9073L192.548 85.9199Z" fill="#6236FF"/>
<path d="M188.498 27.5911C190.031 27.7618 191.513 28.2439 192.853 29.0079L186.675 25.416C182.53 22.5667 176.563 22.7352 169.932 26.5589C157.413 33.7901 147.259 51.3758 147.259 65.8383C147.259 72.9432 149.676 78.0203 153.663 80.4325L153.748 80.4852L160.342 84.2825C159.172 83.5217 158.153 82.5523 157.334 81.4226C158.959 81.6005 160.602 81.5062 162.196 81.1435C162.775 81.0171 163.359 80.8644 163.955 80.6748C163.877 80.6513 163.801 80.6214 163.728 80.5852C163.411 80.4368 163.108 80.2606 162.822 80.0585C162.304 79.6973 161.842 79.2606 161.453 78.7629C160.921 78.0815 160.488 77.3279 160.168 76.5246C159.739 76.5866 159.306 76.6183 158.872 76.6194C157.847 76.6399 156.83 76.4368 155.891 76.0242C155.672 75.9237 155.459 75.8094 155.254 75.6819C155.07 75.566 154.885 75.4291 154.727 75.2921C154.346 73.5094 154.161 71.6904 154.174 69.8674C154.174 55.4101 164.329 37.8192 176.858 30.5879C178.458 29.6547 180.153 28.8955 181.914 28.3232C182.389 28.5171 182.835 28.774 183.241 29.0869C183.672 29.4169 184.059 29.799 184.395 30.2245C184.929 30.9076 185.363 31.663 185.685 32.4682C186.116 32.4078 186.551 32.3779 186.986 32.3786C188.177 32.3467 189.355 32.632 190.399 33.2055C190.663 33.3495 190.915 33.5151 191.152 33.7006C191.057 33.2792 190.957 32.8632 190.836 32.4682C190.36 30.7136 189.568 29.0607 188.498 27.5911Z" fill="#263238"/>
<path d="M192.853 29.0073L192.495 28.8124C191.25 28.1604 189.894 27.746 188.497 27.5906C186.998 27.4234 185.482 27.4927 184.005 27.796C183.293 27.9308 182.59 28.1067 181.898 28.3226C180.137 28.8949 178.442 29.6541 176.842 30.5873C164.312 37.8186 154.158 55.4095 154.158 69.8668C154.145 71.6898 154.33 73.5088 154.711 75.2915C154.78 75.6128 154.859 75.9183 154.938 76.2238C155.407 78.0879 156.221 79.8476 157.339 81.4115C157.838 82.0998 158.412 82.7304 159.051 83.2917C159.458 83.6498 159.891 83.9772 160.347 84.2714C164.481 86.9416 170.353 86.7099 176.831 82.9599C189.361 75.7287 199.515 58.143 199.515 43.6805C199.51 36.4492 196.966 31.3668 192.853 29.0073ZM190.378 33.2207C190.642 33.3647 190.894 33.5303 191.131 33.7158C191.528 34.0383 191.89 34.402 192.21 34.8007C193.79 36.781 194.628 39.8621 194.628 43.6963C194.628 56.3365 185.358 72.4106 174.388 78.7465C171.623 80.3266 168.963 81.1903 166.704 81.1903C165.761 81.2014 164.826 81.0222 163.954 80.6636C163.876 80.6402 163.801 80.6103 163.728 80.5741C163.411 80.4257 163.108 80.2494 162.822 80.0474C162.466 79.798 162.138 79.512 161.842 79.1942C161.711 79.0573 161.584 78.9045 161.458 78.7518C160.925 78.0704 160.493 77.3167 160.173 76.5134C159.37 74.388 158.988 72.1273 159.046 69.8563C159.046 69.6877 159.046 69.5244 159.046 69.3296C159.277 56.742 168.447 41.0313 179.275 34.7849C179.523 34.6427 179.776 34.5005 180.028 34.3689C181.775 33.3934 183.681 32.7388 185.659 32.436C186.09 32.3756 186.524 32.3457 186.959 32.3464C187.897 32.3383 188.826 32.5174 189.693 32.8731C189.93 32.9675 190.16 33.082 190.378 33.2154V33.2207Z" fill="#455A64"/>
<path opacity="0.6" d="M192.511 42.234C192.511 54.8742 183.241 70.9484 172.271 77.2843C169.506 78.8643 166.851 79.7281 164.587 79.7281C163.646 79.7391 162.712 79.56 161.843 79.2014C161.711 79.0644 161.585 78.9117 161.458 78.759C160.926 78.0776 160.493 77.3239 160.173 76.5206C159.371 74.3952 158.988 72.1345 159.046 69.8634C159.046 69.6949 159.046 69.5316 159.046 69.3368C159.278 56.7492 168.447 41.0385 179.276 34.7921C179.523 34.6499 179.776 34.5077 180.029 34.376C181.775 33.4006 183.682 32.746 185.659 32.4431C186.09 32.3828 186.525 32.3529 186.96 32.3536C187.897 32.3455 188.826 32.5246 189.693 32.8803C189.835 33.0225 189.967 33.1752 190.093 33.328C191.673 35.3188 192.511 38.3998 192.511 42.234Z" fill="white"/>
</g>
</svg>
