<svg width="18" height="18" viewBox="0 0 18 18" fill="none" xmlns="http://www.w3.org/2000/svg">
<path fill-rule="evenodd" clip-rule="evenodd" d="M7.7679 2.25H10.5266C11.203 2.25 11.7485 2.24999 12.1925 2.28029C12.6491 2.31144 13.0528 2.37711 13.4351 2.53545C14.3539 2.91605 15.0839 3.64608 15.4645 4.56494C15.6229 4.94721 15.6886 5.35092 15.7197 5.80748C15.75 6.25149 15.75 6.79704 15.75 7.47336V7.52664C15.75 8.20296 15.75 8.74852 15.7197 9.19252C15.6886 9.64908 15.6229 10.0528 15.4645 10.4351C15.0839 11.3539 14.3539 12.0839 13.4351 12.4646C13.0528 12.6229 12.6491 12.6886 12.1925 12.7197C11.7485 12.75 11.203 12.75 10.5266 12.75H8.57143C8.22674 12.75 8.15801 12.7535 8.10195 12.7648C7.97132 12.7911 7.85006 12.8517 7.75064 12.9404C7.70797 12.9785 7.66396 13.0314 7.45714 13.3071L7.44098 13.3287C6.98669 13.9344 6.62467 14.4171 6.32844 14.7661C6.04998 15.0941 5.73522 15.424 5.35956 15.5793C4.3259 16.0066 3.1353 15.6098 2.56475 14.6477C2.35739 14.2981 2.30354 13.8453 2.27759 13.4158C2.24999 12.9589 2.25 12.3555 2.25 11.5984V7.7679C2.24999 6.95506 2.24999 6.29944 2.29336 5.76853C2.33803 5.2219 2.43239 4.74175 2.65873 4.29754C3.01825 3.59193 3.59193 3.01825 4.29754 2.65873C4.74175 2.43239 5.2219 2.33803 5.76853 2.29336C6.29944 2.24999 6.95506 2.24999 7.7679 2.25ZM5.89068 3.78838C5.4368 3.82547 5.17604 3.8946 4.97852 3.99524C4.55516 4.21095 4.21095 4.55516 3.99524 4.97852C3.8946 5.17604 3.82547 5.43681 3.78838 5.89068C3.75058 6.35331 3.75 6.94755 3.75 7.8V11.5714C3.75 12.3616 3.75033 12.9193 3.77486 13.3254C3.787 13.5263 3.80396 13.6675 3.8239 13.767C3.8408 13.8513 3.85554 13.883 3.85635 13.885C4.04661 14.2031 4.44084 14.3345 4.78392 14.1942C4.78578 14.193 4.81653 14.1766 4.88068 14.1193C4.95633 14.0516 5.05463 13.9488 5.18489 13.7954C5.44817 13.4852 5.78305 13.0393 6.25714 12.4071C6.26801 12.3927 6.27878 12.3783 6.28946 12.364C6.44571 12.1553 6.583 11.972 6.75191 11.8212C7.05017 11.5551 7.41396 11.3732 7.80585 11.2943C8.02778 11.2496 8.25685 11.2498 8.51755 11.25C8.53536 11.25 8.55332 11.25 8.57143 11.25H10.5C11.2092 11.25 11.7035 11.2496 12.0904 11.2232C12.4706 11.1973 12.692 11.1487 12.861 11.0787C13.4124 10.8504 13.8504 10.4124 14.0787 9.86104C14.1487 9.692 14.1973 9.4706 14.2232 9.09041C14.2496 8.70349 14.25 8.20917 14.25 7.5C14.25 6.79083 14.2496 6.29651 14.2232 5.90959C14.1973 5.5294 14.1487 5.308 14.0787 5.13896C13.8504 4.58765 13.4124 4.14963 12.861 3.92127C12.692 3.85125 12.4706 3.80275 12.0904 3.77681C11.7035 3.75041 11.2092 3.75 10.5 3.75H7.8C6.94755 3.75 6.35331 3.75058 5.89068 3.78838Z" fill="white"/>
<path d="M6 5.25C5.58579 5.25 5.25 5.58579 5.25 6C5.25 6.41421 5.58579 6.75 6 6.75H12C12.4142 6.75 12.75 6.41421 12.75 6C12.75 5.58579 12.4142 5.25 12 5.25H6Z" fill="white"/>
<path d="M6 8.25C5.58579 8.25 5.25 8.58579 5.25 9C5.25 9.41421 5.58579 9.75 6 9.75H8.25C8.66421 9.75 9 9.41421 9 9C9 8.58579 8.66421 8.25 8.25 8.25H6Z" fill="white"/>
</svg>
