<svg width="66" height="58" viewBox="0 0 66 58" fill="none" xmlns="http://www.w3.org/2000/svg">
<path d="M40.5038 37.5638C40.3606 37.5445 40.2148 37.56 40.079 37.609C39.9432 37.6579 39.8216 37.7389 39.7246 37.8448C39.6259 37.9489 39.5535 38.0746 39.5134 38.2116C39.4732 38.3486 39.4665 38.4931 39.4936 38.6332C39.9996 41.2615 41.7028 44.8685 46.9317 47.1143C47.5514 47.3789 48.5085 47.5856 49.7222 47.8448C54.2654 48.8163 61.863 50.444 63.7294 57.3282C63.7607 57.4432 63.8147 57.5511 63.8881 57.6456C63.9616 57.7401 64.0531 57.8193 64.1576 57.8788C64.262 57.9383 64.3773 57.9769 64.4969 57.9924C64.6164 58.0078 64.7378 57.9998 64.8542 57.9689C64.9706 57.938 65.0797 57.8847 65.1753 57.812C65.2709 57.7394 65.3511 57.6489 65.4112 57.5456C65.4714 57.4423 65.5104 57.3284 65.5261 57.2102C65.5417 57.092 65.5336 56.972 65.5023 56.8569C63.3444 48.9051 54.7365 47.0617 50.1109 46.0721C49.0401 45.8419 48.1143 45.6443 47.6614 45.4485C44.519 44.1 42.4894 42.0989 41.6093 39.4924C50.34 40.1341 54.2929 36.6956 54.467 36.5397C54.5744 36.4436 54.6572 36.3237 54.7087 36.1898C54.7601 36.0559 54.7787 35.9118 54.763 35.7695C54.7472 35.6271 54.6976 35.4904 54.6181 35.3707C54.5386 35.2509 54.4316 35.1515 54.3057 35.0806C49.2675 32.2349 49.2675 22.4016 49.2675 18.6985C49.2675 8.34329 42.2125 0.134131 33.1683 0.00543773C33.0822 0.00260266 32.996 0.00078995 32.9098 0H32.908C23.7317 0.0507521 16.2661 8.26897 16.2661 18.3215C16.2661 22.0246 16.2661 31.8597 11.2279 34.7036C11.098 34.7782 10.9885 34.883 10.9089 35.0089C10.8294 35.1348 10.7821 35.2781 10.7713 35.4262C10.7604 35.5743 10.7863 35.7227 10.8467 35.8587C10.9071 35.9946 11.0002 36.1139 11.1179 36.2062C11.3709 36.4002 16.9628 40.6307 23.8436 39.3456C22.9232 41.8433 20.9211 43.7647 17.8703 45.0751C17.4285 45.2655 16.5484 45.4739 15.5291 45.7132C10.8722 46.808 2.202 48.8471 0.0312454 56.8551C6.60665e-05 56.9702 -0.00787911 57.0902 0.00786344 57.2083C0.023606 57.3264 0.062728 57.4403 0.122996 57.5435C0.244712 57.7519 0.445171 57.9039 0.680273 57.9662C0.915375 58.0284 1.16586 57.9958 1.37663 57.8755C1.5874 57.7551 1.74118 57.557 1.80415 57.3245C3.69073 50.357 11.3691 48.5535 15.9544 47.4732C17.104 47.2031 18.0115 46.9892 18.6019 46.7373C23.8307 44.4915 25.5322 40.8845 26.04 38.2562C26.0702 38.1023 26.0591 37.9432 26.008 37.7947C25.9569 37.6463 25.8674 37.5136 25.7485 37.4098C25.6305 37.305 25.4869 37.2326 25.332 37.1995C25.177 37.1665 25.0159 37.1739 24.8648 37.2213C19.9017 38.7656 15.3164 36.6412 13.3125 35.4631C18.0995 31.5008 18.0995 22.3817 18.0995 18.3215C18.0995 9.26408 24.7475 1.85789 32.9868 1.80895L33.1811 1.81983C41.3068 1.93402 47.4341 9.18976 47.4341 18.6985C47.4341 22.7605 47.4341 31.8995 52.2413 35.8618C50.5857 36.7971 46.8107 38.3106 40.5038 37.5638Z" fill="#D4D4D4"/>
</svg>
