<svg width="20" height="20" viewBox="0 0 20 20" fill="none" xmlns="http://www.w3.org/2000/svg">
<path fill-rule="evenodd" clip-rule="evenodd" d="M10.416 1.66699C10.9905 1.66699 11.5107 1.89953 11.8876 2.27562C11.9022 2.29019 11.9166 2.30498 11.9307 2.31998C12.2639 2.67264 12.4752 3.1416 12.4974 3.65955L12.4981 3.67704C12.4989 3.70136 12.4993 3.72579 12.4993 3.75033V3.76221C12.4993 3.79609 12.5199 3.82654 12.5512 3.83951C12.5825 3.8525 12.6186 3.84552 12.6426 3.82155L12.651 3.81314C12.6683 3.79579 12.6859 3.77882 12.7037 3.76221L12.7166 3.75033C13.0985 3.39978 13.5796 3.2176 14.0645 3.2038C14.0851 3.20321 14.1057 3.20293 14.1264 3.20295C14.6588 3.20351 15.191 3.40691 15.5973 3.81314L16.1865 4.4024C16.5928 4.80863 16.7962 5.34089 16.7967 5.87332C16.7967 5.89394 16.7965 5.91456 16.7959 5.93518C16.7821 6.42012 16.5999 6.90116 16.2493 7.28311L16.2375 7.29596C16.2209 7.31375 16.2039 7.33133 16.1865 7.34868L16.1781 7.35708C16.1542 7.38105 16.1472 7.41713 16.1602 7.44845C16.1731 7.47974 16.2036 7.50033 16.2375 7.50033H16.2493C16.2739 7.50033 16.2983 7.50075 16.3226 7.50159L16.3401 7.50227C16.8581 7.52447 17.327 7.7358 17.6797 8.06893C17.6947 8.0831 17.7095 8.09749 17.7241 8.11209C18.1001 8.48897 18.3327 9.00916 18.3327 9.58366V10.417C18.3327 10.9915 18.1001 11.5117 17.7241 11.8886C17.7095 11.9032 17.6947 11.9176 17.6797 11.9317C17.327 12.2649 16.8581 12.4762 16.3401 12.4984L16.3226 12.4991C16.2983 12.4999 16.2739 12.5003 16.2493 12.5003H16.2375C16.2036 12.5003 16.1731 12.5209 16.1602 12.5522C16.1472 12.5835 16.1542 12.6196 16.1781 12.6436L16.1865 12.652C16.2039 12.6693 16.2209 12.6869 16.2375 12.7047L16.2493 12.7175C16.5999 13.0995 16.7821 13.5805 16.7959 14.0655C16.7965 14.0861 16.7967 14.1067 16.7967 14.1273C16.7962 14.6598 16.5928 15.192 16.1865 15.5983L15.5973 16.1875C15.191 16.5937 14.6588 16.7971 14.1264 16.7977C14.1057 16.7977 14.0851 16.7974 14.0645 16.7969C13.5796 16.7831 13.0985 16.6009 12.7166 16.2503L12.7037 16.2384C12.6859 16.2218 12.6683 16.2049 12.651 16.1875L12.6426 16.1791C12.6186 16.1551 12.5825 16.1482 12.5512 16.1611C12.5199 16.1741 12.4993 16.2046 12.4993 16.2384V16.2503C12.4993 16.2749 12.4989 16.2993 12.4981 16.3236L12.4974 16.3411C12.4752 16.8591 12.2639 17.328 11.9307 17.6807C11.9166 17.6957 11.9022 17.7105 11.8876 17.725C11.5107 18.1011 10.9905 18.3337 10.416 18.3337H9.58268C9.00818 18.3337 8.488 18.1011 8.11111 17.725C8.09651 17.7105 8.08212 17.6957 8.06796 17.6807C7.73482 17.328 7.5235 16.8591 7.50129 16.3411L7.50061 16.3236C7.49977 16.2993 7.49935 16.2749 7.49935 16.2503V16.2384C7.49935 16.2046 7.47876 16.1741 7.44747 16.1611C7.41616 16.1482 7.38007 16.1551 7.3561 16.1791L7.3477 16.1875C7.33035 16.2049 7.31277 16.2218 7.29498 16.2384L7.28214 16.2503C6.90018 16.6009 6.41914 16.7831 5.9342 16.7969C5.91359 16.7974 5.89297 16.7977 5.87234 16.7977C5.33991 16.7971 4.80765 16.5937 4.40142 16.1875L3.81216 15.5983C3.40593 15.192 3.20254 14.6598 3.20197 14.1273C3.20195 14.1067 3.20223 14.0861 3.20282 14.0655C3.21662 13.5805 3.3988 13.0995 3.74935 12.7175L3.76123 12.7047C3.77784 12.6869 3.79482 12.6693 3.81216 12.652L3.82057 12.6436C3.84454 12.6196 3.85152 12.5835 3.83854 12.5522C3.82556 12.5209 3.79511 12.5003 3.76123 12.5003H3.74935C3.72482 12.5003 3.70039 12.4999 3.67606 12.4991L3.65857 12.4984C3.14062 12.4762 2.67166 12.2649 2.319 11.9317C2.304 11.9176 2.28922 11.9032 2.27465 11.8886C1.89856 11.5117 1.66602 10.9915 1.66602 10.417V9.58366C1.66602 9.00916 1.89856 8.48897 2.27465 8.11209C2.28922 8.09749 2.304 8.0831 2.319 8.06893C2.67166 7.7358 3.14062 7.52447 3.65857 7.50227L3.67606 7.50159C3.70039 7.50075 3.72482 7.50033 3.74935 7.50033H3.76123C3.79511 7.50033 3.82556 7.47974 3.83854 7.44845C3.85152 7.41713 3.84454 7.38105 3.82057 7.35708L3.81216 7.34868C3.79482 7.33133 3.77784 7.31375 3.76123 7.29596L3.74935 7.28311C3.3988 6.90116 3.21662 6.42012 3.20282 5.93518C3.20223 5.91456 3.20195 5.89394 3.20197 5.87332C3.20254 5.34089 3.40593 4.80863 3.81216 4.4024L4.40142 3.81314C4.80765 3.40691 5.33991 3.20351 5.87234 3.20295C5.89297 3.20293 5.91359 3.20321 5.9342 3.2038C6.41914 3.2176 6.90018 3.39978 7.28214 3.75033L7.29498 3.76221C7.31278 3.77882 7.33035 3.79579 7.3477 3.81314L7.3561 3.82155C7.38007 3.84552 7.41616 3.8525 7.44747 3.83951C7.47876 3.82654 7.49935 3.79609 7.49935 3.76221V3.75033C7.49935 3.72579 7.49977 3.70136 7.50061 3.67704L7.50129 3.65955C7.5235 3.1416 7.73482 2.67264 8.06796 2.31998C8.08212 2.30498 8.09651 2.29019 8.11111 2.27562C8.488 1.89953 9.00818 1.66699 9.58268 1.66699H10.416ZM9.16602 16.2503C9.16602 16.4804 9.35256 16.667 9.58268 16.667H10.416C10.6461 16.667 10.8327 16.4804 10.8327 16.2503V16.2384C10.8327 15.5221 11.267 14.8894 11.9128 14.6216C12.56 14.3532 13.3149 14.4944 13.8211 15.0006L13.8295 15.009C13.9922 15.1717 14.256 15.1717 14.4188 15.009L15.008 14.4197C15.1707 14.257 15.1707 13.9932 15.008 13.8305L14.9996 13.8221C14.4934 13.3159 14.3523 12.5609 14.6206 11.9138C14.8884 11.268 15.5212 10.8337 16.2375 10.8337H16.2493C16.4795 10.8337 16.666 10.6471 16.666 10.417V9.58366C16.666 9.35354 16.4795 9.16699 16.2493 9.16699H16.2375C15.5212 9.16699 14.8884 8.73268 14.6206 8.08687C14.3523 7.43972 14.4934 6.68476 14.9996 6.17856L15.008 6.17016C15.1707 6.00745 15.1707 5.74363 15.008 5.58091L14.4188 4.99165C14.256 4.82893 13.9922 4.82893 13.8295 4.99165L13.8211 5.00006C13.3149 5.50625 12.56 5.64742 11.9128 5.37906C11.267 5.11125 10.8327 4.4785 10.8327 3.76221V3.75033C10.8327 3.52021 10.6461 3.33366 10.416 3.33366H9.58268C9.35256 3.33366 9.16602 3.52021 9.16602 3.75033V3.76221C9.16602 4.4785 8.73171 5.11125 8.08588 5.37906C7.43873 5.64742 6.68378 5.50625 6.17759 5.00006L6.16919 4.99165C6.00647 4.82893 5.74265 4.82893 5.57993 4.99165L4.99068 5.58091C4.82796 5.74363 4.82796 6.00745 4.99068 6.17016L4.99908 6.17856C5.50528 6.68476 5.64644 7.43972 5.37808 8.08687C5.11027 8.73268 4.47753 9.16699 3.76123 9.16699H3.74935C3.51923 9.16699 3.33268 9.35354 3.33268 9.58366V10.417C3.33268 10.6471 3.51923 10.8337 3.74935 10.8337H3.76123C4.47753 10.8337 5.11027 11.268 5.37808 11.9138C5.64644 12.5609 5.50528 13.3159 4.99908 13.8221L4.99068 13.8305C4.82796 13.9932 4.82796 14.257 4.99068 14.4197L5.57993 15.009C5.74265 15.1717 6.00647 15.1717 6.16919 15.009L6.17759 15.0006C6.68378 14.4944 7.43873 14.3532 8.08588 14.6216C8.73169 14.8894 9.16602 15.5221 9.16602 16.2384V16.2503Z" fill="#496AD0"/>
<path fill-rule="evenodd" clip-rule="evenodd" d="M9.99935 11.667C10.9198 11.667 11.666 10.9208 11.666 10.0003C11.666 9.07985 10.9198 8.33366 9.99935 8.33366C9.07887 8.33366 8.33268 9.07985 8.33268 10.0003C8.33268 10.9208 9.07887 11.667 9.99935 11.667ZM9.99935 13.3337C11.8403 13.3337 13.3327 11.8413 13.3327 10.0003C13.3327 8.15938 11.8403 6.66699 9.99935 6.66699C8.1584 6.66699 6.66602 8.15938 6.66602 10.0003C6.66602 11.8413 8.1584 13.3337 9.99935 13.3337Z" fill="#496AD0"/>
</svg>
