<svg width="324" height="278" viewBox="0 0 324 278" fill="none" xmlns="http://www.w3.org/2000/svg">
<path d="M158.993 277.694C245.642 277.694 315.884 237.138 315.884 187.111C315.884 137.083 245.642 96.5277 158.993 96.5277C72.3444 96.5277 2.10188 137.083 2.10188 187.111C2.10188 237.138 72.3444 277.694 158.993 277.694Z" fill="#EDEDED" fill-opacity="0.16"/>
<path d="M28.2464 220.082L38.6983 226.076C39.2441 226.356 39.8484 226.501 40.4614 226.501C41.0745 226.501 41.6787 226.356 42.2245 226.076L124.641 178.472C125.607 177.915 125.607 177.012 124.641 176.462L114.062 170.516C113.515 170.24 112.911 170.096 112.299 170.096C111.686 170.096 111.082 170.24 110.536 170.516L28.2464 218.065C27.2802 218.622 27.2802 219.525 28.2464 220.082Z" fill="#E0E0E0" fill-opacity="0.3"/>
<path d="M288.825 220.082L278.373 226.076C277.827 226.354 277.223 226.499 276.61 226.499C275.997 226.499 275.393 226.354 274.847 226.076L192.431 178.472C191.464 177.915 191.471 177.012 192.431 176.462L203.009 170.516C203.556 170.24 204.16 170.096 204.773 170.096C205.385 170.096 205.989 170.24 206.536 170.516L288.825 218.051C289.791 218.622 289.791 219.525 288.825 220.082Z" fill="#E0E0E0" fill-opacity="0.3"/>
<path d="M280.558 190.433C280.558 190.433 281.066 179.748 285.805 171.165C290.544 162.582 297.449 156.976 304.177 155.995C310.905 155.015 316.78 160.876 309.819 165.629C302.858 170.382 290.29 175.58 285.431 191.956L280.558 190.433Z" fill="#6236FF"/>
<g opacity="0.2">
<path d="M280.558 190.433C280.558 190.433 281.066 179.748 285.805 171.165C290.544 162.582 297.449 156.976 304.177 155.995C310.905 155.015 316.78 160.876 309.819 165.629C302.858 170.382 290.29 175.58 285.431 191.956L280.558 190.433Z" fill="black"/>
</g>
<path d="M282.363 187.548H282.286C282.241 187.533 282.199 187.509 282.164 187.478C282.128 187.447 282.099 187.409 282.078 187.366C282.057 187.324 282.044 187.277 282.041 187.23C282.038 187.182 282.045 187.135 282.06 187.09C288.041 169.042 301.144 160.812 307.238 158.978C307.331 158.95 307.432 158.961 307.518 159.007C307.604 159.053 307.668 159.132 307.696 159.225C307.724 159.319 307.714 159.42 307.668 159.506C307.622 159.592 307.543 159.656 307.449 159.684C301.476 161.482 288.633 169.557 282.765 187.337C282.731 187.411 282.673 187.472 282.6 187.511C282.528 187.549 282.444 187.562 282.363 187.548Z" fill="white"/>
<path d="M319.404 187.196C318.854 188.705 317.289 189.58 315.878 190.278C314.468 190.976 312.852 191.724 312.133 193.162C310.723 196.075 313.621 199.841 312.063 202.683C311.691 203.256 311.207 203.748 310.639 204.129C310.072 204.51 309.433 204.771 308.762 204.898C307.655 205.128 306.537 205.302 305.412 205.42C304.877 205.451 304.34 205.451 303.804 205.42C302.245 205.293 300.56 205.335 299.199 206.217C297.083 207.627 296.554 210.448 295.341 212.733C294.59 214.069 293.558 215.225 292.316 216.123C291.074 217.02 289.651 217.637 288.147 217.931C287.153 218.128 285.326 218.432 284.247 217.931C284.171 217.898 284.097 217.858 284.029 217.811C283.881 217.663 283.69 217.472 283.606 217.367C283.521 217.261 283.606 217.324 283.563 217.303C283.07 215.893 283.62 214.32 283.563 212.818C283.563 212.719 283.563 212.634 283.563 212.543C283.38 210.801 283.218 209.073 283.063 207.331C282.771 204.134 282.536 200.93 282.357 197.718C282.244 195.638 281.842 193.374 282.59 191.371C283.429 189.149 285.848 188.945 286.631 186.766C286.941 185.898 287.075 184.981 287.372 184.107C287.84 182.82 288.654 181.686 289.724 180.83C290.794 179.974 292.078 179.429 293.437 179.255C297.668 178.761 301.681 181.935 305.892 181.37C306.985 181.208 308.007 180.806 309.093 180.538C312.486 179.671 316.513 180.383 318.636 183.162C319.078 183.723 319.379 184.383 319.513 185.085C319.647 185.787 319.61 186.511 319.404 187.196Z" fill="#6236FF"/>
<path d="M282.73 210.624H282.695C282.601 210.605 282.519 210.55 282.466 210.471C282.413 210.392 282.394 210.294 282.413 210.201C286.821 187.858 309.749 183.161 315.186 183.197C315.282 183.2 315.372 183.24 315.439 183.309C315.506 183.377 315.544 183.468 315.546 183.563C315.546 183.611 315.536 183.659 315.518 183.703C315.499 183.747 315.472 183.787 315.438 183.82C315.404 183.854 315.363 183.88 315.319 183.898C315.274 183.915 315.227 183.924 315.179 183.923C309.861 183.888 287.434 188.479 283.125 210.342C283.106 210.43 283.055 210.508 282.982 210.56C282.909 210.612 282.819 210.635 282.73 210.624Z" fill="white"/>
<path d="M307.697 197.81C307.624 197.799 307.555 197.767 307.499 197.718C305.242 196.007 302.635 194.816 299.864 194.228C297.093 193.64 294.226 193.672 291.469 194.319C291.423 194.329 291.375 194.33 291.328 194.322C291.281 194.314 291.237 194.296 291.197 194.271C291.157 194.245 291.122 194.212 291.095 194.173C291.068 194.134 291.049 194.09 291.039 194.044C291.028 193.998 291.027 193.95 291.036 193.903C291.044 193.856 291.062 193.812 291.087 193.772C291.113 193.732 291.146 193.697 291.185 193.67C291.224 193.643 291.267 193.624 291.314 193.614C294.184 192.944 297.166 192.916 300.048 193.532C302.93 194.148 305.64 195.392 307.986 197.175C308.043 197.228 308.082 197.297 308.097 197.372C308.113 197.448 308.104 197.527 308.072 197.598C308.04 197.668 307.986 197.727 307.919 197.765C307.851 197.803 307.774 197.819 307.697 197.81Z" fill="white"/>
<path d="M35.5099 188.049C35.1339 183.451 34.0737 178.935 32.3645 174.649C29.5434 167.752 24.1976 160.798 18.0125 159.486C11.8274 158.175 9.19682 162.343 10.5015 166.433C11.63 169.959 16.2282 172.879 19.7192 175.954C23.2102 179.029 29.7339 186.455 31.5464 193.635L35.0374 194.016L35.5099 188.049Z" fill="#6236FF"/>
<g opacity="0.15">
<path d="M35.5099 188.049C35.1339 183.451 34.0737 178.935 32.3645 174.649C29.5434 167.752 24.1976 160.798 18.0125 159.486C11.8274 158.175 9.19682 162.343 10.5015 166.433C11.63 169.959 16.2282 172.879 19.7192 175.954C23.2102 179.029 29.7339 186.455 31.5464 193.635L35.0374 194.016L35.5099 188.049Z" fill="black"/>
</g>
<path d="M33.1249 191.286C33.025 191.284 32.9293 191.245 32.8574 191.176C32.7854 191.106 32.7424 191.012 32.737 190.912C32.0882 172.865 14.4427 162.78 14.2593 162.702C14.1658 162.652 14.0962 162.566 14.0658 162.464C14.0353 162.362 14.0466 162.253 14.0971 162.159C14.1476 162.066 14.2332 161.996 14.3351 161.965C14.4369 161.935 14.5466 161.946 14.6402 161.997C14.8235 162.103 32.8499 172.406 33.5199 190.912C33.5218 191.016 33.4829 191.116 33.4117 191.191C33.3405 191.266 33.2425 191.311 33.139 191.314L33.1249 191.286Z" fill="white"/>
<path d="M33.3304 215.949C33.3304 215.949 29.7195 218.227 24.0845 217.261C22.2631 217.023 20.5643 216.213 19.2323 214.948C17.7795 213.445 17.5468 211.936 17.1166 209.926C17.0049 209.088 16.7165 208.282 16.2702 207.564C15.0572 205.899 12.6452 205.927 10.6282 205.497C7.80718 204.884 5.15542 202.831 4.33027 200.039C3.50512 197.246 4.8451 193.832 7.54623 192.732L4.23153 190.616C3.20556 190.014 2.25803 189.286 1.41051 188.451C0.560678 187.598 0.0580159 186.459 0 185.256C0.0535258 184.375 0.355426 183.526 0.87083 182.808C1.38623 182.091 2.09411 181.534 2.91271 181.201C4.56525 180.567 6.35689 180.384 8.10339 180.672C9.86932 180.883 11.6058 181.292 13.28 181.892C13.7366 182.1 14.2313 182.21 14.7328 182.217C15.3971 182.105 16.0187 181.815 16.5312 181.377C20.3255 178.874 26.5035 179.064 28.5205 183.782C28.8238 184.488 29.0001 185.193 29.3175 185.898C30.5023 188.437 33.817 187.675 35.9539 188.86C36.6305 189.284 37.205 189.852 37.6366 190.524C38.0682 191.196 38.3461 191.955 38.4505 192.746C38.8737 195.264 38.1755 198.127 37.7453 200.617C37.3151 203.106 36.6944 205.413 36.0174 207.768C35.4673 209.715 34.8608 211.64 34.2119 213.551C34.0286 213.981 33.7253 215.695 33.3304 215.949Z" fill="#6236FF"/>
<path d="M35.5729 210.131C33.6786 204.929 30.572 200.253 26.5103 196.491C26.4685 196.403 26.3958 196.332 26.3058 196.294C25.1353 195.194 23.9089 194.156 22.6314 193.184C22.1524 189.84 22.5837 186.429 23.8797 183.31C23.9015 183.264 23.9139 183.214 23.9163 183.162C23.9187 183.111 23.911 183.06 23.8936 183.012C23.8763 182.964 23.8496 182.92 23.8152 182.882C23.7807 182.844 23.7391 182.813 23.6928 182.792C23.6465 182.77 23.5964 182.757 23.5453 182.755C23.4942 182.753 23.4431 182.76 23.3949 182.778C23.3468 182.795 23.3026 182.822 23.2647 182.856C23.2269 182.891 23.1962 182.932 23.1745 182.979C21.9017 185.993 21.4163 189.281 21.764 192.535C16.5689 188.791 10.8065 185.905 4.69678 183.987C4.64768 183.973 4.59632 183.969 4.54574 183.976C4.49516 183.982 4.44639 183.999 4.40232 184.025C4.35825 184.05 4.31978 184.084 4.28919 184.125C4.25861 184.166 4.23652 184.213 4.22425 184.262C4.21037 184.311 4.20631 184.362 4.21231 184.412C4.21831 184.462 4.23424 184.511 4.25919 184.555C4.28414 184.598 4.31759 184.637 4.35761 184.668C4.39762 184.699 4.44339 184.722 4.49225 184.735C4.65446 184.784 15.6635 187.901 24.7472 195.913C19.1757 194.933 12.5181 197.627 12.2148 197.754C12.1311 197.787 12.0618 197.849 12.0188 197.929C11.9759 198.008 11.962 198.1 11.9795 198.189C11.997 198.277 12.0449 198.357 12.1149 198.414C12.1849 198.471 12.2726 198.502 12.3629 198.501C12.4118 198.511 12.4622 198.511 12.511 198.501C12.5886 198.466 20.4028 195.306 25.9109 197.02C29.9128 200.711 32.9741 205.305 34.8394 210.42C34.8667 210.496 34.9164 210.561 34.982 210.608C35.0475 210.654 35.1257 210.68 35.2061 210.681H35.3331C35.3876 210.664 35.4379 210.636 35.4804 210.598C35.523 210.56 35.5568 210.513 35.5796 210.461C35.6024 210.409 35.6136 210.352 35.6124 210.295C35.6112 210.238 35.5978 210.182 35.5729 210.131Z" fill="white"/>
<g opacity="0.6">
<path d="M23.0763 75.4125C22.1065 76.5132 20.8523 77.3257 19.4513 77.761L19.3032 77.7962H19.1904L18.9435 77.8385H18.6614H18.4781C18.4503 77.8457 18.4212 77.8457 18.3934 77.8385C17.8309 77.8408 17.2805 77.6748 16.813 77.3619C16.3455 77.0489 15.9822 76.6034 15.7699 76.0825C15.5673 75.6188 15.4387 75.1261 15.389 74.6226C15.6077 74.5238 15.8263 74.4039 16.052 74.277C17.6789 73.216 19.0327 71.7861 20.0032 70.1036C20.9737 68.4211 21.5337 66.5334 21.6376 64.5938C21.6376 64.3258 21.6376 64.0719 21.6376 63.8392C22.2537 63.5458 22.9301 63.4008 23.6123 63.4161H23.7322H23.8309C23.8659 63.4092 23.9018 63.4092 23.9367 63.4161C24.4208 63.489 24.8776 63.6867 25.2622 63.9896C25.6467 64.2926 25.9458 64.6904 26.1301 65.1439C27.2796 67.8451 25.9256 72.4081 23.0763 75.4125Z" fill="#6236FF"/>
<path d="M33.4094 66.9355C33.3543 66.909 33.2942 66.8946 33.2331 66.8932L30.8493 66.7592C30.7972 66.7611 30.7452 66.7524 30.6965 66.7338C30.6478 66.7151 30.6034 66.6869 30.5659 66.6507C30.5283 66.6144 30.4985 66.571 30.4781 66.523C30.4578 66.475 30.4473 66.4234 30.4473 66.3713C30.4826 65.9904 30.4967 65.6166 30.5037 65.257C30.5067 64.8613 30.4879 64.4657 30.4473 64.0721C30.4548 63.8136 30.5492 63.5651 30.7153 63.3669L33.3741 60.1368C33.4551 60.0491 33.5124 59.9422 33.5408 59.8263C33.5691 59.7103 33.5676 59.5891 33.5363 59.4739L32.2739 56.6529C32.2578 56.6171 32.2306 56.5874 32.1963 56.5682C32.1235 56.5438 32.0448 56.543 31.9714 56.5658C31.898 56.5885 31.8336 56.6338 31.7873 56.6952L28.9663 59.2905C28.8905 59.3765 28.7876 59.4339 28.6747 59.4531C28.5617 59.4724 28.4456 59.4523 28.3457 59.3963C27.98 59.1002 27.5709 58.8623 27.1326 58.691C27.0348 58.6548 26.9525 58.5859 26.8998 58.4959C26.8471 58.4059 26.8272 58.3004 26.8435 58.1974L27.718 54.2127C27.7315 54.159 27.727 54.1024 27.7054 54.0515C27.6838 54.0006 27.6461 53.9581 27.5981 53.9306C27.5167 53.8927 27.4264 53.878 27.3371 53.8883L24.5161 54.1633C24.3882 54.179 24.266 54.2257 24.1603 54.2995C24.0545 54.3733 23.9685 54.4718 23.9096 54.5864L22.4003 58.6346C22.2694 58.8921 22.0558 59.0982 21.7938 59.22C21.1881 59.504 20.6077 59.839 20.0589 60.2214C19.8191 60.3766 19.5582 60.3907 19.4594 60.2214L18.0489 58.0422C17.9502 57.887 17.7174 57.9223 17.5341 58.1127L14.4803 61.3428C14.3925 61.4292 14.3253 61.5343 14.2838 61.6504C14.2423 61.7664 14.2275 61.8903 14.2405 62.0128L15.0939 64.8902C15.1297 65.1364 15.0745 65.3871 14.9387 65.5955C14.4216 66.3784 13.9506 67.1908 13.5282 68.0286C13.379 68.2738 13.1419 68.4528 12.8653 68.5293L10.2488 69.157C10.1182 69.187 9.99656 69.2474 9.89364 69.3331C9.79073 69.4189 9.70944 69.5277 9.65638 69.6507L8.33755 74.0797C8.32366 74.128 8.32172 74.179 8.3319 74.2283C8.34208 74.2775 8.36408 74.3236 8.396 74.3624C8.42792 74.4013 8.46881 74.4318 8.51514 74.4513C8.56147 74.4709 8.61186 74.4789 8.66197 74.4747L11.0528 74.6157C11.1051 74.6128 11.1576 74.6207 11.2067 74.639C11.2559 74.6572 11.3007 74.6855 11.3385 74.7219C11.3762 74.7583 11.406 74.8021 11.426 74.8506C11.446 74.8991 11.4558 74.9512 11.4548 75.0036C11.3879 75.7685 11.3879 76.5378 11.4548 77.3027C11.453 77.5599 11.3634 77.8087 11.2009 78.008L8.53502 81.2381C8.45409 81.3258 8.39676 81.4326 8.36839 81.5486C8.34002 81.6645 8.34154 81.7858 8.37282 81.901L9.63522 84.722C9.65338 84.7583 9.67998 84.7898 9.7128 84.8137C9.74492 84.824 9.77943 84.824 9.81154 84.8137C9.9299 84.8051 10.0407 84.7522 10.1218 84.6656L12.9429 82.0632C13.0195 81.9784 13.1229 81.9223 13.2358 81.9044C13.3487 81.8864 13.4643 81.9076 13.5635 81.9645C13.9282 82.2619 14.3376 82.4999 14.7765 82.6697C14.8757 82.7061 14.959 82.7762 15.0118 82.8677C15.0647 82.9592 15.0837 83.0663 15.0657 83.1704L14.1841 87.1551C14.1739 87.2067 14.1799 87.2602 14.2014 87.3082C14.2229 87.3562 14.2587 87.3964 14.304 87.4231C14.3834 87.4672 14.4749 87.4845 14.565 87.4725L17.386 87.1975C17.5139 87.1818 17.6361 87.135 17.7418 87.0613C17.8475 86.9875 17.9336 86.889 17.9925 86.7743L19.5017 82.7261C19.6341 82.4679 19.847 82.2599 20.1083 82.1337C20.4129 81.9953 20.7096 81.8399 20.9969 81.6683C21.2719 81.5061 21.554 81.3297 21.8361 81.1393C22.1182 80.9489 22.3298 80.9701 22.4286 81.1393L23.8391 83.3115C23.8571 83.3381 23.8813 83.3599 23.9096 83.375C24.0224 83.4526 24.2058 83.375 24.3539 83.241L27.4077 80.018C27.5013 79.9285 27.5715 79.8174 27.6121 79.6944C27.6527 79.5714 27.6624 79.4403 27.6404 79.3127L26.7941 76.4282C26.752 76.1819 26.8076 75.9288 26.9492 75.723C27.4705 74.9402 27.9417 74.1252 28.3598 73.2828C28.4384 73.1576 28.5413 73.0494 28.6624 72.9646C28.7836 72.8798 28.9204 72.8201 29.065 72.7891L31.6745 72.1614C31.805 72.1314 31.9267 72.0711 32.0296 71.9853C32.1325 71.8995 32.2138 71.7907 32.2669 71.6677L33.5857 67.2387C33.5914 67.1761 33.5774 67.1134 33.5458 67.059C33.5143 67.0047 33.4666 66.9615 33.4094 66.9355ZM19.4594 77.7611L19.3043 77.7964H19.1914L18.9446 77.8387H18.6554H18.3945C17.8311 77.8404 17.2802 77.6734 16.8126 77.3591C16.345 77.0449 15.9822 76.5978 15.7709 76.0756C15.5675 75.6122 15.439 75.1194 15.3901 74.6157C15.3616 74.3463 15.3475 74.0756 15.3478 73.8047C15.5186 70.8405 16.7415 68.0346 18.7965 65.8917C19.4174 65.2255 20.1298 64.6509 20.9123 64.185C21.14 64.0512 21.3755 63.9311 21.6175 63.8253C22.2352 63.5372 22.9108 63.3948 23.5922 63.4092H23.7121H23.8109H23.9237C24.4065 63.4833 24.8618 63.6815 25.2451 63.9843C25.6283 64.2872 25.9264 64.6844 26.11 65.1371C27.2878 67.7465 25.9337 72.3025 23.0844 75.3139C22.1287 76.4526 20.8729 77.3005 19.4594 77.7611Z" fill="#F5F5F5"/>
<path d="M22.3717 58.6559C22.2324 58.8993 22.0237 59.0958 21.7722 59.2201C21.173 59.5035 20.5996 59.8386 20.0585 60.2215C19.8187 60.3767 19.5577 60.3908 19.459 60.2215L18.0485 58.0493C18.0322 58.0213 18.0075 57.9991 17.978 57.9859L15.305 56.4413C15.5923 56.2697 15.889 56.1143 16.1937 55.9759L16.2924 55.9195C16.3978 55.8537 16.4948 55.7756 16.5816 55.6867L16.6873 55.5739C16.7109 55.5491 16.73 55.5205 16.7438 55.4892L16.7861 55.4117L22.3717 58.6559Z" fill="#EBEBEB"/>
<path d="M15.1207 64.9958C15.1254 65.2102 15.0665 65.4213 14.9514 65.6023C14.4355 66.3859 13.9645 67.1983 13.5409 68.0354C13.506 68.1052 13.4608 68.1694 13.4069 68.2259L7.76484 64.9746C7.79473 64.9477 7.82083 64.9169 7.84242 64.8829C7.87048 64.8535 7.89422 64.8203 7.91295 64.7842C8.33104 63.9418 8.80216 63.1268 9.32346 62.344C9.35127 62.3042 9.37491 62.2617 9.39398 62.2171C9.39398 62.2171 9.39398 62.1607 9.39398 62.1324C9.39704 62.1161 9.39704 62.0994 9.39398 62.0831C9.39648 62.0431 9.39648 62.0031 9.39398 61.9632C9.40424 61.9025 9.40424 61.8405 9.39398 61.7798L15.1207 64.9958Z" fill="#EBEBEB"/>
<path d="M15.2628 56.4344L12.343 54.7418C12.3047 54.7187 12.2608 54.7065 12.2161 54.7065C12.1543 54.711 12.0941 54.7284 12.0395 54.7576C11.9848 54.7867 11.9369 54.827 11.8987 54.8758L10.0721 56.8082L8.84493 58.0988C8.74458 58.2078 8.66989 58.338 8.6263 58.4796L12.9213 60.948L14.2542 61.7097C14.2996 61.5788 14.3717 61.4587 14.4658 61.3571L14.5081 61.3147L17.5196 58.127C17.5686 58.0645 17.6345 58.0173 17.7095 57.9911C17.7845 57.9648 17.8654 57.9606 17.9427 57.9789L15.2628 56.4344Z" fill="#F5F5F5"/>
<path d="M27.5195 53.9235C27.4457 53.8854 27.3613 53.873 27.2797 53.8882L24.4587 54.1633C24.2873 54.1832 24.1267 54.2573 24.0003 54.3748L18.3582 51.1307C18.4822 51.0084 18.6436 50.9314 18.8167 50.912L21.6377 50.637C21.7323 50.6218 21.8293 50.6392 21.9127 50.6863L22.6603 51.1236L23.0341 51.3352L25.4178 52.7457L26.0032 53.0842L26.4334 53.3311L27.5195 53.9235Z" fill="#F5F5F5"/>
<path d="M13.3712 68.2542C13.2256 68.3992 13.0463 68.5059 12.8493 68.5645L10.2328 69.1922C10.0419 69.2377 9.87112 69.3441 9.74618 69.4954L4.10413 66.2583C4.23231 66.0997 4.40771 65.9861 4.60487 65.9339L7.22136 65.3062C7.4168 65.2574 7.59345 65.1519 7.72915 65.003L13.3712 68.2542Z" fill="#E6E6E6"/>
<path d="M11.3833 77.627C11.3366 77.7665 11.2675 77.8975 11.1787 78.0149L8.51289 81.2449C8.43602 81.3411 8.37854 81.4513 8.34362 81.5693L2.70158 78.3181C2.73053 78.1956 2.78859 78.0819 2.87084 77.9866L5.53671 74.7566C5.62545 74.6444 5.6946 74.518 5.74123 74.3828L11.3833 77.627Z" fill="#E6E6E6"/>
<path d="M4.16844 71.9498L4.24602 71.9991L4.14729 71.9357L3.94981 71.8228L4.16844 71.9498Z" fill="#E0E0E0"/>
<path d="M23.0763 75.4125C22.1065 76.5132 20.8523 77.3257 19.4513 77.761L19.3032 77.7962H19.1904L18.9435 77.8385H18.6614H18.4781C18.4503 77.8457 18.4212 77.8457 18.3934 77.8385C17.8309 77.8408 17.2805 77.6748 16.813 77.3619C16.3455 77.0489 15.9822 76.6034 15.7699 76.0825C15.5673 75.6188 15.4387 75.1261 15.389 74.6226C15.6077 74.5238 15.8263 74.4039 16.052 74.277C17.6789 73.216 19.0327 71.7861 20.0032 70.1036C20.9737 68.4211 21.5337 66.5334 21.6376 64.5938C21.6376 64.3258 21.6376 64.0719 21.6376 63.8392C22.2537 63.5458 22.9301 63.4008 23.6123 63.4161H23.7322H23.8309C23.8659 63.4092 23.9018 63.4092 23.9367 63.4161C24.4208 63.489 24.8776 63.6867 25.2622 63.9896C25.6467 64.2926 25.9458 64.6904 26.1301 65.1439C27.2796 67.8451 25.9256 72.4081 23.0763 75.4125Z" fill="#E0E0E0"/>
<path d="M15.1206 64.9961L9.4786 61.7519C9.48544 61.717 9.48544 61.681 9.4786 61.6461L8.62524 58.7687C8.598 58.6742 8.598 58.574 8.62524 58.4795L12.9202 60.9479L14.2532 61.7096C14.2232 61.8133 14.2232 61.9233 14.2532 62.027L15.1065 64.9044C15.1152 64.9342 15.1199 64.965 15.1206 64.9961Z" fill="#E0E0E0"/>
<path d="M24.0363 54.3747C23.9723 54.4337 23.9218 54.5059 23.8882 54.5862L22.3789 58.6344L16.7369 55.3832L18.2673 51.3279C18.2969 51.2474 18.3481 51.1767 18.4154 51.1234L24.0363 54.3747Z" fill="#E0E0E0"/>
<path d="M32.1453 56.5609C32.0745 56.5455 32.001 56.5499 31.9326 56.5736C31.8642 56.5972 31.8036 56.6392 31.7574 56.6949L28.9364 59.2973C28.8587 59.3827 28.7547 59.4396 28.6408 59.4588C28.527 59.478 28.41 59.4584 28.3087 59.4031C27.9431 59.1069 27.5339 58.8691 27.0956 58.6978C26.9978 58.6616 26.9156 58.5926 26.8629 58.5026C26.8101 58.4126 26.7902 58.3072 26.8065 58.2041L27.681 54.2194C27.6957 54.1658 27.6919 54.1087 27.6702 54.0575C27.6484 54.0063 27.61 53.964 27.5611 53.9373L26.4962 53.3167C26.5287 53.3094 26.5624 53.3094 26.5949 53.3167L26.6584 53.359L32.1453 56.5609Z" fill="#E0E0E0"/>
<path d="M33.3944 66.9283C33.3393 66.9018 33.2792 66.8874 33.2181 66.886L30.8343 66.752C30.7822 66.7539 30.7302 66.7453 30.6815 66.7266C30.6328 66.708 30.5884 66.6797 30.5509 66.6435C30.5133 66.6073 30.4835 66.5639 30.4631 66.5159C30.4428 66.4679 30.4323 66.4163 30.4323 66.3641C30.4676 65.9833 30.4887 65.6095 30.4887 65.2427L33.3944 66.9283Z" fill="#E0E0E0"/>
<path d="M7.82093 64.8833C7.79934 64.9172 7.77324 64.9481 7.74335 64.975C7.7728 64.9477 7.79885 64.9169 7.82093 64.8833Z" fill="#E0E0E0"/>
<path d="M4.1121 66.2302C4.07347 66.2819 4.04258 66.3389 4.02042 66.3995L3.85821 66.9495L2.9978 69.8411L2.70864 70.8285C2.69141 70.8812 2.69141 70.938 2.70864 70.9907C2.71606 71.0227 2.72793 71.0536 2.74391 71.0823C2.76561 71.1076 2.78918 71.1312 2.81443 71.1529H2.85675L3.30106 71.4138L3.42095 71.4773L3.77358 71.6748L3.95695 71.7876L4.17557 71.9146L4.25315 71.9639L4.48589 72.0909L5.75535 72.7961L8.43532 74.3477C8.38159 74.3134 8.34071 74.2623 8.31902 74.2023C8.29734 74.1424 8.29607 74.077 8.31542 74.0162L9.4791 70.2008L9.64131 69.6507C9.66568 69.5839 9.70147 69.5218 9.74709 69.4673L4.1121 66.2302Z" fill="#E0E0E0"/>
<path d="M23.9163 83.382L20.9895 81.6542C21.2645 81.492 21.5466 81.3156 21.8287 81.1252C22.1108 80.9348 22.3224 80.956 22.4212 81.1252L23.8317 83.3045C23.8516 83.3381 23.881 83.3651 23.9163 83.382Z" fill="#E0E0E0"/>
<path d="M15.1205 83.1702L14.239 87.162C14.2287 87.2136 14.2348 87.2671 14.2563 87.3151C14.2777 87.3631 14.3136 87.4032 14.3589 87.43L9.84523 84.8206C9.96259 84.8082 10.0721 84.7559 10.1555 84.6724L12.9766 82.0771C13.0521 81.9911 13.1546 81.9331 13.2672 81.9126C13.3799 81.8921 13.4962 81.9103 13.5972 81.9643C13.9604 82.2639 14.3701 82.5022 14.8102 82.6695C14.9142 82.7007 15.0031 82.7688 15.0603 82.8611C15.1175 82.9533 15.1389 83.0633 15.1205 83.1702Z" fill="#E0E0E0"/>
<path d="M11.4325 77.3096C11.4407 77.4177 11.4238 77.5263 11.3831 77.6269L5.7411 74.3828C5.77856 74.2789 5.79533 74.1687 5.79047 74.0583C5.79047 73.6704 5.7411 73.2755 5.7411 72.8665L8.42107 74.418C8.47978 74.4492 8.54502 74.4661 8.61149 74.4674L11.0023 74.6014C11.055 74.5995 11.1076 74.6083 11.1567 74.6274C11.2059 74.6464 11.2507 74.6754 11.2883 74.7123C11.3259 74.7493 11.3556 74.7935 11.3756 74.8424C11.3955 74.8912 11.4053 74.9436 11.4043 74.9963C11.3459 75.7667 11.3554 76.5408 11.4325 77.3096Z" fill="#E0E0E0"/>
<path d="M9.68369 84.7856L8.54117 84.1226L8.32254 84.0027L6.48183 82.9308L5.98109 82.6487L4.09101 81.5485C4.07404 81.5406 4.05944 81.5285 4.04869 81.5132C4.03213 81.4979 4.01996 81.4784 4.01343 81.4568L2.74397 78.6358C2.7187 78.5602 2.7187 78.4785 2.74397 78.403C2.74397 78.403 2.74397 78.3395 2.74397 78.3043L8.38602 81.5555C8.34662 81.6625 8.34662 81.78 8.38602 81.887L9.64842 84.708C9.65498 84.7359 9.66696 84.7623 9.68369 84.7856Z" fill="#E0E0E0"/>
<path d="M41.4558 10.0282C41.271 10.3687 40.9818 10.6406 40.6306 10.804C39.8085 11.1975 39.0185 11.655 38.268 12.1722C37.9436 12.3909 37.5628 12.412 37.4429 12.1722L35.4964 9.18899C35.4721 9.14766 35.4349 9.11545 35.3906 9.09731L33.4582 7.9689C33.8672 7.73617 34.2692 7.51754 34.6712 7.33417L34.8123 7.2566C34.9572 7.16847 35.0899 7.06177 35.2072 6.93923C35.262 6.89041 35.3117 6.83605 35.3553 6.77702C35.3856 6.74526 35.4117 6.7097 35.4329 6.67123L35.4893 6.56544L41.4558 10.0282Z" fill="#EBEBEB"/>
<path d="M31.4487 18.7381C31.4554 19.0303 31.3743 19.3177 31.2159 19.5633C30.5071 20.6414 29.8619 21.7599 29.2835 22.9132C29.2334 23.0071 29.1692 23.0928 29.0931 23.1671L23.0914 19.7043C23.1345 19.6672 23.1725 19.6245 23.2042 19.5774C23.2379 19.5349 23.2686 19.4902 23.2959 19.4434C23.863 18.2764 24.5062 17.1479 25.2212 16.0652C25.26 16.0136 25.291 15.9566 25.3129 15.8959C25.3378 15.8574 25.3546 15.8142 25.3623 15.769C25.3661 15.748 25.3661 15.7265 25.3623 15.7055C25.3623 15.6491 25.3623 15.5927 25.3623 15.5433C25.3794 15.4595 25.3794 15.3732 25.3623 15.2894L31.4487 18.7381Z" fill="#EBEBEB"/>
<path d="M33.4578 7.96913L29.4449 5.64884C29.3938 5.61773 29.3354 5.60069 29.2756 5.59948C29.1885 5.60552 29.1036 5.62928 29.026 5.6693C28.9483 5.70931 28.8797 5.76475 28.8243 5.83221L26.3136 8.48397L24.628 10.2612C24.4908 10.413 24.3895 10.5938 24.3318 10.7902L28.4999 13.1739L30.3335 14.2247C30.3923 14.0429 30.4911 13.8766 30.6227 13.7381L30.6791 13.6817L34.8189 9.30207C34.8853 9.21583 34.9753 9.15064 35.0779 9.11435C35.1805 9.07806 35.2914 9.07222 35.3972 9.09754L33.4578 7.96913Z" fill="#F5F5F5"/>
<path d="M48.5363 3.52589C48.4326 3.479 48.3178 3.4619 48.2049 3.47652L44.3753 3.85736C44.1418 3.88839 43.923 3.98917 43.7476 4.14651L37.7459 0.683713C37.9215 0.521353 38.1434 0.417806 38.3807 0.387501L42.2102 0.0066679C42.3392 -0.0132137 42.4711 0.0116743 42.584 0.0771924L43.6136 0.676658L44.1214 0.972864L45.6659 1.86854L46.477 2.34106C46.6815 2.44685 46.879 2.56674 47.0623 2.67253L48.5363 3.52589Z" fill="#F5F5F5"/>
<path d="M29.0917 23.1743C28.8994 23.3768 28.6556 23.523 28.3865 23.5974L24.7897 24.4649C24.5308 24.5308 24.3005 24.6794 24.1338 24.888L18.118 21.4323C18.2974 21.2103 18.5455 21.054 18.8232 20.988L22.413 20.1276C22.6812 20.0548 22.9249 19.9111 23.1182 19.7115L29.0917 23.1743Z" fill="#E6E6E6"/>
<path d="M26.3636 36.0947C26.3015 36.2876 26.2033 36.4671 26.0745 36.6236L22.4213 41.0597C22.3139 41.1902 22.2347 41.3414 22.1885 41.504L16.1938 38.0412C16.2343 37.8757 16.3114 37.7214 16.4195 37.5898L20.0869 33.1538C20.2098 32.9982 20.303 32.8212 20.3619 32.6319L26.3636 36.0947Z" fill="#E6E6E6"/>
<path d="M18.1759 29.2889L18.2887 29.3594L18.1476 29.2748L17.8796 29.1196L18.1759 29.2889Z" fill="#E0E0E0"/>
<path d="M42.4217 33.0548C41.1019 34.5604 39.3944 35.6752 37.485 36.2778L37.2734 36.3272C37.2242 36.3337 37.1744 36.3337 37.1253 36.3272L36.7868 36.3836C36.656 36.4047 36.5241 36.4188 36.3918 36.4259H36.0251C35.2514 36.4333 34.4935 36.2061 33.8515 35.7743C33.2094 35.3424 32.7132 34.7263 32.4283 34.0069C32.1483 33.3686 31.9698 32.6904 31.8993 31.9969C32.1955 31.8629 32.4988 31.7007 32.8091 31.5314C37.0407 29.0771 40.4894 23.1248 40.4894 18.2233C40.4894 17.8565 40.4894 17.518 40.447 17.1795C41.2937 16.7829 42.2205 16.5874 43.1552 16.6082H43.3245H43.4585C43.5076 16.6014 43.5574 16.6014 43.6066 16.6082C44.272 16.7053 44.9002 16.9752 45.4287 17.391C45.9571 17.8068 46.3672 18.354 46.618 18.9779C48.2048 22.6523 46.343 28.922 42.4217 33.0548Z" fill="#E0E0E0"/>
<path d="M31.448 18.7384L25.4463 15.2827C25.4535 15.2359 25.4535 15.1884 25.4463 15.1416L24.2897 11.1851C24.2521 11.0562 24.2521 10.9192 24.2897 10.7902L28.4577 13.174L30.2914 14.2248C30.2373 14.3639 30.2227 14.5152 30.2491 14.6621L31.4198 18.6115C31.4367 18.6518 31.4463 18.6948 31.448 18.7384Z" fill="#E0E0E0"/>
<path d="M43.7479 4.14638C43.6582 4.22839 43.5883 4.32967 43.5434 4.44259L41.47 10L35.4682 6.5372C35.4682 6.5372 35.4682 6.5372 35.4682 6.49489L37.5417 0.937475C37.5832 0.828569 37.651 0.731645 37.7392 0.655372L43.7479 4.14638Z" fill="#E0E0E0"/>
<path d="M54.8901 7.15109C54.7908 7.12961 54.6876 7.13602 54.5917 7.16963C54.4959 7.20324 54.4112 7.26273 54.3471 7.34151L50.447 10.9101C50.3402 11.0267 50.1972 11.1039 50.0412 11.1295C49.8852 11.1551 49.7251 11.1275 49.5866 11.0512C49.0852 10.6411 48.5207 10.3148 47.9151 10.085C47.7776 10.0316 47.663 9.93203 47.5909 9.80333C47.5188 9.67462 47.4938 9.52483 47.5202 9.3797L48.7262 3.91397C48.7462 3.8397 48.7404 3.76082 48.7096 3.69032C48.6789 3.61981 48.625 3.56188 48.5569 3.52608L47.0618 2.66567C47.1106 2.6556 47.161 2.6556 47.2099 2.66567L47.2945 2.71504L54.8901 7.15109Z" fill="#E0E0E0"/>
<path d="M56.6046 21.3972C56.5306 21.3587 56.4482 21.3393 56.3648 21.3408L53.0854 21.1574C53.0132 21.1593 52.9414 21.1466 52.8743 21.1201C52.8072 21.0935 52.7461 21.0537 52.6947 21.003C52.6433 20.9523 52.6027 20.8917 52.5753 20.8249C52.5479 20.7582 52.5343 20.6865 52.5353 20.6143C52.5776 20.0995 52.6058 19.5847 52.6058 19.0839L56.6046 21.3972Z" fill="#E0E0E0"/>
<path d="M23.2042 19.5918C23.1725 19.639 23.1345 19.6817 23.0914 19.7188L23.2042 19.5918Z" fill="#E0E0E0"/>
<path d="M18.1038 21.4324C18.0303 21.5112 17.975 21.6051 17.9416 21.7075L17.7511 22.4127L16.5734 26.3833L16.1714 27.7445C16.1466 27.8152 16.1466 27.8923 16.1714 27.9631C16.1772 28.0067 16.1942 28.048 16.2207 28.083C16.2455 28.1208 16.2765 28.1542 16.3124 28.1817C16.3309 28.1994 16.3524 28.2138 16.3759 28.224L16.9754 28.5767L17.1446 28.6684L17.6242 28.9434L17.8851 29.0986L18.1813 29.2678L18.2942 29.3383L18.6116 29.5147L20.3606 30.5232L22.3141 31.6516C22.2398 31.6042 22.1835 31.5334 22.1541 31.4503C22.1247 31.3672 22.124 31.2767 22.1519 31.1932L23.7388 25.8544L23.9644 25.1068C23.9914 25.011 24.0424 24.9236 24.1125 24.8529L18.1038 21.4324Z" fill="#E0E0E0"/>
<path d="M43.5787 43.9935L39.5587 41.6591C39.9325 41.4405 40.3274 41.1936 40.7083 40.9539C41.0891 40.7141 41.4135 40.7211 41.5264 40.9539L43.4799 43.9441C43.51 43.9657 43.5434 43.9823 43.5787 43.9935Z" fill="#E0E0E0"/>
<path d="M31.447 43.7113L30.241 49.2123C30.2226 49.2837 30.2285 49.3593 30.2579 49.427C30.2873 49.4948 30.3385 49.5507 30.4033 49.5861C30.1564 49.4521 26.3762 47.2587 24.197 45.9963C24.3564 45.9805 24.5056 45.9108 24.6202 45.7988L28.5202 42.202C28.6257 42.086 28.7669 42.0084 28.9215 41.9816C29.076 41.9547 29.2351 41.9802 29.3736 42.0539C29.8747 42.468 30.4391 42.7989 31.045 43.0342C31.1808 43.082 31.2955 43.176 31.369 43.2998C31.4424 43.4235 31.4701 43.5692 31.447 43.7113Z" fill="#E0E0E0"/>
<path d="M26.4054 35.6573C26.4134 35.8064 26.3894 35.9555 26.3349 36.0946L20.3331 32.6318C20.389 32.4905 20.4154 32.3393 20.4107 32.1875C20.3587 31.646 20.3351 31.1022 20.3402 30.5583L22.2938 31.6867C22.374 31.7314 22.4631 31.7578 22.5547 31.7643L25.8412 31.9477C25.9128 31.9458 25.984 31.9583 26.0506 31.9843C26.1173 32.0104 26.1781 32.0496 26.2293 32.0996C26.2806 32.1495 26.3214 32.2093 26.3492 32.2752C26.377 32.3412 26.3913 32.4121 26.3913 32.4837C26.3 33.5398 26.3047 34.602 26.4054 35.6573Z" fill="#E0E0E0"/>
<path d="M24.0293 45.933L22.4566 45.0232L22.1604 44.8469L19.6285 43.387C19.3887 43.246 19.163 43.1119 18.9233 42.9921L18.0558 42.4772C18.0321 42.4643 18.0106 42.4477 17.9923 42.4279C17.971 42.4054 17.9543 42.3791 17.943 42.3503L16.201 38.4996C16.168 38.3964 16.168 38.2854 16.201 38.1822C16.1981 38.1376 16.1981 38.0928 16.201 38.0482L22.1956 41.511C22.143 41.6617 22.143 41.8258 22.1956 41.9765L23.9306 45.8201C23.9544 45.8648 23.9882 45.9034 24.0293 45.933Z" fill="#E0E0E0"/>
<path d="M272.372 24.7822C273.336 25.8864 274.589 26.6997 275.99 27.1307H276.145H276.25L276.497 27.173H276.786H276.963C276.991 27.1802 277.02 27.1802 277.047 27.173C277.61 27.1753 278.16 27.0093 278.628 26.6964C279.095 26.3834 279.459 25.9379 279.671 25.417C279.874 24.9535 280.003 24.4608 280.052 23.9571C279.84 23.8583 279.615 23.7384 279.396 23.6115C277.767 22.5521 276.411 21.1228 275.439 19.4401C274.467 17.7573 273.907 15.8688 273.803 13.9283C273.803 13.6603 273.803 13.4135 273.803 13.1737C273.187 12.8803 272.511 12.7353 271.829 12.7506H271.709H271.61H271.504C271.02 12.8235 270.563 13.0212 270.179 13.3241C269.794 13.6271 269.495 14.0249 269.311 14.4784C268.161 17.2148 269.515 21.7778 272.372 24.7822Z" fill="#6236FF"/>
<path d="M261.891 16.6576L263.209 21.0866C263.262 21.2096 263.344 21.3184 263.447 21.4042C263.55 21.4899 263.671 21.5503 263.802 21.5803L266.418 22.2079C266.695 22.2794 266.933 22.4566 267.081 22.7016C267.502 23.5426 267.973 24.3575 268.492 25.1418C268.632 25.3483 268.688 25.6008 268.647 25.8471L267.801 28.7245C267.779 28.8521 267.788 28.9832 267.829 29.1062C267.87 29.2292 267.94 29.3403 268.033 29.4298L271.094 32.6528C271.242 32.815 271.419 32.8644 271.531 32.7938C271.56 32.7787 271.584 32.7569 271.602 32.7304L273.012 30.5511C273.111 30.396 273.379 30.4101 273.612 30.5511C273.845 30.6922 274.169 30.9249 274.451 31.0871C274.733 31.2493 275.044 31.4115 275.333 31.5526C275.595 31.6743 275.808 31.8804 275.939 32.1379L277.449 36.1861C277.508 36.3017 277.595 36.4008 277.702 36.4746C277.809 36.5484 277.933 36.5947 278.062 36.6093L280.841 36.8843C280.931 36.8963 281.022 36.879 281.102 36.8349C281.147 36.8088 281.183 36.7684 281.203 36.72C281.224 36.6716 281.228 36.6178 281.215 36.5669L280.333 32.5823C280.316 32.4783 280.336 32.3717 280.389 32.2805C280.441 32.1894 280.524 32.1191 280.622 32.0815C281.063 31.9119 281.475 31.6739 281.842 31.3763C281.943 31.3215 282.058 31.3022 282.171 31.3214C282.284 31.3406 282.386 31.3972 282.463 31.4821L285.284 34.0774C285.366 34.1629 285.476 34.2155 285.594 34.2255C285.627 34.2328 285.66 34.2328 285.693 34.2255C285.729 34.2054 285.757 34.1728 285.771 34.1338L287.033 31.3128C287.064 31.1976 287.066 31.0763 287.037 30.9604C287.009 30.8444 286.952 30.7376 286.871 30.6499L284.212 27.4198C284.045 27.2226 283.952 26.973 283.951 26.7145C284.021 25.9498 284.021 25.1802 283.951 24.4154C283.951 24.3632 283.961 24.3116 283.982 24.2636C284.002 24.2156 284.032 24.1722 284.07 24.136C284.107 24.0998 284.152 24.0715 284.2 24.0529C284.249 24.0342 284.301 24.0256 284.353 24.0275L286.744 23.8935C286.794 23.8965 286.845 23.8874 286.891 23.8669C286.937 23.8465 286.978 23.8153 287.009 23.776C287.041 23.7367 287.063 23.6904 287.073 23.6409C287.084 23.5914 287.082 23.5402 287.068 23.4915L285.749 19.0625C285.696 18.9395 285.615 18.8307 285.512 18.7449C285.409 18.6592 285.288 18.5988 285.157 18.5688L282.548 17.9412C282.271 17.869 282.033 17.6919 281.885 17.4475C281.464 16.6066 280.993 15.7917 280.474 15.0073C280.336 14.7997 280.281 14.5482 280.319 14.302L281.172 11.4175C281.187 11.2949 281.173 11.1706 281.131 11.0543C281.09 10.938 281.022 10.833 280.932 10.7475L277.879 7.51747C277.695 7.32706 277.47 7.29885 277.364 7.454L275.953 9.62619C275.855 9.78135 275.594 9.76724 275.361 9.62619C274.813 9.24689 274.235 8.912 273.633 8.62473C273.371 8.50299 273.158 8.29687 273.027 8.03937L271.517 3.9912C271.459 3.87575 271.374 3.77659 271.268 3.7027C271.162 3.6288 271.039 3.58252 270.911 3.56805L268.132 3.293C268.041 3.28323 267.948 3.29782 267.864 3.33531C267.816 3.36284 267.778 3.40531 267.757 3.45623C267.735 3.50715 267.731 3.56375 267.744 3.61741L268.654 7.60211C268.671 7.70523 268.652 7.8111 268.601 7.90217C268.55 7.99324 268.469 8.06404 268.372 8.10284C267.93 8.27086 267.518 8.50899 267.152 8.80809C267.052 8.86285 266.936 8.88219 266.823 8.86299C266.711 8.8438 266.608 8.78718 266.531 8.7023L263.71 6.10696C263.562 5.97297 263.407 5.9236 263.301 5.98002C263.27 6.00125 263.246 6.03052 263.231 6.06465L261.961 8.88567C261.93 9.00087 261.928 9.12212 261.957 9.23807C261.985 9.35402 262.042 9.46087 262.123 9.54861L264.782 12.7293C264.943 12.9298 265.035 13.1774 265.043 13.4346C265.003 13.8282 264.984 14.2237 264.987 14.6194C264.987 14.9791 264.987 15.3247 265.043 15.7337C265.043 15.7859 265.033 15.8375 265.012 15.8855C264.992 15.9335 264.962 15.9769 264.925 16.0131C264.887 16.0493 264.843 16.0776 264.794 16.0962C264.745 16.1149 264.693 16.1235 264.641 16.1216L262.257 16.2556C262.196 16.258 262.136 16.2724 262.081 16.2979C262.01 16.3236 261.952 16.3746 261.917 16.4411C261.881 16.5075 261.872 16.5847 261.891 16.6576ZM272.364 24.7821C269.543 21.7777 268.132 17.2147 269.345 14.6053C269.525 14.1503 269.822 13.7509 270.206 13.4475C270.59 13.1441 271.047 12.9474 271.531 12.8774H271.637H271.736H271.835C272.514 12.8637 273.187 13.006 273.802 13.2935C274.035 13.3993 274.275 13.5192 274.508 13.6532C275.292 14.1195 276.004 14.6967 276.623 15.367C278.679 17.5063 279.903 20.3105 280.072 23.2729C280.08 23.5439 280.065 23.8151 280.03 24.0839C279.981 24.5876 279.852 25.0804 279.649 25.5438C279.438 26.0661 279.075 26.5131 278.607 26.8273C278.14 27.1416 277.589 27.3086 277.025 27.3069H276.771H276.482L276.235 27.2646H276.13L275.975 27.2223C274.568 26.7602 273.317 25.9152 272.364 24.7821Z" fill="#F5F5F5"/>
<path d="M273.076 8.02539C273.205 8.27466 273.413 8.47341 273.669 8.58959C274.27 8.87686 274.848 9.21175 275.397 9.59105C275.629 9.74621 275.89 9.76031 275.989 9.59105L277.4 7.41887C277.415 7.38881 277.44 7.36423 277.47 7.34834L280.143 5.80383C279.847 5.63457 279.551 5.47236 279.261 5.33836C279.224 5.32386 279.188 5.30492 279.156 5.28194C279.05 5.21621 278.953 5.13808 278.866 5.04921L278.761 4.93637C278.739 4.90985 278.721 4.88153 278.704 4.85174L278.662 4.77416L273.076 8.02539Z" fill="#EBEBEB"/>
<path d="M280.362 14.3658C280.352 14.5777 280.409 14.7873 280.524 14.9653C281.042 15.7497 281.513 16.5646 281.934 17.4055C281.968 17.4758 282.016 17.5383 282.075 17.5888L287.718 14.3376C287.686 14.3123 287.66 14.2811 287.64 14.2459C287.612 14.2189 287.588 14.188 287.569 14.1542C287.151 13.3095 286.68 12.4922 286.159 11.707C286.134 11.6694 286.112 11.6292 286.095 11.5871C286.078 11.5592 286.066 11.528 286.06 11.4954C286.06 11.4954 286.06 11.4954 286.06 11.4461C286.06 11.3967 286.06 11.4461 286.06 11.4461C286.057 11.4061 286.057 11.3661 286.06 11.3262C286.043 11.2663 286.043 11.2027 286.06 11.1428L280.362 14.3658Z" fill="#EBEBEB"/>
<path d="M280.178 5.80407L283.097 4.11146C283.139 4.10039 283.183 4.10039 283.224 4.11146C283.287 4.11588 283.348 4.1332 283.404 4.16232C283.46 4.19144 283.509 4.23174 283.549 4.28072L285.375 6.19196L286.603 7.48258C286.705 7.59309 286.779 7.72591 286.821 7.87047L282.526 10.3318L281.193 11.0935C281.152 10.9608 281.079 10.8399 280.982 10.7409L280.946 10.6985L277.928 7.51079C277.879 7.44759 277.814 7.39991 277.738 7.3736C277.663 7.34729 277.582 7.3435 277.505 7.36269L280.178 5.80407Z" fill="#F5F5F5"/>
<path d="M267.921 3.29319C268 3.27404 268.082 3.27404 268.161 3.29319L270.947 3.56824C271.119 3.58671 271.28 3.66104 271.405 3.77982L277.047 0.535641C276.921 0.411963 276.757 0.334844 276.582 0.317008L273.796 0.0419591C273.701 0.0267936 273.604 0.0441989 273.521 0.0913268L272.773 0.528587L272.407 0.740161L270.023 2.15067L269.43 2.49625L269.014 2.66551L267.921 3.29319Z" fill="#F5F5F5"/>
<path d="M282.076 17.5957C282.219 17.7435 282.399 17.8506 282.598 17.906L285.214 18.5337C285.401 18.5837 285.568 18.6894 285.694 18.8369L291.336 15.5998C291.207 15.4419 291.032 15.3284 290.835 15.2754L288.226 14.6477C288.029 14.5971 287.85 14.492 287.711 14.3444L282.076 17.5957Z" fill="#E6E6E6"/>
<path d="M284.056 26.9968C284.103 27.1379 284.174 27.2694 284.268 27.3847L286.927 30.6147C287.006 30.7092 287.064 30.82 287.096 30.9392L292.738 27.6879C292.708 27.566 292.65 27.4526 292.569 27.3565L289.903 24.1264C289.814 24.0155 289.747 23.8887 289.706 23.7526L284.056 26.9968Z" fill="#E6E6E6"/>
<path d="M291.272 21.3194L291.194 21.3687L291.293 21.3123L291.49 21.1995L291.272 21.3194Z" fill="#E0E0E0"/>
<path d="M272.372 24.7822C273.336 25.8864 274.589 26.6997 275.99 27.1307H276.145H276.25L276.497 27.173H276.786H276.963C276.991 27.1802 277.02 27.1802 277.047 27.173C277.61 27.1753 278.16 27.0093 278.628 26.6964C279.095 26.3834 279.459 25.9379 279.671 25.417C279.874 24.9535 280.003 24.4608 280.052 23.9571C279.84 23.8583 279.615 23.7384 279.396 23.6115C277.767 22.5521 276.411 21.1228 275.439 19.4401C274.467 17.7573 273.907 15.8688 273.803 13.9283C273.803 13.6603 273.803 13.4135 273.803 13.1737C273.187 12.8803 272.511 12.7353 271.829 12.7506H271.709H271.61H271.504C271.02 12.8235 270.563 13.0212 270.179 13.3241C269.794 13.6271 269.495 14.0249 269.311 14.4784C268.161 17.2148 269.515 21.7778 272.372 24.7822Z" fill="#E0E0E0"/>
<path d="M280.361 14.3657L286.003 11.1215C285.995 11.089 285.995 11.0553 286.003 11.0228L286.856 8.13827C286.883 8.04624 286.883 7.9482 286.856 7.85616L282.561 10.3175L281.228 11.0792C281.258 11.1828 281.258 11.2929 281.228 11.3965L280.382 14.274C280.367 14.3023 280.36 14.3338 280.361 14.3657Z" fill="#E0E0E0"/>
<path d="M271.404 3.74474C271.469 3.8032 271.519 3.87553 271.552 3.95632L273.062 8.00448L278.704 4.75325L277.194 0.705088C277.165 0.626286 277.116 0.556007 277.053 0.500564L271.404 3.74474Z" fill="#E0E0E0"/>
<path d="M263.294 5.93082C263.365 5.91783 263.439 5.92332 263.508 5.94676C263.577 5.9702 263.639 6.01083 263.689 6.06482L266.51 8.66721C266.585 8.75319 266.688 8.81059 266.801 8.82984C266.914 8.84909 267.03 8.82903 267.13 8.773C267.496 8.4739 267.908 8.23576 268.35 8.06775C268.448 8.03006 268.53 7.95946 268.581 7.86808C268.633 7.7767 268.651 7.67025 268.632 7.56701L267.758 3.58232C267.744 3.52866 267.749 3.47205 267.77 3.42113C267.792 3.37021 267.83 3.32775 267.878 3.30022L269.013 2.66549C268.978 2.65826 268.942 2.65826 268.907 2.66549C268.886 2.6618 268.865 2.6618 268.844 2.66549L263.294 5.93082Z" fill="#E0E0E0"/>
<path d="M262.045 16.2979C262.1 16.2714 262.161 16.257 262.222 16.2556L264.612 16.1216C264.664 16.1235 264.716 16.1149 264.764 16.0961C264.813 16.0774 264.857 16.049 264.894 16.0127C264.93 15.9764 264.96 15.9329 264.979 15.885C264.999 15.837 265.008 15.7855 265.007 15.7337C265.007 15.3529 264.958 14.9791 264.958 14.6194L262.045 16.2979Z" fill="#E0E0E0"/>
<path d="M287.618 14.2526C287.637 14.2879 287.664 14.319 287.695 14.3443L287.618 14.2526Z" fill="#E0E0E0"/>
<path d="M291.328 15.6C291.371 15.6516 291.402 15.7117 291.42 15.7763L291.582 16.3194L292.442 19.2109L292.739 20.2053C292.753 20.2585 292.753 20.3144 292.739 20.3675C292.733 20.3979 292.721 20.4268 292.703 20.4522C292.686 20.4789 292.665 20.5027 292.64 20.5227H292.591L292.153 20.7836L292.026 20.8471L291.681 21.0516L291.49 21.1645L291.272 21.2844L291.194 21.3337L290.961 21.4607L289.692 22.1659L287.012 23.7175C287.067 23.6828 287.109 23.6306 287.131 23.5691C287.153 23.5077 287.153 23.4407 287.132 23.379L285.94 19.5918L285.778 19.0487C285.756 18.9784 285.72 18.9135 285.672 18.8583L291.328 15.6Z" fill="#E0E0E0"/>
<path d="M271.525 32.7515L274.452 31.0518C274.184 30.8896 273.895 30.7133 273.62 30.5229C273.345 30.3325 273.126 30.3536 273.027 30.5229L271.617 32.7021C271.591 32.7265 271.56 32.7435 271.525 32.7515Z" fill="#E0E0E0"/>
<path d="M280.36 32.54L281.235 36.5318C281.247 36.5834 281.242 36.6378 281.221 36.6863C281.199 36.7348 281.162 36.7747 281.115 36.7998C281.291 36.7011 284.049 35.1142 285.636 34.1903C285.518 34.1804 285.407 34.1277 285.325 34.0422L282.504 31.4469C282.429 31.3598 282.326 31.3016 282.213 31.2822C282.1 31.2629 281.983 31.2838 281.884 31.3411C281.517 31.6387 281.105 31.8767 280.664 32.0464C280.562 32.0788 280.476 32.1464 280.42 32.237C280.365 32.3276 280.344 32.4351 280.36 32.54Z" fill="#E0E0E0"/>
<path d="M284.007 26.6796C284.001 26.7877 284.018 26.8959 284.056 26.997L289.698 23.7528C289.658 23.6496 289.639 23.5392 289.642 23.4284C289.68 23.0347 289.696 22.6391 289.691 22.2436L287.011 23.7951C286.953 23.8263 286.887 23.8432 286.821 23.8445L284.43 23.9856C284.378 23.9837 284.326 23.9923 284.277 24.0109C284.229 24.0296 284.184 24.0579 284.147 24.0941C284.109 24.1303 284.079 24.1737 284.059 24.2217C284.039 24.2697 284.028 24.3213 284.028 24.3735C284.088 25.1413 284.081 25.913 284.007 26.6796Z" fill="#E0E0E0"/>
<path d="M285.756 34.1553L286.898 33.4994L287.117 33.3725L288.965 32.3075L289.459 32.0184L291.356 30.9182C291.369 30.9225 291.384 30.9225 291.398 30.9182L291.44 30.8617L292.703 28.0407C292.725 27.9648 292.725 27.8839 292.703 27.808V27.7093L287.061 30.9605C287.1 31.0699 287.1 31.1896 287.061 31.299L285.798 34.12C285.786 34.134 285.772 34.1459 285.756 34.1553Z" fill="#E0E0E0"/>
<path d="M283.337 53.7261L285.149 59.8125C285.219 59.986 285.328 60.1404 285.469 60.263C285.61 60.3857 285.779 60.473 285.96 60.5178L289.55 61.3852C289.936 61.4906 290.266 61.744 290.467 62.0905C291.039 63.2457 291.682 64.3645 292.392 65.4404C292.58 65.7201 292.657 66.0591 292.611 66.3925L291.44 70.349C291.42 70.5165 291.439 70.6863 291.495 70.8452C291.552 71.0042 291.644 71.1481 291.764 71.2659L295.961 75.7019C296.165 75.9205 296.412 75.9911 296.574 75.8923C296.611 75.8693 296.643 75.8379 296.666 75.8006L298.626 72.8104C298.76 72.5988 299.127 72.6129 299.445 72.8104C299.762 73.0078 300.213 73.3182 300.594 73.5156C300.975 73.7131 301.405 73.967 301.807 74.1504C302.166 74.3242 302.46 74.6084 302.646 74.9614L304.72 80.5188C304.798 80.6798 304.917 80.8181 305.063 80.9205C305.21 81.023 305.381 81.0862 305.559 81.1042L309.382 81.485C309.505 81.4995 309.63 81.4775 309.741 81.4215C309.806 81.3862 309.857 81.3302 309.887 81.2625C309.916 81.1948 309.922 81.1192 309.903 81.0477L308.697 75.575C308.667 75.4295 308.69 75.2778 308.762 75.1481C308.835 75.0184 308.952 74.9195 309.092 74.8697C309.697 74.6341 310.261 74.3058 310.764 73.8965C310.902 73.8219 311.06 73.7953 311.215 73.8208C311.369 73.8463 311.511 73.9226 311.617 74.0375L315.524 77.6132C315.638 77.7277 315.787 77.7999 315.948 77.8177C315.994 77.817 316.04 77.8049 316.082 77.7824C316.131 77.7572 316.168 77.7144 316.187 77.6625L317.929 73.8189C317.968 73.6603 317.968 73.4946 317.929 73.3362C317.889 73.1777 317.812 73.0312 317.704 72.9091L314.043 68.473C313.818 68.1986 313.693 67.855 313.691 67.4998C313.786 66.4488 313.786 65.3913 313.691 64.3402C313.691 64.2687 313.705 64.1978 313.733 64.1318C313.761 64.0659 313.801 64.0061 313.853 63.9562C313.904 63.9062 313.965 63.867 314.031 63.8409C314.098 63.8148 314.169 63.8024 314.241 63.8043L317.52 63.6209C317.59 63.6272 317.66 63.6163 317.725 63.5892C317.79 63.5621 317.847 63.5196 317.892 63.4653C317.936 63.4111 317.967 63.3468 317.981 63.278C317.995 63.2092 317.991 63.1381 317.972 63.0708L316.18 56.9703C316.107 56.8031 315.995 56.6554 315.854 56.5391C315.713 56.4228 315.547 56.341 315.369 56.3003L311.779 55.4329C311.393 55.3268 311.064 55.0736 310.863 54.7276C310.289 53.573 309.646 52.4543 308.937 51.3777C308.747 51.0994 308.668 50.7592 308.719 50.4256L309.889 46.4691C309.91 46.3016 309.891 46.1316 309.835 45.9726C309.778 45.8135 309.686 45.6697 309.565 45.5522L305.369 41.1162C305.115 40.8552 304.797 40.8059 304.663 41.0175L302.703 44.0077C302.569 44.2193 302.209 44.2052 301.885 44.0077C301.131 43.4897 300.339 43.03 299.515 42.6325C299.156 42.4648 298.863 42.1818 298.683 41.8285L296.609 36.2711C296.532 36.111 296.414 35.9733 296.269 35.871C296.123 35.7686 295.954 35.7048 295.777 35.6857L291.948 35.3049C291.824 35.2941 291.7 35.316 291.588 35.3684C291.522 35.406 291.469 35.4641 291.439 35.5341C291.408 35.604 291.401 35.682 291.419 35.7562L292.625 41.229C292.654 41.3735 292.632 41.5238 292.561 41.6531C292.49 41.7823 292.375 41.882 292.237 41.9343C291.63 42.1651 291.066 42.4938 290.565 42.9075C290.426 42.983 290.266 43.0095 290.11 42.9826C289.953 42.9558 289.811 42.8771 289.705 42.7594L285.798 39.1908C285.733 39.1097 285.645 39.0501 285.546 39.0199C285.446 38.9897 285.34 38.9903 285.241 39.0216C285.197 39.0529 285.161 39.0939 285.135 39.1415L283.4 42.9922C283.358 43.1501 283.357 43.3158 283.395 43.4746C283.433 43.6334 283.51 43.7802 283.619 43.9019L287.279 48.3309C287.508 48.6036 287.636 48.9478 287.639 49.3042C287.589 49.8331 287.568 50.3762 287.568 50.9333C287.568 51.4905 287.603 51.9419 287.646 52.4637C287.647 52.5353 287.633 52.6063 287.605 52.6724C287.578 52.7385 287.537 52.7981 287.486 52.8478C287.434 52.8974 287.373 52.9358 287.306 52.9608C287.238 52.9857 287.167 52.9966 287.096 52.9927L283.816 53.1831C283.733 53.1817 283.65 53.201 283.576 53.2395C283.484 53.2773 283.408 53.3477 283.364 53.4374C283.32 53.527 283.31 53.6297 283.337 53.7261ZM297.724 64.8903C293.81 60.7575 291.948 54.4949 293.57 50.9051C293.819 50.2808 294.228 49.7329 294.755 49.3158C295.282 48.8988 295.909 48.6273 296.574 48.5284H296.722H296.863H297.033C297.967 48.5076 298.894 48.7031 299.741 49.0997C300.072 49.246 300.394 49.4108 300.707 49.5933C301.777 50.235 302.751 51.0257 303.599 51.9419C306.539 55.045 308.324 59.34 308.345 62.8098C308.349 63.1823 308.328 63.5546 308.281 63.9241C308.213 64.615 308.037 65.2908 307.76 65.9271C307.474 66.6476 306.977 67.2646 306.333 67.6965C305.69 68.1284 304.931 68.3549 304.156 68.3461H303.796L303.401 68.3108L303.063 68.2544L302.907 68.2191L302.696 68.1627C300.769 67.5505 299.048 66.4181 297.724 64.8903Z" fill="#F5F5F5"/>
<path d="M298.697 41.8633C298.879 42.2032 299.166 42.4753 299.515 42.6391C300.341 43.0334 301.133 43.4933 301.885 44.0144C302.202 44.233 302.59 44.2471 302.703 44.0144L304.657 41.0241C304.682 40.9865 304.716 40.9552 304.756 40.9324H304.791L306.73 39.804C306.321 39.5642 305.912 39.3526 305.517 39.1693L305.369 39.0846C305.225 38.995 305.093 38.8885 304.974 38.7673C304.923 38.719 304.876 38.6671 304.833 38.6121C304.802 38.5785 304.776 38.5405 304.756 38.4993L304.699 38.3935L298.697 41.8633Z" fill="#EBEBEB"/>
<path d="M308.705 50.5733C308.699 50.8676 308.78 51.1571 308.938 51.4055C309.645 52.4819 310.291 53.5981 310.87 54.7484C310.919 54.8434 310.983 54.9293 311.061 55.0023L317.062 51.5395C317.019 51.5024 316.981 51.4597 316.949 51.4126C316.914 51.3738 316.884 51.3312 316.858 51.2856C316.286 50.1279 315.643 49.0067 314.932 47.9286C314.892 47.8753 314.861 47.8157 314.841 47.7523C314.814 47.7173 314.797 47.676 314.791 47.6324C314.787 47.6091 314.787 47.5852 314.791 47.5619C314.791 47.5619 314.791 47.449 314.756 47.3997C314.739 47.3159 314.739 47.2296 314.756 47.1458L308.705 50.5733Z" fill="#EBEBEB"/>
<path d="M306.731 39.8111L310.744 37.4837C310.795 37.4526 310.853 37.4356 310.913 37.4344C310.999 37.4422 311.083 37.4675 311.16 37.5087C311.236 37.5499 311.303 37.6062 311.357 37.6741L313.868 40.3259L315.553 42.1031C315.691 42.2523 315.792 42.4308 315.85 42.625L311.675 45.0158L309.848 46.0667C309.788 45.8854 309.689 45.7193 309.559 45.5801L309.502 45.5236L305.363 41.144C305.298 41.0556 305.208 40.9888 305.105 40.9523C305.002 40.9158 304.89 40.9113 304.784 40.9395L306.731 39.8111Z" fill="#F5F5F5"/>
<path d="M291.616 35.3614C291.721 35.3185 291.835 35.3016 291.948 35.312L295.77 35.6999C296.008 35.7233 296.231 35.8251 296.405 35.989L302.407 32.5262C302.233 32.3593 302.011 32.2529 301.772 32.223L297.942 31.8421C297.813 31.825 297.682 31.8497 297.569 31.9127L296.532 32.5121L296.031 32.8083L294.48 33.7111L293.676 34.1765C293.471 34.2894 293.274 34.4093 293.083 34.508L291.616 35.3614Z" fill="#F5F5F5"/>
<path d="M311.061 55.0096C311.254 55.2118 311.497 55.36 311.766 55.4398L315.356 56.3003C315.614 56.3706 315.846 56.5182 316.018 56.7234L322.034 53.2677C321.853 53.0494 321.605 52.896 321.329 52.8304L317.739 51.9629C317.471 51.8902 317.227 51.7465 317.034 51.5468L311.061 55.0096Z" fill="#E6E6E6"/>
<path d="M313.784 67.9295C313.85 68.1229 313.948 68.304 314.073 68.4655L317.733 72.9016C317.841 73.032 317.92 73.1833 317.966 73.3459L323.96 69.8831C323.919 69.7145 323.839 69.5577 323.728 69.4247L320.067 64.9886C319.942 64.8336 319.846 64.6566 319.785 64.4667L313.784 67.9295Z" fill="#E6E6E6"/>
<path d="M321.971 61.124L321.865 61.1946L322.006 61.117L322.274 60.9618L321.971 61.124Z" fill="#E0E0E0"/>
<path d="M297.725 64.8904C299.056 66.4051 300.779 67.5229 302.705 68.1205L302.909 68.1698L303.057 68.2051L303.403 68.2615L303.798 68.2968H304.045C304.082 68.3038 304.12 68.3038 304.157 68.2968C304.932 68.3056 305.692 68.0791 306.335 67.6471C306.979 67.2152 307.476 66.5983 307.761 65.8778C308.04 65.2416 308.219 64.5659 308.29 63.8748C307.994 63.7338 307.691 63.5786 307.38 63.4023C303.149 60.948 299.7 55.0027 299.7 50.1012C299.7 49.7274 299.7 49.3959 299.742 49.0574C298.895 48.6556 297.965 48.4576 297.027 48.4791H296.865H296.724H296.576C295.911 48.578 295.284 48.8495 294.756 49.2665C294.229 49.6835 293.821 50.2315 293.571 50.8558C291.949 54.4949 293.811 60.7576 297.725 64.8904Z" fill="#E0E0E0"/>
<path d="M308.705 50.5733L314.7 47.1176C314.689 47.0712 314.689 47.0229 314.7 46.9765L315.87 43.02C315.911 42.8916 315.911 42.7535 315.87 42.6251L311.695 45.0159L309.869 46.0667C309.913 46.2066 309.913 46.357 309.869 46.4969L308.705 50.4534C308.697 50.493 308.697 50.5337 308.705 50.5733Z" fill="#E0E0E0"/>
<path d="M296.406 35.9888C296.495 36.0687 296.565 36.1675 296.611 36.2779L298.684 41.8424L304.686 38.3796L302.612 32.8151C302.57 32.7088 302.502 32.6143 302.415 32.5401L296.406 35.9888Z" fill="#E0E0E0"/>
<path d="M285.234 38.9934C285.332 38.9709 285.434 38.9761 285.529 39.0085C285.623 39.0409 285.707 39.0992 285.77 39.1768L289.677 42.7454C289.784 42.8619 289.927 42.9392 290.083 42.9648C290.239 42.9904 290.399 42.9628 290.538 42.8864C291.04 42.4804 291.601 42.1545 292.202 41.9202C292.342 41.8705 292.46 41.7715 292.532 41.6418C292.605 41.5121 292.628 41.3604 292.597 41.215L291.398 35.7422C291.378 35.6687 291.382 35.5904 291.412 35.52C291.441 35.4496 291.494 35.3912 291.561 35.3543L293.027 34.5009C292.981 34.4903 292.933 34.4903 292.886 34.5009L292.802 34.5573L285.234 38.9934Z" fill="#E0E0E0"/>
<path d="M283.549 53.232C283.624 53.1968 283.705 53.1776 283.788 53.1756L287.068 52.9923C287.211 52.9923 287.349 52.9363 287.452 52.8362C287.555 52.736 287.614 52.5997 287.618 52.4563C287.576 51.9344 287.54 51.4195 287.54 50.9188L283.549 53.232Z" fill="#E0E0E0"/>
<path d="M316.972 51.4199C317.003 51.467 317.041 51.5097 317.084 51.5468L316.972 51.4199Z" fill="#E0E0E0"/>
<path d="M322.049 53.2678C322.108 53.3381 322.151 53.4198 322.176 53.5076L322.402 54.2622L323.58 58.2328L323.982 59.5939C324.006 59.6671 324.006 59.7464 323.982 59.8196C323.973 59.86 323.956 59.8983 323.932 59.9325C323.912 59.9732 323.88 60.0074 323.841 60.0312L323.777 60.0735L323.171 60.4261L323.008 60.5249L322.522 60.807L322.268 60.9621L321.965 61.1243L321.859 61.1949L321.542 61.3712L319.793 62.3797L317.839 63.5152C317.915 63.4688 317.972 63.3984 318.003 63.3153C318.034 63.2321 318.036 63.1411 318.008 63.0567L316.421 57.7109L316.196 56.9633C316.167 56.8682 316.116 56.7812 316.048 56.7094L322.049 53.2678Z" fill="#E0E0E0"/>
<path d="M296.568 75.8355L300.595 73.5011C300.214 73.2754 299.826 73.0286 299.446 72.7958C299.065 72.5631 298.74 72.5631 298.627 72.7958L296.667 75.7861C296.637 75.8088 296.604 75.8255 296.568 75.8355Z" fill="#E0E0E0"/>
<path d="M308.705 75.5535L309.911 81.0333C309.928 81.1038 309.921 81.1778 309.891 81.244C309.862 81.3102 309.812 81.365 309.749 81.4001C309.988 81.2661 313.776 79.0798 315.955 77.8103C315.793 77.796 315.641 77.7263 315.525 77.6128L311.625 74.0442C311.519 73.9282 311.378 73.8506 311.223 73.8238C311.069 73.7969 310.91 73.8224 310.771 73.8961C310.267 74.307 309.7 74.6355 309.093 74.8694C308.958 74.9199 308.846 75.0161 308.775 75.1411C308.704 75.2662 308.679 75.4121 308.705 75.5535Z" fill="#E0E0E0"/>
<path d="M313.72 67.4927C313.709 67.6413 313.73 67.7907 313.784 67.9299L319.785 64.4671C319.73 64.3258 319.706 64.1743 319.715 64.0228C319.765 63.4813 319.786 62.9375 319.778 62.3937L317.825 63.5291C317.746 63.577 317.656 63.6037 317.564 63.6067L314.277 63.7901C314.206 63.7872 314.134 63.799 314.067 63.8247C314 63.8505 313.939 63.8896 313.887 63.9398C313.836 63.9899 313.795 64.05 313.767 64.1165C313.74 64.1829 313.726 64.2542 313.727 64.3261C313.821 65.3797 313.818 66.4395 313.72 67.4927Z" fill="#E0E0E0"/>
<path d="M316.118 77.7682C316.245 77.6977 316.866 77.3451 317.698 76.8585L317.994 76.6892L320.526 75.2223L321.231 74.8273L322.106 74.3195C322.131 74.3089 322.153 74.2919 322.169 74.2702C322.188 74.2484 322.204 74.2247 322.218 74.1996L323.953 70.3701C323.987 70.2646 323.987 70.1512 323.953 70.0457V69.9187L317.959 73.3815C318.011 73.5322 318.011 73.6963 317.959 73.847L316.217 77.6836C316.193 77.7215 316.159 77.7511 316.118 77.7682Z" fill="#E0E0E0"/>
</g>
<path d="M199.009 10.8673V174.889C199.059 175.806 199.324 176.698 199.782 177.494C200.24 178.29 200.879 178.968 201.646 179.473L274.379 221.457C275.832 222.303 277.017 221.612 277.017 219.926V55.9119C276.966 54.9948 276.701 54.1024 276.243 53.3063C275.785 52.5101 275.147 51.8325 274.379 51.3278L201.646 9.34392C200.193 8.49761 199.009 9.18171 199.009 10.8673ZM202.81 30.4452C202.81 29.0347 203.825 28.414 205.081 29.1404L271.206 67.3089C271.866 67.741 272.416 68.3223 272.81 69.0058C273.205 69.6894 273.433 70.4562 273.476 71.2442V199.721C273.476 201.173 272.454 201.752 271.206 201.032L205.081 162.857C203.825 162.152 202.81 161.214 202.81 159.775V30.4452Z" fill="#6236FF"/>
<path opacity="0.5" d="M199.009 10.8673V174.889C199.059 175.806 199.324 176.698 199.782 177.494C200.24 178.29 200.879 178.968 201.646 179.473L274.379 221.457C275.832 222.303 277.017 221.612 277.017 219.926V55.9119C276.966 54.9948 276.701 54.1024 276.243 53.3063C275.785 52.5101 275.147 51.8325 274.379 51.3278L201.646 9.34392C200.193 8.49761 199.009 9.18171 199.009 10.8673ZM202.81 30.4452C202.81 29.0347 203.825 28.414 205.081 29.1404L271.206 67.3089C271.866 67.741 272.416 68.3223 272.81 69.0058C273.205 69.6894 273.433 70.4562 273.476 71.2442V199.721C273.476 201.173 272.454 201.752 271.206 201.032L205.081 162.857C203.825 162.152 202.81 161.214 202.81 159.775V30.4452Z" fill="black"/>
<path d="M274.704 221.619C275.489 221.95 276.337 222.108 277.19 222.08C278.042 222.052 278.878 221.839 279.64 221.457L282.666 219.708C283.439 219.207 284.082 218.531 284.543 217.734C285.004 216.937 285.269 216.043 285.318 215.123V51.1163C285.303 50.4334 285.147 49.761 284.859 49.1415C284.767 48.9246 284.664 48.7127 284.549 48.5068L276.227 53.3096C276.402 53.6228 276.556 53.9481 276.685 54.2829C276.883 54.8063 276.99 55.3596 277.003 55.9191V219.933C277.017 221.485 276.008 222.19 274.704 221.619Z" fill="#6236FF"/>
<path opacity="0.7" d="M274.704 221.619C275.489 221.95 276.337 222.108 277.19 222.08C278.042 222.052 278.878 221.839 279.64 221.457L282.666 219.708C283.439 219.207 284.082 218.531 284.543 217.734C285.004 216.937 285.269 216.043 285.318 215.123V51.1163C285.303 50.4334 285.147 49.761 284.859 49.1415C284.767 48.9246 284.664 48.7127 284.549 48.5068L276.227 53.3096C276.402 53.6228 276.556 53.9481 276.685 54.2829C276.883 54.8063 276.99 55.3596 277.003 55.9191V219.933C277.017 221.485 276.008 222.19 274.704 221.619Z" fill="black"/>
<path d="M237.382 186.032C235.076 184.706 233.207 185.785 233.207 188.444C233.285 189.893 233.704 191.304 234.429 192.561C235.155 193.818 236.166 194.887 237.382 195.68C239.688 197.006 241.557 195.927 241.557 193.268C241.479 191.818 241.06 190.408 240.335 189.151C239.61 187.893 238.598 186.825 237.382 186.032Z" stroke="#E6E6E6" stroke-miterlimit="10"/>
<path d="M237.982 33.873C237.008 33.3088 236.211 33.7672 236.211 34.8956C236.246 35.5107 236.424 36.1091 236.732 36.643C237.039 37.177 237.467 37.6316 237.982 37.9705C238.962 38.5347 239.759 38.0763 239.759 36.9408C239.725 36.3257 239.546 35.7272 239.237 35.1942C238.929 34.6611 238.498 34.2084 237.982 33.873Z" fill="black"/>
<path d="M244.857 44.6561L231.168 36.7502C230.35 36.2847 229.687 36.6162 229.687 37.4978C229.723 37.9956 229.876 38.4779 230.133 38.9056C230.39 39.3333 230.745 39.6942 231.168 39.9591L244.857 47.858C245.675 48.3305 246.338 47.999 246.338 47.1104C246.301 46.6138 246.148 46.1329 245.89 45.7065C245.633 45.2802 245.279 44.9203 244.857 44.6561Z" fill="black"/>
<path d="M202.81 159.775C202.81 161.186 203.825 162.138 205.081 162.857L271.206 201.032C272.454 201.738 273.476 201.174 273.476 199.721V71.2443C273.433 70.4563 273.205 69.6896 272.81 69.006C272.416 68.3224 271.866 67.7411 271.206 67.309L205.081 29.1406C203.825 28.4353 202.81 28.9995 202.81 30.4453V159.775Z" fill="#6236FF"/>
<path opacity="0.5" d="M202.81 159.775C202.81 161.186 203.825 162.138 205.081 162.857L271.206 201.032C272.454 201.738 273.476 201.174 273.476 199.721V71.2443C273.433 70.4563 273.205 69.6896 272.81 69.006C272.416 68.3224 271.866 67.7411 271.206 67.309L205.081 29.1406C203.825 28.4353 202.81 28.9995 202.81 30.4453V159.775Z" fill="white"/>
<path d="M207.233 40.1637V38.9578C207.233 38.6968 207.338 38.5417 207.465 38.6122L207.529 38.6545C207.609 38.7311 207.672 38.8246 207.712 38.9282C207.753 39.0318 207.769 39.1431 207.762 39.254V40.46C207.762 40.7209 207.656 40.8761 207.529 40.7985H207.465C207.381 40.7174 207.316 40.6181 207.275 40.5081C207.235 40.3981 207.22 40.2803 207.233 40.1637Z" fill="#455A64"/>
<path d="M208.283 40.7491V38.6334C208.283 38.3724 208.382 38.2173 208.509 38.2948H208.572C208.653 38.3731 208.715 38.4678 208.755 38.5726C208.796 38.6773 208.813 38.7894 208.805 38.9014V40.9819C208.805 41.2428 208.699 41.3909 208.572 41.3204L208.509 41.2851C208.368 41.1421 208.287 40.9501 208.283 40.7491Z" fill="#455A64"/>
<path d="M209.327 41.3698V38.4077C209.327 38.1467 209.433 37.9986 209.559 38.0692L209.623 38.1044C209.703 38.183 209.765 38.2778 209.805 38.3824C209.845 38.487 209.863 38.5991 209.856 38.711V41.673C209.856 41.934 209.75 42.0821 209.623 42.0115H209.559C209.475 41.9291 209.41 41.8285 209.369 41.7174C209.329 41.6062 209.315 41.4874 209.327 41.3698Z" fill="#455A64"/>
<path d="M210.378 41.9691V36.8631C210.378 36.6021 210.477 36.447 210.603 36.5246H210.667C210.747 36.6031 210.809 36.6979 210.849 36.8025C210.889 36.9072 210.907 37.0192 210.9 37.1311V42.2371C210.9 42.4981 210.794 42.6532 210.667 42.5756H210.603C210.524 42.497 210.463 42.402 210.424 42.2973C210.385 42.1925 210.369 42.0805 210.378 41.9691Z" fill="#455A64"/>
<path d="M213.212 43.958C213.187 43.8976 213.175 43.8328 213.176 43.7676V43.02L212.006 42.3148C211.976 42.2988 211.95 42.2768 211.929 42.25C211.908 42.2233 211.894 42.1925 211.886 42.1596V41.8916C211.88 41.8471 211.88 41.8021 211.886 41.7576C211.895 41.724 211.907 41.691 211.921 41.6589L213.169 39.6912C213.169 39.6912 213.212 39.6348 213.233 39.6278C213.254 39.6207 213.275 39.6278 213.31 39.6278L213.472 39.7265C213.523 39.7514 213.564 39.794 213.585 39.8464C213.598 39.9116 213.598 39.9786 213.585 40.0439V42.6674L213.846 42.8155C213.892 42.8419 213.929 42.8812 213.952 42.9283C213.964 42.996 213.964 43.0653 213.952 43.1329V43.3092C213.967 43.3598 213.967 43.4137 213.952 43.4644C213.952 43.4644 213.896 43.4644 213.846 43.4644L213.585 43.3162V44.0638C213.6 44.1145 213.6 44.1683 213.585 44.219C213.585 44.219 213.529 44.219 213.472 44.219L213.275 44.1061C213.238 44.065 213.216 44.013 213.212 43.958ZM213.254 42.4276V40.5587L212.4 41.9692L213.254 42.4276Z" fill="#455A64"/>
<path d="M214.603 44.3105C214.36 43.6957 214.243 43.0388 214.257 42.3781C214.205 41.8441 214.326 41.3074 214.603 40.8477C214.838 40.5797 215.162 40.5656 215.576 40.8054C215.923 41.0023 216.211 41.29 216.408 41.6376C216.418 41.6721 216.418 41.7089 216.408 41.7434C216.411 41.7668 216.411 41.7904 216.408 41.8139L216.302 42.0819C216.302 42.0819 216.302 42.1242 216.26 42.1171C216.239 42.1001 216.222 42.0784 216.211 42.0537C216.061 41.811 215.856 41.6078 215.611 41.4613C215.329 41.299 215.103 41.3061 214.948 41.4965C214.75 41.8452 214.666 42.2473 214.708 42.6461C214.694 43.1269 214.773 43.606 214.941 44.0566C215.059 44.3832 215.282 44.6612 215.576 44.8465C215.666 44.9021 215.763 44.9449 215.865 44.9734C215.941 44.9935 216.021 44.9935 216.098 44.9734V43.7815L215.611 43.4994C215.564 43.4723 215.526 43.4301 215.505 43.3795C215.492 43.3144 215.492 43.2473 215.505 43.1821V43.0128C215.505 42.9282 215.505 42.8788 215.505 42.8577C215.505 42.8365 215.562 42.8577 215.611 42.8577L216.387 43.309C216.443 43.3398 216.485 43.39 216.507 43.4501C216.532 43.5251 216.543 43.6038 216.542 43.6828V45.4177C216.548 45.4646 216.548 45.512 216.542 45.5588C216.536 45.5845 216.521 45.6071 216.5 45.6223C216.344 45.6768 216.177 45.6912 216.014 45.6641C215.852 45.637 215.698 45.5692 215.569 45.4671C215.13 45.1966 214.791 44.7906 214.603 44.3105Z" fill="#455A64"/>
<path d="M268.124 70.3697C268.05 70.0899 267.887 69.8421 267.659 69.6644L264.132 67.6333C263.829 67.457 263.596 67.8025 263.596 68.4232V71.0749C263.6 71.4409 263.667 71.8035 263.794 72.1469C263.845 72.2844 263.908 72.4166 263.984 72.5419C264.053 72.6593 264.147 72.7603 264.259 72.8381L267.786 74.8692C268.089 75.0385 268.329 74.6929 268.329 74.0723V71.4417C268.322 71.0753 268.253 70.7127 268.124 70.3697ZM263.935 71.9565C263.881 71.8073 263.855 71.6496 263.857 71.491V68.8604C263.857 68.402 264.048 68.1199 264.266 68.2539L267.793 70.285C267.854 70.3212 267.905 70.3721 267.941 70.4331C267.964 70.4735 267.983 70.516 267.997 70.5601C268.051 70.7117 268.077 70.8717 268.075 71.0326V73.6562C268.075 74.1146 267.884 74.3967 267.666 74.2627L264.139 72.2315C264.035 72.1631 263.962 72.0569 263.935 71.9353V71.9565Z" fill="#455A64"/>
<path d="M266.15 69.7914V72.9016L264.26 71.7803L264.196 71.7309C264.2 71.6957 264.2 71.6603 264.196 71.6251V69.2625C264.196 68.931 264.344 68.7195 264.506 68.8111L266.15 69.7914Z" fill="#455A64"/>
<path d="M268.497 71.5408C268.631 71.6113 268.737 72.112 268.737 72.648V73.1346C268.737 73.6777 268.631 74.0656 268.497 74.0021L268.257 73.8893V71.4068L268.497 71.5408Z" fill="#455A64"/>
<path d="M259.774 69.2483C259.774 69.8266 259.47 70.1228 259.068 69.9042C258.848 69.7338 258.669 69.5146 258.547 69.2638C258.424 69.0131 258.362 68.7374 258.363 68.4584C258.363 67.8801 258.666 67.591 259.068 67.8025C259.29 67.9722 259.469 68.1912 259.592 68.4422C259.714 68.6931 259.776 68.9691 259.774 69.2483Z" fill="#455A64"/>
<path d="M259.09 66.0891C258.957 65.9934 258.803 65.9312 258.64 65.9077C258.478 65.8842 258.312 65.9001 258.157 65.954C258.003 66.0079 257.863 66.0984 257.75 66.2176C257.638 66.3368 257.555 66.4814 257.51 66.6392C257.483 66.7319 257.476 66.8292 257.488 66.9251C257.5 67.0209 257.532 67.1132 257.581 67.1963C257.708 67.422 257.898 67.4784 257.976 67.295C258.004 67.1815 258.06 67.0768 258.139 66.9903C258.218 66.9039 258.318 66.8385 258.428 66.8C258.539 66.7615 258.657 66.7512 258.773 66.7699C258.888 66.7886 258.997 66.8358 259.09 66.9072C259.655 67.3104 260.052 67.9081 260.204 68.5857C260.282 68.8537 260.472 69.0229 260.606 68.9383C260.663 68.8733 260.699 68.7937 260.712 68.7088C260.724 68.6238 260.712 68.5371 260.677 68.4587C260.449 67.504 259.886 66.663 259.09 66.0891Z" fill="#455A64"/>
<path d="M259.089 64.4106C258.894 64.2678 258.669 64.1706 258.431 64.1263C258.193 64.082 257.949 64.0917 257.715 64.1547C257.481 64.2176 257.265 64.3323 257.082 64.4901C256.898 64.6479 256.753 64.8449 256.656 65.0665C256.623 65.1624 256.61 65.2643 256.62 65.3653C256.63 65.4664 256.661 65.5641 256.712 65.6519C256.832 65.8775 257.015 65.934 257.1 65.7717C257.178 65.5906 257.296 65.4295 257.446 65.3004C257.595 65.1712 257.771 65.0774 257.962 65.0259C258.152 64.9744 258.352 64.9665 258.546 65.0028C258.74 65.0392 258.923 65.1188 259.082 65.2358C260.05 65.9188 260.753 66.9153 261.071 68.0568C261.155 68.3107 261.339 68.4729 261.459 68.3882C261.571 68.3177 261.593 68.092 261.515 67.8664C261.124 66.4713 260.268 65.2519 259.089 64.4106Z" fill="#455A64"/>
<path d="M199.03 10.4232C199.22 9.01269 200.321 8.54722 201.647 9.31595L274.379 51.328C275.161 51.8152 275.805 52.4952 276.248 53.3027L284.57 48.4999C284.122 47.6954 283.477 47.0183 282.694 46.5323L209.976 4.54137C209.155 4.12394 208.248 3.90635 207.327 3.90635C206.407 3.90635 205.499 4.12394 204.679 4.54137L201.647 6.28335C200.94 6.74698 200.342 7.35623 199.89 8.07024C199.439 8.78425 199.146 9.58651 199.03 10.4232Z" fill="#6236FF"/>
<path opacity="0.2" d="M199.03 10.4232C199.22 9.01269 200.321 8.54722 201.647 9.31595L274.379 51.328C275.161 51.8152 275.805 52.4952 276.248 53.3027L284.57 48.4999C284.122 47.6954 283.477 47.0183 282.694 46.5323L209.976 4.54137C209.155 4.12394 208.248 3.90635 207.327 3.90635C206.407 3.90635 205.499 4.12394 204.679 4.54137L201.647 6.28335C200.94 6.74698 200.342 7.35623 199.89 8.07024C199.439 8.78425 199.146 9.58651 199.03 10.4232Z" fill="black"/>
<path d="M116.338 9.34392L43.6048 51.3278C42.8374 51.8325 42.199 52.5101 41.7409 53.3063C41.2828 54.1024 41.0178 54.9948 40.9671 55.9119V219.926C40.9671 221.612 42.1519 222.303 43.6048 221.457L116.338 179.473C117.105 178.968 117.744 178.29 118.202 177.494C118.66 176.698 118.925 175.806 118.975 174.889V10.8673C118.975 9.18171 117.791 8.49761 116.338 9.34392ZM115.174 159.775C115.174 161.185 114.159 162.138 112.903 162.857L46.7784 201.032C45.5301 201.738 44.5075 201.173 44.5075 199.721V71.2442C44.5511 70.4562 44.7794 69.6894 45.1739 69.0058C45.5683 68.3223 46.118 67.741 46.7784 67.3089L112.903 29.1404C114.159 28.4352 115.174 28.9994 115.174 30.4452V159.775Z" fill="#6236FF"/>
<path opacity="0.5" d="M116.338 9.34392L43.6048 51.3278C42.8374 51.8325 42.199 52.5101 41.7409 53.3063C41.2828 54.1024 41.0178 54.9948 40.9671 55.9119V219.926C40.9671 221.612 42.1519 222.303 43.6048 221.457L116.338 179.473C117.105 178.968 117.744 178.29 118.202 177.494C118.66 176.698 118.925 175.806 118.975 174.889V10.8673C118.975 9.18171 117.791 8.49761 116.338 9.34392ZM115.174 159.775C115.174 161.185 114.159 162.138 112.903 162.857L46.7784 201.032C45.5301 201.738 44.5075 201.173 44.5075 199.721V71.2442C44.5511 70.4562 44.7794 69.6894 45.1739 69.0058C45.5683 68.3223 46.118 67.741 46.7784 67.3089L112.903 29.1404C114.159 28.4352 115.174 28.9994 115.174 30.4452V159.775Z" fill="black"/>
<path d="M43.2811 221.619C42.4955 221.95 41.6472 222.108 40.7949 222.08C39.9426 222.052 39.1065 221.839 38.3443 221.457L35.3188 219.708C34.546 219.207 33.9028 218.531 33.4419 217.734C32.9809 216.937 32.7154 216.043 32.667 215.123V51.1163C32.6816 50.4334 32.8377 49.761 33.1254 49.1415C33.2175 48.9246 33.3211 48.7127 33.4358 48.5068L41.7578 53.3096C41.5822 53.6228 41.4291 53.9481 41.2994 54.2829C41.1016 54.8063 40.9943 55.3596 40.982 55.9191V219.933C40.9679 221.485 41.9764 222.19 43.2811 221.619Z" fill="#6236FF"/>
<path opacity="0.7" d="M43.2811 221.619C42.4955 221.95 41.6472 222.108 40.7949 222.08C39.9426 222.052 39.1065 221.839 38.3443 221.457L35.3188 219.708C34.546 219.207 33.9028 218.531 33.4419 217.734C32.9809 216.937 32.7154 216.043 32.667 215.123V51.1163C32.6816 50.4334 32.8377 49.761 33.1254 49.1415C33.2175 48.9246 33.3211 48.7127 33.4358 48.5068L41.7578 53.3096C41.5822 53.6228 41.4291 53.9481 41.2994 54.2829C41.1016 54.8063 40.9943 55.3596 40.982 55.9191V219.933C40.9679 221.485 41.9764 222.19 43.2811 221.619Z" fill="black"/>
<path d="M80.6027 186.032C82.9088 184.706 84.7778 185.785 84.7778 188.444C84.6997 189.893 84.281 191.304 83.5555 192.561C82.8301 193.818 81.8184 194.887 80.6027 195.68C78.2965 197.006 76.4275 195.927 76.4275 193.268C76.5056 191.818 76.9244 190.408 77.6498 189.151C78.3752 187.893 79.3869 186.825 80.6027 186.032V186.032Z" stroke="#E6E6E6" stroke-miterlimit="10"/>
<path d="M80.0039 33.873C80.9771 33.3088 81.7741 33.7672 81.7741 34.8956C81.7393 35.5107 81.5611 36.1091 81.2537 36.643C80.9463 37.177 80.5183 37.6316 80.0039 37.9705C79.0236 38.5347 78.2266 38.0763 78.2266 36.9408C78.2605 36.3257 78.4392 35.7272 78.748 35.1942C79.0568 34.6611 79.4871 34.2084 80.0039 33.873Z" fill="black"/>
<path d="M73.1266 44.6561L86.8156 36.7502C87.6337 36.2847 88.2966 36.6162 88.2966 37.4978C88.2607 37.9956 88.1079 38.4779 87.8505 38.9056C87.5932 39.3333 87.2386 39.6942 86.8156 39.9591L73.1266 47.858C72.3085 48.3305 71.6456 47.999 71.6456 47.1104C71.6826 46.6138 71.8359 46.1329 72.0932 45.7065C72.3505 45.2802 72.7045 44.9203 73.1266 44.6561Z" fill="black"/>
<path d="M115.175 159.775C115.175 161.186 114.16 162.138 112.904 162.857L46.7796 201.032C45.5313 201.738 44.5087 201.174 44.5087 199.721V71.2443C44.5523 70.4563 44.7806 69.6896 45.175 69.006C45.5695 68.3224 46.1191 67.7411 46.7796 67.309L112.904 29.1406C114.16 28.4353 115.175 28.9995 115.175 30.4453V159.775Z" fill="#6236FF"/>
<path opacity="0.9" d="M115.175 159.775C115.175 161.186 114.16 162.138 112.904 162.857L46.7796 201.032C45.5313 201.738 44.5087 201.174 44.5087 199.721V71.2443C44.5523 70.4563 44.7806 69.6896 45.175 69.006C45.5695 68.3224 46.1191 67.7411 46.7796 67.309L112.904 29.1406C114.16 28.4353 115.175 28.9995 115.175 30.4453V159.775Z" fill="white"/>
<path d="M97.9659 46.0879C97.9659 46.6733 98.2692 46.9624 98.6712 46.7438C98.889 46.5784 99.0658 46.3652 99.1881 46.1207C99.3104 45.8761 99.3748 45.6067 99.3764 45.3333C99.3764 44.755 99.0732 44.4588 98.6712 44.6774C98.4534 44.8427 98.2766 45.0559 98.1543 45.3005C98.032 45.5451 97.9676 45.8145 97.9659 46.0879Z" fill="#455A64"/>
<path d="M97.0638 45.3121C97.0287 45.3905 97.0167 45.4772 97.0292 45.5622C97.0417 45.6471 97.0781 45.7267 97.1343 45.7917C97.2683 45.8693 97.4587 45.7 97.5363 45.432C97.6921 44.756 98.0881 44.1595 98.6506 43.7535C98.7438 43.6821 98.8534 43.6352 98.9694 43.6169C99.0854 43.5986 99.2042 43.6096 99.3148 43.6488C99.4255 43.688 99.5247 43.7543 99.6033 43.8415C99.6818 43.9288 99.7374 44.0343 99.7649 44.1485C99.8425 44.3248 100.033 44.2754 100.16 44.0427C100.21 43.9587 100.242 43.8651 100.254 43.768C100.267 43.6708 100.258 43.5722 100.23 43.4785C100.185 43.3213 100.102 43.1775 99.9886 43.0591C99.8757 42.9406 99.7359 42.851 99.5811 42.7978C99.4263 42.7446 99.261 42.7293 99.0991 42.7533C98.9372 42.7772 98.7834 42.8397 98.6506 42.9354C97.8531 43.5111 97.2898 44.3549 97.0638 45.3121Z" fill="#455A64"/>
<path d="M96.2247 44.7196C96.1471 44.9452 96.1683 45.1709 96.2811 45.2414C96.401 45.319 96.5844 45.1639 96.669 44.91C96.9908 43.7703 97.6925 42.7749 98.6578 42.0889C98.8172 41.9722 99.0009 41.8929 99.1952 41.8571C99.3894 41.8212 99.5893 41.8297 99.7799 41.8819C99.9704 41.9341 100.147 42.0287 100.296 42.1586C100.444 42.2885 100.562 42.4503 100.64 42.632C100.724 42.7871 100.908 42.7378 101.027 42.5121C101.077 42.4238 101.108 42.3258 101.116 42.2248C101.125 42.1238 101.111 42.0221 101.077 41.9267C100.98 41.7059 100.835 41.5097 100.652 41.3526C100.469 41.1955 100.253 41.0816 100.02 41.0193C99.7868 40.957 99.5428 40.9478 99.3058 40.9926C99.0688 41.0374 98.845 41.1349 98.6508 41.2779C97.474 42.1156 96.6182 43.3297 96.2247 44.7196Z" fill="#455A64"/>
<path d="M48.6911 75.1653V74.1215C48.6886 74.0138 48.7108 73.9069 48.7561 73.8091C48.8013 73.7113 48.8684 73.6252 48.9521 73.5573L49.0296 73.515C49.1707 73.4303 49.2906 73.515 49.2906 73.7689V74.8126C49.2931 74.9204 49.2709 75.0272 49.2256 75.125C49.1804 75.2229 49.1134 75.309 49.0296 75.3769L48.9521 75.4192C48.804 75.5038 48.6911 75.391 48.6911 75.1653Z" fill="#455A64"/>
<path d="M49.8964 74.4673V72.6618C49.8939 72.5541 49.9161 72.4472 49.9613 72.3494C50.0066 72.2516 50.0736 72.1655 50.1573 72.0976L50.2349 72.0553C50.383 71.9707 50.5029 72.0553 50.5029 72.3092V74.1146C50.5046 74.2229 50.4812 74.3302 50.4348 74.428C50.3883 74.5259 50.3199 74.6117 50.2349 74.6788L50.1573 74.7212C50.0163 74.8058 49.8964 74.6929 49.8964 74.4673Z" fill="#455A64"/>
<path d="M51.0878 73.769V71.2019C51.0872 71.0948 51.111 70.9889 51.1575 70.8924C51.2039 70.7958 51.2717 70.7112 51.3558 70.6447L51.4263 70.6024C51.5744 70.5178 51.6943 70.6024 51.6943 70.8563V73.4164C51.696 73.5247 51.6727 73.6319 51.6262 73.7298C51.5797 73.8276 51.5113 73.9135 51.4263 73.9806L51.3558 74.0229C51.2218 74.1075 51.0878 73.9947 51.0878 73.769Z" fill="#455A64"/>
<path d="M52.3146 73.0709V68.6419C52.3132 68.5354 52.3359 68.4299 52.3811 68.3334C52.4263 68.2369 52.4928 68.1519 52.5755 68.0848L52.6531 68.0425C52.8012 67.9578 52.9211 68.0425 52.9211 68.2964V72.7183C52.9236 72.8261 52.9014 72.9329 52.8562 73.0307C52.8109 73.1285 52.7439 73.2147 52.6602 73.2825L52.5826 73.3248C52.4345 73.4095 52.3146 73.2966 52.3146 73.0709Z" fill="#455A64"/>
<path d="M55.5876 71.4841C55.5876 71.4841 55.5876 71.4206 55.5876 71.3571V70.7083L54.2264 71.4911C54.1559 71.5334 54.1206 71.4911 54.1206 71.4135V71.1808C54.1165 71.1386 54.1165 71.0961 54.1206 71.0538L54.17 70.9198L55.5805 67.7603C55.6006 67.7162 55.6242 67.6737 55.651 67.6334C55.6788 67.6043 55.7095 67.5783 55.7427 67.5558L55.9331 67.45C55.9896 67.4124 56.0319 67.4124 56.0601 67.45C56.0775 67.4954 56.0775 67.5456 56.0601 67.591V69.8549L56.3634 69.6857C56.4198 69.6504 56.455 69.6433 56.4832 69.6857C56.5115 69.728 56.4832 69.7491 56.4832 69.8197V69.9748C56.4957 70.0305 56.4957 70.0883 56.4832 70.1441C56.4542 70.1918 56.4128 70.2308 56.3634 70.2569L56.0601 70.4332V71.075C56.066 71.134 56.0536 71.1934 56.0245 71.2451C55.9955 71.2969 55.9513 71.3384 55.8979 71.3642L55.6722 71.4911C55.651 71.4911 55.6087 71.4982 55.5876 71.4841ZM55.6369 70.0735V68.4515L54.6566 70.6377L55.6369 70.0735Z" fill="#455A64"/>
<path d="M57.1949 70.158C56.927 69.9605 56.8 69.5374 56.8 68.8886C56.7909 68.2892 56.9264 67.6966 57.1949 67.1607C57.4495 66.6715 57.8385 66.2653 58.3163 65.99C58.4864 65.8891 58.669 65.8109 58.8593 65.7572C58.9971 65.7139 59.1448 65.7139 59.2825 65.7572C59.2868 65.7647 59.2891 65.7732 59.2891 65.7819C59.2891 65.7906 59.2868 65.7991 59.2825 65.8066C59.2876 65.8322 59.2876 65.8586 59.2825 65.8842L59.1556 66.2368C59.1556 66.2862 59.1556 66.3144 59.1062 66.3214H59.0498C58.8014 66.2974 58.5524 66.3597 58.3445 66.4977C58.0175 66.6909 57.7512 66.9719 57.5758 67.3088C57.3822 67.7058 57.2878 68.1438 57.3007 68.5853C57.3007 69.086 57.3924 69.4105 57.5687 69.5445C57.745 69.6785 57.9989 69.6643 58.3092 69.488C58.4257 69.4193 58.5365 69.3415 58.6407 69.2553C58.7401 69.1792 58.83 69.0916 58.9087 68.9944V67.9435L58.3445 68.2679C58.2881 68.3032 58.2458 68.3103 58.2246 68.2679C58.2084 68.2248 58.2084 68.1771 58.2246 68.1339V67.9858C58.2111 67.9278 58.2111 67.8675 58.2246 67.8095C58.2537 67.7618 58.2951 67.7228 58.3445 67.6967L59.2472 67.1818C59.3107 67.1395 59.353 67.1395 59.3812 67.1818C59.4094 67.2242 59.4236 67.2594 59.4236 67.3441V68.8462C59.4283 68.8931 59.4283 68.9404 59.4236 68.9873C59.4118 69.0259 59.3926 69.0618 59.3671 69.0931C59.0842 69.4855 58.7182 69.8106 58.2951 70.0452C57.8367 70.3132 57.4347 70.3696 57.1949 70.158Z" fill="#455A64"/>
<path d="M108.855 36.3552C108.787 36.2837 108.696 36.2388 108.597 36.2284C108.499 36.2181 108.401 36.243 108.319 36.2987L104.257 38.6331C104.058 38.7911 103.898 38.9931 103.791 39.2232C103.683 39.4532 103.63 39.7051 103.636 39.959V42.2299C103.625 42.3571 103.64 42.4852 103.68 42.6064C103.72 42.7276 103.785 42.8395 103.869 42.9352C103.928 42.9962 104.004 43.038 104.088 43.0551C104.198 43.0746 104.311 43.0519 104.405 42.9916L108.467 40.6502C108.666 40.4922 108.826 40.2902 108.933 40.0602C109.041 39.8301 109.094 39.5782 109.088 39.3243V37.0534C109.098 36.9273 109.082 36.8006 109.042 36.6807C109.002 36.5608 108.939 36.4501 108.855 36.3552ZM104.017 42.6178C103.95 42.5237 103.92 42.4083 103.932 42.2934V40.0437C103.93 39.8509 103.972 39.6601 104.054 39.4855C104.135 39.3109 104.256 39.157 104.405 39.0351L108.467 36.6937C108.518 36.6616 108.577 36.6467 108.636 36.6514H108.707C108.774 36.7455 108.804 36.8609 108.792 36.9758V39.2467C108.794 39.4395 108.752 39.6303 108.67 39.8049C108.589 39.9795 108.469 40.1334 108.319 40.2552L104.257 42.5967C104.158 42.6672 104.073 42.6743 104.017 42.6178Z" fill="#455A64"/>
<path d="M106.577 38.1679V40.8619L104.391 42.1243H104.32C104.324 42.0939 104.324 42.0631 104.32 42.0327V40.0438C104.321 39.901 104.352 39.76 104.413 39.6308C104.474 39.5016 104.563 39.3874 104.673 39.2963L106.577 38.1679Z" fill="#455A64"/>
<path d="M109.293 36.9408C109.442 36.8562 109.561 37.1665 109.561 37.6461V38.0693C109.597 38.4322 109.499 38.7957 109.286 39.0919L109.018 39.2682V37.1524L109.293 36.9408Z" fill="#455A64"/>
<path d="M118.956 10.4231C118.765 9.01261 117.665 8.54715 116.339 9.31587L43.6061 51.3279C42.8242 51.8151 42.1806 52.4951 41.7372 53.3027L33.4152 48.5069C33.8633 47.7024 34.5089 47.0252 35.2912 46.5393L108.01 4.5413C108.829 4.12393 109.735 3.90635 110.655 3.90635C111.574 3.90635 112.48 4.12393 113.299 4.5413L116.339 6.28327C117.045 6.7469 117.644 7.35616 118.095 8.07017C118.546 8.78418 118.84 9.58643 118.956 10.4231Z" fill="#6236FF"/>
<path opacity="0.2" d="M118.956 10.4231C118.765 9.01261 117.665 8.54715 116.339 9.31587L43.6061 51.3279C42.8242 51.8151 42.1806 52.4951 41.7372 53.3027L33.4152 48.5069C33.8633 47.7024 34.5089 47.0252 35.2912 46.5393L108.01 4.5413C108.829 4.12393 109.735 3.90635 110.655 3.90635C111.574 3.90635 112.48 4.12393 113.299 4.5413L116.339 6.28327C117.045 6.7469 117.644 7.35616 118.095 8.07017C118.546 8.78418 118.84 9.58643 118.956 10.4231Z" fill="black"/>
<path d="M252.87 168.104C252.87 168.104 245.331 175.651 235.309 172.766C235.309 172.766 238.327 175.742 245.429 173.746C250.218 172.399 252.87 168.104 252.87 168.104Z" fill="#6236FF"/>
<path d="M267.836 121.854C267.836 121.854 271.686 131.798 265.015 139.796C265.015 139.796 268.957 138.244 270.001 130.938C270.685 125.987 267.836 121.854 267.836 121.854Z" fill="#6236FF"/>
<path d="M252.087 171.271C259.139 164.014 262.207 155.544 262.278 146.89C262.278 146.89 264.33 152.039 261.128 160.163C257.926 168.288 252.087 171.271 252.087 171.271Z" fill="#6236FF"/>
<path d="M57.5286 160.777C57.5286 160.777 57.4369 171.44 66.5206 176.567C66.5206 176.567 62.2891 176.497 58.7628 170.037C56.3297 165.678 57.5286 160.777 57.5286 160.777Z" fill="#6236FF"/>
<path d="M55.2293 165.05C53.6616 156.029 55.7225 146.754 60.9631 139.245C60.9631 139.245 56.3225 142.271 54.2631 150.762C52.2038 159.253 55.2293 165.05 55.2293 165.05Z" fill="#6236FF"/>
<path d="M213.2 105.633L216.184 96.7114C208.327 98.1219 206.19 99.1938 203.87 105.689L202.332 110.866L192.924 139.824C190.696 140.409 162.951 148.054 161.985 148.174C161.985 148.174 161.942 148.244 161.914 148.28C152.852 148.858 149.925 149.26 149.925 149.26C152.471 155.918 157.245 159.67 163.84 161.024V160.868V160.918C175.512 158.929 194.659 154.415 200.887 152.349C203.51 151.51 204.632 148.555 205.711 146.086C210.118 136.008 214.724 122.425 216.289 114.251C217.305 109.328 215.817 106.867 213.2 105.633Z" fill="#B16668"/>
<path d="M216.184 96.6759C216.184 96.6759 208.377 95.4769 204.991 102.642C202.72 107.48 195.774 128.201 195.774 128.201C195.774 128.201 200.71 134.548 211.522 134.936C211.522 134.936 221.734 111.486 221.163 110.739C220.592 109.991 216.184 96.6759 216.184 96.6759Z" fill="#37474F"/>
<path d="M214.753 96.5281C212.856 96.7115 208.046 103.143 207.947 114.089C207.813 128.751 215 146.7 216.805 150.572C218.611 154.444 222.123 162.025 228.089 167.653C230.015 169.459 243.161 174.572 251.631 165.051C260.249 155.368 258.888 142.645 257.167 138.66C254.283 131.988 249.184 124.224 249.367 115.443C248.288 109.138 246.221 100.978 241.51 97.5578C239.571 97.0641 233.463 96.2813 232.272 96.4435L214.753 96.5281Z" fill="#FAFAFA"/>
<path d="M239.577 108.165L237.172 111.183C237.878 115.972 241.51 122.89 245.734 128.413C249.028 132.722 255.728 137.165 258.429 144.775C258.353 142.684 257.941 140.619 257.209 138.66C254.324 131.988 249.225 124.223 249.409 115.443C249.232 114.399 249.021 113.327 248.781 112.192L246.524 110.147L239.577 108.165Z" fill="#EBEBEB"/>
<path d="M241.51 97.5577C245.636 98.5732 247.857 100.752 251.468 104.878C255.615 109.533 264.078 119.322 264.078 119.322C269.995 129.576 264.678 140.007 260.242 138.293C260.242 138.293 250.241 128.525 244.105 121.12C239.994 116.183 237.899 113.362 237.666 107.925C237.469 103.651 238.231 99.2855 241.51 97.5577Z" fill="#B16668"/>
<path d="M239.351 97.1695C239.351 97.1695 242.912 96.3796 247.546 100.11C252.179 103.841 263.506 116.169 263.506 116.169C263.506 116.169 263.844 129.223 255.529 135.112C255.529 135.112 243.258 122.798 240.232 118.539C238.128 115.405 236.931 111.75 236.776 107.979C236.62 104.207 237.511 100.466 239.351 97.1695Z" fill="#37474F"/>
<path d="M237.173 72.4855C237.173 72.4855 235.381 83.424 234.542 85.2436C233.979 86.3719 233.001 87.2387 231.813 87.6626L231.636 80.067L237.173 72.4855Z" fill="#263238"/>
<path d="M231.353 56.6106C231.353 56.6106 234.308 55.1225 236.332 57.0056C238.356 58.8886 238.49 65.3628 236.967 73.7483L231.875 73.4803L231.353 56.6106Z" fill="#263238"/>
<path d="M215.728 80.9227C223.442 79.3965 228.459 71.9055 226.933 64.191C225.407 56.4764 217.916 51.4597 210.201 52.9858C202.487 54.512 197.47 62.003 198.996 69.7175C200.522 77.4321 208.013 82.4488 215.728 80.9227Z" fill="#263238"/>
<path d="M231.777 57.7179L236.185 53.6697C235.933 53.3676 235.623 53.1197 235.273 52.941C234.923 52.7623 234.54 52.6566 234.147 52.6302C233.755 52.6038 233.361 52.6574 232.99 52.7875C232.619 52.9177 232.279 53.1219 231.989 53.3876C231.403 53.9436 231.055 54.7038 231.015 55.5103C230.976 56.3168 231.249 57.1074 231.777 57.7179Z" fill="#263238"/>
<path d="M205.408 58.6276C204.512 60.1721 200.034 66.6605 201.67 78.8473C203.207 90.3218 206.896 93.0159 208.856 93.6224C210.817 94.2289 214.752 93.8834 218.194 92.9172L218.815 97.7905C218.815 97.7905 216.805 101.021 219.52 102.805C222.235 104.589 228.209 103.277 229.591 102.177C232.842 99.5748 232.349 97.3814 232.349 97.3814L231.643 81.5555C231.643 81.5555 234.09 83.5725 237.243 81.1958C240.219 78.9602 240.353 73.0501 237.842 71.019C235.332 68.9878 231.305 70.2009 230.755 73.4662C230.755 73.4662 230.649 61.3358 223.758 58.1128C214.936 53.98 205.408 58.6276 205.408 58.6276Z" fill="#B16668"/>
<path d="M229.964 75.0458C230.352 74.8413 231.015 71.5971 232.926 70.4969C234.682 69.4814 231.367 54.9813 231.353 54.9108C231.156 53.8459 230.062 52.5976 229.35 51.8218C228.274 50.6795 226.924 49.83 225.429 49.3534C223.373 48.7258 221.198 48.5952 219.082 48.9726C215.795 49.4803 212.643 50.8485 209.321 50.8626C206.168 50.8626 203.157 49.6425 200.068 49.029C199.477 48.8434 198.838 48.8861 198.277 49.1489C197.989 49.3475 197.764 49.6239 197.628 49.9458C197.24 50.8793 197.204 51.9222 197.529 52.8797C197.868 53.8276 198.343 54.7209 198.94 55.5314C197.839 55.0166 196.288 54.9743 195.653 56.0039C195.152 56.815 195.463 57.8729 195.921 58.7051C197.853 62.1749 201.288 63.6983 204.899 64.5234C206.416 64.7806 207.951 64.9221 209.49 64.9466C213.383 65.1652 217.121 63.6066 220.711 62.0832C221.698 61.6601 223.623 60.9407 224.703 61.8152C226.042 62.9013 225.979 66.4135 226.381 69.298C226.995 73.8187 228.497 75.8357 229.964 75.0458Z" fill="#263238"/>
<path d="M217.531 83.7699L213.603 85.526C213.707 85.7913 213.863 86.0328 214.063 86.2361C214.263 86.4393 214.502 86.6001 214.765 86.7088C215.029 86.8175 215.311 86.8718 215.596 86.8685C215.881 86.8652 216.163 86.8044 216.424 86.6897C216.948 86.4383 217.355 85.9948 217.561 85.4513C217.767 84.9077 217.756 84.3057 217.531 83.7699Z" fill="#9A4A4D"/>
<path d="M203.426 74.397C203.454 74.6821 203.566 74.9526 203.747 75.1748C203.927 75.397 204.17 75.561 204.443 75.6465C204.717 75.7319 205.009 75.7351 205.284 75.6554C205.56 75.5758 205.805 75.417 205.991 75.1987C206.177 74.9804 206.294 74.7124 206.328 74.4279C206.362 74.1435 206.312 73.8552 206.184 73.5991C206.056 73.343 205.855 73.1302 205.606 72.9874C205.358 72.8446 205.073 72.7781 204.787 72.7961C204.395 72.8284 204.031 73.0151 203.776 73.3152C203.521 73.6153 203.395 74.0043 203.426 74.397Z" fill="#263238"/>
<path d="M214.752 73.6987C214.781 73.9838 214.892 74.2543 215.073 74.4764C215.254 74.6986 215.496 74.8627 215.77 74.9481C216.043 75.0336 216.336 75.0367 216.611 74.9571C216.886 74.8775 217.132 74.7186 217.317 74.5004C217.503 74.2821 217.62 74.014 217.655 73.7296C217.689 73.4451 217.639 73.1569 217.51 72.9008C217.382 72.6446 217.181 72.4319 216.933 72.2891C216.684 72.1463 216.4 72.0797 216.114 72.0977C215.919 72.1128 215.729 72.1663 215.555 72.2551C215.381 72.3439 215.226 72.4662 215.1 72.615C214.973 72.7638 214.878 72.9361 214.818 73.1221C214.758 73.3081 214.736 73.504 214.752 73.6987Z" fill="#263238"/>
<path d="M210.915 74.0092L210.654 82.7614L206.049 81.3227L210.915 74.0092Z" fill="#9A4A4D"/>
<path d="M218.193 92.9379C221.085 92.275 226.741 89.8419 227.813 87.7261C227.813 87.7261 227.919 89.0731 226.205 91.1184C224.491 93.1636 218.482 95.2089 218.482 95.2089L218.193 92.9379Z" fill="#9A4A4D"/>
<path d="M202.277 71.3575L205.542 69.947C205.34 69.5101 204.977 69.168 204.529 68.9919C204.081 68.8159 203.583 68.8195 203.137 69.002C202.923 69.0968 202.73 69.2338 202.571 69.4047C202.411 69.5757 202.287 69.7771 202.207 69.9969C202.126 70.2168 202.091 70.4506 202.103 70.6844C202.115 70.9181 202.174 71.1471 202.277 71.3575Z" fill="#263238"/>
<path d="M215.634 69.2487L218.751 70.9413C218.974 70.5144 219.021 70.0177 218.882 69.5567C218.744 69.0957 218.431 68.7068 218.011 68.4729C217.805 68.3612 217.579 68.2926 217.346 68.2713C217.113 68.25 216.878 68.2765 216.655 68.3491C216.433 68.4218 216.228 68.539 216.052 68.6936C215.876 68.8483 215.734 69.0372 215.634 69.2487Z" fill="#263238"/>
<path d="M121.763 95.2091H97.4601C91.657 95.2073 86.0914 92.9051 81.9827 88.807C77.8741 84.7089 75.5575 79.1492 75.5407 73.3462V69.5308C75.5295 63.9319 77.7424 58.5577 81.6928 54.5901C85.6433 50.6224 91.0078 48.3862 96.6067 48.3731H100.57C103.343 48.3648 106.09 48.903 108.654 49.9572C111.218 51.0113 113.55 52.5606 115.515 54.5165C117.48 56.4724 119.04 58.7965 120.106 61.3558C121.172 63.9151 121.723 66.6595 121.728 69.432L121.763 95.2091Z" fill="#263238"/>
<path d="M101.65 96.5771C110.367 95.9212 115.861 99.9623 116.044 108.066C116.143 112.149 112.603 128.405 112.603 128.405L101.65 96.5771Z" fill="#FFA8A7"/>
<path d="M101.65 96.5771C106.086 97.0214 110.98 104.596 115.24 114.335C116.911 118.172 119.965 123.334 116.115 130.514C113.731 134.95 108.822 136.741 108.822 136.741C107.045 142.306 104.48 147.588 101.205 152.426C99.1599 158.939 95.4389 164.801 90.415 169.423C88.4403 171.172 76.3734 181.857 66.6479 173.612C60.8648 168.711 58.8478 160.918 59.4402 153.562C59.7858 149.238 60.7449 144.965 63.7846 141.869C65.537 140.085 67.1564 138.176 68.6297 136.156C70.1742 128.8 68.404 123.807 68.2206 114.998C69.2997 108.693 71.9726 103.348 76.6837 99.9341C80.1729 98.5534 83.8425 97.6817 87.5799 97.3458L101.65 96.5771Z" fill="#6236FF"/>
<path opacity="0.1" d="M101.502 151.989L100.909 147.243C100.909 147.243 80.4567 115.182 79.5892 114.279C79.0815 113.736 74.1729 110.464 70.3363 107.932C69.332 110.182 68.6209 112.553 68.2205 114.984C68.4039 123.765 70.1741 128.758 68.6296 136.142C68.6296 136.142 67.5787 137.63 65.8791 139.584C68.9117 140.374 73.8555 136.558 73.8555 136.558C73.8555 136.558 83.7291 150.515 88.0735 155.473C92.1287 160.121 94.5548 160.812 97.5521 160.607C99.0945 158.032 100.321 155.281 101.205 152.412C101.311 152.278 101.403 152.13 101.502 151.989Z" fill="black"/>
<path opacity="0.05" d="M116.114 130.514C116.318 130.127 116.509 129.746 116.678 129.365C112.708 132.412 109.943 130.268 106.614 129.626C103.172 128.963 100.619 133.857 94.1805 133.251C85.7174 132.433 82.6496 127.108 82.6496 127.108C82.6496 127.108 82.4239 136.326 92.911 138.35C99.9213 139.704 102.495 135.917 104.435 135.917C105.281 135.917 106.036 136.573 108.822 136.742C108.822 136.742 113.73 134.95 116.114 130.514Z" fill="black"/>
<path d="M113.737 59.7912C114.612 61.3005 118.956 67.5984 117.369 79.4255C115.874 90.5615 112.291 92.374 110.387 92.9664C108.483 93.5589 104.667 93.2133 101.325 92.2612L100.57 98.9611C100.57 98.9611 103.814 103.574 103.172 106.606C102.53 109.639 96.0492 109.251 91.9869 105.76C89.5417 103.613 87.9746 100.64 87.5861 97.4096L88.2914 82.035C88.2914 82.035 85.9147 83.9956 82.8539 81.6894C79.9694 79.5172 79.8354 73.7835 82.2756 71.8158C84.7157 69.8482 88.6229 71.0189 89.1518 74.1855C89.1518 74.1855 96.7121 75.9345 103.405 72.775C111.946 68.7691 113.194 62.9649 113.737 59.7912Z" fill="#FFA8A7"/>
<path d="M89.2941 78.4097L89.0896 71.4136C90.0402 71.411 90.9548 71.7769 91.6413 72.4345C92.3278 73.092 92.7327 73.9901 92.771 74.9399C92.7787 75.3983 92.6939 75.8535 92.5218 76.2784C92.3497 76.7033 92.0938 77.0892 91.7693 77.413C91.4448 77.7369 91.0584 77.992 90.6331 78.1633C90.2079 78.3345 89.7525 78.4183 89.2941 78.4097Z" fill="#263238"/>
<path d="M104.583 84.7432L108.392 86.45C108.29 86.7058 108.138 86.9385 107.944 87.1345C107.751 87.3304 107.52 87.4856 107.266 87.5908C107.011 87.696 106.738 87.7491 106.463 87.747C106.187 87.7448 105.915 87.6875 105.663 87.5784C105.151 87.3372 104.753 86.9071 104.551 86.3784C104.35 85.8497 104.362 85.2636 104.583 84.7432Z" fill="#F28F8F"/>
<path d="M115.656 75.2007C115.656 75.3933 115.617 75.5839 115.541 75.7608C115.465 75.9377 115.354 76.0971 115.214 76.2293C115.073 76.3614 114.908 76.4635 114.727 76.5292C114.546 76.5949 114.353 76.6228 114.161 76.6113C113.78 76.5789 113.427 76.3967 113.179 76.1045C112.932 75.8124 112.811 75.4341 112.842 75.0526C112.866 74.6785 113.038 74.3294 113.32 74.0821C113.46 73.9596 113.622 73.8659 113.798 73.8061C113.973 73.7463 114.159 73.7218 114.344 73.7338C114.53 73.7459 114.711 73.7943 114.877 73.8763C115.044 73.9583 115.192 74.0723 115.315 74.2118C115.437 74.3513 115.531 74.5135 115.591 74.6892C115.651 74.865 115.675 75.0508 115.663 75.236L115.656 75.2007Z" fill="#263238"/>
<path d="M105.438 76.0123C105.408 76.2868 105.299 76.5466 105.123 76.7596C104.947 76.9725 104.713 77.1292 104.449 77.2102C104.185 77.2911 103.903 77.2929 103.638 77.2151C103.373 77.1374 103.137 76.9836 102.959 76.7728C102.78 76.562 102.668 76.3035 102.635 76.0294C102.602 75.7552 102.65 75.4775 102.774 75.2305C102.897 74.9836 103.091 74.7784 103.33 74.6403C103.569 74.5022 103.843 74.4373 104.119 74.4536C104.31 74.465 104.496 74.5148 104.667 74.6003C104.837 74.6857 104.989 74.8048 105.112 74.9506C105.235 75.0963 105.328 75.2655 105.384 75.448C105.44 75.6305 105.458 75.8225 105.438 76.0123Z" fill="#263238"/>
<path d="M109.528 75.1095L109.782 83.6078L114.253 82.2114L109.528 75.1095Z" fill="#F28F8F"/>
<path d="M101.325 92.2329C98.5042 91.5911 93.0314 89.2285 91.9876 87.1762C91.9876 87.1762 91.8889 88.488 93.5533 90.4698C95.2177 92.4515 101.078 94.4051 101.078 94.4051L101.325 92.2329Z" fill="#F28F8F"/>
<path d="M116.107 71.4137L112.941 70.0456C113.138 69.6225 113.49 69.2914 113.925 69.1207C114.359 68.9501 114.843 68.9529 115.275 69.1287C115.483 69.2205 115.67 69.3532 115.825 69.5191C115.981 69.685 116.101 69.8805 116.178 70.0939C116.256 70.3073 116.29 70.5342 116.278 70.7611C116.265 70.9879 116.208 71.2099 116.107 71.4137Z" fill="#263238"/>
<path d="M97.1435 158.125L104.027 144.958C106.312 145.289 108.597 145.606 110.882 145.924C115.431 146.551 132.618 148.66 133.591 148.674C135.489 148.644 137.361 148.237 139.099 147.475C141.821 146.453 143.839 144.817 146.039 144.365C147.058 144.164 148.102 144.117 149.135 144.224C150.44 144.316 150.101 145.014 151.392 145.24C151.762 145.273 152.115 145.412 152.407 145.642C152.901 146.107 152.541 146.389 152.28 146.77C152.003 147.252 151.826 147.784 151.759 148.336C151.66 148.808 151.272 150.416 151.942 150.677C155.193 151.94 155.56 153.801 159.777 157.419C161.794 159.147 162.88 160.396 164.242 161.277C165.095 162.568 165.158 163.393 162.126 165.17C160.109 166.369 156.484 168.696 150.553 166.835C144.092 164.811 140.785 161.193 139.12 161.115C127.314 160.452 103.568 159.472 97.1435 158.125Z" fill="#FFA8A7"/>
<path d="M104.026 144.958L86.6348 116.444C86.6348 116.444 83.7785 100.512 76.6907 99.9623C76.6907 99.9623 70.2023 101.634 68.7213 105.527C66.937 110.238 67.0216 114.85 72.3463 125.274C76.3663 133.173 87.2625 148.061 91.6209 153.103C93.3841 155.142 95.3094 157.532 97.1431 158.097" fill="#FFA8A7"/>
<path d="M139.332 161.136C139.999 161.304 140.62 161.617 141.152 162.053C142.239 161.858 143.253 161.37 144.085 160.643C147.344 158.266 158.543 163.041 155.786 166.108C153.783 168.337 151.829 168.929 148.634 167.935C143.923 166.496 138.902 164.345 139.332 161.136Z" fill="#B16668"/>
<path d="M150.193 144.619C146.483 145.261 142.632 147.969 140.623 148.787C138.613 149.605 136.539 150.092 138.387 151.862C140.235 153.632 144.734 151.862 147.844 150.762C149.96 150 152.633 150.762 153.825 151.255C154.699 151.615 154.234 149.253 154.234 149.253C153.529 148.223 162.281 149.253 161.992 148.237C157.365 148.434 153.183 143.935 150.193 144.619Z" fill="#B16668"/>
</svg>
