<svg width="20" height="20" viewBox="0 0 20 20" fill="none" xmlns="http://www.w3.org/2000/svg">
<path fill-rule="evenodd" clip-rule="evenodd" d="M7.50065 13.3334C6.11994 13.3334 5.00065 14.4527 5.00065 15.8334C5.00065 16.2937 5.37375 16.6667 5.83398 16.6667H14.1673C14.6276 16.6667 15.0007 16.2937 15.0007 15.8334C15.0007 14.4527 13.8814 13.3334 12.5007 13.3334H7.50065ZM3.33398 15.8334C3.33398 13.5322 5.19946 11.6667 7.50065 11.6667H12.5007C14.8018 11.6667 16.6673 13.5322 16.6673 15.8334C16.6673 17.2141 15.548 18.3334 14.1673 18.3334H5.83398C4.45327 18.3334 3.33398 17.2141 3.33398 15.8334Z" fill="#0E0E17" fill-opacity="0.42"/>
<path fill-rule="evenodd" clip-rule="evenodd" d="M10.0007 3.33341C8.61994 3.33341 7.50065 4.4527 7.50065 5.83341C7.50065 7.21413 8.61994 8.33341 10.0007 8.33341C11.3814 8.33341 12.5007 7.21413 12.5007 5.83341C12.5007 4.4527 11.3814 3.33341 10.0007 3.33341ZM5.83398 5.83341C5.83398 3.53223 7.69946 1.66675 10.0007 1.66675C12.3018 1.66675 14.1673 3.53223 14.1673 5.83341C14.1673 8.1346 12.3018 10.0001 10.0007 10.0001C7.69946 10.0001 5.83398 8.1346 5.83398 5.83341Z" fill="#0E0E17" fill-opacity="0.42"/>
</svg>
