<svg width="20" height="20" viewBox="0 0 20 20" fill="none" xmlns="http://www.w3.org/2000/svg">
<path fill-rule="evenodd" clip-rule="evenodd" d="M14.5346 5.197C14.568 5.25527 14.6263 5.29689 14.7013 5.29689C16.7013 5.29689 18.3346 6.92841 18.3346 8.92619V13.8707C18.3346 15.8685 16.7013 17.5 14.7013 17.5H5.3013C3.29297 17.5 1.66797 15.8685 1.66797 13.8707V8.92619C1.66797 6.92841 3.29297 5.29689 5.3013 5.29689C5.36797 5.29689 5.43464 5.2636 5.45964 5.197L5.50964 5.09711C5.53836 5.03665 5.56785 4.97455 5.59778 4.9115C5.81097 4.46246 6.04682 3.96567 6.19297 3.6737C6.5763 2.92453 7.2263 2.50832 8.03464 2.5H11.9596C12.768 2.50832 13.4263 2.92453 13.8096 3.6737C13.9409 3.93592 14.1409 4.35833 14.3336 4.76545C14.3734 4.84942 14.4128 4.93274 14.4513 5.01387L14.5346 5.197ZM13.9263 8.39345C13.9263 8.80966 14.2596 9.14262 14.6763 9.14262C15.093 9.14262 15.4346 8.80966 15.4346 8.39345C15.4346 7.97725 15.093 7.63596 14.6763 7.63596C14.2596 7.63596 13.9263 7.97725 13.9263 8.39345ZM8.55964 9.68368C8.9513 9.29245 9.45964 9.08435 10.0013 9.08435C10.543 9.08435 11.0513 9.29245 11.4346 9.67536C11.818 10.0583 12.0263 10.566 12.0263 11.1071C12.018 12.2225 11.118 13.1299 10.0013 13.1299C9.45964 13.1299 8.9513 12.9218 8.56797 12.5388C8.18464 12.1559 7.9763 11.6482 7.9763 11.1071V11.0988C7.96797 10.5744 8.1763 10.0666 8.55964 9.68368ZM12.3096 13.4212C11.718 14.0122 10.9013 14.3785 10.0013 14.3785C9.1263 14.3785 8.30964 14.0372 7.68464 13.4212C7.06797 12.7969 6.7263 11.9811 6.7263 11.1071C6.71797 10.2414 7.05964 9.42564 7.6763 8.80133C8.3013 8.17703 9.1263 7.83574 10.0013 7.83574C10.8763 7.83574 11.7013 8.17703 12.318 8.79301C12.9346 9.41731 13.2763 10.2414 13.2763 11.1071C13.268 12.0144 12.9013 12.8302 12.3096 13.4212Z" fill="#6236FF"/>
</svg>
