<svg width="212" height="97" viewBox="0 0 212 97" fill="none" xmlns="http://www.w3.org/2000/svg">
<path d="M0.948268 63.8178L56.7045 96.004C57.4165 96.3654 58.2037 96.5538 59.0021 96.5538C59.8006 96.5538 60.5878 96.3654 61.2997 96.004L166.296 35.3901C167.563 34.6572 167.563 33.4688 166.296 32.7359L110.54 0.549822C109.828 0.188377 109.04 0 108.242 0C107.443 0 106.656 0.188377 105.944 0.549822L0.968073 61.1687C-0.319372 61.8966 -0.31937 63.085 0.948268 63.8178Z" fill="#E0E0E0"/>
<path d="M193.422 82.1046C203.683 82.1046 212.001 77.3027 212.001 71.3792C212.001 65.4557 203.683 60.6538 193.422 60.6538C183.161 60.6538 174.843 65.4557 174.843 71.3792C174.843 77.3027 183.161 82.1046 193.422 82.1046Z" fill="#E0E0E0"/>
<path d="M141.561 94.5479C156.824 94.5479 169.197 87.4049 169.197 78.5935C169.197 69.7822 156.824 62.6391 141.561 62.6391C126.298 62.6391 113.926 69.7822 113.926 78.5935C113.926 87.4049 126.298 94.5479 141.561 94.5479Z" fill="#E0E0E0"/>
</svg>
