<svg width="20" height="20" viewBox="0 0 20 20" fill="none" xmlns="http://www.w3.org/2000/svg">
<path fill-rule="evenodd" clip-rule="evenodd" d="M6.66732 4.16667V5.00001H4.16732C3.70708 5.00001 3.33398 5.3731 3.33398 5.83334C3.33398 6.29358 3.70708 6.66667 4.16732 6.66667L4.16732 15C4.16732 16.841 5.6597 18.3333 7.50065 18.3333H12.5007C14.3416 18.3333 15.834 16.841 15.834 15V6.66667C16.2942 6.66667 16.6673 6.29358 16.6673 5.83334C16.6673 5.3731 16.2942 5.00001 15.834 5.00001H13.334V4.16667C13.334 2.78596 12.2147 1.66667 10.834 1.66667H9.16732C7.78661 1.66667 6.66732 2.78596 6.66732 4.16667ZM14.1673 6.66667H5.83398V15C5.83398 15.9205 6.58018 16.6667 7.50065 16.6667H12.5007C13.4211 16.6667 14.1673 15.9205 14.1673 15V6.66667ZM9.16732 3.33334C8.70708 3.33334 8.33398 3.70643 8.33398 4.16667V5.00001H11.6673V4.16667C11.6673 3.70643 11.2942 3.33334 10.834 3.33334H9.16732ZM8.33398 9.16667C7.87375 9.16667 7.50065 9.53977 7.50065 10V13.3333C7.50065 13.7936 7.87375 14.1667 8.33398 14.1667C8.79422 14.1667 9.16732 13.7936 9.16732 13.3333V10C9.16732 9.53977 8.79422 9.16667 8.33398 9.16667ZM11.6673 9.16667C11.2071 9.16667 10.834 9.53977 10.834 10V13.3333C10.834 13.7936 11.2071 14.1667 11.6673 14.1667C12.1276 14.1667 12.5007 13.7936 12.5007 13.3333V10C12.5007 9.53977 12.1276 9.16667 11.6673 9.16667Z" fill="#EF3B17"/>
</svg>
