<svg width="20" height="20" viewBox="0 0 20 20" fill="none" xmlns="http://www.w3.org/2000/svg">
<path fill-rule="evenodd" clip-rule="evenodd" d="M6.46493 3.33301H13.5338C14.2046 3.333 14.7582 3.33299 15.2092 3.36984C15.6776 3.40811 16.1082 3.49024 16.5127 3.69632C17.1399 4.0159 17.6498 4.52583 17.9694 5.15304C18.1754 5.55749 18.2576 5.98807 18.2959 6.45649C18.3327 6.90748 18.3327 7.46111 18.3327 8.13191V11.8674C18.3327 12.5382 18.3327 13.0919 18.2959 13.5429C18.2576 14.0113 18.1754 14.4419 17.9694 14.8463C17.6498 15.4735 17.1399 15.9835 16.5127 16.303C16.1082 16.5091 15.6776 16.5912 15.2092 16.6295C14.7582 16.6664 14.2046 16.6664 13.5337 16.6663H6.46495C5.79414 16.6664 5.24049 16.6664 4.78949 16.6295C4.32108 16.5912 3.89049 16.5091 3.48605 16.303C2.85884 15.9835 2.34891 15.4735 2.02933 14.8463C1.82325 14.4419 1.74112 14.0113 1.70284 13.5429C1.666 13.0919 1.66601 12.5382 1.66602 11.8674V8.13193C1.66601 7.46112 1.666 6.90748 1.70284 6.45649C1.74112 5.98807 1.82325 5.55749 2.02933 5.15304C2.34891 4.52583 2.85884 4.0159 3.48605 3.69632C3.89049 3.49024 4.32108 3.40811 4.78949 3.36984C5.24049 3.33299 5.79413 3.333 6.46493 3.33301ZM4.92521 5.03097C4.55987 5.06082 4.37303 5.11492 4.2427 5.18133C3.9291 5.34112 3.67413 5.59609 3.51434 5.90969C3.44793 6.04002 3.39383 6.22686 3.36398 6.59221C3.33333 6.96728 3.33268 7.45253 3.33268 8.16634V11.833C3.33268 12.5468 3.33333 13.0321 3.36398 13.4071C3.39383 13.7725 3.44793 13.9593 3.51434 14.0897C3.67413 14.4033 3.9291 14.6582 4.2427 14.818C4.37303 14.8844 4.55987 14.9385 4.92521 14.9684C5.30029 14.999 5.78553 14.9997 6.49935 14.9997H13.4993C14.2132 14.9997 14.6984 14.999 15.0735 14.9684C15.4388 14.9385 15.6257 14.8844 15.756 14.818C16.0696 14.6582 16.3246 14.4033 16.4844 14.0897C16.5508 13.9593 16.6049 13.7725 16.6347 13.4071C16.6654 13.0321 16.666 12.5468 16.666 11.833V8.16634C16.666 7.45253 16.6654 6.96728 16.6347 6.59221C16.6049 6.22686 16.5508 6.04002 16.4844 5.90969C16.3246 5.59609 16.0696 5.34112 15.756 5.18133C15.6257 5.11492 15.4388 5.06082 15.0735 5.03097C14.6984 5.00032 14.2132 4.99968 13.4994 4.99968H6.49935C5.78553 4.99968 5.30029 5.00032 4.92521 5.03097Z" fill="#6236FF"/>
<path fill-rule="evenodd" clip-rule="evenodd" d="M5.14623 7.029C5.40658 6.64948 5.9253 6.55287 6.30482 6.81322L9.52867 9.02478C9.81273 9.21965 10.1874 9.21965 10.4715 9.02478L13.6953 6.81322C14.0749 6.55287 14.5936 6.64948 14.8539 7.029C15.1143 7.40852 15.0177 7.92724 14.6382 8.18759L11.4143 10.3991C10.5621 10.9838 9.43805 10.9838 8.58586 10.3991L5.362 8.18759C4.98248 7.92724 4.88588 7.40852 5.14623 7.029Z" fill="#6236FF"/>
</svg>
