<svg width="20" height="20" viewBox="0 0 20 20" fill="none" xmlns="http://www.w3.org/2000/svg">
<path fill-rule="evenodd" clip-rule="evenodd" d="M5.80668 2.5H5.85999C6.22551 2.49999 6.54095 2.49998 6.80199 2.51779C7.07684 2.53655 7.35177 2.5778 7.62338 2.6903C8.23595 2.94404 8.72263 3.43072 8.97637 4.04329C9.08887 4.3149 9.13012 4.58983 9.14888 4.86468C9.16669 5.12573 9.16668 5.44117 9.16667 5.8067V5.86001C9.16668 6.22554 9.16669 6.54094 9.14888 6.80199C9.13012 7.07684 9.08887 7.35177 8.97637 7.62338C8.72263 8.23595 8.23595 8.72263 7.62338 8.97637C7.35177 9.08887 7.07684 9.13012 6.80199 9.14888C6.54094 9.16669 6.22553 9.16668 5.85999 9.16667H5.80668C5.44114 9.16668 5.12573 9.16669 4.86468 9.14888C4.58983 9.13012 4.3149 9.08887 4.04329 8.97637C3.43072 8.72263 2.94404 8.23595 2.6903 7.62338C2.5778 7.35177 2.53655 7.07684 2.51779 6.80199C2.49998 6.54095 2.49999 6.22551 2.5 5.85999V5.80664C2.49999 5.44111 2.49998 5.12572 2.51779 4.86468C2.53655 4.58983 2.5778 4.3149 2.6903 4.04329C2.94404 3.43072 3.43072 2.94404 4.04329 2.6903C4.3149 2.5778 4.58983 2.53655 4.86468 2.51779C5.12572 2.49998 5.44116 2.49999 5.80668 2.5ZM4.97813 4.18059C4.78814 4.19356 4.71578 4.21574 4.6811 4.2301C4.47691 4.31468 4.31468 4.47691 4.2301 4.6811C4.21574 4.71578 4.19356 4.78814 4.18059 4.97813C4.16712 5.17562 4.16667 5.43365 4.16667 5.83333C4.16667 6.23302 4.16712 6.49105 4.18059 6.68854C4.19356 6.87853 4.21574 6.95089 4.2301 6.98557C4.31468 7.18976 4.47691 7.35199 4.6811 7.43657C4.71578 7.45093 4.78814 7.47311 4.97813 7.48608C5.17562 7.49955 5.43365 7.5 5.83334 7.5C6.23302 7.5 6.49105 7.49955 6.68854 7.48608C6.87853 7.47311 6.95089 7.45093 6.98557 7.43657C7.18976 7.35199 7.35199 7.18976 7.43657 6.98557C7.45093 6.95089 7.47311 6.87853 7.48608 6.68854C7.49955 6.49105 7.5 6.23302 7.5 5.83333C7.5 5.43365 7.49955 5.17562 7.48608 4.97813C7.47311 4.78814 7.45093 4.71578 7.43657 4.6811C7.35199 4.47691 7.18976 4.31468 6.98557 4.2301C6.95089 4.21574 6.87853 4.19356 6.68854 4.18059C6.49105 4.16712 6.23302 4.16667 5.83334 4.16667C5.43365 4.16667 5.17562 4.16712 4.97813 4.18059ZM4.86468 10.8511C5.12572 10.8333 5.44116 10.8333 5.80668 10.8333H5.85999C6.22551 10.8333 6.54095 10.8333 6.80199 10.8511C7.07684 10.8699 7.35177 10.9111 7.62338 11.0236C8.23595 11.2774 8.72263 11.7641 8.97637 12.3766C9.08887 12.6482 9.13012 12.9232 9.14888 13.198C9.16669 13.4591 9.16668 13.7745 9.16667 14.14V14.1933C9.16668 14.5589 9.16669 14.8743 9.14888 15.1353C9.13012 15.4102 9.08887 15.6851 8.97637 15.9567C8.72263 16.5693 8.23595 17.056 7.62338 17.3097C7.35177 17.4222 7.07684 17.4635 6.80199 17.4822C6.54094 17.5 6.22553 17.5 5.85999 17.5H5.80668C5.44114 17.5 5.12573 17.5 4.86468 17.4822C4.58983 17.4635 4.3149 17.4222 4.04329 17.3097C3.43072 17.056 2.94404 16.5693 2.6903 15.9567C2.5778 15.6851 2.53655 15.4102 2.51779 15.1353C2.49998 14.8743 2.49999 14.5588 2.5 14.1933V14.14C2.49999 13.7744 2.49998 13.4591 2.51779 13.198C2.53655 12.9232 2.5778 12.6482 2.6903 12.3766C2.94404 11.7641 3.43072 11.2774 4.04329 11.0236C4.3149 10.9111 4.58983 10.8699 4.86468 10.8511ZM4.97813 12.5139C4.78814 12.5269 4.71578 12.5491 4.6811 12.5634C4.47691 12.648 4.31468 12.8102 4.2301 13.0144C4.21574 13.0491 4.19356 13.1215 4.18059 13.3115C4.16712 13.509 4.16667 13.767 4.16667 14.1667C4.16667 14.5664 4.16712 14.8244 4.18059 15.0219C4.19356 15.2119 4.21574 15.2842 4.2301 15.3189C4.31468 15.5231 4.47691 15.6853 4.6811 15.7699C4.71578 15.7843 4.78814 15.8064 4.97813 15.8194C5.17562 15.8329 5.43365 15.8333 5.83334 15.8333C6.23302 15.8333 6.49105 15.8329 6.68854 15.8194C6.87853 15.8064 6.95089 15.7843 6.98557 15.7699C7.18976 15.6853 7.35199 15.5231 7.43657 15.3189C7.45093 15.2842 7.47311 15.2119 7.48608 15.0219C7.49955 14.8244 7.5 14.5664 7.5 14.1667C7.5 13.767 7.49955 13.509 7.48608 13.3115C7.47311 13.1215 7.45093 13.0491 7.43657 13.0144C7.35199 12.8102 7.18976 12.648 6.98557 12.5634C6.95089 12.5491 6.87853 12.5269 6.68854 12.5139C6.49105 12.5005 6.23302 12.5 5.83334 12.5C5.43365 12.5 5.17562 12.5005 4.97813 12.5139ZM10.8333 5.83333C10.8333 5.3731 11.2064 5 11.6667 5H16.6667C17.1269 5 17.5 5.3731 17.5 5.83333C17.5 6.29357 17.1269 6.66667 16.6667 6.66667H11.6667C11.2064 6.66667 10.8333 6.29357 10.8333 5.83333ZM10.8333 14.1667C10.8333 13.7064 11.2064 13.3333 11.6667 13.3333H16.6667C17.1269 13.3333 17.5 13.7064 17.5 14.1667C17.5 14.6269 17.1269 15 16.6667 15H11.6667C11.2064 15 10.8333 14.6269 10.8333 14.1667Z" fill="#0E0E17"/>
</svg>
