<svg width="24" height="24" viewBox="0 0 24 24" fill="none" xmlns="http://www.w3.org/2000/svg">
<path opacity="0.25" d="M12.6708 3.21744C12.2485 3.0063 11.7515 3.0063 11.3292 3.21744L5.82918 5.96744C5.321 6.22153 5 6.74092 5 7.30908V18.0001C5 19.6569 6.34315 21.0001 8 21.0001H16C17.6569 21.0001 19 19.6569 19 18.0001V7.30908C19 6.74092 18.679 6.22153 18.1708 5.96744L12.6708 3.21744Z" fill="#6236FF"/>
<path fill-rule="evenodd" clip-rule="evenodd" d="M14 21H10V17C10 15.8954 10.8954 15 12 15C13.1046 15 14 15.8954 14 17V21Z" fill="#6236FF"/>
<path fill-rule="evenodd" clip-rule="evenodd" d="M3.10579 8.44722C3.35278 8.94119 3.95345 9.14142 4.44743 8.89443L12.0002 5.11804L19.553 8.89443C20.047 9.14142 20.6477 8.94119 20.8946 8.44722C21.1416 7.95324 20.9414 7.35256 20.4474 7.10557L12.4474 3.10558C12.1659 2.96481 11.8345 2.96481 11.553 3.10558L3.55301 7.10557C3.05903 7.35256 2.8588 7.95324 3.10579 8.44722Z" fill="#6236FF"/>
</svg>
