<svg width="20" height="20" viewBox="0 0 20 20" fill="none" xmlns="http://www.w3.org/2000/svg">
<path fill-rule="evenodd" clip-rule="evenodd" d="M7.50065 13.3332C6.11994 13.3332 5.00065 14.4525 5.00065 15.8332C5.00065 16.2934 5.37375 16.6665 5.83398 16.6665H14.1673C14.6276 16.6665 15.0007 16.2934 15.0007 15.8332C15.0007 14.4525 13.8814 13.3332 12.5007 13.3332H7.50065ZM3.33398 15.8332C3.33398 13.532 5.19946 11.6665 7.50065 11.6665H12.5007C14.8018 11.6665 16.6673 13.532 16.6673 15.8332C16.6673 17.2139 15.548 18.3332 14.1673 18.3332H5.83398C4.45327 18.3332 3.33398 17.2139 3.33398 15.8332Z" fill="#D23CE6"/>
<path fill-rule="evenodd" clip-rule="evenodd" d="M10.0007 3.33317C8.61994 3.33317 7.50065 4.45246 7.50065 5.83317C7.50065 7.21388 8.61994 8.33317 10.0007 8.33317C11.3814 8.33317 12.5007 7.21388 12.5007 5.83317C12.5007 4.45246 11.3814 3.33317 10.0007 3.33317ZM5.83398 5.83317C5.83398 3.53198 7.69946 1.6665 10.0007 1.6665C12.3018 1.6665 14.1673 3.53198 14.1673 5.83317C14.1673 8.13436 12.3018 9.99984 10.0007 9.99984C7.69946 9.99984 5.83398 8.13436 5.83398 5.83317Z" fill="#D23CE6"/>
</svg>
