<svg width="82" height="163" viewBox="0 0 82 163" fill="none" xmlns="http://www.w3.org/2000/svg">
<path d="M81.7464 80.0087C81.7413 79.8995 81.7103 79.793 81.656 79.6981C81.6016 79.6033 81.5255 79.5226 81.4338 79.463L65.3495 70.1805C65.2516 70.1316 65.1438 70.1061 65.0344 70.1061C64.9251 70.1061 64.8172 70.1316 64.7194 70.1805L64.3671 70.3888C64.2755 70.4478 64.199 70.5274 64.1439 70.6214C64.0887 70.7153 64.0564 70.8209 64.0496 70.9296V83.2583C64.0557 83.3679 64.0876 83.4745 64.1428 83.5694C64.198 83.6642 64.2749 83.7447 64.3671 83.8041L80.4515 93.0915C80.5485 93.1404 80.6555 93.1658 80.7641 93.1658C80.8726 93.1658 80.9797 93.1404 81.0766 93.0915L81.4338 92.8832C81.5248 92.824 81.6005 92.7442 81.6548 92.6502C81.7092 92.5562 81.7405 92.4508 81.7464 92.3424V80.0087Z" fill="#6236FF"/>
<path opacity="0.4" d="M81.6568 79.696L80.7638 80.1921L64.1436 70.5971C64.1964 70.4998 64.2733 70.4178 64.3669 70.3589L64.7191 70.1555C64.817 70.1066 64.9248 70.0811 65.0342 70.0811C65.1435 70.0811 65.2514 70.1066 65.3492 70.1555L81.4336 79.443C81.527 79.5084 81.6035 79.5951 81.6568 79.696Z" fill="white"/>
<path opacity="0.2" d="M81.7473 80.0087V92.3374C81.7415 92.4458 81.7101 92.5512 81.6558 92.6452C81.6015 92.7392 81.5257 92.819 81.4348 92.8782L81.0776 93.0865L80.9932 93.1262L80.8642 93.156C80.782 93.1684 80.6984 93.1684 80.6162 93.156H80.5566C80.5437 93.1602 80.5298 93.1602 80.5169 93.156C80.5402 93.167 80.5656 93.1728 80.5914 93.1728C80.6171 93.1728 80.6425 93.167 80.6658 93.156C80.7001 93.134 80.7276 93.1028 80.7452 93.066C80.7627 93.0292 80.7696 92.9882 80.765 92.9476V80.5991C80.7686 80.543 80.7548 80.4872 80.7255 80.4392C80.6962 80.3913 80.6528 80.3535 80.6013 80.3312L80.765 80.2369L81.658 79.7408C81.7062 79.8229 81.7366 79.9141 81.7473 80.0087Z" fill="black"/>
<path opacity="0.2" d="M80.7638 80.2122L73.3219 82.9955C73.0615 83.0889 72.7769 83.0907 72.5153 83.0004C72.2537 82.9102 72.0307 82.7335 71.8832 82.4993L70.6875 80.6637L64.0891 70.5576L70.4643 80.7579L64.0692 83.2386C64.0763 83.3509 64.1103 83.4598 64.1684 83.5561L70.4643 80.7877L71.8584 83.0104C72.0118 83.2576 72.2496 83.4411 72.5277 83.5268C72.8058 83.6125 73.1055 83.5947 73.3715 83.4767L74.3638 83.0401L80.6696 93.1115C80.7039 93.0895 80.7314 93.0583 80.749 93.0215C80.7665 92.9846 80.7734 92.9436 80.7688 92.9031V92.6997L74.3936 83.0252L80.7638 80.2122Z" fill="black"/>
<path d="M67.0363 56.5719L59.6589 43.2559C59.6589 43.2559 51.458 33.0159 54.6679 28.769C59.0437 28.3672 62.9135 29.1312 66.5749 36.2109C70.6878 44.1042 72.6425 49.8196 74.7808 54.9644C75.3712 56.3883 75.3116 63.3986 75.1727 68.7021C75.0834 72.175 75.2918 75.9406 75.2918 75.9406L72.5135 74.3381C71.8779 73.9708 71.1588 73.7726 70.4248 73.7626H69.7302C69.0419 74.4829 68.5321 75.3546 68.2419 76.3077C67.8003 78.2922 66.7138 78.9074 66.1284 78.4411C65.8456 78.2128 65.6322 77.042 66.2921 74.2637C66.8279 71.9815 68.9067 69.7489 68.6338 68.0026L67.0363 56.5719Z" fill="#FFA8A7"/>
<path d="M54.6671 28.769C54.6671 28.769 57.4554 28.1438 59.549 28.8483C61.6427 29.5528 63.1112 30.3714 65.3487 33.7054C67.5862 37.0394 72.5475 48.6785 72.5475 48.6785C72.5475 48.6785 71.9472 51.8834 64.6095 53.0344L57.2966 41.2614L54.6671 28.769Z" fill="#37474F"/>
<path d="M43.2319 25.058L44.7054 34.3504L53.9234 33.8593L52.6037 23.0537L43.2319 25.058Z" fill="#FFA8A7"/>
<path d="M37.0348 13.6472C37.0348 13.6472 34.837 16.9812 35.09 17.3086C35.343 17.636 36.9554 17.9337 36.9554 17.9337L37.0348 13.6472Z" fill="#F28F8F"/>
<path d="M43.1369 4.42911C38.6718 5.36679 37.4067 7.32152 36.9849 14.3814C36.5484 21.7588 37.3025 24.0806 38.2699 25.0729C38.9248 25.7426 42.5614 25.8667 44.3971 25.3606C46.6941 24.7256 51.8836 22.88 54.3196 19.1739C57.1772 14.808 57.9264 8.88927 54.8653 6.46322C50.554 3.04492 44.9428 4.0471 43.1369 4.42911Z" fill="#FFA8A7"/>
<path d="M43.3161 25.5636C44.1087 25.418 44.8909 25.2208 45.6578 24.9733C45.0694 25.6292 44.2875 26.081 43.4253 26.2632L43.3161 25.5636Z" fill="#F28F8F"/>
<path d="M36.0871 7.17252C36.4306 7.50968 36.8118 7.80601 37.2233 8.05562C37.818 8.4393 38.4379 8.7824 39.0788 9.0826C39.7058 9.30862 40.3104 9.59264 40.8847 9.93098C41.6933 10.5065 41.7975 11.2656 41.8174 12.1933C41.8174 12.7986 41.8174 13.5527 41.8174 14.3713C41.8174 15.5967 42.6112 16.5245 42.9932 14.8674C42.9932 14.8674 43.6977 12.1437 45.9947 12.486C48.2918 12.8283 48.4754 15.4181 47.4037 17.4473C46.734 18.6826 44.9479 18.3601 44.9479 18.3601C44.8849 19.5028 45.0666 20.6458 45.4806 21.7127C45.8947 22.7796 46.5318 23.7458 47.3492 24.5468C47.3492 24.5468 49.1203 25.0826 52.7371 24.3136C54.9597 23.8175 57.0931 21.3915 58.4128 18.4494C61.2059 12.228 61.3895 6.62678 57.4205 4.94988C56.9889 2.08228 54.7315 0.797317 52.1616 0.206928C48.3116 -0.676174 44.7197 1.606 40.9045 0.757627C40.2777 0.624976 39.6583 0.459372 39.049 0.261502C38.8142 0.151965 38.547 0.134267 38.2999 0.211891C38.1641 0.303296 38.0576 0.432024 37.9934 0.582554C37.9291 0.733083 37.9098 0.898987 37.9377 1.06026C37.9657 1.42923 38.0822 1.78601 38.2774 2.10038C38.4726 2.41474 38.7407 2.67742 39.0589 2.86616C38.9795 2.82151 38.6074 2.92073 38.5082 2.92569C38.2949 2.92569 38.0816 2.92569 37.8682 2.9505C37.4502 2.94314 37.0328 2.91333 36.618 2.8612C36.3309 2.81632 36.038 2.82642 35.7547 2.89097C35.4431 3.01135 35.1784 3.22872 34.9998 3.51101C34.8211 3.7933 34.7379 4.12555 34.7625 4.45872C34.8267 5.1229 35.0626 5.75894 35.4471 6.3043C35.5849 6.53503 35.7391 6.75555 35.9085 6.96415C35.9879 7.04849 36.0375 7.10307 36.0871 7.17252Z" fill="#263238"/>
<path d="M57.5195 5.93247L60.1787 4.36471C59.9708 4.01208 59.6313 3.75647 59.235 3.65413C58.8386 3.55178 58.4178 3.61108 58.0652 3.81898C57.7126 4.02687 57.457 4.36634 57.3546 4.7627C57.2523 5.15905 57.3116 5.57983 57.5195 5.93247Z" fill="#263238"/>
<path d="M60.0019 143.999L60.0465 144.599C60.1531 145.385 60.173 146.18 60.1061 146.971C60.0416 147.516 59.8828 148.256 59.3768 148.553C58.8343 148.864 58.2493 149.093 57.6403 149.233C56.2931 149.564 54.8734 149.424 53.6168 148.836C52.5749 148.34 51.7563 147.536 50.64 147.219C49.4735 146.929 48.2856 146.733 47.0878 146.633C46.5569 146.59 46.0317 146.493 45.52 146.346C45.1299 146.212 44.7515 146.046 44.3888 145.85C43.1254 145.251 41.986 144.419 41.0301 143.399C40.4337 142.715 40.0221 141.89 39.8344 141.002C39.7302 140.481 39.5169 138.973 40.3901 139.018C44.6667 139.211 48.8986 140.129 53.1802 140.08C53.4585 140.066 53.7374 140.078 54.0137 140.114C54.5368 140.224 55.0274 140.453 55.4475 140.784C55.6255 140.938 55.8375 141.047 56.066 141.103C56.2946 141.159 56.5332 141.161 56.7622 141.107C57.4977 140.99 58.2478 141 58.9799 141.136C59.1364 141.156 59.2864 141.211 59.4187 141.297C59.551 141.383 59.6622 141.498 59.7439 141.632C59.7805 141.736 59.8022 141.845 59.8084 141.955C59.8679 142.615 59.9374 143.314 60.0019 143.999Z" fill="#263238"/>
<path d="M59.5502 138.874L59.3319 142.098C59.1236 143.324 54.9412 144.083 54.078 141.905L53.6662 138.249L59.5502 138.874Z" fill="#FFA8A7"/>
<path d="M43.6728 151.624C43.6728 151.624 44.1689 153.301 44.4467 154.765C44.6551 155.925 44.9428 157.865 44.5261 158.734C44.1094 159.602 42.5069 160.123 40.061 160.048C38.4734 159.999 35.9779 161.041 34.2613 161.929C32.5447 162.817 28.8436 163.174 26.998 162.921C24.82 162.613 22.5924 161.298 22.26 160.386C21.9276 159.473 22.4188 158.55 27.6033 156.476C27.6529 156.476 34.8021 154.308 37.3521 151.619L43.6728 151.624Z" fill="#263238"/>
<path d="M43.6988 149.561C43.6988 149.561 43.6591 150.98 43.6442 151.793C43.6293 152.607 42.652 153.778 40.1714 153.649C38.43 153.545 37.2244 153.048 37.3286 151.615L37.3732 149.546L43.6988 149.561Z" fill="#FFA8A7"/>
<path d="M61.2515 114.117C60.5173 107.841 59.9666 104.25 59.9666 104.25C59.9666 104.25 60.0906 95.5127 60.6066 87.3812C61.1573 78.58 61.0332 67.4966 61.2515 65.3037C61.2515 65.3037 32.9724 59.2659 32.7442 69.4612C32.4763 81.3087 33.2403 105.822 33.4338 109.012C33.6719 113.477 33.6819 118.156 34.426 125.424C35.1752 132.603 37.3532 149.561 37.3532 149.561C40.5631 151.391 43.6837 149.561 43.6837 149.561C43.6837 149.561 46.1396 129.219 46.0453 124.075C45.9842 120.328 45.6259 116.592 44.9737 112.902L47.2013 89.9065C47.2013 89.9065 48.0745 97.016 48.3126 101.496C48.5507 105.976 49.161 108.715 50.2673 117.05C51.2298 124.288 53.6658 139.554 53.6658 139.554C54.591 140.077 55.6439 140.332 56.7062 140.29C57.7684 140.248 58.7979 139.911 59.6788 139.316C59.6788 139.316 61.9858 120.393 61.2515 114.117Z" fill="#6236FF"/>
<path opacity="0.15" d="M57.972 79.2051C57.972 79.2051 56.0123 82.4348 50.0687 84.8063L48.4116 90.3579L48.2331 100.117C48.0048 96.9713 47.6576 93.5381 47.216 89.9015L47.8858 84.1812C47.8858 84.1812 54.4495 82.1917 57.972 79.2051Z" fill="black"/>
<path d="M62.3383 34.7173C61.2022 30.6788 58.538 28.8928 55.5762 28.7042C54.822 28.6546 53.294 28.7042 53.294 28.7042C53.5024 30.4159 48.2285 31.6264 44.1256 30.659C42.8902 30.9864 40.8412 31.4478 39.8093 31.7901C36.8623 32.7824 33.325 36.4587 32.8636 46.0785C32.8636 46.0785 32.3972 66.752 32.5411 72.7552C39.8242 75.8311 46.8543 76.228 51.0961 75.3846C59.9321 73.6631 61.3858 69.8776 61.3858 69.8776C61.3858 69.8776 61.3014 64.6237 60.974 56.2441C62.4723 44.347 62.8295 36.4735 62.3383 34.7173Z" fill="#455A64"/>
<path d="M0.544871 29.1312C0.526586 29.084 0.51786 29.0337 0.519208 28.9831C0.520556 28.9325 0.531949 28.8826 0.552721 28.8365C0.573494 28.7903 0.603233 28.7487 0.640211 28.7142C0.677189 28.6796 0.720671 28.6527 0.768126 28.6351L18.7973 21.3818C19.0743 21.3119 19.3665 21.3327 19.6308 21.4413L20.1765 21.6695C20.4366 21.7734 20.6523 21.9646 20.7868 22.2103L25.2172 33.8295C25.2361 33.8767 25.2454 33.9272 25.2444 33.978C25.2434 34.0288 25.2321 34.0788 25.2113 34.1252C25.1904 34.1715 25.1604 34.2132 25.1231 34.2476C25.0857 34.2821 25.0418 34.3086 24.9939 34.3257L6.95976 41.579C6.68272 41.6489 6.39057 41.628 6.12628 41.5195L5.58054 41.2913C5.3193 41.1872 5.10199 40.9962 4.96534 40.7505L0.544871 29.1312Z" fill="#6236FF"/>
<path opacity="0.4" d="M0.55433 28.8486L1.9286 29.4191L20.5531 21.9227C20.4401 21.8248 20.313 21.7445 20.1761 21.6845L19.6303 21.4563C19.3666 21.3453 19.0736 21.3243 18.7968 21.3968L0.767668 28.6501C0.674235 28.6873 0.598113 28.7581 0.55433 28.8486Z" fill="white"/>
<path opacity="0.2" d="M0.545316 29.1311L4.97571 40.7504C5.11236 40.9961 5.32967 41.1872 5.59091 41.2912L6.13664 41.5194L6.26564 41.564L6.44424 41.6037C6.55318 41.6133 6.66274 41.6133 6.77168 41.6037H6.8461H6.89075C6.8261 41.6236 6.75696 41.6236 6.6923 41.6037C6.64567 41.5866 6.60332 41.5595 6.56819 41.5244C6.53306 41.4893 6.50601 41.4469 6.48889 41.4003L2.05849 29.786C2.04634 29.763 2.03985 29.7374 2.03956 29.7114C2.03927 29.6854 2.04519 29.6596 2.05683 29.6364C2.06847 29.6131 2.0855 29.5929 2.10649 29.5775C2.12749 29.5621 2.15186 29.552 2.17756 29.5479L1.9295 29.4437L0.555233 28.8732C0.521242 28.9552 0.517728 29.0467 0.545316 29.1311Z" fill="black"/>
<path opacity="0.2" d="M1.92938 29.419L12.8193 32.7331C13.5982 32.9713 14.3077 32.8423 14.5607 32.4206L15.4885 30.8082L20.6184 21.8779L15.8308 30.8727L25.2224 33.8494C25.2597 33.94 25.2597 34.0416 25.2224 34.1322L15.8358 30.9173L14.7889 32.9018C14.5508 33.3533 13.762 33.4773 12.9434 33.1995L11.455 32.7034L6.69218 41.6038C6.64555 41.5867 6.6032 41.5597 6.56807 41.5245C6.53294 41.4894 6.50589 41.4471 6.48877 41.4004L6.41435 41.207L11.4252 32.6637L1.92938 29.419Z" fill="black"/>
<path d="M31.2207 38.5524C27.8719 42.8489 23.1835 48.8917 20.5342 52.4737C18.6291 50.643 11.6883 44.0842 10.9739 43.0473C10.1751 41.8963 10.2098 40.3186 9.54999 38.6318C9.01418 37.2526 7.80364 35.5509 7.49108 34.8464C6.92053 33.5565 5.66534 32.9165 5.64549 34.8017C5.64549 36.3695 6.38967 38.2349 6.30533 38.5921C6.26564 38.7459 5.64549 38.4334 4.97076 37.7983C4.67293 37.5145 4.40372 37.2021 4.16703 36.8656L2.75804 34.9555L1.76579 32.4005C1.76579 32.4005 1.37386 32.4551 0.877732 33.6358C-0.551108 37.0392 -0.362587 40.7651 2.39091 43.7667C4.02316 45.5478 6.77169 47.9838 9.62441 51.407C12.4771 54.8303 17.8254 60.754 20.1075 62.0687C22.1615 63.2495 24.6669 61.3841 27.5494 58.4669C31.5928 54.3937 37.844 47.5521 37.844 47.5521C37.844 47.5521 42.5076 39.6439 39.7888 31.7902C36.3804 31.9192 35.4973 33.0703 31.2207 38.5524Z" fill="#FFA8A7"/>
<path d="M40.9051 31.4827C40.9051 31.4827 37.6158 31.6961 35.5221 32.7627C34.9615 33.0505 33.354 34.7968 31.826 36.8409C28.8492 40.8545 23.5953 47.8102 23.5953 47.8102C23.5953 47.8102 23.6945 54.4037 30.159 56.2443C30.159 56.2443 36.6334 49.6012 38.3748 47.5472C40.6421 44.8781 42.8548 36.9401 40.9051 31.4827Z" fill="#37474F"/>
</svg>
