<svg width="24" height="24" viewBox="0 0 24 24" fill="none" xmlns="http://www.w3.org/2000/svg">
<path fill-rule="evenodd" clip-rule="evenodd" d="M10.3572 3H14.0355C14.9373 2.99999 15.6647 2.99999 16.2567 3.04038C16.8654 3.08191 17.4037 3.16948 17.9134 3.3806C19.1386 3.88807 20.1119 4.86144 20.6194 6.08658C20.8305 6.59628 20.9181 7.13456 20.9596 7.74331C21 8.33531 21 9.06272 21 9.96448V10.0355C21 10.9373 21 11.6647 20.9596 12.2567C20.9181 12.8654 20.8305 13.4037 20.6194 13.9134C20.1119 15.1386 19.1386 16.1119 17.9134 16.6194C17.4037 16.8305 16.8654 16.9181 16.2567 16.9596C15.6647 17 14.9373 17 14.0355 17H11.4286C10.969 17 10.8774 17.0046 10.8026 17.0197C10.6284 17.0548 10.4667 17.1356 10.3342 17.2539C10.2773 17.3047 10.2186 17.3752 9.94286 17.7429L9.92131 17.7716C9.31559 18.5792 8.8329 19.2228 8.43791 19.6881C8.06664 20.1255 7.64696 20.5654 7.14609 20.7725C5.76787 21.3422 4.1804 20.813 3.41966 19.5303C3.14319 19.0641 3.07138 18.4604 3.03679 17.8878C2.99999 17.2785 3 16.474 3 15.4645V10.3572C2.99999 9.27341 2.99998 8.39926 3.05782 7.69138C3.11737 6.96253 3.24318 6.32234 3.54497 5.73005C4.02433 4.78924 4.78924 4.02433 5.73005 3.54497C6.32234 3.24318 6.96253 3.11737 7.69138 3.05782C8.39926 2.99998 9.27341 2.99999 10.3572 3Z" fill="#4E8AF4"/>
</svg>
