<svg width="24" height="24" viewBox="0 0 24 24" fill="none" xmlns="http://www.w3.org/2000/svg">
<path fill-rule="evenodd" clip-rule="evenodd" d="M9.69894 3.51882C10.5613 1.48884 13.4385 1.48884 14.3009 3.51882L15.8585 7.18525L19.7068 7.50757C21.8843 7.68995 22.7964 10.3815 21.1783 11.8501L18.2354 14.5211L19.1987 18.9572C19.6854 21.1985 17.1494 22.8575 15.2908 21.5136L11.9999 19.1341L8.70899 21.5136C6.85041 22.8575 4.3144 21.1985 4.8011 18.9572L5.7644 14.5211L2.82143 11.8501C1.20334 10.3815 2.11542 7.68994 4.29293 7.50757L8.14133 7.18525L9.69894 3.51882ZM12.4601 4.30083C12.2876 3.89484 11.7122 3.89484 11.5397 4.30083L9.86418 8.24485C9.6466 8.75703 9.16334 9.10666 8.6088 9.1531L4.45985 9.50059C4.02435 9.53707 3.84194 10.0754 4.16555 10.3691L7.3224 13.2342C7.7194 13.5945 7.89391 14.1393 7.78014 14.6632L6.75555 19.3816C6.65821 19.8299 7.16541 20.1617 7.53712 19.8929L11.121 17.3016C11.6456 16.9223 12.3543 16.9223 12.8788 17.3016L16.4627 19.8929C16.8344 20.1617 17.3416 19.8299 17.2443 19.3816L16.2197 14.6632C16.1059 14.1393 16.2804 13.5945 16.6774 13.2342L19.8342 10.3691C20.1578 10.0754 19.9754 9.53707 19.5399 9.50059L15.391 9.1531C14.8365 9.10666 14.3532 8.75703 14.1356 8.24485L12.4601 4.30083Z" fill="#E05780"/>
</svg>
