<svg width="20" height="20" viewBox="0 0 20 20" fill="none" xmlns="http://www.w3.org/2000/svg">
<path fill-rule="evenodd" clip-rule="evenodd" d="M6.66602 10C6.66602 11.3807 5.54673 12.5 4.16602 12.5C2.7853 12.5 1.66602 11.3807 1.66602 10C1.66602 8.61929 2.7853 7.5 4.16602 7.5C5.54673 7.5 6.66602 8.61929 6.66602 10ZM4.99935 10C4.99935 10.4602 4.62625 10.8333 4.16602 10.8333C3.70578 10.8333 3.33268 10.4602 3.33268 10C3.33268 9.53976 3.70578 9.16667 4.16602 9.16667C4.62625 9.16667 4.99935 9.53976 4.99935 10Z" fill="#0E0E17" fill-opacity="0.42"/>
<path fill-rule="evenodd" clip-rule="evenodd" d="M12.5 10C12.5 11.3807 11.3807 12.5 10 12.5C8.61929 12.5 7.5 11.3807 7.5 10C7.5 8.61929 8.61929 7.5 10 7.5C11.3807 7.5 12.5 8.61929 12.5 10ZM10.8333 10C10.8333 10.4602 10.4602 10.8333 10 10.8333C9.53976 10.8333 9.16667 10.4602 9.16667 10C9.16667 9.53976 9.53976 9.16667 10 9.16667C10.4602 9.16667 10.8333 9.53976 10.8333 10Z" fill="#0E0E17" fill-opacity="0.42"/>
<path fill-rule="evenodd" clip-rule="evenodd" d="M18.334 10C18.334 11.3807 17.2147 12.5 15.834 12.5C14.4533 12.5 13.334 11.3807 13.334 10C13.334 8.61929 14.4533 7.5 15.834 7.5C17.2147 7.5 18.334 8.61929 18.334 10ZM16.6673 10C16.6673 10.4602 16.2942 10.8333 15.834 10.8333C15.3737 10.8333 15.0007 10.4602 15.0007 10C15.0007 9.53976 15.3737 9.16667 15.834 9.16667C16.2942 9.16667 16.6673 9.53976 16.6673 10Z" fill="#0E0E17" fill-opacity="0.42"/>
</svg>
