<svg width="24" height="24" viewBox="0 0 24 24" fill="none" xmlns="http://www.w3.org/2000/svg">
<path d="M5.84146 14.5715C5.84146 14.9125 5.97692 15.2395 6.21805 15.4807C6.45918 15.7218 6.78621 15.8573 7.12721 15.8573C7.46822 15.8573 7.79525 15.7218 8.03638 15.4807C8.2775 15.2395 8.41297 14.9125 8.41297 14.5715V7.38929L10.0754 9.05177C10.3179 9.28598 10.6427 9.41557 10.9798 9.41264C11.317 9.40972 11.6395 9.27449 11.8778 9.0361C12.1162 8.79772 12.2515 8.47523 12.2544 8.13811C12.2573 7.80099 12.1277 7.47621 11.8935 7.23371L8.03624 3.37645C7.79513 3.13541 7.46815 3 7.12721 3C6.78628 3 6.4593 3.13541 6.21819 3.37645L2.36093 7.23371C2.12672 7.47621 1.99712 7.80099 2.00005 8.13811C2.00298 8.47523 2.1382 8.79772 2.37659 9.0361C2.61498 9.27449 2.93746 9.40972 3.27458 9.41264C3.6117 9.41557 3.93649 9.28598 4.17898 9.05177L5.84146 7.38929V14.5715ZM18.699 9.42849C18.699 9.08749 18.5635 8.76045 18.3224 8.51933C18.0813 8.2782 17.7542 8.14274 17.4132 8.14274C17.0722 8.14274 16.7452 8.2782 16.5041 8.51933C16.263 8.76045 16.1275 9.08749 16.1275 9.42849V16.6107L14.465 14.9482C14.2225 14.714 13.8977 14.5844 13.5606 14.5874C13.2235 14.5903 12.901 14.7255 12.6626 14.9639C12.4242 15.2023 12.289 15.5248 12.2861 15.8619C12.2831 16.199 12.4127 16.5238 12.647 16.7663L16.5042 20.6235C16.7453 20.8646 17.0723 21 17.4132 21C17.7542 21 18.0812 20.8646 18.3223 20.6235L22.1795 16.7663C22.4137 16.5238 22.5433 16.199 22.5404 15.8619C22.5375 15.5248 22.4023 15.2023 22.1639 14.9639C21.9255 14.7255 21.603 14.5903 21.2659 14.5874C20.9288 14.5844 20.604 14.714 20.3615 14.9482L18.699 16.6107V9.42849Z" fill="white"/>
</svg>
