<svg width="20" height="20" viewBox="0 0 20 20" fill="none" xmlns="http://www.w3.org/2000/svg">
<path d="M9.97606 7.20605C10.222 7.20605 10.4578 7.10835 10.6317 6.93445C10.8056 6.76056 10.9033 6.5247 10.9033 6.27877C10.9033 6.03284 10.8056 5.79699 10.6317 5.62309C10.4578 5.44919 10.222 5.3515 9.97606 5.3515C9.73013 5.3515 9.49427 5.44919 9.32038 5.62309C9.14648 5.79699 9.04878 6.03284 9.04878 6.27877C9.04878 6.5247 9.14648 6.76056 9.32038 6.93445C9.49427 7.10835 9.73013 7.20605 9.97606 7.20605ZM10.886 2.82313C10.6288 2.6141 10.3075 2.5 9.97606 2.5C9.64463 2.5 9.3233 2.6141 9.06609 2.82313L2.88179 7.84896C2.13008 8.46219 2.56281 9.67878 3.53212 9.67878H3.79423V14.8715C3.05983 15.2461 2.55787 16.009 2.55787 16.8905V17.7152C2.55787 17.8791 2.623 18.0363 2.73893 18.1523C2.85486 18.2682 3.0121 18.3333 3.17605 18.3333H16.7761C16.94 18.3333 17.0973 18.2682 17.2132 18.1523C17.3291 18.0363 17.3942 17.8791 17.3942 17.7152V16.8905C17.3942 16.0102 16.8923 15.2461 16.1579 14.8715V9.67878H16.42C17.3893 9.67878 17.822 8.46096 17.0691 7.84896L10.8873 2.82189L10.886 2.82313ZM9.84748 3.78255C9.88422 3.75284 9.93004 3.73663 9.9773 3.73663C10.0245 3.73663 10.0704 3.75284 10.1071 3.78255L15.8377 8.44241H4.11321L9.84748 3.78131V3.78255ZM14.9215 14.6242H13.6852V9.67878H14.9215V14.6242ZM12.4488 14.6242H10.5942V9.67878H12.4488V14.6242ZM9.35788 14.6242H7.50333V9.67878H9.35788V14.6242ZM15.128 15.8606C15.6967 15.8606 16.1579 16.3218 16.1579 16.8905V17.097H3.79423V16.8905C3.79423 16.3218 4.2554 15.8606 4.82412 15.8606H15.128ZM6.26696 14.6242H5.0306V9.67878H6.26696V14.6242Z" fill="#862CCA"/>
</svg>
