<svg width="24" height="24" viewBox="0 0 24 24" fill="none" xmlns="http://www.w3.org/2000/svg">
<path d="M4 21C4 20.4477 4.44772 20 5 20H19C19.5523 20 20 20.4477 20 21C20 21.5523 19.5523 22 19 22H5C4.44772 22 4 21.5523 4 21Z" fill="white"/>
<path fill-rule="evenodd" clip-rule="evenodd" d="M12.4108 3.17425C13.9729 1.61216 16.5056 1.61217 18.0677 3.17426L18.825 3.93161C20.3871 5.49371 20.3871 8.02638 18.825 9.58847L11.919 16.4945C11.6415 16.772 11.2886 16.9617 10.9042 17.04L6.40059 17.9579C4.99604 18.2442 3.7552 17.0034 4.04144 15.5989L4.95925 11.0951C5.0376 10.7107 5.22731 10.3577 5.50476 10.0803L12.4108 3.17425ZM16.6535 4.58847C15.8724 3.80743 14.6061 3.80742 13.8251 4.58847L13.4134 5.00011L16.9992 8.58589L17.4108 8.17426C18.1919 7.39321 18.1919 6.12688 17.4108 5.34583L16.6535 4.58847ZM8.41339 10.0001L11.9992 6.41432L15.585 10.0001L11.9992 13.5859L8.41339 10.0001ZM6.99918 11.4143L6.91897 11.4945L6.00116 15.9982L10.5047 15.0803L10.585 15.0001L6.99918 11.4143Z" fill="white"/>
</svg>
