<svg width="26" height="20" viewBox="0 0 26 20" fill="none" xmlns="http://www.w3.org/2000/svg">
<g clip-path="url(#clip0_2386_31515)">
<path d="M4.67646 19.8997V18.576C4.67646 18.0685 4.36751 17.7376 3.83797 17.7376C3.57324 17.7376 3.28641 17.8259 3.08782 18.1127C2.93344 17.87 2.71284 17.7376 2.38189 17.7376C2.16118 17.7376 1.94068 17.8038 1.7641 18.0465V17.7818H1.30078V19.8997H1.7641V18.7304C1.7641 18.3554 1.96269 18.1788 2.27164 18.1788C2.58038 18.1788 2.73495 18.3774 2.73495 18.7304V19.8997H3.19827V18.7304C3.19827 18.3554 3.41877 18.1788 3.70561 18.1788C4.01455 18.1788 4.16892 18.3774 4.16892 18.7304V19.8997H4.67646ZM11.5379 17.7818H10.7878V17.142H10.3245V17.7818H9.9053V18.2008H10.3244V19.1717C10.3244 19.6571 10.523 19.9439 11.0525 19.9439C11.2511 19.9439 11.4716 19.8777 11.6262 19.7895L11.4937 19.3923C11.3614 19.4805 11.207 19.5027 11.0967 19.5027C10.8761 19.5027 10.7878 19.3703 10.7878 19.1496V18.2008H11.5379V17.7818ZM15.4651 17.7375C15.2004 17.7375 15.0239 17.87 14.9135 18.0465V17.7818H14.4502V19.8997H14.9135V18.7084C14.9135 18.3554 15.0679 18.1568 15.3548 18.1568C15.443 18.1568 15.5533 18.1789 15.6416 18.2009L15.7739 17.7597C15.6857 17.7376 15.5533 17.7376 15.4651 17.7376V17.7375ZM9.53023 17.9582C9.30952 17.8038 9.00068 17.7376 8.66973 17.7376C8.14028 17.7376 7.78731 18.0024 7.78731 18.4215C7.78731 18.7746 8.05204 18.9731 8.51535 19.0393L8.73596 19.0614C8.97867 19.1055 9.11103 19.1717 9.11103 19.2821C9.11103 19.4364 8.93455 19.5468 8.62561 19.5468C8.31676 19.5468 8.07405 19.4364 7.91957 19.3262L7.69897 19.6791C7.94169 19.8556 8.27264 19.9439 8.6035 19.9439C9.22128 19.9439 9.57435 19.6571 9.57435 19.2599C9.57435 18.8849 9.28751 18.6863 8.84621 18.6201L8.62561 18.598C8.42701 18.5759 8.27264 18.5319 8.27264 18.3995C8.27264 18.2451 8.42701 18.1568 8.66973 18.1568C8.93455 18.1568 9.19927 18.2671 9.33164 18.3333L9.53023 17.9582ZM21.8413 17.7376C21.5765 17.7376 21.4 17.87 21.2896 18.0465V17.7818H20.8263V19.8997H21.2896V18.7084C21.2896 18.3554 21.4441 18.1568 21.7308 18.1568C21.8192 18.1568 21.9295 18.1789 22.0178 18.2009L22.1501 17.7597C22.0619 17.7376 21.9295 17.7376 21.8413 17.7376ZM15.9284 18.8407C15.9284 19.4805 16.3696 19.9439 17.0536 19.9439C17.3625 19.9439 17.5831 19.8777 17.8037 19.7012L17.5831 19.3262C17.4066 19.4585 17.2301 19.5247 17.0315 19.5247C16.6565 19.5247 16.3917 19.2599 16.3917 18.8407C16.3917 18.4437 16.6565 18.1788 17.0315 18.1568C17.2301 18.1568 17.4066 18.223 17.5831 18.3554L17.8037 17.9803C17.5831 17.8038 17.3625 17.7376 17.0536 17.7376C16.3696 17.7376 15.9284 18.2009 15.9284 18.8407ZM20.2086 18.8407V17.7818H19.7453V18.0465C19.5908 17.848 19.3702 17.7376 19.0834 17.7376C18.4877 17.7376 18.0244 18.2009 18.0244 18.8407C18.0244 19.4805 18.4877 19.9439 19.0834 19.9439C19.3922 19.9439 19.6129 19.8336 19.7453 19.635V19.8997H20.2086V18.8407ZM18.5097 18.8407C18.5097 18.4657 18.7524 18.1568 19.1495 18.1568C19.5246 18.1568 19.7894 18.4437 19.7894 18.8407C19.7894 19.2158 19.5246 19.5247 19.1495 19.5247C18.7524 19.5026 18.5097 19.2158 18.5097 18.8407ZM12.972 17.7376C12.3542 17.7376 11.9129 18.1788 11.9129 18.8407C11.9129 19.5027 12.3541 19.9439 12.994 19.9439C13.3029 19.9439 13.6118 19.8556 13.8546 19.6571L13.6338 19.3262C13.4574 19.4585 13.2368 19.5468 13.0162 19.5468C12.7293 19.5468 12.4425 19.4144 12.3763 19.0392H13.9428V18.8629C13.9649 18.1788 13.5677 17.7376 12.9719 17.7376H12.972ZM12.972 18.1347C13.2588 18.1347 13.4575 18.3113 13.5015 18.6423H12.3984C12.4425 18.3554 12.6411 18.1347 12.972 18.1347ZM24.4667 18.8407V16.9434H24.0034V18.0465C23.8489 17.848 23.6283 17.7376 23.3415 17.7376C22.7458 17.7376 22.2825 18.2009 22.2825 18.8407C22.2825 19.4805 22.7458 19.9439 23.3415 19.9439C23.6504 19.9439 23.871 19.8336 24.0034 19.635V19.8997H24.4667V18.8407ZM22.7679 18.8407C22.7679 18.4657 23.0105 18.1568 23.4077 18.1568C23.7828 18.1568 24.0475 18.4437 24.0475 18.8407C24.0475 19.2158 23.7828 19.5247 23.4077 19.5247C23.0105 19.5026 22.7679 19.2158 22.7679 18.8407ZM7.27978 18.8407V17.7818H6.81646V18.0465C6.66199 17.848 6.44138 17.7376 6.15455 17.7376C5.55887 17.7376 5.09556 18.2009 5.09556 18.8407C5.09556 19.4805 5.55887 19.9439 6.15455 19.9439C6.4635 19.9439 6.6841 19.8336 6.81646 19.635V19.8997H7.27978V18.8407ZM5.55887 18.8407C5.55887 18.4657 5.80159 18.1568 6.19867 18.1568C6.57375 18.1568 6.83857 18.4437 6.83857 18.8407C6.83857 19.2158 6.57375 19.5247 6.19867 19.5247C5.80159 19.5026 5.55887 19.2158 5.55887 18.8407Z" fill="black"/>
<path d="M9.37695 1.69922H16.3267V14.1868H9.37695V1.69922Z" fill="#FF5F00"/>
<path d="M9.81799 7.94261C9.81799 5.40543 11.0093 3.15497 12.8405 1.69879C11.4948 0.639799 9.79598 0 7.94271 0C3.55206 0 0 3.55206 0 7.94261C0 12.3331 3.55206 15.8852 7.94261 15.8852C9.79588 15.8852 11.4947 15.2454 12.8405 14.1863C11.0093 12.7523 9.81799 10.4798 9.81799 7.94261Z" fill="#EB001B"/>
<path d="M25.7038 7.94261C25.7038 12.3331 22.1517 15.8852 17.7612 15.8852C15.9079 15.8852 14.2091 15.2454 12.8633 14.1863C14.7165 12.7303 15.8859 10.4798 15.8859 7.94261C15.8859 5.40543 14.6944 3.15497 12.8633 1.69879C14.209 0.639799 15.9079 0 17.7612 0C22.1517 0 25.7039 3.57417 25.7039 7.94261H25.7038Z" fill="#F79E1B"/>
</g>
<defs>
<clipPath id="clip0_2386_31515">
<rect width="25.7286" height="20" fill="white"/>
</clipPath>
</defs>
</svg>
