<svg width="24" height="24" viewBox="0 0 24 24" fill="none" xmlns="http://www.w3.org/2000/svg">
<path d="M4 21C4 20.4477 4.44772 20 5 20H19C19.5523 20 20 20.4477 20 21C20 21.5523 19.5523 22 19 22H5C4.44772 22 4 21.5523 4 21Z" fill="#0E0E17"/>
<path fill-rule="evenodd" clip-rule="evenodd" d="M12.4108 3.17449C13.9729 1.6124 16.5056 1.61241 18.0677 3.1745L18.825 3.93186C20.3871 5.49395 20.3871 8.02662 18.825 9.58872L11.919 16.4948C11.6415 16.7722 11.2886 16.9619 10.9042 17.0403L6.40059 17.9582C4.99604 18.2445 3.7552 17.0037 4.04144 15.5991L4.95925 11.0954C5.0376 10.7109 5.22731 10.358 5.50476 10.0805L12.4108 3.17449ZM16.6535 4.58872C15.8724 3.80767 14.6061 3.80767 13.8251 4.58871L13.4134 5.00036L16.9992 8.58614L17.4108 8.1745C18.1919 7.39345 18.1919 6.12712 17.4108 5.34607L16.6535 4.58872ZM8.41339 10.0003L11.9992 6.41457L15.585 10.0003L11.9992 13.5861L8.41339 10.0003ZM6.99918 11.4146L6.91897 11.4948L6.00116 15.9985L10.5047 15.0806L10.585 15.0003L6.99918 11.4146Z" fill="#0E0E17"/>
</svg>
