<svg width="359" height="318" viewBox="0 0 359 318" fill="none" xmlns="http://www.w3.org/2000/svg">
<path d="M0 64C0 41.5979 0 30.3968 4.35974 21.8404C8.19467 14.3139 14.3139 8.19467 21.8404 4.35974C30.3968 0 41.5979 0 64 0H295C317.402 0 328.603 0 337.16 4.35974C344.686 8.19467 350.805 14.3139 354.64 21.8404C359 30.3968 359 41.5979 359 64V254C359 276.402 359 287.603 354.64 296.16C350.805 303.686 344.686 309.805 337.16 313.64C328.603 318 317.402 318 295 318H64C41.5979 318 30.3968 318 21.8404 313.64C14.3139 309.805 8.19467 303.686 4.35974 296.16C0 287.603 0 276.402 0 254V64Z" fill="white"/>
</svg>
