<svg width="20" height="20" viewBox="0 0 20 20" fill="none" xmlns="http://www.w3.org/2000/svg">
<path fill-rule="evenodd" clip-rule="evenodd" d="M10.0005 5.00016C5.95445 5.00016 4.07533 8.14398 3.41451 9.62802C3.30801 9.86721 3.30801 10.1331 3.41452 10.3723C4.07533 11.8563 5.95445 15.0002 10.0005 15.0002C14.0466 15.0002 15.9255 11.8562 16.5862 10.3722C16.6927 10.1331 16.6927 9.86724 16.5862 9.62809C15.9255 8.14411 14.0466 5.00016 10.0005 5.00016ZM1.89197 8.95006C2.61641 7.32313 4.90985 3.3335 10.0005 3.3335C15.0912 3.3335 17.3845 7.32335 18.1088 8.95021C18.4074 9.62086 18.4074 10.3795 18.1088 11.0501C17.3845 12.677 15.0912 16.6668 10.0005 16.6668C4.90985 16.6668 2.61641 12.6772 1.89197 11.0503C1.5933 10.3795 1.5933 9.62079 1.89197 8.95006Z" fill="#6236FF"/>
<path fill-rule="evenodd" clip-rule="evenodd" d="M9.99935 6.6665C8.1584 6.6665 6.66602 8.15889 6.66602 9.99984C6.66602 11.8408 8.1584 13.3332 9.99935 13.3332C11.8403 13.3332 13.3327 11.8408 13.3327 9.99984C13.3327 8.15889 11.8403 6.6665 9.99935 6.6665ZM9.92874 8.33464C9.95215 8.33366 9.97569 8.33317 9.99935 8.33317C10.9198 8.33317 11.666 9.07936 11.666 9.99984C11.666 10.9203 10.9198 11.6665 9.99935 11.6665C9.07887 11.6665 8.33268 10.9203 8.33268 9.99984C8.33268 9.97618 8.33317 9.95264 8.33415 9.92923C8.46406 9.97496 8.6038 9.99984 8.74935 9.99984C9.4397 9.99984 9.99935 9.44019 9.99935 8.74984C9.99935 8.60429 9.97447 8.46455 9.92874 8.33464Z" fill="#6236FF"/>
</svg>
